<?xml version="1.0" encoding="UTF-8" standalone="no"?>
<!-- Created with Inkscape (http://www.inkscape.org/) -->

<svg
   xmlns:dc="http://purl.org/dc/elements/1.1/"
   xmlns:cc="http://creativecommons.org/ns#"
   xmlns:rdf="http://www.w3.org/1999/02/22-rdf-syntax-ns#"
   xmlns:svg="http://www.w3.org/2000/svg"
   xmlns="http://www.w3.org/2000/svg"
   xmlns:sodipodi="http://sodipodi.sourceforge.net/DTD/sodipodi-0.dtd"
   xmlns:inkscape="http://www.inkscape.org/namespaces/inkscape"
   width="165.12842mm"
   height="103.78832mm"
   viewBox="0 0 585.10069 367.7539"
   id="svg2"
   version="1.1"
   inkscape:version="0.91 r13725"
   sodipodi:docname="chuck-never-pulls-wrong.svg">
  <defs
     id="defs4" />
  <sodipodi:namedview
     id="base"
     pagecolor="#ffffff"
     bordercolor="#666666"
     borderopacity="1.0"
     inkscape:pageopacity="0.0"
     inkscape:pageshadow="2"
     inkscape:zoom="0.49497475"
     inkscape:cx="-227.74907"
     inkscape:cy="453.05001"
     inkscape:document-units="px"
     inkscape:current-layer="layer1"
     showgrid="false"
     fit-margin-top="0"
     fit-margin-left="0"
     fit-margin-right="0"
     fit-margin-bottom="0"
     inkscape:window-width="1920"
     inkscape:window-height="1023"
     inkscape:window-x="0"
     inkscape:window-y="1080"
     inkscape:window-maximized="1" />
  <metadata
     id="metadata7">
    <rdf:RDF>
      <cc:Work
         rdf:about="">
        <dc:format>image/svg+xml</dc:format>
        <dc:type
           rdf:resource="http://purl.org/dc/dcmitype/StillImage" />
        <dc:title></dc:title>
      </cc:Work>
    </rdf:RDF>
  </metadata>
  <g
     inkscape:label="Calque 1"
     inkscape:groupmode="layer"
     id="layer1"
     transform="translate(-84.442048,-83.451217)">
    <path
       style="fill:#000000"
       d="m 137.27063,390.74159 c 1.105,-3.48151 -0.38818,-4.65582 -8.52533,-6.70478 -9.12338,-2.29729 -10.29317,-3.4612 -15.56107,-15.48288 -7.33508,-16.7391 -9.22611,-25.14413 -6.41831,-28.52733 1.6153,-1.94632 -1.21959,-6.11673 -10.036337,-14.76448 -6.75815,-6.62857 -12.287535,-13.46113 -12.287535,-15.18345 0,-5.26069 36.371322,-40.20274 49.540612,-47.59384 6.81184,-3.82305 17.8108,-12.45168 24.44215,-19.17472 10.59313,-10.73959 11.88127,-13.02366 10.60984,-18.81253 -1.06515,-4.84955 -3.46408,-7.31814 -9.08791,-9.35173 -4.20242,-1.51962 -10.75018,-6.30438 -14.55057,-10.63279 -13.87982,-15.80825 -6.42763,-32.2701 13.40433,-29.61006 7.00572,0.93965 8.95985,0.46325 8.95985,-2.18438 0,-6.86446 7.43726,-18.75421 14.31377,-22.88308 8.38803,-5.03641 29.56347,-7.85901 35.425,-4.72201 2.47465,1.32438 6.01563,8.52837 8.81922,17.94226 2.57643,8.65114 5.27869,15.72937 6.005,15.72937 0.72633,0 5.31361,-3.60744 10.19395,-8.01653 10.93516,-9.87925 16.58989,-9.50583 16.08009,1.0619 -0.33915,7.0302 -7.51873,18.37723 -7.51873,11.88304 0,-2.05139 -1.8353,-1.84316 -6.91729,0.78486 -5.39686,2.79082 -7.62419,2.9904 -10.13331,0.90801 -1.76882,-1.46798 -3.21601,-1.91423 -3.21601,-0.99167 0,0.92256 -1.54448,0.39556 -3.4322,-1.17109 -1.8877,-1.56666 -4.08325,-2.1974 -4.87899,-1.40164 -0.79575,0.79573 -0.26459,1.44681 1.18033,1.44681 1.44494,0 2.62716,0.84915 2.62716,1.88698 0,1.03783 -3.58399,2.0217 -7.96444,2.18638 -4.38045,0.16461 -9.57253,1.19936 -11.53798,2.29927 -2.87901,1.61118 -2.10161,2.51295 4.00011,4.64002 4.73993,1.65234 7.8475,1.81846 8.30568,0.44395 0.40263,-1.20791 2.27155,-1.60545 4.15315,-0.88342 2.79481,1.07246 2.87124,1.69994 0.41749,3.42756 -2.09538,1.47529 -1.18388,1.82552 3.01439,1.15819 5.96897,-0.94879 5.98777,-0.90891 2.30591,4.89036 -2.04165,3.21581 -5.0031,6.65729 -6.58097,7.64771 -1.57789,0.99043 -2.86887,3.19612 -2.86887,4.90155 0,1.70542 -1.77333,3.51534 -3.94073,4.02205 -2.36068,0.5519 -0.5549,1.62148 4.50369,2.66758 11.74734,2.42929 10.6826,7.32003 -2.81481,12.92929 -10.19974,4.23883 -14.7584,8.58237 -9.00738,8.58237 1.23851,0 2.25184,-1.12176 2.25184,-2.49277 0,-1.37102 1.60052,-1.87858 3.5567,-1.12793 6.00743,2.30526 14.45807,-0.9859 14.45807,-5.63081 0,-2.34275 1.03263,-4.25957 2.29474,-4.25957 2.55398,0 0.58393,11.0671 -2.58548,14.52441 -1.07861,1.17659 -1.96111,3.1436 -1.96111,4.37112 0,1.22753 1.39874,0.319 3.10829,-2.01898 2.98088,-4.07658 3.39216,-3.96701 10.03227,2.67312 3.80819,3.80817 7.38932,6.45861 7.95807,5.88986 3.24925,-3.24925 30.67118,20.02164 30.7283,26.07676 0.0268,2.83922 0.45594,2.98924 1.92463,0.67274 1.52671,-2.40801 2.60249,-2.26885 5.59512,0.72381 4.44629,4.44627 4.42504,2.39315 0.17294,16.71129 -3.1522,10.61459 -3.1703,12.79755 -0.16821,20.3003 1.85005,4.62371 4.03033,18.75576 4.84505,31.40456 1.38029,21.42919 2.72426,29.22528 6.74311,39.11503 1.31703,3.24102 0.3836,3.94073 -5.25712,3.94073 -6.46455,0 -6.94699,-0.61437 -8.39941,-10.69627 -0.8475,-5.88294 -2.40305,-14.74959 -3.4568,-19.70365 -1.69432,-7.96566 -1.79626,-7.56127 -0.88142,3.49662 0.56895,6.87721 -1.51624,19.08548 2.47439,19.70365 l 1.4399,7.19965 -12.66663,0 c -9.75799,0 -12.66663,-0.77562 -12.66663,-3.37777 0,-2.10171 2.12673,-3.37777 5.62961,-3.37777 3.9909,0 5.62962,-1.22149 5.62962,-4.19622 0,-5.11178 -8.02092,-5.32519 -11.55614,-0.30747 -1.99876,2.83697 -2.17681,2.74683 -1.11212,-0.56296 0.69722,-2.1674 0.28614,-3.94073 -0.91348,-3.94073 -1.19965,0 -2.18119,-1.5798 -2.18119,-3.51067 0,-1.93087 -0.91882,-2.9428 -2.04183,-2.24874 -1.12302,0.69406 -1.53858,-0.66254 -0.92349,-3.01466 0.6151,-2.35212 -0.0716,-6.50018 -1.52616,-9.21789 -1.45447,-2.71773 -3.0399,-8.06563 -3.5232,-11.88427 -0.48326,-3.81864 -2.171,-7.85577 -3.75049,-8.97142 -2.28121,-1.61129 -2.29294,-2.26333 -0.057,-3.17058 1.54814,-0.6282 2.81481,-3.42204 2.81481,-6.20854 0,-9.11849 -5.06076,-30.50936 -6.94285,-29.34615 -1.01121,0.62496 -2.90274,-0.85212 -4.20341,-3.28242 -3.4526,-6.45125 -2.88905,-8.52051 0.94134,-3.45631 4.2479,5.61623 4.30418,3.4793 0.15966,-6.06661 -2.37617,-5.47302 -3.334,-6.32645 -3.4494,-3.07334 -0.15718,4.42933 -0.21393,4.43206 -3.44265,0.16438 -1.80557,-2.38662 -3.74961,-3.87257 -4.32007,-3.30211 -0.57044,0.57044 0.0901,8.60311 1.4677,17.85036 1.37771,9.24728 2.93175,15.54655 3.45343,13.9984 1.52216,-4.51704 5.07693,-3.24149 5.07693,1.82179 0,2.81674 -0.97852,4.03182 -2.49309,3.09577 -1.72406,-1.06553 -1.95068,0.10921 -0.73471,3.80783 0.9671,2.94176 3.01615,10.4153 4.55341,16.60788 1.53729,6.19257 2.88124,9.4859 2.98658,7.3185 0.23307,-4.79603 3.73277,-5.19312 5.48667,-0.62253 0.70032,1.82503 -0.39209,4.25023 -2.42758,5.38935 -2.7752,1.55307 -3.66801,5.2291 -3.5694,14.69656 0.13398,12.86434 -0.34458,13.48619 -9.80314,12.7386 -3.02806,-0.23933 -5.27547,1.15936 -5.93137,3.69147 -0.96719,3.73388 -1.07798,3.74534 -1.31724,0.13601 -0.20356,-3.071 -2.30235,-3.94073 -9.50952,-3.94073 -7.50808,0 -8.9911,0.67024 -7.88146,3.56195 0.75178,1.95906 1.43808,4.23905 1.52513,5.06665 0.0869,0.82765 1.02914,-0.52188 2.09357,-2.99891 1.42008,-3.3047 1.97743,-3.55578 2.09358,-0.94312 0.11845,2.66666 2.56096,3.55478 9.72861,3.53762 5.26369,-0.0135 12.61033,0.78124 16.32588,1.7641 13.90197,3.67751 -2.0245,5.45742 -50.25532,5.61642 -45.94351,0.15155 -47.94599,-0.0227 -46.66386,-4.06249 z m 35.15169,-6.4755 c 0.13849,-3.44681 0.37131,-3.39688 1.85807,0.39833 1.52094,3.88248 1.85228,3.94172 3.14882,0.56296 0.79695,-2.07685 0.72082,-3.8514 -0.16911,-3.94343 -0.89002,-0.0921 -3.89822,-0.59235 -6.68487,-1.1118 -3.8759,-0.72248 -5.06666,0.11056 -5.06666,3.5451 0,5.52297 6.69271,6.05425 6.91382,0.54884 z m 17.85649,-0.56296 c 0,-2.0642 -1.52,-3.75308 -3.37777,-3.75308 -1.85777,0 -3.37777,1.68888 -3.37777,3.75308 0,2.0642 1.52,3.75309 3.37777,3.75309 1.85777,0 3.37777,-1.68889 3.37777,-3.75309 z m 9.00738,0 c 0,-2.50205 -1.50124,-4.50369 -3.37777,-4.50369 -1.87653,0 -3.37776,2.00164 -3.37776,4.50369 0,2.50205 1.50123,4.50369 3.37776,4.50369 1.87653,0 3.37777,-2.00164 3.37777,-4.50369 z m 31.52585,-31.15053 c 0,-2.93208 -2.67693,-4.88209 -4.85451,-3.53627 -2.32891,1.43936 -0.32078,5.41281 2.73556,5.41281 1.16542,0 2.11895,-0.84445 2.11895,-1.87654 z m 43.97542,-15.86344 c -3.42783,-3.38193 -3.52977,-3.19375 -1.37604,2.54002 1.27934,3.40591 1.78468,6.19257 1.12297,6.19257 -0.66168,0 -0.38452,1.26667 0.61593,2.81481 1.24865,1.93222 2.05733,1.13581 2.57913,-2.54002 0.41805,-2.94514 -0.90583,-6.99846 -2.94199,-9.00738 z M 225.48201,320.2882 c -3.12464,-12.80462 -6.27335,-26.10923 -6.99714,-29.56581 -1.82222,-8.70248 -5.83471,-5.3714 -4.28486,3.55717 3.1211,17.98034 14.01614,52.23684 15.9868,50.2662 0.53702,-0.53702 -1.58014,-11.45293 -4.7048,-24.25756 z m -9.32292,11.64826 c 0.78892,-1.27648 -0.11507,-1.65398 -2.11894,-0.885 -3.90114,1.49701 -4.61491,3.11106 -1.37579,3.11106 1.16542,0 2.73807,-1.00173 3.49473,-2.22606 z m 58.97628,-4.9517 c -0.71884,-1.79636 -1.25244,-1.26279 -1.36048,1.3605 -0.0977,2.37381 0.43443,3.70382 1.18271,2.95555 0.74827,-0.74829 0.82826,-2.69051 0.17768,-4.31605 z m -59.10844,-5.10489 c -0.42699,-2.53341 -1.42285,-8.65951 -2.213,-13.61358 -0.79015,-4.95406 -2.35547,-9.97004 -3.47849,-11.14663 -2.84589,-2.98165 -2.62685,4.72005 0.2892,10.16875 1.28211,2.3956 1.41457,4.35565 0.29436,4.35565 -1.1202,0 -1.91584,3.46334 -1.7681,7.6963 0.19704,5.64567 1.25227,7.62292 3.9605,7.421 2.4129,-0.17992 3.42294,-1.87104 2.91553,-4.88149 z m -23.92647,-11.92469 c 23.44528,-24.28598 27.72554,-34.17541 16.75608,-38.71421 -17.34054,-7.17494 -18.24752,-8.27875 -18.18215,-22.1283 0.0851,-18.04778 -0.009,-18.53506 -3.6216,-18.53506 -3.69017,0 -4.91776,3.3421 -7.0306,19.14069 -0.91589,6.84843 -3.14752,12.58246 -5.69658,14.637 -3.17706,2.56069 -4.43562,7.32699 -5.20283,19.70365 -0.57005,9.196 -0.10516,16.32588 1.06463,16.32588 1.14214,0 2.07663,-2.22034 2.07663,-4.93408 0,-4.80555 0.0831,-4.8206 3.18582,-0.57722 1.93315,2.64374 2.32452,4.88916 0.99534,5.71064 -2.49407,1.54143 -0.26477,12.68298 2.93319,14.65942 1.25176,0.77363 1.0379,2.59902 -0.5252,4.48242 -1.4503,1.7475 -1.87545,3.17728 -0.94476,3.17728 0.93069,0 7.3171,-5.82665 14.19203,-12.94811 z m -4.00828,-9.48239 c -1.8219,-1.1522 -2.76126,-2.64621 -2.08746,-3.32001 0.67379,-0.67382 3.17778,0.25219 5.5644,2.05778 4.74774,3.59188 1.86281,4.63919 -3.47694,1.26223 z m 82.53949,10.74905 c -0.71883,-1.79636 -1.25243,-1.26279 -1.36047,1.3605 -0.0977,2.37381 0.43442,3.70381 1.18271,2.95555 0.74827,-0.74827 0.82825,-2.69048 0.17767,-4.31605 z m -98.36763,-5.20739 c 0,-1.85777 -0.98153,-3.37777 -2.18116,-3.37777 -1.19965,0 -1.59791,1.52 -0.88502,3.37777 0.71291,1.85777 1.69443,3.37777 2.18118,3.37777 0.48676,0 0.885,-1.52 0.885,-3.37777 z M 277.88683,289.1256 c -3.81033,-6.19257 -7.40743,-11.25922 -7.99354,-11.25922 -1.14411,0 -0.55501,1.10338 7.51428,14.07403 2.88939,4.64443 5.73799,8.44442 6.33027,8.44442 0.59229,0 -2.04069,-5.06665 -5.85101,-11.25923 z m -57.2081,-40.53322 c 0.76545,-1.23852 -0.24788,-2.25185 -2.25185,-2.25185 -2.00396,0 -3.01729,1.01333 -2.25184,2.25185 0.76544,1.23851 1.77878,2.25184 2.25184,2.25184 0.47307,0 1.4864,-1.01333 2.25185,-2.25184 z M 208.47154,231.6115 c 3.69041,-1.90837 7.94674,-2.84656 9.45852,-2.08485 1.51177,0.76171 0.72201,-0.25952 -1.75502,-2.26945 -2.47703,-2.00991 -4.50369,-5.88504 -4.50369,-8.6114 0,-4.16395 -1.26097,-4.95703 -7.88147,-4.95703 -7.22398,0 -7.89346,0.56354 -8.02528,6.75554 -0.12295,5.77654 3.08595,14.63699 5.30102,14.63699 0.38284,0 3.7155,-1.5614 7.40592,-3.4698 z m -29.45196,-6.38779 c 0,-0.46759 -1.77333,-2.24092 -3.94073,-3.94073 -3.57156,-2.801 -3.65121,-2.72135 -0.85018,0.85021 2.94172,3.75101 4.79091,4.94388 4.79091,3.09052 z m 64.20031,165.19823 c 0.77794,-1.25871 2.35772,-1.70559 3.51067,-0.99302 3.1234,1.93035 2.541,3.2816 -1.41443,3.2816 -1.93087,0 -2.87417,-1.02986 -2.09624,-2.28858 z m 7.85876,-0.0962 c 0,-1.31161 1.01333,-1.75847 2.25184,-0.99302 1.23852,0.76545 2.25185,1.83859 2.25185,2.38475 0,0.54616 -1.01333,0.99302 -2.25185,0.99302 -1.23851,0 -2.25184,-1.07314 -2.25184,-2.38475 z m -10.58147,-18.44483 -0.2802,-7.3185 2.45706,6.10528 c 1.35138,3.35788 4.04859,6.53366 5.9938,7.05726 1.94519,0.52362 0.96562,1.06958 -2.17685,1.21325 -4.94567,0.22611 -5.75126,-0.72244 -5.99381,-7.05729 z"
       id="path4151"
       inkscape:connector-curvature="0"
       sodipodi:nodetypes="cssssssssssssssssssssssscsscsscssssssssssssssssssssssssssssssscsssssssssscsscscsssssssssscsssssssssscsccsscccsscssccsssssssssssssssssssssssssscsscccccssssssssssssssssscsssssscsscccccsssssssssssssssssssssssssssccscsssssscscss" />
    <path
       style="fill:#000000"
       d="m 302.0132,394.03832 c -0.8685,-0.8685 -1.57909,-9.51682 -1.57909,-19.21854 l 0,-17.63945 10.13331,0 c 10.48369,0 19.14069,5.52884 19.14069,12.2243 0,4.92826 -6.46534,10.29416 -12.40333,10.29416 -4.35982,0 -5.4541,1.32438 -6.03172,7.30005 -0.67295,6.9617 -5.59548,10.70388 -9.25986,7.03948 z m 16.14042,-21.86522 c 2.75549,-3.32017 1.21577,-5.98539 -3.45783,-5.98539 -1.65134,0 -3.00245,2.02666 -3.00245,4.50369 0,5.19578 2.83771,5.84663 6.46028,1.4817 z m 19.6539,18.22196 c -4.69462,-4.20037 -5.75531,-7.37674 -6.20379,-18.57773 -0.52679,-13.15693 -0.38164,-13.52975 5.53725,-14.22361 6.00123,-0.70352 6.0782,-0.54305 6.0782,12.67238 0,9.46541 1.04439,14.25168 3.56652,16.34489 6.4542,5.35651 10.98973,-0.22854 11.74581,-14.46379 0.5776,-10.87446 1.311,-12.71503 5.06665,-12.71503 3.82596,0 4.39133,1.60775 4.39133,12.4875 0,10.2559 -0.98777,13.4753 -5.52727,18.01477 -7.02132,7.02135 -17.11133,7.20985 -24.6547,0.46062 z m 32.43381,-14.07404 c 0,-17.24434 0.42018,-19.14069 4.24106,-19.14069 4.88694,0 6.94274,5.79711 6.98744,19.70365 0.0279,8.69895 0.54332,9.57034 5.66035,9.57034 3.29193,0 5.62961,1.29356 5.62961,3.11514 0,3.41405 -6.68348,5.81361 -16.32588,5.86151 l -6.19258,0.0306 0,-19.14069 z m 26.17771,12.10367 c -0.77407,-3.87036 -1.4074,-12.48367 -1.4074,-19.14069 0,-11.40936 0.32294,-12.10367 5.62961,-12.10367 5.42754,0 5.62962,0.52542 5.62962,14.637 0,14.11157 0.20199,14.63699 5.62961,14.63699 7.07235,0 7.49743,5.72971 0.56296,7.58807 -11.03974,2.95855 -14.57685,1.72007 -16.0444,-5.6177 z m 31.80733,5.48475 c -2.16741,-0.56638 -3.94074,-3.00148 -3.94074,-5.41129 0,-3.59911 1.10575,-4.14536 6.19258,-3.05918 l 6.19258,1.32228 -6.22746,-4.87038 c -9.91395,-7.75353 -11.27429,-12.06476 -5.94469,-18.84027 3.04316,-3.86874 6.80242,-5.87027 11.02548,-5.87027 12.20868,0 16.11829,3.69176 11.54729,10.90382 -1.5894,2.50772 -2.72428,2.51731 -6.66486,0.0563 -3.77046,-2.35469 -5.32284,-2.39241 -7.53226,-0.18308 -2.20945,2.20944 -1.29283,4.14407 4.44748,9.38702 7.70246,7.03513 8.88444,11.05875 4.52826,15.41492 -2.7268,2.72681 -6.40242,3.03707 -13.62366,1.14995 z m 45.59987,-15.33658 c 0,-9.28886 -0.25333,-17.64884 -0.56296,-18.57772 -0.9222,-2.7666 18.02621,-3.26842 22.99538,-0.60902 5.5111,2.94947 6.22804,13.89786 1.1842,18.08386 -2.72946,2.26526 -2.85572,3.48883 -0.63599,6.16343 3.92013,4.7235 -5.2992,11.8283 -15.34862,11.8283 l -7.63201,0 z m 15.76293,7.88146 c 0,-1.23851 -1.57981,-2.25184 -3.51068,-2.25184 -1.93087,0 -2.88439,1.01333 -2.11894,2.25184 0.76545,1.23852 2.34525,2.25185 3.51067,2.25185 1.16542,0 2.11895,-1.01333 2.11895,-2.25185 z m 1.68994,-15.19995 c 0.54972,-1.65101 -1.00243,-2.81481 -3.75414,-2.81481 -2.76601,0 -4.69134,1.45399 -4.69134,3.54287 0,4.13862 7.02675,3.53286 8.44548,-0.72806 z m 13.32237,22.7061 c -0.82569,-0.82566 -1.50124,-9.48527 -1.50124,-19.24358 l 0,-17.74234 15.19996,0.66585 c 13.47678,0.59037 15.19996,1.17641 15.19996,5.16954 0,3.68862 -1.73205,4.62901 -9.57034,5.19614 -7.73705,0.55978 -9.57035,1.53035 -9.57035,5.06665 0,3.16459 1.55677,4.37421 5.62962,4.37421 7.75724,0 7.28481,6.20566 -0.56297,7.3945 -5.13443,0.77779 -4.79082,0.99574 2.01092,1.27549 7.56146,0.31098 12.61397,4.66553 9.28081,7.99869 -1.84253,1.84255 -24.25182,1.70942 -26.11637,-0.15515 z m 32.0888,0.57316 c -0.51605,-0.51042 -0.60777,-9.12373 -0.20379,-19.14069 l 0.73437,-18.21261 14.46555,0 c 13.92865,0 14.46552,0.20897 14.46552,5.62961 0,5.17092 -0.82569,5.62962 -10.13331,5.62962 -8.63207,0 -10.13331,0.66722 -10.13331,4.50369 0,3.30271 1.50124,4.50369 5.62962,4.50369 3.50288,0 5.62961,1.27605 5.62961,3.37777 0,2.10172 -2.12673,3.37777 -5.62961,3.37777 -4.50369,0 -5.62962,1.12592 -5.62962,5.62961 0,3.9578 -1.22599,5.62962 -4.12837,5.62962 -2.27063,0 -4.55062,-0.41763 -5.06666,-0.92808 z m 37.24076,-4.59919 c -15.39465,-15.39463 3.00342,-40.36173 22.20588,-30.13445 7.21843,3.84455 10.40499,8.90418 10.40499,16.52103 0,16.64082 -20.87092,25.3534 -32.61087,13.61342 z m 22.38215,-8.54677 c 3.20589,-5.12004 -0.59671,-11.54386 -7.43377,-12.558 -9.36898,-1.38973 -15.11808,8.57041 -8.66927,15.01922 3.79504,3.79504 13.07373,2.37687 16.10304,-2.46122 z m 12.62381,-4.91004 0,-19.2973 10.1333,0 c 10.4837,0 19.14069,5.52884 19.14069,12.2243 0,3.85541 -6.0145,10.26416 -9.73119,10.36908 -1.45967,0.0412 -0.21167,2.10831 2.77317,4.59358 4.08134,3.39815 4.78675,5.15905 2.84464,7.10115 -1.9421,1.94211 -3.93996,1.30724 -8.05669,-2.56021 l -5.4742,-5.14274 -0.7482,5.28515 c -0.49166,3.4729 -2.48554,5.53188 -5.81487,6.00472 -4.91612,0.69821 -5.06665,0.14637 -5.06665,-18.57773 z m 18.74585,-2.76423 c 1.70471,-1.70471 -2.55756,-7.52569 -5.51049,-7.52569 -1.08688,0 -1.97613,2.02666 -1.97613,4.50369 0,4.32729 4.40375,6.10487 7.48662,3.022 z m 12.77999,4.97183 c 0,-9.35065 -0.25333,-17.76121 -0.56296,-18.69009 -0.30963,-0.92889 6.35378,-1.99028 14.8076,-2.35863 14.9053,-0.64946 15.34838,-0.51313 14.63699,4.50369 -0.6147,4.33519 -2.28425,5.28562 -10.3039,5.86588 -7.73705,0.55978 -9.57035,1.53035 -9.57035,5.06665 0,3.16459 1.55677,4.37421 5.62962,4.37421 7.75725,0 7.28481,6.20566 -0.56296,7.3945 -4.2652,0.64612 -3.16252,1.0431 3.54287,1.27549 7.96093,0.2759 9.59876,1.05569 8.98552,4.27813 -0.59161,3.10853 -3.47969,4.08333 -13.6762,4.61605 l -12.92623,0.67536 z m -317.51027,-46.27521 0,-18.01476 -6.91215,0 c -5.88014,0 -6.80472,-0.75649 -6.19258,-5.06666 0.67965,-4.78551 1.88471,-5.1027 21.71714,-5.71633 20.74909,-0.642 20.98889,-0.58872 20.26661,4.50369 -0.56431,3.97859 -2.39929,5.31422 -8.04945,5.85901 l -7.31849,0.70564 0,17.87209 0,17.87209 -6.75554,0 -6.75554,0 z m 31.52584,-4.50369 0,-22.51846 6.75554,0 c 6.57435,0 6.75554,0.29191 6.75554,10.88392 0,5.98617 0.43521,11.31913 0.96712,11.85106 0.53193,0.53191 5.38394,0.61583 10.78224,0.18645 l 9.81512,-0.78063 -0.086,-11.63339 c -0.0808,-10.9306 0.25415,-11.63333 5.54369,-11.63333 5.59703,0 5.63333,0.13353 6.27134,23.08142 l 0.64176,23.08142 -5.70841,0 c -4.86417,0 -5.70838,-1.01732 -5.70838,-6.87892 0,-6.80152 -0.12025,-6.87119 -10.69627,-6.19257 -9.79533,0.62853 -10.75628,1.20793 -11.4088,6.87891 -0.59676,5.18632 -1.78596,6.19258 -7.3185,6.19258 l -6.60597,0 z m 50.95993,17.45181 c -0.7468,-2.78666 -1.37167,-13.46609 -1.38858,-23.73205 l -0.0306,-18.66541 19.70366,0.65064 c 19.3425,0.6387 19.70365,0.75381 19.70365,6.28024 0,5.27392 -0.81812,5.67229 -12.94812,6.30495 -12.61671,0.65805 -12.94811,0.84172 -12.94811,7.17582 0,5.68792 0.91483,6.5887 7.3185,7.20613 4.02517,0.38811 7.3185,1.71897 7.3185,2.95749 0,1.23851 -3.29333,2.56938 -7.3185,2.95748 -11.69053,1.12716 -8.59316,5.34352 3.37777,4.59804 9.57471,-0.59626 10.77173,-0.14186 11.41584,4.33361 0.68828,4.78218 -0.0113,4.99971 -16.06325,4.99971 -15.50085,0 -16.88654,-0.38702 -18.14062,-5.06665 z m 68.3879,-16.32589 c 0,-11.76589 -0.0112,-22.15253 -0.0259,-23.08142 -0.0135,-0.92888 5.36547,-1.987 11.95491,-2.35137 14.09933,-0.77966 24.10052,5.1699 24.10052,14.337 0,5.53871 -7.0281,14.47356 -11.38479,14.47356 -1.30758,0 0.46575,2.46958 3.94073,5.48793 5.99193,5.2046 6.11745,5.69179 2.43102,9.43632 -2.13792,2.17159 -4.21545,3.50202 -4.61676,2.95649 -0.40127,-0.54555 -3.46541,-4.36297 -6.80915,-8.48318 l -6.07951,-7.49126 0,8.05423 c 0,7.44793 -0.50856,8.05424 -6.75554,8.05424 l -6.75554,0 z m 23.70534,-5.72826 c 1.81643,-2.93902 -2.93607,-8.90873 -7.09221,-8.90873 -1.80762,0 -3.10205,2.34914 -3.10205,5.62961 0,4.07134 1.20985,5.62962 4.37079,5.62962 2.40393,0 5.0245,-1.05772 5.82347,-2.3505 z m 14.57604,3.57113 0,-23.73909 19.14069,0 19.14069,0 0,6.75553 c 0,6.68731 -0.1252,6.75554 -12.38515,6.75554 -12.26004,0 -12.38515,0.0682 -12.38515,6.75554 0,6.00493 0.75061,6.75554 6.75554,6.75554 4.50369,0 6.75554,1.12592 6.75554,3.37777 0,2.25184 -2.25185,3.37777 -6.75554,3.37777 -3.71555,0 -6.75554,1.10459 -6.75554,2.45466 0,1.53462 4.00912,2.16763 10.69627,1.68889 9.4503,-0.67659 10.69627,-0.24117 10.69627,3.73791 0,4.05969 -1.72046,4.56852 -17.45181,5.16136 l -17.45181,0.6577 z m 42.78508,-0.0948 0,-23.64438 13.51107,0 c 10.50862,0 14.51189,1.00081 18.01477,4.50369 9.12783,9.12783 4.32789,21.77319 -9.07845,23.91694 -8.6293,1.37996 -8.93632,1.72863 -8.93632,10.14865 0,8.18719 -0.41247,8.71957 -6.75554,8.71957 l -6.75553,0 0,-23.64438 z m 22.4366,-4.40506 c 3.40576,-4.10361 1.19328,-7.98 -4.55474,-7.98 -3.16094,0 -4.37079,1.55827 -4.37079,5.62961 0,6.27684 4.65054,7.50153 8.92553,2.35048 z m 23.50105,20.39325 c -10.6522,-10.65219 -10.6522,-21.32403 0,-31.97621 6.27657,-6.27657 9.36061,-7.65627 17.11403,-7.65627 7.75342,0 10.83746,1.3797 17.11403,7.65627 16.26896,16.26896 5.4496,39.63249 -18.35331,39.63249 -6.34404,0 -9.96469,-1.74622 -15.87475,-7.65628 z m 26.12141,-5.85479 c 5.47953,-5.47953 5.72953,-10.67601 0.77691,-16.14858 -7.44361,-8.22509 -23.29536,-2.25864 -23.29536,8.76817 0,4.42884 8.4759,11.8841 13.51107,11.8841 2.47703,0 6.53035,-2.02666 9.00738,-4.50369 z M 318.44888,287.37311 c 0,-3.00246 -1.50124,-4.5037 -4.50369,-4.5037 -2.866,0 -4.5037,-1.50123 -4.5037,-4.12837 0,-6.26889 2.57145,-7.53963 7.05189,-3.48489 4.02573,3.64324 10.96288,2.92314 10.96288,-1.13799 0,-1.17538 -3.79999,-3.99386 -8.44442,-6.26324 -4.64443,-2.26941 -8.75142,-5.79231 -9.12662,-7.82868 -0.83188,-4.51486 13.42701,-15.48513 14.79458,-11.38241 0.49496,1.48485 2.33548,2.69974 4.09003,2.69974 1.75457,0 3.19012,2.02666 3.19012,4.50369 0,2.47703 -1.01333,4.5037 -2.25184,4.5037 -1.23852,0 -2.25185,-1.01334 -2.25185,-2.25185 0,-1.23852 -2.53333,-2.25185 -5.62961,-2.25185 -8.21728,0 -6.88813,5.39572 2.13268,8.65768 4.26927,1.54379 8.40632,4.83597 9.19343,7.31597 1.58752,5.00185 -2.29716,11.0485 -7.09814,11.0485 -1.70613,0 -3.10205,2.02667 -3.10205,4.5037 0,2.47703 -1.01333,4.50369 -2.25185,4.50369 -1.23851,0 -2.25184,-2.02666 -2.25184,-4.50369 z m 29.39744,-6.6321 c -6.61712,-6.61711 -6.26693,-20.31635 0.68634,-26.8486 7.20625,-6.76992 22.46221,-5.72002 23.55417,1.62097 0.84267,5.66502 -2.94618,6.31042 -7.90929,1.34733 -4.79094,-4.79096 -10.0102,-3.28743 -14.12542,4.06913 -3.10494,5.55055 -3.10514,6.80435 -0.002,12.36923 3.62727,6.50509 12.308,9.34703 16.31406,5.34097 1.64387,-1.64385 0.37072,-3.2116 -4.20044,-5.1724 l -6.55926,-2.81359 8.67032,-0.79724 c 4.76869,-0.4385 9.04184,-0.42578 9.49588,0.0284 0.45406,0.45404 0.0315,3.8146 -0.93875,7.46789 -1.54787,5.82753 -2.90477,6.72655 -11.06132,7.32874 -6.99844,0.51671 -10.44102,-0.4576 -13.92415,-3.94073 z m 33.65424,2.28502 c 0,-1.15238 2.28,-2.41905 5.06666,-2.81481 4.41397,-0.62689 5.15434,-2.2425 5.74729,-12.54177 0.60656,-10.53526 0.19208,-11.82219 -3.80782,-11.82219 -2.46868,0 -5.11476,-1.01333 -5.8802,-2.25184 -0.86406,-1.39808 3.35439,-2.25185 11.12632,-2.25185 6.88493,0 12.51806,1.01333 12.51806,2.25185 0,1.23851 -2.02666,2.25184 -4.50369,2.25184 -3.9578,0 -4.5037,1.50124 -4.5037,12.38516 0,10.88391 0.5459,12.38515 4.5037,12.38515 2.47703,0 4.50369,1.01333 4.50369,2.25184 0,1.23852 -5.57332,2.25185 -12.38515,2.25185 -6.81184,0 -12.38516,-0.94285 -12.38516,-2.09523 z m 39.40731,-0.1565 c -0.76545,-1.23852 0.69474,-2.25185 3.24486,-2.25185 4.11887,0 4.6366,-1.3829 4.6366,-12.38515 0,-10.88392 -0.5459,-12.38515 -4.5037,-12.38515 -3.00245,0 -4.50369,1.50123 -4.50369,4.50369 0,2.47703 -1.01333,4.50369 -2.25184,4.50369 -1.23852,0 -2.25185,-3.03999 -2.25185,-6.75554 l 0,-6.75554 15.76292,0 15.76292,0 0,6.75554 c 0,7.62842 -3.36576,9.09836 -5.15616,2.25185 -0.64777,-2.47703 -2.7926,-4.50369 -4.76633,-4.50369 -2.84856,0 -3.58858,2.55397 -3.58858,12.38515 0,11.00225 0.51772,12.38515 4.63659,12.38515 2.55013,0 4.01032,1.01333 3.24487,2.25185 -0.76545,1.23851 -5.32544,2.25184 -10.13331,2.25184 -4.80787,0 -9.36786,-1.01333 -10.1333,-2.25184 z m 67.55537,0 c -0.76544,-1.23852 0.18803,-2.25185 2.11894,-2.25185 5.2977,0 4.93463,-22.06694 -0.43005,-26.13931 -3.41313,-2.59093 -2.06702,-3.00104 10.05408,-3.06308 11.81877,-0.0606 14.37667,0.64189 16.45064,4.51714 3.51398,6.56598 0.63745,13.2009 -6.3882,14.73479 -10.11567,2.20852 -11.6721,2.95353 -11.6721,5.5869 0,1.39335 2.02666,3.06332 4.50369,3.71109 2.47703,0.64776 4.50369,2.07289 4.50369,3.16695 0,2.75367 -17.42426,2.51459 -19.14069,-0.26263 z m 22.51846,-21.39254 c 0,-3.23914 -1.73874,-4.70377 -6.19257,-5.21622 -5.36793,-0.61766 -6.19258,0.077 -6.19258,5.21622 0,5.13925 0.82465,5.83388 6.19258,5.21622 4.45383,-0.51247 6.19257,-1.97707 6.19257,-5.21622 z m 19.21991,19.28873 c -1.28209,-2.39561 -2.33106,-8.77959 -2.33106,-14.18663 0,-5.40704 -1.216,-11.04697 -2.70222,-12.53319 -2.10171,-2.10172 -1.1009,-2.70222 4.50369,-2.70222 3.96325,0 7.20591,1.01333 7.20591,2.25185 0,1.23852 -1.01333,2.25185 -2.25185,2.25185 -1.23851,0 -2.25184,4.43591 -2.25184,9.85756 0,11.40457 4.75436,17.26858 10.88502,13.42558 4.28857,-2.6883 6.72056,-23.28314 2.74943,-23.28314 -1.30636,0 -2.37522,-1.01333 -2.37522,-2.25185 0,-1.23852 3.24265,-2.25185 7.2059,-2.25185 5.6046,0 6.60541,0.6005 4.5037,2.70222 -1.48622,1.48622 -2.70222,7.12615 -2.70222,12.53319 0,13.97676 -3.04949,18.54228 -12.38515,18.54228 -5.33084,0 -8.44505,-1.34915 -10.05409,-4.35565 z m 32.5006,-0.37471 c -2.19192,-6.90619 2.38997,-10.4648 5.64441,-4.38383 1.87248,3.49876 4.3167,4.68283 8.63378,4.18249 8.55578,-0.9916 9.37901,-8.01826 1.14333,-9.75896 -10.00725,-2.11516 -13.04636,-4.47633 -13.79564,-10.71827 -0.85953,-7.16021 5.58201,-11.2089 15.96849,-10.03661 5.41659,0.61136 7.4297,2.06332 7.96746,5.74665 0.86511,5.92541 -1.16216,6.24502 -6.86667,1.08253 -3.15206,-2.8526 -5.1991,-3.2473 -7.92474,-1.52802 -6.12605,3.86422 -5.74054,7.38545 0.96375,8.80292 9.6841,2.04747 13.03789,4.43933 13.84389,9.87319 1.14171,7.69697 -3.5841,11.46827 -14.37087,11.46827 -7.88315,0 -9.98777,-0.88833 -11.20719,-4.73036 z m 34.97556,2.61142 c 0,-1.16542 1.01333,-2.74522 2.25184,-3.51067 3.17027,-1.95933 2.81233,-22.18316 -0.45037,-25.44586 -2.10171,-2.10172 -1.1009,-2.70222 4.5037,-2.70222 3.96325,0 7.2059,1.01333 7.2059,2.25185 0,1.23852 -1.01333,2.25185 -2.25184,2.25185 -1.23852,0 -2.25185,2.02666 -2.25185,4.50369 0,3.3176 1.50124,4.50369 5.70028,4.50369 7.2826,0 9.71516,-5.9576 4.15252,-10.16988 -3.88415,-2.94122 -3.52313,-3.20372 4.49695,-3.26959 7.49318,-0.0615 8.32638,0.40288 5.92153,3.30053 -1.8201,2.1931 -2.45677,8.0982 -1.82091,16.88885 0.91341,12.62781 0.65974,13.5167 -3.85733,13.5167 -6.71716,0 -8.46115,-2.42524 -4.05886,-5.64429 5.18895,-3.79425 2.16765,-10.11863 -4.8339,-10.11863 -4.57906,0 -5.70028,1.1073 -5.70028,5.62962 0,3.09628 1.01333,5.62961 2.25185,5.62961 1.23851,0 2.25184,1.01333 2.25184,2.25185 0,1.23851 -3.03999,2.25184 -6.75553,2.25184 -3.71555,0 -6.75554,-0.95352 -6.75554,-2.11894 z m -302.15045,-54.234 c -5.51372,-5.51369 -6.52034,-7.9818 -5.28097,-12.94811 2.079,-8.33075 7.12476,-13.48135 14.87435,-15.18345 8.65161,-1.90022 15.58002,0.54974 15.58002,5.50927 0,3.04418 -1.32512,3.78637 -5.37727,3.01173 -7.77592,-1.48646 -14.88934,3.06841 -14.88934,9.53394 0,6.22032 7.17337,11.13819 13.74128,9.42064 3.09312,-0.80886 4.27349,0.0682 4.27349,3.17533 0,7.39161 -14.61723,5.78501 -22.92156,-2.51935 z m 29.6771,-10.07662 c 0,-15.38761 0.40033,-16.88885 4.50369,-16.88885 3.75308,0 4.50369,1.50124 4.50369,9.00739 0,9.00738 0,9.00738 9.00738,9.00738 8.98491,0 9.00739,-0.0225 9.00739,-8.87448 0,-7.49216 3.12792,-13.80652 5.47613,-11.05467 0.37002,0.43366 1.3582,8.64177 2.19593,18.24026 1.44589,16.56674 1.28997,17.45181 -3.07447,17.45181 -3.43177,0 -4.59759,-1.46197 -4.59759,-5.76556 0,-5.28542 -0.70321,-5.70732 -8.44443,-5.06665 -6.78305,0.56141 -8.58599,1.69573 -9.164,5.76556 -0.46243,3.25608 -2.27301,5.06665 -5.06665,5.06665 -3.90846,0 -4.34707,-1.70406 -4.34707,-16.88884 z m 42.94851,10.95554 c -3.40441,-4.328 -4.66713,-9.20201 -4.66713,-18.01477 0,-11.38567 0.32422,-12.08146 5.62961,-12.08146 5.36637,0 5.62962,0.61887 5.62962,13.23533 0,14.47982 3.34155,19.67756 11.07293,17.22372 4.96629,-1.57625 8.20976,-13.06177 6.38468,-22.60903 -0.84868,-4.43958 -0.14659,-5.59818 3.39191,-5.59818 4.07188,0 4.37471,1.208 3.46289,13.81368 -1.15603,15.98209 -4.71109,19.96401 -17.82383,19.96401 -6.40718,0 -9.5265,-1.4149 -13.08068,-5.9333 z m 39.57268,0.41121 c -7.91858,-7.3387 -7.70321,-15.59804 0.62389,-23.92512 9.02693,-9.02695 24.94352,-8.80778 24.94352,0.34345 0,2.80393 -1.12018,3.76225 -3.38281,2.89401 -5.35041,-2.05314 -14.28096,1.07967 -16.87041,5.91812 -3.25346,6.07913 4.86194,14.42055 12.59215,12.94282 4.14402,-0.79218 5.40922,-0.0536 5.40922,3.15738 0,6.63905 -15.68181,5.74406 -23.31556,-1.33066 z m 30.0711,-10.24083 0,-17.45181 c 0,-4.48534 7.82699,-1.06757 9.02466,3.94073 l 1.34624,5.62962 4.1694,-6.32764 c 3.7614,-5.70839 4.51014,-5.98692 7.65099,-2.84609 3.14083,3.14085 2.88412,4.10514 -2.62315,9.85347 l -6.10467,6.37194 5.62529,5.2847 c 4.19702,3.94287 5.0116,6.02416 3.20821,8.1971 -1.9122,2.30409 -3.53777,1.63966 -7.78218,-3.18091 l -5.36509,-6.09334 -0.0712,6.19257 c -0.0536,4.66763 -1.18021,6.19258 -4.57485,6.19258 -4.07476,0 -4.50369,-1.50124 -4.50369,-15.76292 z m 49.54061,-2.25185 c 0,-21.89274 2.57672,-23.07209 14.18359,-6.49178 l 8.06656,11.52297 0.69713,-10.78398 c 0.39324,-6.08345 1.92402,-11.18791 3.51191,-11.71063 2.09613,-0.69006 2.81481,3.72086 2.81481,17.27578 0,21.65116 -2.28824,22.98974 -12.94812,7.57451 l -7.3185,-10.58325 0,10.60556 c 0,9.10435 -0.63749,10.60559 -4.50369,10.60559 -4.12838,0 -4.50369,-1.50124 -4.50369,-18.01477 z m 33.77769,-0.10741 0,-18.12222 14.05143,0.67041 c 11.27186,0.53779 14.19991,1.44995 14.8021,4.61115 0.62637,3.28806 -0.95496,3.94073 -9.54774,3.94073 -9.48374,0 -10.29841,0.44535 -10.29841,5.62962 0,4.07131 1.20985,5.62961 4.37079,5.62961 2.40393,0 4.99707,1.01333 5.76252,2.25185 0.78932,1.27716 -1.10255,2.25185 -4.37079,2.25185 -3.16938,0 -5.76252,1.01333 -5.76252,2.25184 0,1.23852 3.54666,2.25185 7.88146,2.25185 5.5045,0 7.88146,1.01869 7.88146,3.37777 0,2.59302 -2.87736,3.37777 -12.38515,3.37777 l -12.38515,0 z m 40.3526,3.08264 c -3.71129,-8.27175 -6.20939,-16.44262 -5.55134,-18.15749 1.84158,-4.79906 4.99791,-1.5274 9.23831,9.57598 2.12358,5.5605 4.53653,10.11002 5.36212,10.11002 0.8256,0 3.32303,-5.06665 5.54986,-11.25923 3.90326,-10.85464 9.20113,-14.62666 11.63501,-8.28402 1.81537,4.73074 -11.8262,33.05433 -15.92003,33.05433 -2.22408,0 -6.10554,-5.65986 -10.31393,-15.03957 z m 31.70647,-3.08264 0,-18.12222 14.05142,0.67041 c 11.27187,0.53781 14.19992,1.44995 14.80211,4.61115 0.62637,3.28806 -0.95496,3.94073 -9.54774,3.94073 -9.48374,0 -10.29841,0.44535 -10.29841,5.62962 0,4.07131 1.20985,5.62961 4.37079,5.62961 2.40393,0 4.99707,1.01333 5.76252,2.25185 0.78931,1.27716 -1.10255,2.25185 -4.37079,2.25185 -3.16938,0 -5.76252,1.01333 -5.76252,2.25184 0,1.23852 3.54666,2.25185 7.88146,2.25185 5.5045,0 7.88146,1.01869 7.88146,3.37777 0,2.59302 -2.87736,3.37777 -12.38515,3.37777 l -12.38515,0 z m 33.43991,3.48523 c -0.18578,-8.05035 -0.43911,-15.90366 -0.56296,-17.45181 -0.13939,-1.74293 3.3722,-3.0762 9.22171,-3.50121 15.67458,-1.1389 25.19419,13.08644 12.49545,18.67219 -6.35079,2.79348 -6.34829,4.49117 0.0135,8.97216 4.13362,2.91171 4.47678,3.93693 1.86349,5.56727 -2.24865,1.40283 -4.47822,0.37736 -7.48194,-3.44125 -5.50459,-6.99795 -8.11491,-6.92452 -6.75488,0.19005 0.87374,4.57071 0.1797,5.62962 -3.69003,5.62962 -4.33024,0 -4.79711,-1.3389 -5.10399,-14.637 z m 17.92883,-8.47028 c 0.55844,-2.8997 -0.74869,-3.91488 -5.0408,-3.91488 -5.50506,0 -7.75391,4.04572 -4.21563,7.584 2.71147,2.71149 8.467,0.43008 9.25643,-3.66912 z"
       id="path4149"
       inkscape:connector-curvature="0"
       sodipodi:nodetypes="sscssssssssssssssssssscssssccccssssssscsscssssccssccsssssscsssssssssscscssssssssccscssssssssscssssssssscssscsscsssssssssssssssscscsccsssssccccccccsscscssscssssscccscssssssssssccscssssscscsscssssssccccssssssssssccccsssssccccssccsssssssssssssssssssssssssssssscssssssscsccsccsssssssssssssssssssscccssssssssssssssssssssssssssssssssssssssssssssssssssssssssssssssssssssssssssssssssssssscsssssssssssssssssssssssssssscssscssscssssscscsscsssccssssssssssscccssssssccccsssssssssssccccsscssssccssss" />
    <path
       inkscape:connector-curvature="0"
       style="opacity:0.8;fill:#8f0000;fill-rule:evenodd;stroke:#000000;stroke-width:0px;stroke-linecap:butt;stroke-linejoin:miter;stroke-opacity:1"
       d="m 300.62394,86.794439 5.81107,-3.343216 2.32442,2.228812 q 2.32443,2.228809 11.62212,35.660985 9.29769,33.43216 26.73087,63.52113 17.43318,30.08896 22.08203,30.08896 l 4.64885,0 9.29771,-11.14407 q 9.29769,-11.14405 17.43318,-21.1737 8.13549,-10.02966 15.10876,-18.9449 6.97327,-8.91526 10.45992,-12.25846 l 3.48662,-3.34323 11.62214,-2.2288 q 11.62211,-2.22881 44.16405,3.34322 l 32.54195,5.57201 -3.48663,13.37288 q -3.48664,13.37286 -15.10876,26.74574 -11.62213,13.37286 -18.5954,22.28812 -6.97327,8.91523 -20.91983,24.51692 -13.94654,15.60167 -20.91981,24.51693 -6.97329,8.91524 -6.97329,15.60167 l 0,6.68643 15.10876,12.25846 q 15.10876,12.25846 45.32628,25.63134 30.21752,13.37286 86.00372,26.74574 l 55.78619,13.37286 -25.56867,13.37288 q -25.56868,13.37285 -39.51521,17.83049 -13.94656,4.45762 -39.51522,2.22881 -25.56867,-2.22881 -60.43504,-11.14407 -34.86638,-8.91523 -48.81292,-15.60166 -13.94656,-6.68645 -27.8931,-15.60169 -13.94654,-8.91524 -20.91983,-8.91524 l -6.97327,0 -27.89307,24.51693 q -27.8931,24.51692 -41.83966,33.43216 -13.94653,8.91524 -25.56867,17.8305 -11.62212,8.91524 -32.54194,17.83048 -20.91983,8.91526 -27.8931,8.91526 l -6.97327,0 3.48662,-5.57204 q 3.48665,-5.57203 12.78434,-18.94489 9.29771,-13.37288 18.59541,-24.51693 9.29769,-11.14407 20.91982,-28.97454 11.62212,-17.8305 23.24426,-31.20338 11.62211,-13.37286 20.9198,-26.74574 l 9.29772,-13.37285 -2.32443,-8.91524 q -2.32442,-8.91526 -9.29771,-17.8305 -6.97327,-8.91524 -25.56868,-42.34743 -18.59538,-33.43216 -27.89309,-55.72028 -9.29769,-22.28812 -9.29769,-28.97455 l 0,-6.68642 29.05532,-25.63135 q 29.05529,-25.631324 34.86636,-28.974541 z"
       id="path2" />
  </g>
</svg>
