<?xml version="1.0" encoding="UTF-8" standalone="no"?>
<!-- Created with Inkscape (http://www.inkscape.org/) -->

<svg
   xmlns:dc="http://purl.org/dc/elements/1.1/"
   xmlns:cc="http://creativecommons.org/ns#"
   xmlns:rdf="http://www.w3.org/1999/02/22-rdf-syntax-ns#"
   xmlns:svg="http://www.w3.org/2000/svg"
   xmlns="http://www.w3.org/2000/svg"
   xmlns:sodipodi="http://sodipodi.sourceforge.net/DTD/sodipodi-0.dtd"
   xmlns:inkscape="http://www.inkscape.org/namespaces/inkscape"
   width="552.47668mm"
   height="103.5399mm"
   viewBox="0 0 1957.5945 366.87364"
   id="svg7431"
   version="1.1"
   inkscape:version="0.92.1 r"
   sodipodi:docname="git-index-committed-file.svg">
  <defs
     id="defs7433" />
  <sodipodi:namedview
     id="base"
     pagecolor="#ffffff"
     bordercolor="#666666"
     borderopacity="1.0"
     inkscape:pageopacity="0.0"
     inkscape:pageshadow="2"
     inkscape:zoom="0.35"
     inkscape:cx="724.04885"
     inkscape:cy="153.99397"
     inkscape:document-units="px"
     inkscape:current-layer="layer1"
     showgrid="false"
     fit-margin-top="0"
     fit-margin-left="0"
     fit-margin-right="0"
     fit-margin-bottom="0"
     inkscape:window-width="1920"
     inkscape:window-height="1023"
     inkscape:window-x="0"
     inkscape:window-y="0"
     inkscape:window-maximized="1" />
  <metadata
     id="metadata7436">
    <rdf:RDF>
      <cc:Work
         rdf:about="">
        <dc:format>image/svg+xml</dc:format>
        <dc:type
           rdf:resource="http://purl.org/dc/dcmitype/StillImage" />
        <dc:title />
      </cc:Work>
    </rdf:RDF>
  </metadata>
  <g
     inkscape:label="Calque 1"
     inkscape:groupmode="layer"
     id="layer1"
     transform="translate(-468.94877,-1475.6443)">
    <path
       style="fill:none;fill-opacity:1;stroke:#000000;stroke-width:13.2299633;stroke-linejoin:round;stroke-miterlimit:4;stroke-dasharray:none;stroke-opacity:1"
       d="m 2043.8746,1570.5178 h 367.7431 c 4.6039,0 8.3103,3.7064 8.3103,8.3104 v 248.7615 c 0,4.604 -3.7064,8.3104 -8.3103,8.3104 h -367.7431 c -4.604,0 -8.3104,-3.7064 -8.3104,-8.3104 v -248.7615 c 0,-4.604 3.7064,-8.3104 8.3104,-8.3104 z"
       id="rect5363" />
    <g
       aria-label="HEAD"
       style="font-style:normal;font-variant:normal;font-weight:normal;font-stretch:normal;line-height:0%;font-family:Photographs;-inkscape-font-specification:Photographs;letter-spacing:0px;word-spacing:0px;fill:#000000;fill-opacity:1;stroke:none;stroke-width:1px;stroke-linecap:butt;stroke-linejoin:miter;stroke-opacity:1"
       id="text5365">
      <path
         d="m 2195.7242,1588.732 q 0,-1.5963 0.7981,-2.554 0.8779,-1.0376 1.8357,-1.1174 1.0375,-0.1596 1.9953,0.7183 0.9577,0.7981 1.1971,2.8732 -0.1596,14.2864 -0.08,28.4132 0.1596,14.0469 0.08,28.4929 -0.3192,1.0376 -1.1173,1.6761 -0.7982,0.5586 -1.7559,0.6385 -0.9577,0.08 -1.8357,-0.3991 -0.7981,-0.5587 -1.1972,-1.7559 0.08,-6.3051 0.08,-11.8122 0.08,-5.507 0.08,-11.4929 -1.3568,-0.3991 -2.7137,-0.3193 -1.2769,0.08 -2.6338,0.3991 -1.3568,0.3192 -2.7136,0.7981 -1.277,0.4789 -2.554,0.7981 0.08,5.7465 0.08,10.8545 0,5.108 -0.08,10.615 -0.2394,1.0376 -1.1173,1.6761 -0.7981,0.5586 -1.7559,0.6385 -0.9577,0.08 -1.8357,-0.3991 -0.8779,-0.5587 -1.277,-1.7559 0.1597,-7.5821 0.1597,-14.446 0.08,-6.9436 0.08,-13.7277 0,-6.8638 -0.08,-13.8873 0,-7.1033 0,-14.9248 0.08,-1.7559 0.9577,-2.6338 0.8779,-0.9578 1.9155,-0.9578 1.0376,-0.08 1.9155,0.7981 0.9577,0.878 1.0375,2.7136 -0.08,7.4226 -0.08,14.446 0,6.9437 0.08,14.5259 1.0376,-0.3991 2.3944,-0.7982 1.4366,-0.399 2.8732,-0.6385 1.5165,-0.2394 2.8733,-0.2394 1.3568,0 2.4742,0.3991 0,-6.9437 -0.08,-13.4883 0,-6.5446 0,-14.1267 z"
         style="font-style:normal;font-variant:normal;font-weight:normal;font-stretch:normal;font-size:79.81214905px;line-height:125%;font-family:Photographs;-inkscape-font-specification:Photographs;text-align:center;text-anchor:middle;fill:#000000;fill-opacity:1"
         id="path31060" />
      <path
         d="m 2208.0364,1648.6709 q -1.3568,-0.2395 -2.554,-1.0376 -1.1173,-0.8779 -1.1173,-2.4742 0.2394,-7.0234 0.2394,-13.4882 0.08,-6.4648 0.08,-12.8498 0,-6.3849 -0.08,-12.9295 0,-6.6244 0,-13.8075 -1.1174,-2.3944 -0.3192,-3.9108 0.7981,-1.5165 2.7136,-2.3146 1.9155,-0.7981 4.5493,-0.9577 2.6338,-0.1597 5.1877,0.08 2.554,0.2394 4.6292,0.7981 2.0751,0.4789 2.8732,1.1174 0.9577,0.9577 1.0375,1.9155 0.08,0.9577 -0.4788,1.676 -0.5587,0.6385 -1.5963,1.0376 -0.9577,0.3192 -2.1549,0.08 -2.8732,-0.1596 -5.507,-0.3991 -2.554,-0.3192 -5.2676,0.1597 0,6.2253 0,12.5305 0,6.2253 0.08,12.6901 1.9953,0.08 3.6713,-0.2394 1.7559,-0.3991 3.5916,-0.5587 0.8779,-0.1597 1.676,0.1596 0.878,0.2394 1.4367,0.8779 0.5586,0.5587 0.6385,1.5165 0.08,0.8779 -0.6385,1.9155 -1.8357,1.5962 -4.709,2.1549 -2.8732,0.4789 -5.6666,0.3192 0.1596,5.2676 0.1596,10.0564 0,4.7887 -0.1596,9.9765 3.0328,-0.08 6.2253,-0.5587 3.1925,-0.4789 5.9061,-1.5963 1.4366,-0.3192 2.3146,0.3193 0.8779,0.6385 1.1173,1.6761 0.3193,0.9577 -0.1596,2.0751 -0.399,1.1173 -1.5962,1.7558 -3.5916,1.3568 -7.9812,1.9155 -4.3099,0.4789 -8.1409,0.3193 z"
         style="font-style:normal;font-variant:normal;font-weight:normal;font-stretch:normal;font-size:79.81214905px;line-height:125%;font-family:Photographs;-inkscape-font-specification:Photographs;text-align:center;text-anchor:middle;fill:#000000;fill-opacity:1"
         id="path31062" />
      <path
         d="m 2234.5428,1627.4408 q -0.5587,4.5493 -0.8779,9.1784 -0.2395,4.5493 -0.3991,9.0986 -0.2394,1.5963 -1.1972,2.3146 -0.8779,0.6385 -1.9155,0.5587 -0.9577,-0.1597 -1.8357,-0.9578 -0.8779,-0.8779 -1.0375,-2.4742 0.7183,-14.3661 2.3943,-28.7323 1.7559,-14.446 4.1503,-28.8122 0.2394,-1.0376 1.277,-1.6761 1.0375,-0.6385 2.2347,-0.7183 1.1972,-0.08 2.2347,0.4789 1.1174,0.5587 1.5165,1.9155 1.277,7.3427 2.554,14.446 1.277,7.1033 2.554,14.1267 1.277,7.0235 2.4741,14.1268 1.1972,7.0235 2.3146,14.446 0.08,1.5164 -0.6385,2.554 -0.7183,0.9577 -1.7559,1.277 -0.9577,0.2394 -1.9953,-0.3193 -1.0375,-0.6385 -1.5164,-2.2347 -0.3991,-2.7136 -0.7981,-5.108 -0.3991,-2.4742 -0.878,-4.8685 -0.399,-2.3944 -0.8779,-4.7888 -0.4789,-2.4741 -0.9577,-5.1878 -1.5963,-0.1596 -3.3522,0.08 -1.7558,0.1596 -3.6713,1.2769 z m 0.7183,-6.8638 q 1.3568,-0.3192 2.6338,-0.3991 1.3568,-0.08 2.7136,-0.08 -0.6385,-3.9108 -1.3568,-7.8216 -0.6385,-3.9108 -1.277,-7.9014 l -0.3991,-2.3145 q -0.1596,1.1174 -0.2394,2.2347 -0.08,1.0376 -0.2394,2.1549 z"
         style="font-style:normal;font-variant:normal;font-weight:normal;font-stretch:normal;font-size:79.81214905px;line-height:125%;font-family:Photographs;-inkscape-font-specification:Photographs;text-align:center;text-anchor:middle;fill:#000000;fill-opacity:1"
         id="path31064" />
      <path
         d="m 2253.6466,1587.9338 q -0.08,-0.7981 0.3192,-1.7558 0.4789,-1.0376 1.8357,-1.0376 5.1878,-0.3192 9.0188,1.9155 3.9108,2.2347 6.4648,6.2253 2.6338,3.9108 3.9107,9.1784 1.3569,5.1878 1.4367,10.8545 0.1596,5.6667 -0.9578,11.3333 -1.1173,5.5869 -3.4319,10.4554 -2.2347,4.7887 -5.7465,8.3005 -3.4319,3.5117 -8.061,4.9483 -0.7183,0.2395 -1.6761,0.2395 -0.8779,0 -1.676,-0.1597 -0.7183,-0.2394 -1.277,-0.6385 -0.4789,-0.4788 -0.4789,-1.277 -0.08,-16.5211 0.08,-30.8074 0.2395,-14.2864 0.2395,-27.7747 z m 5.5868,3.1925 q -0.08,12.4507 0,24.9812 0.08,12.5305 0,25.1408 3.3521,-1.9154 5.7465,-5.2676 2.3944,-3.4319 3.7512,-7.5821 1.4366,-4.2301 1.9155,-8.8592 0.4788,-4.7089 0.08,-9.0985 -0.3991,-4.4695 -1.7559,-8.3803 -1.3568,-3.9906 -3.5117,-6.7042 -1.5165,-1.9155 -3.1925,-3.0329 -1.6761,-1.1972 -3.0329,-1.1972 z"
         style="font-style:normal;font-variant:normal;font-weight:normal;font-stretch:normal;font-size:79.81214905px;line-height:125%;font-family:Photographs;-inkscape-font-specification:Photographs;text-align:center;text-anchor:middle;fill:#000000;fill-opacity:1"
         id="path31066" />
    </g>
    <path
       style="opacity:1;fill:#7e005e;fill-opacity:1;stroke:none;stroke-width:5.80000019;stroke-linejoin:round;stroke-miterlimit:4;stroke-dasharray:none;stroke-dashoffset:0;stroke-opacity:1"
       d="m 2061.1398,1657.4469 h 332.7052 c 7.0921,0 12.8016,5.7095 12.8016,12.8017 v 141.2766 c 0,7.0921 -5.7095,12.8016 -12.8016,12.8016 h -332.7052 c -7.0921,0 -12.8017,-5.7095 -12.8017,-12.8016 v -141.2766 c 0,-7.0922 5.7096,-12.8017 12.8017,-12.8017 z"
       id="rect5371" />
    <g
       aria-label="file.txt
v2"
       style="font-style:normal;font-variant:normal;font-weight:normal;font-stretch:normal;line-height:0%;font-family:Photographs;-inkscape-font-specification:Photographs;letter-spacing:0px;word-spacing:0px;fill:#ffffff;fill-opacity:1;stroke:none;stroke-width:1px;stroke-linecap:butt;stroke-linejoin:miter;stroke-opacity:1"
       id="text5373">
      <path
         d="m 2119.9274,1685.0955 v 4.3364 h -5.9235 q -2.8059,0 -3.9113,1.1621 -1.077,1.1337 -1.077,4.0529 v 2.8059 h 10.9118 v 4.053 h -10.9118 v 27.6905 h -5.215 v -27.6905 h -8.4744 v -4.053 h 8.4744 v -2.2107 q 0,-5.215 2.3808,-7.6808 2.4091,-2.4658 7.4823,-2.4658 z"
         style="font-style:normal;font-variant:normal;font-weight:normal;font-stretch:normal;font-size:58.04519272px;line-height:125%;font-family:monospace;-inkscape-font-specification:monospace;text-align:center;text-anchor:middle;fill:#ffffff;fill-opacity:1"
         id="path31038" />
      <path
         d="m 2131.9729,1697.4528 h 13.3493 v 27.6905 h 10.3449 v 4.053 h -25.9049 v -4.053 h 10.345 v -23.6375 h -8.1343 z m 8.1343,-12.3573 h 5.215 v 6.6038 h -5.215 z"
         style="font-style:normal;font-variant:normal;font-weight:normal;font-stretch:normal;font-size:58.04519272px;line-height:125%;font-family:monospace;-inkscape-font-specification:monospace;text-align:center;text-anchor:middle;fill:#ffffff;fill-opacity:1"
         id="path31040" />
      <path
         d="m 2177.7459,1717.6893 q 0,3.5144 1.2754,5.3 1.3037,1.7856 3.8262,1.7856 h 6.0936 v 4.4214 h -6.6038 q -4.6765,0 -7.2556,-3.0043 -2.5508,-3.0043 -2.5508,-8.5027 v -28.8242 h -8.361 v -4.0813 h 13.576 z"
         style="font-style:normal;font-variant:normal;font-weight:normal;font-stretch:normal;font-size:58.04519272px;line-height:125%;font-family:monospace;-inkscape-font-specification:monospace;text-align:center;text-anchor:middle;fill:#ffffff;fill-opacity:1"
         id="path31042" />
      <path
         d="m 2226.0696,1712.0208 v 2.5508 h -22.5889 v 0.1701 q 0,5.1866 2.6926,8.0209 2.7208,2.8342 7.6524,2.8342 2.4941,0 5.215,-0.7936 2.7209,-0.7936 5.8102,-2.4091 v 5.1867 q -2.976,1.2187 -5.7535,1.8139 -2.7492,0.6235 -5.3284,0.6235 -7.3973,0 -11.5637,-4.4214 -4.1663,-4.4497 -4.1663,-12.2439 0,-7.5958 4.0813,-12.1305 4.0813,-4.5348 10.8835,-4.5348 6.0652,0 9.5514,4.1096 3.5144,4.1097 3.5144,11.2236 z m -5.215,-1.5305 q -0.1134,-4.5914 -2.1823,-6.9722 -2.0407,-2.4091 -5.8953,-2.4091 -3.7695,0 -6.2069,2.4941 -2.4375,2.4941 -2.891,6.9156 z"
         style="font-style:normal;font-variant:normal;font-weight:normal;font-stretch:normal;font-size:58.04519272px;line-height:125%;font-family:monospace;-inkscape-font-specification:monospace;text-align:center;text-anchor:middle;fill:#ffffff;fill-opacity:1"
         id="path31044" />
      <path
         d="m 2243.3301,1720.5519 h 7.1423 v 8.6444 h -7.1423 z"
         style="font-style:normal;font-variant:normal;font-weight:normal;font-stretch:normal;font-size:58.04519272px;line-height:125%;font-family:monospace;-inkscape-font-specification:monospace;text-align:center;text-anchor:middle;fill:#ffffff;fill-opacity:1"
         id="path31046" />
      <path
         d="m 2281.7907,1688.4399 v 9.0129 h 11.8472 v 4.053 h -11.8472 v 17.2322 q 0,3.5144 1.3321,4.9032 1.3321,1.3888 4.6482,1.3888 h 5.8669 v 4.1663 h -6.3771 q -5.8668,0 -8.276,-2.3524 -2.4091,-2.3524 -2.4091,-8.1059 v -17.2322 h -8.4743 v -4.053 h 8.4743 v -9.0129 z"
         style="font-style:normal;font-variant:normal;font-weight:normal;font-stretch:normal;font-size:58.04519272px;line-height:125%;font-family:monospace;-inkscape-font-specification:monospace;text-align:center;text-anchor:middle;fill:#ffffff;fill-opacity:1"
         id="path31048" />
      <path
         d="m 2330.9931,1697.4528 -11.3653,15.1915 12.4707,16.552 h -6.037 l -9.2963,-12.7257 -9.2679,12.7257 h -6.037 l 12.4707,-16.552 -11.3653,-15.1915 h 5.7818 l 8.4177,11.4787 8.361,-11.4787 z"
         style="font-style:normal;font-variant:normal;font-weight:normal;font-stretch:normal;font-size:58.04519272px;line-height:125%;font-family:monospace;-inkscape-font-specification:monospace;text-align:center;text-anchor:middle;fill:#ffffff;fill-opacity:1"
         id="path31050" />
      <path
         d="m 2351.6264,1688.4399 v 9.0129 h 11.8471 v 4.053 h -11.8471 v 17.2322 q 0,3.5144 1.3321,4.9032 1.332,1.3888 4.6481,1.3888 h 5.8669 v 4.1663 h -6.3771 q -5.8668,0 -8.2759,-2.3524 -2.4091,-2.3524 -2.4091,-8.1059 v -17.2322 h -8.4744 v -4.053 h 8.4744 v -9.0129 z"
         style="font-style:normal;font-variant:normal;font-weight:normal;font-stretch:normal;font-size:58.04519272px;line-height:125%;font-family:monospace;-inkscape-font-specification:monospace;text-align:center;text-anchor:middle;fill:#ffffff;fill-opacity:1"
         id="path31052" />
      <path
         d="m 2197.3871,1770.0093 h 5.4134 l 9.2113,26.6419 9.2396,-26.6419 h 5.4134 l -11.2803,31.7435 h -6.7171 z"
         style="font-style:normal;font-variant:normal;font-weight:normal;font-stretch:normal;font-size:58.04519272px;line-height:125%;font-family:monospace;-inkscape-font-specification:monospace;text-align:center;text-anchor:middle;fill:#ffffff;fill-opacity:1"
         id="path31054" />
      <path
         d="m 2240.0424,1796.9346 h 19.4429 v 4.8182 h -25.7066 v -4.8182 q 5.3001,-5.5835 9.268,-9.8632 3.9679,-4.2797 5.4701,-6.0369 2.8342,-3.4578 3.8262,-5.5834 0.992,-2.1541 0.992,-4.3931 0,-3.5428 -2.0973,-5.5551 -2.069,-2.0123 -5.6969,-2.0123 -2.5791,0 -5.4134,0.9353 -2.8342,0.9353 -6.0085,2.8342 v -5.7818 q 2.9192,-1.3888 5.7251,-2.0974 2.8343,-0.7085 5.5835,-0.7085 6.2069,0 9.9765,3.316 3.7979,3.2877 3.7979,8.6444 0,2.7209 -1.2754,5.4418 -1.2471,2.7209 -4.0813,6.0086 -1.5872,1.8422 -4.6199,5.1016 -3.0042,3.2594 -9.1829,9.7498 z"
         style="font-style:normal;font-variant:normal;font-weight:normal;font-stretch:normal;font-size:58.04519272px;line-height:125%;font-family:monospace;-inkscape-font-specification:monospace;text-align:center;text-anchor:middle;fill:#ffffff;fill-opacity:1"
         id="path31056" />
    </g>
    <path
       style="fill:none;fill-opacity:1;stroke:#000000;stroke-width:13.22996426;stroke-linejoin:round;stroke-miterlimit:4;stroke-dasharray:none;stroke-opacity:1"
       d="m 483.87412,1570.5206 h 367.74306 c 4.60395,0 8.31037,3.7065 8.31037,8.3104 v 248.7615 c 0,4.604 -3.70642,8.3104 -8.31037,8.3104 H 483.87412 c -4.60394,0 -8.31037,-3.7064 -8.31037,-8.3104 V 1578.831 c 0,-4.6039 3.70643,-8.3104 8.31037,-8.3104 z"
       id="rect5379" />
    <g
       aria-label="Working Directory"
       style="font-style:normal;font-variant:normal;font-weight:normal;font-stretch:normal;line-height:0%;font-family:Photographs;-inkscape-font-specification:Photographs;letter-spacing:0px;word-spacing:0px;fill:#000000;fill-opacity:1;stroke:none;stroke-width:1px;stroke-linecap:butt;stroke-linejoin:miter;stroke-opacity:1"
       id="text5381">
      <path
         d="m 500.09252,1588.6549 q 0.15963,-1.676 0.87794,-2.5539 0.79812,-0.878 1.67605,-0.9578 0.95775,-0.1596 1.9155,0.5587 0.95774,0.6385 1.43661,1.9953 0.87794,7.8216 1.51643,13.6479 0.71831,5.7465 1.277,9.9765 0.55868,4.1502 0.95774,7.1033 0.47888,2.953 0.79813,5.0281 0.31924,1.9953 0.55868,3.5118 0.31925,1.4366 0.6385,2.7934 1.19718,-5.3474 2.47418,-10.7746 1.27699,-5.5071 2.6338,-11.3334 0.31924,-1.1971 1.11737,-1.7558 0.87793,-0.6385 1.83568,-0.6385 0.95774,0 1.75586,0.6385 0.79812,0.5587 1.19719,1.8357 0.23943,3.1924 0.63849,6.0657 0.39906,2.8732 0.79812,5.6666 0.47888,2.7137 0.87794,5.5869 0.47887,2.7934 0.95774,5.9061 1.11737,-5.5869 1.99531,-10.9343 0.87793,-5.3474 1.67605,-10.6948 0.87794,-5.4272 1.75587,-10.9343 0.87793,-5.5868 1.9953,-11.5727 0.23944,-1.0376 1.19719,-1.4366 1.03755,-0.4789 2.15492,-0.3193 1.19719,0.08 2.07512,0.8779 0.87793,0.7183 0.79812,1.9953 -0.87793,7.3428 -1.9953,14.5258 -1.03756,7.1033 -2.31456,14.2066 -1.27699,7.0235 -2.79342,14.2066 -1.43662,7.1033 -2.95305,14.446 -0.39906,1.5164 -1.11737,2.2347 -0.71831,0.7183 -1.59624,0.8779 -0.79812,0.1597 -1.67606,-0.1596 -0.79812,-0.399 -1.43662,-1.0375 -0.47887,-0.7982 -0.95774,-2.3944 -0.47888,-1.5962 -1.03756,-4.1502 -0.55869,-2.6338 -1.19718,-6.3052 -0.6385,-3.7512 -1.51643,-8.8591 -0.71831,3.1126 -1.19719,5.5868 -0.39906,2.3944 -0.79812,4.7887 -0.39906,2.3146 -0.79812,4.7888 -0.39906,2.4741 -1.03756,5.6666 -0.39906,1.1174 -1.19718,1.7559 -0.71831,0.5587 -1.59624,0.5587 -0.87794,0 -1.75587,-0.5587 -0.87793,-0.5587 -1.43662,-1.7559 -0.39906,-0.6385 -1.27699,-3.7511 -0.79812,-3.1925 -1.91549,-7.9014 -1.03756,-4.7888 -2.15493,-10.6949 -1.03756,-5.9061 -1.99531,-12.0516 -0.87793,-6.2254 -1.43661,-12.2113 -0.47888,-6.0657 -0.39907,-11.0939 z"
         style="font-style:normal;font-variant:normal;font-weight:normal;font-stretch:normal;font-size:79.81214905px;line-height:125%;font-family:Photographs;-inkscape-font-specification:Photographs;text-align:center;text-anchor:middle;fill:#000000;fill-opacity:1"
         id="path31004" />
      <path
         d="m 552.15623,1603.1009 q 1.75587,1.1972 2.87324,3.3522 1.11737,2.1549 1.67606,4.8685 0.63849,2.7136 0.71831,5.9061 0.15962,3.1127 0,6.3052 -0.15963,3.1924 -0.6385,6.2253 -0.39906,3.0329 -0.95775,5.5869 -0.39906,1.8356 -1.11737,4.4694 -0.71831,2.6338 -1.9953,4.8686 -1.19718,2.1549 -2.95305,3.5117 -1.75587,1.277 -4.23005,0.4789 -1.03755,-0.3991 -1.83567,-1.4366 -0.79813,-1.0376 -1.43662,-2.3146 -0.55869,-1.3568 -0.95775,-2.7136 -0.31925,-1.3568 -0.55868,-2.3944 -0.31925,-1.7558 -0.71831,-5.507 -0.31925,-3.831 -0.31925,-8.3803 0,-4.5493 0.47887,-9.1784 0.55869,-4.7089 1.91549,-8.1408 1.35681,-3.5117 3.75117,-5.1878 2.47418,-1.6761 6.30516,-0.3193 z m -0.39906,5.5071 q -0.47887,-0.6385 -1.11737,-1.1174 -0.63849,-0.4789 -1.43662,-0.6385 -0.71831,-0.1596 -1.43661,0.08 -0.71831,0.1597 -1.277,0.9578 -1.27699,1.7558 -1.9953,4.9483 -0.6385,3.1127 -0.95775,6.7042 -0.23944,3.5118 -0.23944,6.9437 0.0798,3.3521 0.23944,5.5869 0.0798,0.7183 0.23944,2.4741 0.23943,1.6761 0.55868,3.5916 0.39906,1.9155 0.87794,3.5915 0.55868,1.6761 1.27699,2.3944 0.79812,0.6385 1.75587,-0.08 0.95774,-0.7183 2.15493,-3.5916 0.63849,-1.5164 1.03755,-3.0328 0.39906,-1.5165 0.71831,-3.1127 0.47888,-2.1549 0.87794,-5.6667 0.47887,-3.5915 0.55868,-7.3427 0.15963,-3.831 -0.23943,-7.2629 -0.39907,-3.4319 -1.59625,-5.4272 z"
         style="font-style:normal;font-variant:normal;font-weight:normal;font-stretch:normal;font-size:79.81214905px;line-height:125%;font-family:Photographs;-inkscape-font-specification:Photographs;text-align:center;text-anchor:middle;fill:#000000;fill-opacity:1"
         id="path31006" />
      <path
         d="m 560.27837,1605.4155 q 0.15962,-1.1972 0.95774,-1.6761 0.79812,-0.4788 1.59624,0 1.51644,-0.9577 3.43193,-1.1173 1.9953,-0.1597 3.75117,0.399 1.83568,0.5587 3.11267,1.7559 1.35681,1.1174 1.59625,2.8732 0.31924,2.8733 -0.39907,5.4273 -0.63849,2.4741 -1.9953,4.7089 -1.27699,2.2347 -3.11267,4.23 -1.75587,1.9953 -3.51174,3.831 2.31455,3.0329 3.83099,5.6667 1.51643,2.554 3.35211,5.5868 1.27699,2.0751 2.39436,4.2301 1.11737,2.1549 2.23474,4.3896 0.23944,0.9578 -0.0798,1.6761 -0.23944,0.7183 -0.79812,1.1174 -0.47888,0.3192 -1.19719,0.1596 -0.7183,-0.08 -1.3568,-0.7981 -2.39437,-4.4695 -4.78873,-8.6197 -2.31455,-4.2301 -5.34741,-8.7794 v 16.6009 q -0.15963,0.7184 -0.71831,1.1972 -0.55869,0.3991 -1.19719,0.3991 -0.55868,0.08 -1.19718,-0.2395 -0.55868,-0.399 -0.79812,-1.2769 0.23944,-12.0517 0.23944,-22.108 0,-10.1362 0,-19.6338 z m 3.59154,3.2723 v 13.0094 q 2.39437,-2.3146 4.30986,-4.7888 1.91549,-2.4741 2.6338,-5.3474 0.55868,-2.3145 -0.31925,-3.3521 -0.87793,-1.1173 -2.23474,-1.277 -1.35681,-0.1596 -2.71361,0.3991 -1.35681,0.4789 -1.67606,1.3568 z"
         style="font-style:normal;font-variant:normal;font-weight:normal;font-stretch:normal;font-size:79.81214905px;line-height:125%;font-family:Photographs;-inkscape-font-specification:Photographs;text-align:center;text-anchor:middle;fill:#000000;fill-opacity:1"
         id="path31008" />
      <path
         d="m 580.46336,1604.3779 q 0.15962,-0.8779 0.6385,-1.3568 0.47887,-0.5587 1.03755,-0.5587 0.6385,0 1.11737,0.4789 0.55869,0.3991 0.87794,1.4366 -0.0798,4.0705 -0.0798,8.3005 0,4.23 0,8.4601 2.31455,-4.2301 4.46948,-8.3803 2.23474,-4.1502 4.70891,-7.5023 0.79812,-0.7183 1.51643,-0.5587 0.71831,0.08 1.11737,0.7183 0.39906,0.6385 0.39906,1.5962 0,0.9578 -0.63849,1.9155 -2.71362,4.2301 -4.86854,8.2207 -2.07512,3.9906 -4.5493,7.662 1.19719,2.3145 2.47418,4.9483 1.35681,2.6338 2.6338,5.3474 1.277,2.6338 2.39437,5.2676 1.11737,2.554 1.9953,4.7887 0.39906,1.0376 0.15962,1.9155 -0.15962,0.878 -0.71831,1.277 -0.47887,0.3991 -1.19718,0.2395 -0.6385,-0.2395 -1.19718,-1.3568 -2.47418,-4.709 -4.54929,-9.1784 -1.99531,-4.4695 -4.07042,-8.7794 v 17.7981 q -0.15963,0.7184 -0.71831,1.1972 -0.47887,0.3991 -1.11737,0.3991 -0.55869,0.08 -1.19718,-0.2395 -0.55869,-0.399 -0.79813,-1.2769 0.0798,-5.5071 0.0798,-10.6949 0.0798,-5.2676 0.0798,-10.4554 0,-5.2676 0,-10.5352 0,-5.3474 0,-11.0939 z"
         style="font-style:normal;font-variant:normal;font-weight:normal;font-stretch:normal;font-size:79.81214905px;line-height:125%;font-family:Photographs;-inkscape-font-specification:Photographs;text-align:center;text-anchor:middle;fill:#000000;fill-opacity:1"
         id="path31010" />
      <path
         d="m 599.3514,1648.5939 q -0.87793,-0.1597 -1.27699,-0.878 -0.31925,-0.7183 -0.31925,-1.4366 0.0798,-0.7981 0.55869,-1.4366 0.47887,-0.6385 1.3568,-0.7183 0.15963,0 0.6385,0.08 0.47887,0 1.03756,0 0.55868,0 1.11737,0 0.55868,0 0.79812,-0.08 0.15962,-9.338 0.0798,-18.1972 -0.0798,-8.8591 -0.0798,-18.676 -0.95775,0 -1.35681,0 -0.39906,0 -0.71831,0.08 -0.23943,0 -0.55868,0.08 -0.23944,0 -0.95775,0.08 -0.87793,-0.1596 -1.43662,-0.7183 -0.47887,-0.5587 -0.55868,-1.1972 -0.0798,-0.7183 0.23944,-1.3568 0.39906,-0.7183 1.27699,-1.1174 0.55869,-0.2394 2.39436,-0.399 1.9155,-0.1596 4.07042,-0.1596 2.15493,0 3.99061,0.08 1.91549,0 2.47418,0.08 0.95774,0.2394 1.3568,0.9577 0.47888,0.7183 0.39907,1.4367 -0.0798,0.7183 -0.6385,1.3568 -0.55869,0.5586 -1.43662,0.5586 -0.95775,0 -2.23474,0.08 -1.19718,0.08 -2.39436,0.08 -0.0798,9.0986 0,18.4366 0.0798,9.338 0.0798,18.4366 1.11737,0 2.15493,0 1.11737,0 2.15492,0.08 0.79812,0.2394 1.19719,0.9577 0.39906,0.6385 0.39906,1.3568 0.0798,0.7184 -0.31925,1.3569 -0.31925,0.6384 -1.03756,0.7981 -1.19718,0.1596 -2.95305,0.1596 -1.67605,0.08 -3.43192,0.08 -1.67606,0 -3.35211,-0.08 -1.59625,-0.08 -2.71362,-0.1596 z"
         style="font-style:normal;font-variant:normal;font-weight:normal;font-stretch:normal;font-size:79.81214905px;line-height:125%;font-family:Photographs;-inkscape-font-specification:Photographs;text-align:center;text-anchor:middle;fill:#000000;fill-opacity:1"
         id="path31012" />
      <path
         d="m 616.24788,1604.777 v -0.08 q 0,-0.08 0.0798,-0.1596 0,-0.7982 0.31925,-1.277 0.39906,-0.5587 0.87793,-0.7183 0.55869,-0.1597 1.11737,0.1596 0.6385,0.2394 1.11737,0.9577 1.11737,2.554 1.9155,5.3474 0.87793,2.7935 1.67605,5.6667 1.11737,3.9108 2.15493,7.9014 1.03756,3.9906 2.07511,8.061 0.0798,-2.6338 0.15963,-6.4647 0.0798,-3.831 0.0798,-7.662 0.0798,-3.831 0,-7.0235 0,-3.2723 0,-4.7089 0,-1.277 0.6385,-1.7559 0.6385,-0.5587 1.3568,-0.399 0.71831,0.08 1.277,0.7183 0.6385,0.5587 0.6385,1.4366 -0.23944,10.6948 -0.0798,21.0704 0.15963,10.3756 -0.31924,21.0704 -0.71831,1.5963 -1.83568,1.6761 -1.03756,0.1596 -1.9155,-1.3568 -0.87793,-3.432 -1.51643,-6.3052 -0.55868,-2.953 -1.43661,-6.4648 -1.11737,-4.6291 -2.31456,-9.0986 -1.11737,-4.5493 -2.39436,-9.0985 l -0.15963,-0.4789 q 0,7.8216 0,15.723 0.0798,7.8216 0,15.6432 -0.15962,0.7981 -0.63849,1.1971 -0.47888,0.3991 -1.11737,0.3991 -0.55869,0.08 -1.11737,-0.3193 -0.55869,-0.399 -0.79812,-1.1971 0.0798,-5.4273 0.0798,-10.6151 0.0798,-5.1877 0.0798,-10.3755 0,-5.1878 0,-10.4554 0,-5.3474 0,-11.0141 z"
         style="font-style:normal;font-variant:normal;font-weight:normal;font-stretch:normal;font-size:79.81214905px;line-height:125%;font-family:Photographs;-inkscape-font-specification:Photographs;text-align:center;text-anchor:middle;fill:#000000;fill-opacity:1"
         id="path31014" />
      <path
         d="m 642.85525,1629.9178 q -0.23943,-1.1173 0.0798,-1.7558 0.39906,-0.7183 0.87793,-1.1174 0.47887,-0.3991 0.95774,-0.5587 0.47888,-0.1596 0.47888,-0.2394 0.63849,-0.1597 1.27699,-0.2395 1.277,-0.1596 2.23474,0.3991 0.87794,0.6385 1.19718,1.9155 0.39907,1.277 0.47888,2.7934 0.0798,1.5164 -0.0798,2.8732 -0.0798,1.3569 -0.15963,2.0752 -0.15962,1.277 -0.55868,3.0328 -0.39907,1.7559 -1.11737,3.5118 -0.71831,1.676 -1.67606,3.1924 -0.95775,1.4367 -2.23474,2.3146 -1.19718,0.8779 -2.6338,0.8779 -1.43662,0 -3.11267,-1.3568 -1.67606,-1.676 -2.63381,-4.9483 -0.95774,-3.3521 -1.3568,-7.5024 -0.39906,-4.23 -0.31925,-8.8591 0.15962,-4.7089 0.55868,-8.939 0.31925,-2.4742 0.71831,-4.7089 0.39906,-2.3145 0.87794,-4.0704 0.47887,-1.8357 1.11737,-3.0329 0.63849,-1.277 1.51643,-1.7558 2.95305,-1.7559 4.78873,-0.878 1.91549,0.878 2.95305,3.0329 1.11737,2.1549 1.43662,4.8685 0.39906,2.7136 0.39906,4.7089 0,0.9578 -0.6385,1.5963 -0.55869,0.6385 -1.277,0.7981 -0.7183,0.1596 -1.3568,-0.1596 -0.6385,-0.3991 -0.71831,-1.4366 -0.15963,-0.9578 -0.31925,-2.6338 -0.0798,-1.7559 -0.31925,-3.2723 -0.23943,-1.5963 -0.79812,-2.554 -0.55868,-0.9578 -1.67605,-0.3193 -0.6385,0.2395 -1.277,2.4742 -1.51643,6.385 -1.67605,11.8122 -0.15963,5.3474 0,10.5352 0,0.3991 0.0798,2.1549 0.15962,1.7559 0.47887,3.7512 0.31925,1.9953 0.79812,3.7512 0.47888,1.676 1.19718,1.9953 0.95775,0.4789 1.75587,-0.1596 0.79812,-0.7184 1.43662,-1.9953 0.6385,-1.277 1.03756,-2.9531 0.47887,-1.7559 0.71831,-3.3521 0.23943,-1.5963 0.31925,-2.8732 0.0798,-1.3569 -0.15963,-1.9155 -1.27699,0.3192 -2.31455,0.399 -0.95775,0.08 -1.35681,-1.277 z"
         style="font-style:normal;font-variant:normal;font-weight:normal;font-stretch:normal;font-size:79.81214905px;line-height:125%;font-family:Photographs;-inkscape-font-specification:Photographs;text-align:center;text-anchor:middle;fill:#000000;fill-opacity:1"
         id="path31016" />
      <path
         d="m 672.60149,1587.9366 q -0.0798,-0.7981 0.31925,-1.7558 0.47887,-1.0376 1.83568,-1.0376 5.18779,-0.3192 9.01877,1.9155 3.91079,2.2347 6.46478,6.2254 2.6338,3.9107 3.9108,9.1783 1.3568,5.1878 1.43662,10.8545 0.15962,5.6667 -0.95775,11.3333 -1.11737,5.5869 -3.43192,10.4554 -2.23474,4.7887 -5.74648,8.3005 -3.43192,3.5117 -8.06102,4.9483 -0.71831,0.2395 -1.67606,0.2395 -0.87793,0 -1.67605,-0.1597 -0.71831,-0.2394 -1.277,-0.6384 -0.47887,-0.4789 -0.47887,-1.277 -0.0798,-16.5212 0.0798,-30.8075 0.23944,-14.2864 0.23944,-27.7747 z m 5.58685,3.1925 q -0.0798,12.4507 0,24.9812 0.0798,12.5305 0,25.1409 3.35211,-1.9155 5.74647,-5.2676 2.39437,-3.432 3.75117,-7.5822 1.43662,-4.23 1.9155,-8.8592 0.47887,-4.7089 0.0798,-9.0985 -0.39906,-4.4695 -1.75587,-8.3803 -1.35681,-3.9906 -3.51173,-6.7042 -1.51644,-1.9155 -3.19249,-3.0329 -1.67606,-1.1972 -3.03286,-1.1972 z"
         style="font-style:normal;font-variant:normal;font-weight:normal;font-stretch:normal;font-size:79.81214905px;line-height:125%;font-family:Photographs;-inkscape-font-specification:Photographs;text-align:center;text-anchor:middle;fill:#000000;fill-opacity:1"
         id="path31018" />
      <path
         d="m 699.42835,1648.5939 q -0.87793,-0.1597 -1.27699,-0.878 -0.31925,-0.7183 -0.31925,-1.4366 0.0798,-0.7981 0.55869,-1.4366 0.47887,-0.6385 1.3568,-0.7183 0.15963,0 0.6385,0.08 0.47887,0 1.03756,0 0.55868,0 1.11737,0 0.55868,0 0.79812,-0.08 0.15962,-9.338 0.0798,-18.1972 -0.0798,-8.8591 -0.0798,-18.676 -0.95775,0 -1.35681,0 -0.39906,0 -0.71831,0.08 -0.23943,0 -0.55868,0.08 -0.23944,0 -0.95775,0.08 -0.87793,-0.1596 -1.43662,-0.7183 -0.47887,-0.5587 -0.55868,-1.1972 -0.0798,-0.7183 0.23944,-1.3568 0.39906,-0.7183 1.27699,-1.1174 0.55869,-0.2394 2.39436,-0.399 1.9155,-0.1596 4.07042,-0.1596 2.15493,0 3.99061,0.08 1.91549,0 2.47418,0.08 0.95774,0.2394 1.35681,0.9577 0.47887,0.7183 0.39906,1.4367 -0.0798,0.7183 -0.6385,1.3568 -0.55869,0.5586 -1.43662,0.5586 -0.95775,0 -2.23474,0.08 -1.19718,0.08 -2.39436,0.08 -0.0798,9.0986 0,18.4366 0.0798,9.338 0.0798,18.4366 1.11737,0 2.15493,0 1.11737,0 2.15492,0.08 0.79812,0.2394 1.19719,0.9577 0.39906,0.6385 0.39906,1.3568 0.0798,0.7184 -0.31925,1.3569 -0.31925,0.6384 -1.03756,0.7981 -1.19718,0.1596 -2.95305,0.1596 -1.67605,0.08 -3.43192,0.08 -1.67606,0 -3.35211,-0.08 -1.59625,-0.08 -2.71362,-0.1596 z"
         style="font-style:normal;font-variant:normal;font-weight:normal;font-stretch:normal;font-size:79.81214905px;line-height:125%;font-family:Photographs;-inkscape-font-specification:Photographs;text-align:center;text-anchor:middle;fill:#000000;fill-opacity:1"
         id="path31020" />
      <path
         d="m 716.00559,1605.4155 q 0.15962,-1.1972 0.95774,-1.6761 0.79813,-0.4788 1.59625,0 1.51643,-0.9577 3.43192,-1.1173 1.9953,-0.1597 3.75117,0.399 1.83568,0.5587 3.11267,1.7559 1.35681,1.1174 1.59625,2.8732 0.31925,2.8733 -0.39906,5.4273 -0.6385,2.4741 -1.99531,4.7089 -1.27699,2.2347 -3.11267,4.23 -1.75587,1.9953 -3.51174,3.831 2.31456,3.0329 3.83099,5.6667 1.51643,2.554 3.35211,5.5868 1.27699,2.0751 2.39436,4.2301 1.11737,2.1549 2.23474,4.3896 0.23944,0.9578 -0.0798,1.6761 -0.23944,0.7183 -0.79812,1.1174 -0.47887,0.3192 -1.19718,0.1596 -0.71831,-0.08 -1.35681,-0.7981 -2.39436,-4.4695 -4.78873,-8.6197 -2.31455,-4.2301 -5.34741,-8.7794 v 16.6009 q -0.15963,0.7184 -0.71831,1.1972 -0.55869,0.3991 -1.19718,0.3991 -0.55869,0.08 -1.19719,-0.2395 -0.55868,-0.399 -0.79812,-1.2769 0.23944,-12.0517 0.23944,-22.108 0,-10.1362 0,-19.6338 z m 3.59155,3.2723 v 13.0094 q 2.39436,-2.3146 4.30985,-4.7888 1.91549,-2.4741 2.6338,-5.3474 0.55869,-2.3145 -0.31925,-3.3521 -0.87793,-1.1173 -2.23474,-1.277 -1.3568,-0.1596 -2.71361,0.3991 -1.35681,0.4789 -1.67605,1.3568 z"
         style="font-style:normal;font-variant:normal;font-weight:normal;font-stretch:normal;font-size:79.81214905px;line-height:125%;font-family:Photographs;-inkscape-font-specification:Photographs;text-align:center;text-anchor:middle;fill:#000000;fill-opacity:1"
         id="path31022" />
      <path
         d="m 738.50513,1648.5939 q -0.87793,-0.1597 -1.43662,-0.7981 -0.55868,-0.7184 -0.79812,-1.5963 0.0798,-5.0282 0.0798,-9.6573 0.0798,-4.7089 0.0798,-9.338 0,-4.6291 -0.0798,-9.338 0,-4.7887 0,-9.9765 -0.71831,-1.7559 -0.23943,-2.7934 0.55868,-1.1174 1.75586,-1.6761 1.277,-0.5587 2.95305,-0.6385 1.67606,-0.1596 3.2723,0.08 1.67606,0.1596 3.03286,0.5587 1.35681,0.3192 1.83568,0.7981 1.19718,1.5963 0.31925,2.6338 -0.87793,1.0376 -2.39436,0.7183 -1.83568,-0.08 -3.51174,-0.2394 -1.59624,-0.2394 -3.43192,0.1596 0,4.3897 0,8.939 0,4.4695 0.15962,9.0986 1.19719,0 2.31456,-0.2395 1.19718,-0.2394 2.31455,-0.2394 1.11737,-0.3991 1.91549,0.5587 0.79812,0.9577 0.15962,2.554 -1.11737,1.1173 -3.03286,1.5164 -1.83568,0.3991 -3.67136,0.2394 0.0798,3.831 0.0798,7.2629 0,3.3521 -0.0798,7.1831 1.91549,-0.08 3.9108,-0.399 2.07511,-0.3991 3.91079,-1.1972 l -0.0798,0.1596 q 0.87793,-0.08 1.43662,0.3991 0.55868,0.399 0.71831,1.0375 0.15962,0.6385 -0.0798,1.3568 -0.23944,0.7183 -0.95775,1.1972 -2.31455,1.0376 -5.10798,1.4366 -2.79342,0.3991 -5.34741,0.2395 z"
         style="font-style:normal;font-variant:normal;font-weight:normal;font-stretch:normal;font-size:79.81214905px;line-height:125%;font-family:Photographs;-inkscape-font-specification:Photographs;text-align:center;text-anchor:middle;fill:#000000;fill-opacity:1"
         id="path31024" />
      <path
         d="m 752.63811,1617.1479 q 0.39906,-4.7887 1.277,-8.3803 0.87793,-3.5915 2.87323,-5.4272 2.55399,-1.8357 4.46948,-0.9578 1.91549,0.878 3.19249,3.1127 1.27699,2.1549 1.83568,4.9484 0.6385,2.7136 0.6385,4.6291 0,0.9577 -0.55869,1.676 -0.55868,0.6385 -1.19718,0.878 -0.6385,0.1596 -1.277,-0.1597 -0.63849,-0.399 -0.71831,-1.4366 -0.23943,-0.9577 -0.47887,-2.6338 -0.23943,-1.7559 -0.71831,-3.3521 -0.47887,-1.5962 -1.19718,-2.554 -0.6385,-1.0375 -1.67605,-0.4789 -0.71831,0.7184 -1.19719,2.6338 -1.3568,6.4648 -1.59624,11.8122 -0.15962,5.3475 0,10.6151 0,0.399 0.0798,2.1549 0.15963,1.7559 0.39906,3.7512 0.31925,1.9953 0.71831,3.7511 0.47888,1.6761 1.19718,2.0751 1.03756,0.6385 1.67606,-0.3192 0.71831,-0.9578 1.19718,-2.554 0.47887,-1.5962 0.71831,-3.2723 0.23944,-1.7559 0.47887,-2.7136 0.0798,-1.0376 0.6385,-1.3568 0.6385,-0.3991 1.277,-0.2394 0.71831,0.1596 1.19718,0.8779 0.55868,0.6385 0.55868,1.676 -0.15962,1.277 -0.47887,2.9531 -0.31925,1.676 -0.95775,3.3521 -0.55868,1.6761 -1.3568,3.1925 -0.79812,1.5164 -1.91549,2.3944 -1.03756,0.8779 -2.39437,0.8779 -1.3568,0.08 -3.03286,-1.1174 -1.59624,-1.277 -2.55399,-4.5493 -0.95774,-3.3521 -1.43662,-7.6619 -0.39906,-4.3099 -0.31925,-9.0986 0.0798,-4.7888 0.6385,-9.0986 z"
         style="font-style:normal;font-variant:normal;font-weight:normal;font-stretch:normal;font-size:79.81214905px;line-height:125%;font-family:Photographs;-inkscape-font-specification:Photographs;text-align:center;text-anchor:middle;fill:#000000;fill-opacity:1"
         id="path31026" />
      <path
         d="m 770.83403,1607.2512 q -0.95774,0 -1.43662,0 -0.39906,0 -0.71831,0.08 -0.23943,0 -0.55868,0.08 -0.23944,0 -0.95775,0.08 -0.95774,-0.2394 -1.43662,-0.7981 -0.47887,-0.5587 -0.55868,-1.1972 -0.0798,-0.7183 0.31925,-1.3568 0.31925,-0.6385 1.11737,-1.0376 0.63849,-0.2394 2.55399,-0.399 1.91549,-0.1596 4.07042,-0.1596 2.15492,-0.08 4.07042,0 1.91549,0.08 2.47417,0.1596 0.95775,0.2394 1.35681,0.9577 0.39906,0.6385 0.23943,1.3568 -0.0798,0.7183 -0.63849,1.3568 -0.55869,0.5587 -1.43662,0.5587 -0.95775,0 -2.23474,0.08 -1.19718,0 -2.39437,0.1597 0,3.7511 0,7.6619 0,3.9108 0,8.6197 0,4.6291 0,10.4554 0,5.7465 0,13.169 -0.15962,0.7184 -0.71831,1.1972 -0.55868,0.3991 -1.19718,0.3991 -0.63849,0.08 -1.27699,-0.2395 -0.55869,-0.399 -0.79812,-1.2769 0.15962,-10.2958 0.15962,-20.1127 0,-9.8967 0,-19.7934 z"
         style="font-style:normal;font-variant:normal;font-weight:normal;font-stretch:normal;font-size:79.81214905px;line-height:125%;font-family:Photographs;-inkscape-font-specification:Photographs;text-align:center;text-anchor:middle;fill:#000000;fill-opacity:1"
         id="path31028" />
      <path
         d="m 793.15152,1603.1009 q 1.75587,1.1972 2.87324,3.3522 1.11737,2.1549 1.67605,4.8685 0.6385,2.7136 0.71831,5.9061 0.15963,3.1127 0,6.3052 -0.15962,3.1924 -0.63849,6.2253 -0.39906,3.0329 -0.95775,5.5869 -0.39906,1.8356 -1.11737,4.4694 -0.71831,2.6338 -1.9953,4.8686 -1.19719,2.1549 -2.95305,3.5117 -1.75587,1.277 -4.23005,0.4789 -1.03755,-0.3991 -1.83568,-1.4366 -0.79812,-1.0376 -1.43661,-2.3146 -0.55869,-1.3568 -0.95775,-2.7136 -0.31925,-1.3568 -0.55869,-2.3944 -0.31924,-1.7558 -0.7183,-5.507 -0.31925,-3.831 -0.31925,-8.3803 0,-4.5493 0.47887,-9.1784 0.55868,-4.7089 1.91549,-8.1408 1.35681,-3.5117 3.75117,-5.1878 2.47418,-1.6761 6.30516,-0.3193 z m -0.39906,5.5071 q -0.47887,-0.6385 -1.11737,-1.1174 -0.6385,-0.4789 -1.43662,-0.6385 -0.71831,-0.1596 -1.43662,0.08 -0.71831,0.1597 -1.27699,0.9578 -1.27699,1.7558 -1.9953,4.9483 -0.6385,3.1127 -0.95775,6.7042 -0.23944,3.5118 -0.23944,6.9437 0.0798,3.3521 0.23944,5.5869 0.0798,0.7183 0.23944,2.4741 0.23943,1.6761 0.55868,3.5916 0.39906,1.9155 0.87794,3.5915 0.55868,1.6761 1.27699,2.3944 0.79812,0.6385 1.75587,-0.08 0.95774,-0.7183 2.15492,-3.5916 0.6385,-1.5164 1.03756,-3.0328 0.39906,-1.5165 0.71831,-3.1127 0.47888,-2.1549 0.87794,-5.6667 0.47887,-3.5915 0.55868,-7.3427 0.15963,-3.831 -0.23944,-7.2629 -0.39906,-3.4319 -1.59624,-5.4272 z"
         style="font-style:normal;font-variant:normal;font-weight:normal;font-stretch:normal;font-size:79.81214905px;line-height:125%;font-family:Photographs;-inkscape-font-specification:Photographs;text-align:center;text-anchor:middle;fill:#000000;fill-opacity:1"
         id="path31030" />
      <path
         d="m 801.27366,1605.4155 q 0.15962,-1.1972 0.95774,-1.6761 0.79812,-0.4788 1.59624,0 1.51643,-0.9577 3.43193,-1.1173 1.9953,-0.1597 3.75117,0.399 1.83568,0.5587 3.11267,1.7559 1.35681,1.1174 1.59624,2.8732 0.31925,2.8733 -0.39906,5.4273 -0.63849,2.4741 -1.9953,4.7089 -1.27699,2.2347 -3.11267,4.23 -1.75587,1.9953 -3.51174,3.831 2.31455,3.0329 3.83098,5.6667 1.51644,2.554 3.35211,5.5868 1.277,2.0751 2.39437,4.2301 1.11737,2.1549 2.23474,4.3896 0.23944,0.9578 -0.0798,1.6761 -0.23944,0.7183 -0.79812,1.1174 -0.47888,0.3192 -1.19719,0.1596 -0.71831,-0.08 -1.3568,-0.7981 -2.39437,-4.4695 -4.78873,-8.6197 -2.31455,-4.2301 -5.34742,-8.7794 v 16.6009 q -0.15962,0.7184 -0.71831,1.1972 -0.55868,0.3991 -1.19718,0.3991 -0.55868,0.08 -1.19718,-0.2395 -0.55868,-0.399 -0.79812,-1.2769 0.23944,-12.0517 0.23944,-22.108 0,-10.1362 0,-19.6338 z m 3.59154,3.2723 v 13.0094 q 2.39437,-2.3146 4.30986,-4.7888 1.91549,-2.4741 2.6338,-5.3474 0.55868,-2.3145 -0.31925,-3.3521 -0.87793,-1.1173 -2.23474,-1.277 -1.35681,-0.1596 -2.71361,0.3991 -1.35681,0.4789 -1.67606,1.3568 z"
         style="font-style:normal;font-variant:normal;font-weight:normal;font-stretch:normal;font-size:79.81214905px;line-height:125%;font-family:Photographs;-inkscape-font-specification:Photographs;text-align:center;text-anchor:middle;fill:#000000;fill-opacity:1"
         id="path31032" />
      <path
         d="m 818.64525,1604.777 q 0.15963,-0.9577 0.71831,-1.4366 0.6385,-0.5587 1.277,-0.6385 0.71831,-0.08 1.3568,0.399 0.6385,0.3991 0.87794,1.3569 0.31925,3.1924 1.03756,6.3849 0.71831,3.1925 1.83568,6.2254 0.87793,-1.7559 1.67605,-3.4319 0.87793,-1.7559 1.75587,-3.432 0.95774,-1.676 2.07511,-3.2723 1.11737,-1.5962 2.63381,-3.2723 0.87793,-0.7183 1.67605,-0.7981 0.87793,-0.1596 1.43662,0.2394 0.55868,0.3193 0.71831,1.0376 0.23943,0.7183 -0.15963,1.6761 -2.07511,2.8732 -4.23004,6.4647 -2.15493,3.5118 -3.75117,7.1033 -0.23944,0.4789 -0.55869,1.4366 -0.31924,0.878 -0.71831,1.9155 -0.31924,1.0376 -0.55868,1.9953 -0.23944,0.878 -0.23944,1.3568 0,3.831 0,6.7841 0.0798,2.8732 0.0798,5.2676 0.0798,2.3145 0.0798,4.3896 0,1.9954 -0.15963,4.0705 -0.23943,0.8779 -0.87793,1.4366 -0.55869,0.4789 -1.27699,0.4789 -0.6385,0 -1.277,-0.3991 -0.55868,-0.4789 -0.79812,-1.5164 0,-5.6667 0,-11.4132 0.0798,-5.7464 0,-11.4929 -0.79812,-1.5963 -1.59624,-4.2301 -0.79813,-2.6338 -1.43662,-5.3474 -0.6385,-2.7934 -1.11737,-5.3474 -0.39906,-2.554 -0.47888,-3.9906 z"
         style="font-style:normal;font-variant:normal;font-weight:normal;font-stretch:normal;font-size:79.81214905px;line-height:125%;font-family:Photographs;-inkscape-font-specification:Photographs;text-align:center;text-anchor:middle;fill:#000000;fill-opacity:1"
         id="path31034" />
    </g>
    <path
       style="opacity:1;fill:#7e005e;fill-opacity:1;stroke:none;stroke-width:5.80000019;stroke-linejoin:round;stroke-miterlimit:4;stroke-dasharray:none;stroke-dashoffset:0;stroke-opacity:1"
       d="m 501.13957,1657.4503 h 332.70514 c 7.09212,0 12.80165,5.7096 12.80165,12.8017 v 141.2766 c 0,7.0921 -5.70953,12.8016 -12.80165,12.8016 H 501.13957 c -7.09211,0 -12.80165,-5.7095 -12.80165,-12.8016 V 1670.252 c 0,-7.0921 5.70954,-12.8017 12.80165,-12.8017 z"
       id="rect5385" />
    <g
       aria-label="file.txt
v2"
       style="font-style:normal;font-variant:normal;font-weight:normal;font-stretch:normal;line-height:0%;font-family:Photographs;-inkscape-font-specification:Photographs;letter-spacing:0px;word-spacing:0px;fill:#ffffff;fill-opacity:1;stroke:none;stroke-width:1px;stroke-linecap:butt;stroke-linejoin:miter;stroke-opacity:1"
       id="text5387">
      <path
         d="m 559.92655,1685.0976 v 4.3364 h -5.92356 q -2.8059,0 -3.91125,1.162 -1.07701,1.1337 -1.07701,4.053 v 2.8059 h 10.91182 v 4.053 h -10.91182 v 27.6905 h -5.215 v -27.6905 h -8.47437 v -4.053 h 8.47437 v -2.2107 q 0,-5.215 2.38076,-7.6808 2.4091,-2.4658 7.48239,-2.4658 z"
         style="font-style:normal;font-variant:normal;font-weight:normal;font-stretch:normal;font-size:58.04519653px;line-height:125%;font-family:monospace;-inkscape-font-specification:monospace;text-align:center;text-anchor:middle;fill:#ffffff;fill-opacity:1"
         id="path30982" />
      <path
         d="m 571.97206,1697.4549 h 13.34926 v 27.6905 h 10.34497 v 4.053 h -25.90494 v -4.053 h 10.34497 v -23.6375 h -8.13426 z m 8.13426,-12.3573 h 5.215 v 6.6038 h -5.215 z"
         style="font-style:normal;font-variant:normal;font-weight:normal;font-stretch:normal;font-size:58.04519653px;line-height:125%;font-family:monospace;-inkscape-font-specification:monospace;text-align:center;text-anchor:middle;fill:#ffffff;fill-opacity:1"
         id="path30984" />
      <path
         d="m 617.745,1717.6914 q 0,3.5144 1.27541,5.3 1.30375,1.7856 3.82622,1.7856 h 6.09361 v 4.4214 h -6.60377 q -4.6765,0 -7.25565,-3.0043 -2.55082,-3.0043 -2.55082,-8.5027 v -28.8242 h -8.361 v -4.0813 h 13.576 z"
         style="font-style:normal;font-variant:normal;font-weight:normal;font-stretch:normal;font-size:58.04519653px;line-height:125%;font-family:monospace;-inkscape-font-specification:monospace;text-align:center;text-anchor:middle;fill:#ffffff;fill-opacity:1"
         id="path30986" />
      <path
         d="m 666.06876,1712.0229 v 2.5508 h -22.58888 v 0.17 q 0,5.1867 2.69252,8.0209 2.72087,2.8343 7.65245,2.8343 2.49413,0 5.21499,-0.7936 2.72087,-0.7936 5.81019,-2.4091 v 5.1866 q -2.97595,1.2188 -5.7535,1.814 -2.74921,0.6235 -5.32837,0.6235 -7.39736,0 -11.56369,-4.4214 -4.16633,-4.4498 -4.16633,-12.2439 0,-7.5958 4.0813,-12.1306 4.08131,-4.5347 10.88348,-4.5347 6.06527,0 9.55138,4.1096 3.51446,4.1096 3.51446,11.2236 z m -5.215,-1.5305 q -0.11337,-4.5915 -2.18237,-6.9722 -2.04065,-2.4091 -5.89521,-2.4091 -3.76954,0 -6.20698,2.4941 -2.43745,2.4941 -2.89093,6.9155 z"
         style="font-style:normal;font-variant:normal;font-weight:normal;font-stretch:normal;font-size:58.04519653px;line-height:125%;font-family:monospace;-inkscape-font-specification:monospace;text-align:center;text-anchor:middle;fill:#ffffff;fill-opacity:1"
         id="path30988" />
      <path
         d="m 683.32927,1720.5539 h 7.14228 v 8.6445 h -7.14228 z"
         style="font-style:normal;font-variant:normal;font-weight:normal;font-stretch:normal;font-size:58.04519653px;line-height:125%;font-family:monospace;-inkscape-font-specification:monospace;text-align:center;text-anchor:middle;fill:#ffffff;fill-opacity:1"
         id="path30990" />
      <path
         d="m 721.78988,1688.442 v 9.0129 H 733.637 v 4.053 h -11.84712 v 17.2321 q 0,3.5145 1.33209,4.9033 1.3321,1.3887 4.64815,1.3887 h 5.86688 v 4.1664 h -6.37704 q -5.86687,0 -8.27597,-2.3525 -2.40911,-2.3524 -2.40911,-8.1059 v -17.2321 h -8.47437 v -4.053 h 8.47437 v -9.0129 z"
         style="font-style:normal;font-variant:normal;font-weight:normal;font-stretch:normal;font-size:58.04519653px;line-height:125%;font-family:monospace;-inkscape-font-specification:monospace;text-align:center;text-anchor:middle;fill:#ffffff;fill-opacity:1"
         id="path30992" />
      <path
         d="m 770.99224,1697.4549 -11.36529,15.1915 12.47065,16.552 h -6.03693 l -9.2963,-12.7258 -9.26796,12.7258 h -6.03693 l 12.47065,-16.552 -11.3653,-15.1915 h 5.78185 l 8.41769,11.4787 8.361,-11.4787 z"
         style="font-style:normal;font-variant:normal;font-weight:normal;font-stretch:normal;font-size:58.04519653px;line-height:125%;font-family:monospace;-inkscape-font-specification:monospace;text-align:center;text-anchor:middle;fill:#ffffff;fill-opacity:1"
         id="path30994" />
      <path
         d="m 791.6255,1688.442 v 9.0129 h 11.84711 v 4.053 H 791.6255 v 17.2321 q 0,3.5145 1.33209,4.9033 1.33209,1.3887 4.64815,1.3887 h 5.86687 v 4.1664 h -6.37703 q -5.86687,0 -8.27598,-2.3525 -2.4091,-2.3524 -2.4091,-8.1059 v -17.2321 h -8.47437 v -4.053 h 8.47437 v -9.0129 z"
         style="font-style:normal;font-variant:normal;font-weight:normal;font-stretch:normal;font-size:58.04519653px;line-height:125%;font-family:monospace;-inkscape-font-specification:monospace;text-align:center;text-anchor:middle;fill:#ffffff;fill-opacity:1"
         id="path30996" />
      <path
         d="m 637.38627,1770.0114 h 5.4134 l 9.21127,26.6418 9.23962,-26.6418 h 5.41339 l -11.28026,31.7435 h -6.71715 z"
         style="font-style:normal;font-variant:normal;font-weight:normal;font-stretch:normal;font-size:58.04519653px;line-height:125%;font-family:monospace;-inkscape-font-specification:monospace;text-align:center;text-anchor:middle;fill:#ffffff;fill-opacity:1"
         id="path30998" />
      <path
         d="m 680.04156,1796.9367 h 19.44287 v 4.8182 h -25.70654 v -4.8182 q 5.30002,-5.5835 9.26796,-9.8632 3.96793,-4.2797 5.47008,-6.0369 2.83424,-3.4578 3.82622,-5.5835 0.99198,-2.154 0.99198,-4.393 0,-3.5428 -2.09733,-5.5551 -2.069,-2.0124 -5.69682,-2.0124 -2.57916,0 -5.4134,0.9353 -2.83424,0.9353 -6.00858,2.8343 v -5.7819 q 2.91926,-1.3887 5.72516,-2.0973 2.83424,-0.7086 5.58345,-0.7086 6.20698,0 9.97652,3.3161 3.79788,3.2877 3.79788,8.6444 0,2.7209 -1.27541,5.4418 -1.24707,2.7208 -4.0813,6.0085 -1.58718,1.8423 -4.61981,5.1017 -3.0043,3.2593 -9.18293,9.7498 z"
         style="font-style:normal;font-variant:normal;font-weight:normal;font-stretch:normal;font-size:58.04519653px;line-height:125%;font-family:monospace;-inkscape-font-specification:monospace;text-align:center;text-anchor:middle;fill:#ffffff;fill-opacity:1"
         id="path31000" />
    </g>
    <path
       style="fill:none;fill-opacity:1;stroke:#000000;stroke-width:13.2299633;stroke-linejoin:round;stroke-miterlimit:4;stroke-dasharray:none;stroke-opacity:1"
       d="m 1263.8749,1570.5178 h 367.7431 c 4.604,0 8.3104,3.7064 8.3104,8.3104 v 248.7615 c 0,4.604 -3.7064,8.3104 -8.3104,8.3104 h -367.7431 c -4.6039,0 -8.3103,-3.7064 -8.3103,-8.3104 v -248.7615 c 0,-4.604 3.7064,-8.3104 8.3103,-8.3104 z"
       id="rect5432" />
    <g
       aria-label="Index"
       style="font-style:normal;font-variant:normal;font-weight:normal;font-stretch:normal;line-height:0%;font-family:Photographs;-inkscape-font-specification:Photographs;letter-spacing:0px;word-spacing:0px;fill:#000000;fill-opacity:1;stroke:none;stroke-width:1px;stroke-linecap:butt;stroke-linejoin:miter;stroke-opacity:1"
       id="text5434">
      <path
         d="m 1402.0629,1648.3516 q -1.277,-0.2394 -1.8357,-1.1173 -0.5586,-0.9578 -0.399,-1.9953 0.08,-1.0376 0.7981,-1.8357 0.7183,-0.878 1.9155,-0.878 h 5.2676 q 0.08,-6.4647 0.08,-12.6901 0.08,-6.3052 0,-12.5305 0,-6.3052 -0.08,-12.6901 0,-6.385 0,-13.0892 -1.3568,0 -1.9953,0 -0.6385,0 -1.0376,0.08 -0.3192,0 -0.7981,0.08 -0.399,0 -1.4366,0.08 -1.3568,-0.2394 -2.0751,-0.9577 -0.7981,-0.7982 -0.878,-1.6761 -0.1596,-0.9577 0.3991,-1.8357 0.5587,-0.9577 1.8357,-1.5164 0.5587,-0.2394 2.0751,-0.3991 1.5164,-0.1596 3.4319,-0.2394 1.9953,-0.08 4.1503,-0.08 2.1549,-0.08 4.0704,0 1.9155,0 3.3521,0.08 1.5164,0 2.0751,0.08 1.4366,0.3991 1.9953,1.3568 0.6385,0.9578 0.4789,1.9953 -0.1596,1.0376 -0.9578,1.8357 -0.7981,0.7981 -2.0751,0.7981 h 0.1596 q -1.5962,0 -3.4319,0.08 -1.8357,0.08 -3.5117,0.1597 -0.08,12.5305 0,25.3802 0.08,12.8498 0,25.4601 1.5962,-0.08 3.1925,-0.08 1.5962,-0.08 3.1126,0.3192 1.1972,0.2395 1.7559,1.1174 0.6385,0.8779 0.6385,1.9155 0.08,0.9577 -0.3991,1.8357 -0.4788,0.8779 -1.5164,1.1174 -1.8357,0.1596 -4.3098,0.1596 -2.3944,0.08 -5.0282,0 -2.554,0 -4.9484,-0.08 -2.3943,-0.08 -4.0704,-0.2395 z"
         style="font-style:normal;font-variant:normal;font-weight:normal;font-stretch:normal;font-size:79.81214905px;line-height:125%;font-family:Photographs;-inkscape-font-specification:Photographs;text-align:center;text-anchor:middle;fill:#000000;fill-opacity:1"
         id="path30970" />
      <path
         d="m 1424.1522,1604.7742 v -0.08 q 0,-0.08 0.08,-0.1596 0,-0.7982 0.3192,-1.277 0.3991,-0.5587 0.878,-0.7183 0.5587,-0.1597 1.1173,0.1596 0.6385,0.2394 1.1174,0.9577 1.1174,2.554 1.9155,5.3474 0.8779,2.7935 1.6761,5.6667 1.1173,3.9108 2.1549,7.9014 1.0375,3.9906 2.0751,8.061 0.08,-2.6338 0.1596,-6.4648 0.08,-3.8309 0.08,-7.6619 0.08,-3.831 0,-7.0235 0,-3.2723 0,-4.7089 0,-1.277 0.6385,-1.7559 0.6385,-0.5587 1.3568,-0.399 0.7184,0.08 1.277,0.7183 0.6385,0.5587 0.6385,1.4366 -0.2394,10.6948 -0.08,21.0704 0.1596,10.3756 -0.3192,21.0704 -0.7183,1.5963 -1.8357,1.6761 -1.0376,0.1596 -1.9155,-1.3568 -0.8779,-3.432 -1.5164,-6.3052 -0.5587,-2.9531 -1.4366,-6.4648 -1.1174,-4.6291 -2.3146,-9.0986 -1.1174,-4.5493 -2.3944,-9.0986 l -0.1596,-0.4788 q 0,7.8216 0,15.723 0.08,7.8216 0,15.6431 -0.1596,0.7982 -0.6385,1.1972 -0.4789,0.3991 -1.1174,0.3991 -0.5586,0.08 -1.1173,-0.3193 -0.5587,-0.399 -0.7981,-1.1971 0.08,-5.4273 0.08,-10.6151 0.08,-5.1877 0.08,-10.3755 0,-5.1878 0,-10.4554 0,-5.3474 0,-11.0141 z"
         style="font-style:normal;font-variant:normal;font-weight:normal;font-stretch:normal;font-size:79.81214905px;line-height:125%;font-family:Photographs;-inkscape-font-specification:Photographs;text-align:center;text-anchor:middle;fill:#000000;fill-opacity:1"
         id="path30972" />
      <path
         d="m 1442.5389,1604.5348 q -0.08,-0.5587 0.1596,-1.3568 0.3193,-0.7982 1.277,-0.7982 3.3521,-0.2394 5.8263,1.4366 2.554,1.6761 4.2301,4.5493 1.676,2.8733 2.5539,6.7043 0.878,3.7511 0.878,7.9014 0.08,4.1502 -0.6385,8.3004 -0.7183,4.0704 -2.2348,7.5822 -1.4366,3.5117 -3.7511,6.1455 -2.2348,2.554 -5.1878,3.5916 -0.9578,0.2394 -2.155,0 -1.1971,-0.2395 -1.1971,-1.3568 -0.08,-12.0517 0.08,-22.4273 0.1596,-10.4553 0.1596,-20.2722 z m 3.5915,2.3145 q 0,9.0986 0,18.1972 0.08,9.0986 0,18.277 2.155,-1.3568 3.6714,-3.831 1.5963,-2.4742 2.4742,-5.5071 0.9577,-3.1126 1.277,-6.4647 0.3192,-3.432 0,-6.7043 -0.2395,-3.2723 -1.1174,-6.1455 -0.7981,-2.8732 -2.2347,-4.8685 -1.0376,-1.3568 -2.155,-2.155 -1.0375,-0.7981 -1.9155,-0.7981 z"
         style="font-style:normal;font-variant:normal;font-weight:normal;font-stretch:normal;font-size:79.81214905px;line-height:125%;font-family:Photographs;-inkscape-font-specification:Photographs;text-align:center;text-anchor:middle;fill:#000000;fill-opacity:1"
         id="path30974" />
      <path
         d="m 1462.2326,1648.5911 q -0.878,-0.1597 -1.4367,-0.7982 -0.5587,-0.7183 -0.7981,-1.5962 0.08,-5.0282 0.08,-9.6573 0.08,-4.7089 0.08,-9.338 0,-4.6291 -0.08,-9.338 0,-4.7887 0,-9.9765 -0.7183,-1.7559 -0.2394,-2.7935 0.5587,-1.1173 1.7559,-1.676 1.2769,-0.5587 2.953,-0.6385 1.6761,-0.1596 3.2723,0.08 1.6761,0.1596 3.0329,0.5587 1.3568,0.3192 1.8356,0.7981 1.1972,1.5963 0.3193,2.6338 -0.8779,1.0376 -2.3944,0.7183 -1.8357,-0.08 -3.5117,-0.2394 -1.5963,-0.2395 -3.4319,0.1596 0,4.3897 0,8.939 0,4.4694 0.1596,9.0986 1.1972,0 2.3145,-0.2395 1.1972,-0.2394 2.3146,-0.2394 1.1174,-0.3991 1.9155,0.5587 0.7981,0.9577 0.1596,2.554 -1.1174,1.1173 -3.0328,1.5164 -1.8357,0.399 -3.6714,0.2394 0.08,3.831 0.08,7.2629 0,3.3521 -0.08,7.1831 1.9155,-0.08 3.9108,-0.399 2.0751,-0.3991 3.9108,-1.1972 l -0.08,0.1596 q 0.8779,-0.08 1.4366,0.3991 0.5587,0.399 0.7183,1.0375 0.1596,0.6385 -0.08,1.3568 -0.2394,0.7183 -0.9578,1.1972 -2.3145,1.0376 -5.1079,1.4366 -2.7935,0.3991 -5.3474,0.2395 z"
         style="font-style:normal;font-variant:normal;font-weight:normal;font-stretch:normal;font-size:79.81214905px;line-height:125%;font-family:Photographs;-inkscape-font-specification:Photographs;text-align:center;text-anchor:middle;fill:#000000;fill-opacity:1"
         id="path30976" />
      <path
         d="m 1488.0181,1603.6568 q 0.3193,-0.8779 1.1174,-1.1173 0.8779,-0.2395 1.5962,0 0.7981,0.2394 1.277,0.8779 0.4789,0.6385 0.1596,1.4366 -0.08,0.5587 -0.4788,2.2347 -0.3193,1.5963 -0.878,3.7512 -0.5586,2.0751 -1.1971,4.5493 -0.6385,2.3944 -1.277,4.7089 -0.5587,2.2348 -1.1174,4.0704 -0.4789,1.7559 -0.7183,2.6338 0.7183,2.2348 1.5164,4.709 0.8779,2.3943 1.6761,4.8685 0.8779,2.3944 1.676,4.7887 0.878,2.3944 1.5165,4.5493 0.399,1.1972 -0.08,1.9155 -0.399,0.7183 -1.1173,0.9578 -0.7183,0.1596 -1.5165,-0.1597 -0.7183,-0.3192 -0.8779,-1.1971 -1.4366,-3.7512 -2.554,-7.1831 -1.1174,-3.432 -2.7136,-7.5822 -1.1972,3.5117 -2.3145,7.4225 -1.1174,3.831 -2.4742,7.662 -0.2395,0.7183 -0.878,0.9578 -0.6385,0.1596 -1.277,-0.08 -0.5586,-0.2394 -0.9577,-0.9577 -0.3192,-0.7981 -0.08,-2.0751 0.7183,-2.6338 1.4366,-4.9484 0.7183,-2.3943 1.4366,-4.5493 0.7183,-2.2347 1.3568,-4.3896 0.7183,-2.155 1.3568,-4.3897 -0.7183,-2.554 -1.4366,-5.3474 -0.7183,-2.8733 -1.4366,-5.7465 -0.7183,-2.8732 -1.3568,-5.6667 -0.5587,-2.8732 -0.9577,-5.507 -0.08,-0.9577 0.3192,-1.5962 0.3991,-0.7183 1.0376,-0.9578 0.6385,-0.2394 1.277,0 0.7183,0.2395 1.2769,1.0376 1.1972,4.0704 1.9954,8.6995 0.7981,4.6291 1.676,8.6197 0.4789,-2.3944 1.0376,-4.8685 0.5586,-2.4742 1.1173,-4.7089 0.5587,-2.3146 1.0376,-4.2301 0.4789,-1.9953 0.7981,-3.1925 z"
         style="font-style:normal;font-variant:normal;font-weight:normal;font-stretch:normal;font-size:79.81214905px;line-height:125%;font-family:Photographs;-inkscape-font-specification:Photographs;text-align:center;text-anchor:middle;fill:#000000;fill-opacity:1"
         id="path30978" />
    </g>
    <path
       style="opacity:1;fill:#7e005e;fill-opacity:1;stroke:none;stroke-width:5.80000019;stroke-linejoin:round;stroke-miterlimit:4;stroke-dasharray:none;stroke-dashoffset:0;stroke-opacity:1"
       d="m 1281.1402,1657.4469 h 332.7051 c 7.0921,0 12.8017,5.7095 12.8017,12.8017 v 141.2766 c 0,7.0921 -5.7096,12.8016 -12.8017,12.8016 h -332.7051 c -7.0922,0 -12.8017,-5.7095 -12.8017,-12.8016 v -141.2766 c 0,-7.0922 5.7095,-12.8017 12.8017,-12.8017 z"
       id="rect5440" />
    <g
       aria-label="file.txt
v2"
       style="font-style:normal;font-variant:normal;font-weight:normal;font-stretch:normal;line-height:0%;font-family:Photographs;-inkscape-font-specification:Photographs;letter-spacing:0px;word-spacing:0px;fill:#ffffff;fill-opacity:1;stroke:none;stroke-width:1px;stroke-linecap:butt;stroke-linejoin:miter;stroke-opacity:1"
       id="text5442">
      <path
         d="m 1339.9278,1685.0955 v 4.3364 h -5.9236 q -2.8059,0 -3.9112,1.1621 -1.077,1.1337 -1.077,4.0529 v 2.8059 h 10.9118 v 4.053 h -10.9118 v 27.6905 h -5.215 v -27.6905 h -8.4744 v -4.053 h 8.4744 v -2.2107 q 0,-5.215 2.3807,-7.6808 2.4091,-2.4658 7.4824,-2.4658 z"
         style="font-style:normal;font-variant:normal;font-weight:normal;font-stretch:normal;font-size:58.04519272px;line-height:125%;font-family:monospace;-inkscape-font-specification:monospace;text-align:center;text-anchor:middle;fill:#ffffff;fill-opacity:1"
         id="path30948" />
      <path
         d="m 1351.9733,1697.4528 h 13.3492 v 27.6905 h 10.345 v 4.053 h -25.9049 v -4.053 h 10.3449 v -23.6375 h -8.1342 z m 8.1342,-12.3573 h 5.215 v 6.6038 h -5.215 z"
         style="font-style:normal;font-variant:normal;font-weight:normal;font-stretch:normal;font-size:58.04519272px;line-height:125%;font-family:monospace;-inkscape-font-specification:monospace;text-align:center;text-anchor:middle;fill:#ffffff;fill-opacity:1"
         id="path30950" />
      <path
         d="m 1397.7462,1717.6893 q 0,3.5144 1.2754,5.3 1.3038,1.7856 3.8263,1.7856 h 6.0936 v 4.4214 h -6.6038 q -4.6765,0 -7.2557,-3.0043 -2.5508,-3.0043 -2.5508,-8.5027 v -28.8242 h -8.361 v -4.0813 h 13.576 z"
         style="font-style:normal;font-variant:normal;font-weight:normal;font-stretch:normal;font-size:58.04519272px;line-height:125%;font-family:monospace;-inkscape-font-specification:monospace;text-align:center;text-anchor:middle;fill:#ffffff;fill-opacity:1"
         id="path30952" />
      <path
         d="m 1446.07,1712.0208 v 2.5508 h -22.5889 v 0.1701 q 0,5.1866 2.6925,8.0209 2.7209,2.8342 7.6525,2.8342 2.4941,0 5.215,-0.7936 2.7208,-0.7936 5.8102,-2.4091 v 5.1867 q -2.976,1.2187 -5.7535,1.8139 -2.7493,0.6235 -5.3284,0.6235 -7.3974,0 -11.5637,-4.4214 -4.1663,-4.4497 -4.1663,-12.2439 0,-7.5958 4.0813,-12.1305 4.0813,-4.5348 10.8834,-4.5348 6.0653,0 9.5514,4.1096 3.5145,4.1097 3.5145,11.2236 z m -5.215,-1.5305 q -0.1134,-4.5914 -2.1824,-6.9722 -2.0406,-2.4091 -5.8952,-2.4091 -3.7695,0 -6.207,2.4941 -2.4374,2.4941 -2.8909,6.9156 z"
         style="font-style:normal;font-variant:normal;font-weight:normal;font-stretch:normal;font-size:58.04519272px;line-height:125%;font-family:monospace;-inkscape-font-specification:monospace;text-align:center;text-anchor:middle;fill:#ffffff;fill-opacity:1"
         id="path30954" />
      <path
         d="m 1463.3305,1720.5519 h 7.1423 v 8.6444 h -7.1423 z"
         style="font-style:normal;font-variant:normal;font-weight:normal;font-stretch:normal;font-size:58.04519272px;line-height:125%;font-family:monospace;-inkscape-font-specification:monospace;text-align:center;text-anchor:middle;fill:#ffffff;fill-opacity:1"
         id="path30956" />
      <path
         d="m 1501.7911,1688.4399 v 9.0129 h 11.8471 v 4.053 h -11.8471 v 17.2322 q 0,3.5144 1.3321,4.9032 1.3321,1.3888 4.6482,1.3888 h 5.8668 v 4.1663 h -6.377 q -5.8669,0 -8.276,-2.3524 -2.4091,-2.3524 -2.4091,-8.1059 v -17.2322 h -8.4744 v -4.053 h 8.4744 v -9.0129 z"
         style="font-style:normal;font-variant:normal;font-weight:normal;font-stretch:normal;font-size:58.04519272px;line-height:125%;font-family:monospace;-inkscape-font-specification:monospace;text-align:center;text-anchor:middle;fill:#ffffff;fill-opacity:1"
         id="path30958" />
      <path
         d="m 1550.9935,1697.4528 -11.3653,15.1915 12.4706,16.552 h -6.0369 l -9.2963,-12.7257 -9.268,12.7257 h -6.0369 l 12.4707,-16.552 -11.3653,-15.1915 h 5.7818 l 8.4177,11.4787 8.361,-11.4787 z"
         style="font-style:normal;font-variant:normal;font-weight:normal;font-stretch:normal;font-size:58.04519272px;line-height:125%;font-family:monospace;-inkscape-font-specification:monospace;text-align:center;text-anchor:middle;fill:#ffffff;fill-opacity:1"
         id="path30960" />
      <path
         d="m 1571.6267,1688.4399 v 9.0129 h 11.8471 v 4.053 h -11.8471 v 17.2322 q 0,3.5144 1.3321,4.9032 1.3321,1.3888 4.6482,1.3888 h 5.8668 v 4.1663 h -6.377 q -5.8669,0 -8.276,-2.3524 -2.4091,-2.3524 -2.4091,-8.1059 v -17.2322 h -8.4743 v -4.053 h 8.4743 v -9.0129 z"
         style="font-style:normal;font-variant:normal;font-weight:normal;font-stretch:normal;font-size:58.04519272px;line-height:125%;font-family:monospace;-inkscape-font-specification:monospace;text-align:center;text-anchor:middle;fill:#ffffff;fill-opacity:1"
         id="path30962" />
      <path
         d="m 1417.3875,1770.0093 h 5.4134 l 9.2113,26.6419 9.2396,-26.6419 h 5.4134 l -11.2803,31.7435 h -6.7171 z"
         style="font-style:normal;font-variant:normal;font-weight:normal;font-stretch:normal;font-size:58.04519272px;line-height:125%;font-family:monospace;-inkscape-font-specification:monospace;text-align:center;text-anchor:middle;fill:#ffffff;fill-opacity:1"
         id="path30964" />
      <path
         d="m 1460.0428,1796.9346 h 19.4429 v 4.8182 h -25.7066 v -4.8182 q 5.3,-5.5835 9.268,-9.8632 3.9679,-4.2797 5.47,-6.0369 2.8343,-3.4578 3.8263,-5.5834 0.992,-2.1541 0.992,-4.3931 0,-3.5428 -2.0974,-5.5551 -2.069,-2.0123 -5.6968,-2.0123 -2.5792,0 -5.4134,0.9353 -2.8342,0.9353 -6.0086,2.8342 v -5.7818 q 2.9193,-1.3888 5.7252,-2.0974 2.8342,-0.7085 5.5834,-0.7085 6.207,0 9.9765,3.316 3.7979,3.2877 3.7979,8.6444 0,2.7209 -1.2754,5.4418 -1.247,2.7209 -4.0813,6.0086 -1.5872,1.8422 -4.6198,5.1016 -3.0043,3.2594 -9.1829,9.7498 z"
         style="font-style:normal;font-variant:normal;font-weight:normal;font-stretch:normal;font-size:58.04519272px;line-height:125%;font-family:monospace;-inkscape-font-specification:monospace;text-align:center;text-anchor:middle;fill:#ffffff;fill-opacity:1"
         id="path30966" />
    </g>
    <g
       aria-label="git commit"
       style="font-style:normal;font-variant:normal;font-weight:normal;font-stretch:normal;line-height:0%;font-family:Photographs;-inkscape-font-specification:Photographs;letter-spacing:0px;word-spacing:0px;fill:#000000;fill-opacity:1;stroke:none;stroke-width:1px;stroke-linecap:butt;stroke-linejoin:miter;stroke-opacity:1"
       id="text5500">
      <path
         d="m 1685.3526,1659.3284 q 0,-5.8669 -1.9273,-8.8995 -1.899,-3.061 -5.5551,-3.061 -3.8263,0 -5.8386,3.061 -2.0123,3.0326 -2.0123,8.8995 0,5.8669 2.0123,8.9562 2.0407,3.061 5.8952,3.061 3.5995,0 5.4985,-3.0894 1.9273,-3.0893 1.9273,-8.9278 z m 5.215,14.0861 q 0,7.1423 -3.3728,10.8268 -3.3727,3.6845 -9.9198,3.6845 -2.154,0 -4.5065,-0.3967 -2.3524,-0.3968 -4.7048,-1.1621 v -5.1583 q 2.7776,1.3038 5.0449,1.9273 2.2674,0.6235 4.1664,0.6235 4.223,0 6.1503,-2.2957 1.9273,-2.2957 1.9273,-7.284 v -0.2267 -3.5428 q -1.2471,2.6641 -3.4011,3.9679 -2.1541,1.3037 -5.2434,1.3037 -5.5551,0 -8.8711,-4.4497 -3.3161,-4.4498 -3.3161,-11.9038 0,-7.4824 3.3161,-11.9322 3.316,-4.4497 8.8711,-4.4497 3.061,0 5.1867,1.2187 2.1257,1.2187 3.4578,3.7695 v -4.1096 h 5.215 z"
         style="font-style:normal;font-variant:normal;font-weight:normal;font-stretch:normal;font-size:58.04519653px;line-height:125%;font-family:monospace;-inkscape-font-specification:monospace;fill:#000000;fill-opacity:1"
         id="path30929" />
      <path
         d="m 1703.2083,1643.7117 h 13.3492 v 27.6905 h 10.345 v 4.053 h -25.905 v -4.053 h 10.345 v -23.6375 h -8.1342 z m 8.1342,-12.3572 h 5.215 v 6.6037 h -5.215 z"
         style="font-style:normal;font-variant:normal;font-weight:normal;font-stretch:normal;font-size:58.04519653px;line-height:125%;font-family:monospace;-inkscape-font-specification:monospace;fill:#000000;fill-opacity:1"
         id="path30931" />
      <path
         d="m 1748.2726,1634.6989 v 9.0128 h 11.8472 v 4.053 h -11.8472 v 17.2322 q 0,3.5144 1.3321,4.9032 1.3321,1.3888 4.6482,1.3888 h 5.8669 v 4.1663 h -6.3771 q -5.8669,0 -8.276,-2.3524 -2.4091,-2.3524 -2.4091,-8.1059 v -17.2322 h -8.4743 v -4.053 h 8.4743 v -9.0128 z"
         style="font-style:normal;font-variant:normal;font-weight:normal;font-stretch:normal;font-size:58.04519653px;line-height:125%;font-family:monospace;-inkscape-font-specification:monospace;fill:#000000;fill-opacity:1"
         id="path30933" />
      <path
         d="m 1830.7773,1673.8397 q -2.0973,1.2187 -4.3364,1.8139 -2.2107,0.6235 -4.5348,0.6235 -7.369,0 -11.5353,-4.4214 -4.138,-4.4214 -4.138,-12.2439 0,-7.8225 4.138,-12.2439 4.1663,-4.4214 11.5353,-4.4214 2.2958,0 4.4781,0.5952 2.1824,0.5952 4.3931,1.8422 v 5.4701 q -2.069,-1.8422 -4.1663,-2.6642 -2.069,-0.8219 -4.7049,-0.8219 -4.9032,0 -7.539,3.1743 -2.6359,3.1744 -2.6359,9.0696 0,5.8669 2.6359,9.0696 2.6642,3.1743 7.539,3.1743 2.7209,0 4.8749,-0.8219 2.1541,-0.8503 3.9963,-2.6075 z"
         style="font-style:normal;font-variant:normal;font-weight:normal;font-stretch:normal;font-size:58.04519653px;line-height:125%;font-family:monospace;-inkscape-font-specification:monospace;fill:#000000;fill-opacity:1"
         id="path30935" />
      <path
         d="m 1853.0828,1647.3679 q -3.968,0 -6.0086,3.0893 -2.0407,3.0893 -2.0407,9.1546 0,6.0369 2.0407,9.1546 2.0406,3.0893 6.0086,3.0893 3.9962,0 6.0369,-3.0893 2.0406,-3.1177 2.0406,-9.1546 0,-6.0653 -2.0406,-9.1546 -2.0407,-3.0893 -6.0369,-3.0893 z m 0,-4.4214 q 6.6037,0 10.0899,4.2797 3.5144,4.2797 3.5144,12.3856 0,8.1343 -3.4861,12.414 -3.4861,4.2513 -10.1182,4.2513 -6.6038,0 -10.0899,-4.2513 -3.4861,-4.2797 -3.4861,-12.414 0,-8.1059 3.4861,-12.3856 3.4861,-4.2797 10.0899,-4.2797 z"
         style="font-style:normal;font-variant:normal;font-weight:normal;font-stretch:normal;font-size:58.04519653px;line-height:125%;font-family:monospace;-inkscape-font-specification:monospace;fill:#000000;fill-opacity:1"
         id="path30937" />
      <path
         d="m 1889.7011,1646.9428 q 0.9636,-2.0407 2.4375,-3.0043 1.5021,-0.992 3.5994,-0.992 3.8263,0 5.3851,2.9759 1.5872,2.9476 1.5872,11.1386 v 18.3942 h -4.7616 v -18.1675 q 0,-6.7171 -0.7652,-8.3326 -0.7369,-1.6439 -2.7209,-1.6439 -2.2674,0 -3.1176,1.7572 -0.822,1.7289 -0.822,8.2193 v 18.1675 h -4.7615 v -18.1675 q 0,-6.8021 -0.8219,-8.3893 -0.7936,-1.5872 -2.8909,-1.5872 -2.069,0 -2.891,1.7572 -0.7935,1.7289 -0.7935,8.2193 v 18.1675 h -4.7332 v -31.7435 h 4.7332 v 2.7209 q 0.9353,-1.7005 2.324,-2.5792 1.4171,-0.9069 3.2027,-0.9069 2.154,0 3.5712,0.992 1.4454,0.992 2.239,3.0043 z"
         style="font-style:normal;font-variant:normal;font-weight:normal;font-stretch:normal;font-size:58.04519653px;line-height:125%;font-family:monospace;-inkscape-font-specification:monospace;fill:#000000;fill-opacity:1"
         id="path30939" />
      <path
         d="m 1924.6189,1646.9428 q 0.9637,-2.0407 2.4375,-3.0043 1.5021,-0.992 3.5994,-0.992 3.8263,0 5.3851,2.9759 1.5872,2.9476 1.5872,11.1386 v 18.3942 h -4.7615 v -18.1675 q 0,-6.7171 -0.7653,-8.3326 -0.7369,-1.6439 -2.7209,-1.6439 -2.2673,0 -3.1176,1.7572 -0.8219,1.7289 -0.8219,8.2193 v 18.1675 h -4.7616 v -18.1675 q 0,-6.8021 -0.8219,-8.3893 -0.7936,-1.5872 -2.8909,-1.5872 -2.069,0 -2.8909,1.7572 -0.7936,1.7289 -0.7936,8.2193 v 18.1675 h -4.7332 v -31.7435 h 4.7332 v 2.7209 q 0.9353,-1.7005 2.324,-2.5792 1.4172,-0.9069 3.2027,-0.9069 2.1541,0 3.5712,0.992 1.4454,0.992 2.239,3.0043 z"
         style="font-style:normal;font-variant:normal;font-weight:normal;font-stretch:normal;font-size:58.04519653px;line-height:125%;font-family:monospace;-inkscape-font-specification:monospace;fill:#000000;fill-opacity:1"
         id="path30941" />
      <path
         d="m 1947.6329,1643.7117 h 13.3493 v 27.6905 h 10.345 v 4.053 h -25.905 v -4.053 h 10.345 v -23.6375 h -8.1343 z m 8.1343,-12.3572 h 5.215 v 6.6037 h -5.215 z"
         style="font-style:normal;font-variant:normal;font-weight:normal;font-stretch:normal;font-size:58.04519653px;line-height:125%;font-family:monospace;-inkscape-font-specification:monospace;fill:#000000;fill-opacity:1"
         id="path30943" />
      <path
         d="m 1992.6973,1634.6989 v 9.0128 h 11.8471 v 4.053 h -11.8471 v 17.2322 q 0,3.5144 1.3321,4.9032 1.3321,1.3888 4.6482,1.3888 h 5.8668 v 4.1663 h -6.377 q -5.8669,0 -8.276,-2.3524 -2.4091,-2.3524 -2.4091,-8.1059 v -17.2322 h -8.4743 v -4.053 h 8.4743 v -9.0128 z"
         style="font-style:normal;font-variant:normal;font-weight:normal;font-stretch:normal;font-size:58.04519653px;line-height:125%;font-family:monospace;-inkscape-font-specification:monospace;fill:#000000;fill-opacity:1"
         id="path30945" />
    </g>
    <path
       transform="matrix(0,1,-1,0,0,0)"
       style="fill:#000000;fill-opacity:1;stroke:none;stroke-width:5.80000019;stroke-linejoin:round;stroke-miterlimit:4;stroke-dasharray:none;stroke-dashoffset:0;stroke-opacity:1"
       d="m 1709.1887,-1998.9178 h 7.8547 c 2.6478,0 4.7795,2.1316 4.7795,4.7794 v 329.7797 c 0,2.6478 -2.1317,4.7794 -4.7795,4.7794 h -7.8547 c -2.6478,0 -4.7794,-2.1316 -4.7794,-4.7794 v -329.7797 c 0,-2.6478 2.1316,-4.7794 4.7794,-4.7794 z"
       id="rect5504" />
    <path
       style="fill:#000000;fill-opacity:1;stroke:none;stroke-width:0;stroke-linejoin:miter;stroke-miterlimit:4;stroke-dasharray:none;stroke-opacity:0.62420379"
       inkscape:transform-center-x="18.813067"
       inkscape:transform-center-y="-19.550412"
       d="m 1969.3819,1738.2529 0,-49.7178 49.5075,24.8589 z"
       id="path5506"
       inkscape:connector-curvature="0"
       sodipodi:nodetypes="cccc" />
    <rect
       ry="8.3103714"
       y="2170.5178"
       x="2035.5642"
       height="265.38229"
       width="384.36383"
       id="rect30878"
       style="fill:none;fill-opacity:1;stroke:#000000;stroke-width:13.2299633;stroke-linejoin:round;stroke-miterlimit:4;stroke-dasharray:none;stroke-opacity:1" />
    <text
       xml:space="preserve"
       style="font-style:normal;font-variant:normal;font-weight:normal;font-stretch:normal;line-height:0%;font-family:Photographs;-inkscape-font-specification:Photographs;letter-spacing:0px;word-spacing:0px;fill:#000000;fill-opacity:1;stroke:none;stroke-width:1px;stroke-linecap:butt;stroke-linejoin:miter;stroke-opacity:1"
       x="2227.9626"
       y="2248.5911"
       id="text30882"
       inkscape:export-xdpi="90"
       inkscape:export-ydpi="90"><tspan
         id="tspan30880"
         sodipodi:role="line"
         x="2227.9626"
         y="2248.5911"
         style="font-style:normal;font-variant:normal;font-weight:normal;font-stretch:normal;font-size:79.81214905px;line-height:125%;font-family:Photographs;-inkscape-font-specification:Photographs;text-align:center;text-anchor:middle;fill:#000000;fill-opacity:1">HEAD</tspan></text>
    <rect
       ry="12.801652"
       y="2257.4468"
       x="2048.3381"
       height="166.87993"
       width="358.30847"
       id="rect30884"
       style="opacity:1;fill:#7e005e;fill-opacity:1;stroke:none;stroke-width:5.80000019;stroke-linejoin:round;stroke-miterlimit:4;stroke-dasharray:none;stroke-dashoffset:0;stroke-opacity:1" />
    <text
       inkscape:export-ydpi="90"
       inkscape:export-xdpi="90"
       id="text30890"
       y="2329.1963"
       x="2229.4707"
       style="font-style:normal;font-variant:normal;font-weight:normal;font-stretch:normal;line-height:0%;font-family:Photographs;-inkscape-font-specification:Photographs;letter-spacing:0px;word-spacing:0px;fill:#ffffff;fill-opacity:1;stroke:none;stroke-width:1px;stroke-linecap:butt;stroke-linejoin:miter;stroke-opacity:1"
       xml:space="preserve"><tspan
         style="font-style:normal;font-variant:normal;font-weight:normal;font-stretch:normal;font-size:58.04519272px;line-height:125%;font-family:monospace;-inkscape-font-specification:monospace;text-align:center;text-anchor:middle;fill:#ffffff;fill-opacity:1"
         y="2329.1963"
         x="2229.4707"
         sodipodi:role="line"
         id="tspan30886">file.txt</tspan><tspan
         id="tspan30888"
         style="font-style:normal;font-variant:normal;font-weight:normal;font-stretch:normal;font-size:58.04519272px;line-height:125%;font-family:monospace;-inkscape-font-specification:monospace;text-align:center;text-anchor:middle;fill:#ffffff;fill-opacity:1"
         y="2401.7527"
         x="2229.4707"
         sodipodi:role="line">v2</tspan></text>
    <rect
       ry="8.3103714"
       y="2170.5205"
       x="475.56375"
       height="265.38226"
       width="384.3638"
       id="rect30892"
       style="fill:none;fill-opacity:1;stroke:#000000;stroke-width:13.22996426;stroke-linejoin:round;stroke-miterlimit:4;stroke-dasharray:none;stroke-opacity:1" />
    <text
       xml:space="preserve"
       style="font-style:normal;font-variant:normal;font-weight:normal;font-stretch:normal;line-height:0%;font-family:Photographs;-inkscape-font-specification:Photographs;letter-spacing:0px;word-spacing:0px;fill:#000000;fill-opacity:1;stroke:none;stroke-width:1px;stroke-linecap:butt;stroke-linejoin:miter;stroke-opacity:1"
       x="667.96179"
       y="2248.5938"
       id="text30896"
       inkscape:export-xdpi="90"
       inkscape:export-ydpi="90"><tspan
         id="tspan30894"
         sodipodi:role="line"
         x="667.96179"
         y="2248.5938"
         style="font-style:normal;font-variant:normal;font-weight:normal;font-stretch:normal;font-size:79.81214905px;line-height:125%;font-family:Photographs;-inkscape-font-specification:Photographs;text-align:center;text-anchor:middle;fill:#000000;fill-opacity:1">Working Directory</tspan></text>
    <rect
       ry="12.80165"
       y="2257.4502"
       x="488.33792"
       height="166.87991"
       width="358.30844"
       id="rect30898"
       style="opacity:1;fill:#7e005e;fill-opacity:1;stroke:none;stroke-width:5.80000019;stroke-linejoin:round;stroke-miterlimit:4;stroke-dasharray:none;stroke-dashoffset:0;stroke-opacity:1" />
    <text
       inkscape:export-ydpi="90"
       inkscape:export-xdpi="90"
       id="text30904"
       y="2329.1982"
       x="669.46985"
       style="font-style:normal;font-variant:normal;font-weight:normal;font-stretch:normal;line-height:0%;font-family:Photographs;-inkscape-font-specification:Photographs;letter-spacing:0px;word-spacing:0px;fill:#ffffff;fill-opacity:1;stroke:none;stroke-width:1px;stroke-linecap:butt;stroke-linejoin:miter;stroke-opacity:1"
       xml:space="preserve"><tspan
         style="font-style:normal;font-variant:normal;font-weight:normal;font-stretch:normal;font-size:58.04519653px;line-height:125%;font-family:monospace;-inkscape-font-specification:monospace;text-align:center;text-anchor:middle;fill:#ffffff;fill-opacity:1"
         y="2329.1982"
         x="669.46985"
         sodipodi:role="line"
         id="tspan30900">file.txt</tspan><tspan
         id="tspan30902"
         style="font-style:normal;font-variant:normal;font-weight:normal;font-stretch:normal;font-size:58.04519653px;line-height:125%;font-family:monospace;-inkscape-font-specification:monospace;text-align:center;text-anchor:middle;fill:#ffffff;fill-opacity:1"
         y="2401.7546"
         x="669.46985"
         sodipodi:role="line">v2</tspan></text>
    <rect
       ry="8.3103714"
       y="2170.5178"
       x="1255.5646"
       height="265.38229"
       width="384.36383"
       id="rect30906"
       style="fill:none;fill-opacity:1;stroke:#000000;stroke-width:13.2299633;stroke-linejoin:round;stroke-miterlimit:4;stroke-dasharray:none;stroke-opacity:1" />
    <text
       xml:space="preserve"
       style="font-style:normal;font-variant:normal;font-weight:normal;font-stretch:normal;line-height:0%;font-family:Photographs;-inkscape-font-specification:Photographs;letter-spacing:0px;word-spacing:0px;fill:#000000;fill-opacity:1;stroke:none;stroke-width:1px;stroke-linecap:butt;stroke-linejoin:miter;stroke-opacity:1"
       x="1447.963"
       y="2248.5911"
       id="text30910"
       inkscape:export-xdpi="90"
       inkscape:export-ydpi="90"><tspan
         id="tspan30908"
         sodipodi:role="line"
         x="1447.963"
         y="2248.5911"
         style="font-style:normal;font-variant:normal;font-weight:normal;font-stretch:normal;font-size:79.81214905px;line-height:125%;font-family:Photographs;-inkscape-font-specification:Photographs;text-align:center;text-anchor:middle;fill:#000000;fill-opacity:1">Index</tspan></text>
    <rect
       ry="12.801652"
       y="2257.4468"
       x="1268.3385"
       height="166.87993"
       width="358.30847"
       id="rect30912"
       style="opacity:1;fill:#7e005e;fill-opacity:1;stroke:none;stroke-width:5.80000019;stroke-linejoin:round;stroke-miterlimit:4;stroke-dasharray:none;stroke-dashoffset:0;stroke-opacity:1" />
    <text
       inkscape:export-ydpi="90"
       inkscape:export-xdpi="90"
       id="text30918"
       y="2329.1963"
       x="1449.4711"
       style="font-style:normal;font-variant:normal;font-weight:normal;font-stretch:normal;line-height:0%;font-family:Photographs;-inkscape-font-specification:Photographs;letter-spacing:0px;word-spacing:0px;fill:#ffffff;fill-opacity:1;stroke:none;stroke-width:1px;stroke-linecap:butt;stroke-linejoin:miter;stroke-opacity:1"
       xml:space="preserve"><tspan
         style="font-style:normal;font-variant:normal;font-weight:normal;font-stretch:normal;font-size:58.04519272px;line-height:125%;font-family:monospace;-inkscape-font-specification:monospace;text-align:center;text-anchor:middle;fill:#ffffff;fill-opacity:1"
         y="2329.1963"
         x="1449.4711"
         sodipodi:role="line"
         id="tspan30914">file.txt</tspan><tspan
         id="tspan30916"
         style="font-style:normal;font-variant:normal;font-weight:normal;font-stretch:normal;font-size:58.04519272px;line-height:125%;font-family:monospace;-inkscape-font-specification:monospace;text-align:center;text-anchor:middle;fill:#ffffff;fill-opacity:1"
         y="2401.7527"
         x="1449.4711"
         sodipodi:role="line">v2</tspan></text>
    <text
       xml:space="preserve"
       style="font-style:normal;font-variant:normal;font-weight:normal;font-stretch:normal;line-height:0%;font-family:Photographs;-inkscape-font-specification:Photographs;letter-spacing:0px;word-spacing:0px;fill:#000000;fill-opacity:1;stroke:none;stroke-width:1px;stroke-linecap:butt;stroke-linejoin:miter;stroke-opacity:1"
       x="1661.0348"
       y="2275.4551"
       id="text30922"
       inkscape:export-xdpi="90"
       inkscape:export-ydpi="90"><tspan
         id="tspan30920"
         sodipodi:role="line"
         x="1661.0348"
         y="2275.4551"
         style="font-style:normal;font-variant:normal;font-weight:normal;font-stretch:normal;font-size:58.04519653px;line-height:125%;font-family:monospace;-inkscape-font-specification:monospace;fill:#000000;fill-opacity:1">git commit</tspan></text>
    <rect
       style="fill:#000000;fill-opacity:1;stroke:none;stroke-width:5.80000019;stroke-linejoin:round;stroke-miterlimit:4;stroke-dasharray:none;stroke-dashoffset:0;stroke-opacity:1"
       id="rect30924"
       width="17.413555"
       height="339.33859"
       x="2304.4092"
       y="-1998.9178"
       ry="4.7794175"
       transform="rotate(90)" />
    <path
       sodipodi:nodetypes="cccc"
       inkscape:connector-curvature="0"
       id="path30926"
       d="m 1969.3819,2338.2529 v -49.7178 l 49.5075,24.8589 z"
       inkscape:transform-center-y="-19.550412"
       inkscape:transform-center-x="18.813067"
       style="fill:#000000;fill-opacity:1;stroke:none;stroke-width:0;stroke-linejoin:miter;stroke-miterlimit:4;stroke-dasharray:none;stroke-opacity:0.62420379" />
  </g>
</svg>
