<?xml version="1.0" encoding="UTF-8" standalone="no"?>
<!-- Created with Inkscape (http://www.inkscape.org/) -->

<svg
   xmlns:dc="http://purl.org/dc/elements/1.1/"
   xmlns:cc="http://creativecommons.org/ns#"
   xmlns:rdf="http://www.w3.org/1999/02/22-rdf-syntax-ns#"
   xmlns:svg="http://www.w3.org/2000/svg"
   xmlns="http://www.w3.org/2000/svg"
   xmlns:sodipodi="http://sodipodi.sourceforge.net/DTD/sodipodi-0.dtd"
   xmlns:inkscape="http://www.inkscape.org/namespaces/inkscape"
   width="552.47668mm"
   height="103.5399mm"
   viewBox="0 0 1957.5945 366.87364"
   id="svg7431"
   version="1.1"
   inkscape:version="0.92.1 r"
   sodipodi:docname="git-index-reset-file.svg">
  <defs
     id="defs7433" />
  <sodipodi:namedview
     id="base"
     pagecolor="#ffffff"
     bordercolor="#666666"
     borderopacity="1.0"
     inkscape:pageopacity="0.0"
     inkscape:pageshadow="2"
     inkscape:zoom="0.24748737"
     inkscape:cx="520.83635"
     inkscape:cy="-262.79587"
     inkscape:document-units="px"
     inkscape:current-layer="layer1"
     showgrid="false"
     fit-margin-top="0"
     fit-margin-left="0"
     fit-margin-right="0"
     fit-margin-bottom="0"
     inkscape:window-width="1920"
     inkscape:window-height="1023"
     inkscape:window-x="0"
     inkscape:window-y="0"
     inkscape:window-maximized="1" />
  <metadata
     id="metadata7436">
    <rdf:RDF>
      <cc:Work
         rdf:about="">
        <dc:format>image/svg+xml</dc:format>
        <dc:type
           rdf:resource="http://purl.org/dc/dcmitype/StillImage" />
        <dc:title />
      </cc:Work>
    </rdf:RDF>
  </metadata>
  <g
     inkscape:label="Calque 1"
     inkscape:groupmode="layer"
     id="layer1"
     transform="translate(-468.94877,-1475.6443)">
    <g
       transform="matrix(3,0,0,3,-5220.9553,30805.383)"
       id="g5361">
      <path
         style="fill:none;fill-opacity:1;stroke:#000000;stroke-width:4.40998793;stroke-linejoin:round;stroke-miterlimit:4;stroke-dasharray:none;stroke-opacity:1"
         d="m 2421.61,-9744.9551 h 122.581 c 1.5346,0 2.7701,1.2355 2.7701,2.7701 v 82.9206 c 0,1.5346 -1.2355,2.7701 -2.7701,2.7701 H 2421.61 c -1.5347,0 -2.7702,-1.2355 -2.7702,-2.7701 v -82.9206 c 0,-1.5346 1.2355,-2.7701 2.7702,-2.7701 z"
         id="rect5363" />
      <g
         aria-label="HEAD"
         style="font-style:normal;font-variant:normal;font-weight:normal;font-stretch:normal;line-height:0%;font-family:Photographs;-inkscape-font-specification:Photographs;letter-spacing:0px;word-spacing:0px;fill:#000000;fill-opacity:1;stroke:none;stroke-width:1px;stroke-linecap:butt;stroke-linejoin:miter;stroke-opacity:1"
         id="text5365">
        <path
           d="m 2472.2265,-9738.8837 q 0,-0.5321 0.266,-0.8513 0.2927,-0.3459 0.6119,-0.3725 0.3459,-0.053 0.6651,0.2394 0.3193,0.2661 0.3991,0.9578 -0.053,4.7621 -0.027,9.471 0.053,4.6823 0.027,9.4977 -0.1064,0.3458 -0.3725,0.5587 -0.266,0.1862 -0.5853,0.2128 -0.3192,0.027 -0.6119,-0.133 -0.266,-0.1862 -0.399,-0.5853 0.027,-2.1017 0.027,-3.9374 0.027,-1.8357 0.027,-3.831 -0.4523,-0.133 -0.9045,-0.1064 -0.4257,0.027 -0.878,0.133 -0.4522,0.1064 -0.9045,0.2661 -0.4257,0.1596 -0.8513,0.266 0.027,1.9155 0.027,3.6181 0,1.7027 -0.027,3.5384 -0.08,0.3458 -0.3725,0.5587 -0.266,0.1862 -0.5853,0.2128 -0.3192,0.027 -0.6119,-0.133 -0.2926,-0.1862 -0.4256,-0.5853 0.053,-2.5274 0.053,-4.8153 0.027,-2.3146 0.027,-4.5759 0,-2.288 -0.027,-4.6291 0,-2.3678 0,-4.975 0.027,-0.5853 0.3192,-0.8779 0.2927,-0.3193 0.6385,-0.3193 0.3459,-0.027 0.6385,0.2661 0.3193,0.2926 0.3459,0.9045 -0.027,2.4742 -0.027,4.8153 0,2.3146 0.027,4.842 0.3458,-0.1331 0.7981,-0.2661 0.4789,-0.133 0.9577,-0.2128 0.5055,-0.08 0.9578,-0.08 0.4522,0 0.8247,0.133 0,-2.3146 -0.027,-4.4961 0,-2.1815 0,-4.7089 z"
           style="font-style:normal;font-variant:normal;font-weight:normal;font-stretch:normal;font-size:26.60404968px;line-height:125%;font-family:Photographs;-inkscape-font-specification:Photographs;text-align:center;text-anchor:middle;fill:#000000;fill-opacity:1"
           id="path30482" />
        <path
           d="m 2476.3306,-9718.9041 q -0.4523,-0.08 -0.8513,-0.3458 -0.3725,-0.2927 -0.3725,-0.8247 0.08,-2.3412 0.08,-4.4961 0.027,-2.155 0.027,-4.2833 0,-2.1283 -0.027,-4.3098 0,-2.2082 0,-4.6025 -0.3725,-0.7982 -0.1064,-1.3036 0.266,-0.5055 0.9045,-0.7715 0.6385,-0.2661 1.5165,-0.3193 0.8779,-0.053 1.7292,0.027 0.8514,0.08 1.5431,0.266 0.6917,0.1597 0.9577,0.3725 0.3193,0.3193 0.3459,0.6385 0.027,0.3193 -0.1597,0.5587 -0.1862,0.2128 -0.532,0.3458 -0.3193,0.1065 -0.7184,0.027 -0.9577,-0.053 -1.8356,-0.133 -0.8514,-0.1064 -1.7559,0.053 0,2.0751 0,4.1769 0,2.0751 0.027,4.23 0.6651,0.027 1.2238,-0.08 0.5853,-0.133 1.1972,-0.1862 0.2926,-0.053 0.5587,0.053 0.2926,0.08 0.4788,0.2926 0.1863,0.1863 0.2129,0.5055 0.027,0.2926 -0.2129,0.6385 -0.6119,0.5321 -1.5696,0.7183 -0.9578,0.1596 -1.8889,0.1064 0.053,1.7559 0.053,3.3521 0,1.5963 -0.053,3.3255 1.011,-0.027 2.0751,-0.1862 1.0642,-0.1596 1.9687,-0.5321 0.4789,-0.1064 0.7715,0.1064 0.2927,0.2129 0.3725,0.5587 0.1064,0.3193 -0.053,0.6917 -0.133,0.3725 -0.5321,0.5853 -1.1972,0.4523 -2.6604,0.6385 -1.4366,0.1596 -2.7136,0.1064 z"
           style="font-style:normal;font-variant:normal;font-weight:normal;font-stretch:normal;font-size:26.60404968px;line-height:125%;font-family:Photographs;-inkscape-font-specification:Photographs;text-align:center;text-anchor:middle;fill:#000000;fill-opacity:1"
           id="path30484" />
        <path
           d="m 2485.166,-9725.9807 q -0.1862,1.5164 -0.2926,3.0594 -0.08,1.5165 -0.133,3.0329 -0.08,0.5321 -0.3991,0.7715 -0.2926,0.2128 -0.6385,0.1862 -0.3192,-0.053 -0.6119,-0.3192 -0.2926,-0.2927 -0.3458,-0.8247 0.2394,-4.7888 0.7981,-9.5775 0.5853,-4.8153 1.3834,-9.6041 0.08,-0.3458 0.4257,-0.5586 0.3458,-0.2129 0.7449,-0.2395 0.399,-0.027 0.7449,0.1596 0.3724,0.1863 0.5055,0.6385 0.4256,2.4476 0.8513,4.8154 0.4257,2.3677 0.8513,4.7089 0.4257,2.3411 0.8248,4.7089 0.399,2.3412 0.7715,4.8153 0.027,0.5055 -0.2129,0.8514 -0.2394,0.3192 -0.5853,0.4256 -0.3192,0.08 -0.6651,-0.1064 -0.3458,-0.2128 -0.5054,-0.7449 -0.1331,-0.9045 -0.2661,-1.7027 -0.133,-0.8247 -0.2926,-1.6228 -0.133,-0.7981 -0.2927,-1.5962 -0.1596,-0.8248 -0.3192,-1.7293 -0.5321,-0.053 -1.1174,0.027 -0.5853,0.053 -1.2238,0.4257 z m 0.2395,-2.288 q 0.4522,-0.1064 0.8779,-0.133 0.4523,-0.027 0.9045,-0.027 -0.2128,-1.3036 -0.4522,-2.6072 -0.2129,-1.3036 -0.4257,-2.6338 l -0.133,-0.7715 q -0.053,0.3724 -0.08,0.7449 -0.027,0.3458 -0.08,0.7183 z"
           style="font-style:normal;font-variant:normal;font-weight:normal;font-stretch:normal;font-size:26.60404968px;line-height:125%;font-family:Photographs;-inkscape-font-specification:Photographs;text-align:center;text-anchor:middle;fill:#000000;fill-opacity:1"
           id="path30486" />
        <path
           d="m 2491.534,-9739.1497 q -0.027,-0.2661 0.1064,-0.5853 0.1596,-0.3459 0.6119,-0.3459 1.7292,-0.1064 3.0062,0.6385 1.3036,0.7449 2.155,2.0751 0.8779,1.3036 1.3036,3.0595 0.4522,1.7293 0.4788,3.6181 0.053,1.8889 -0.3192,3.7778 -0.3725,1.8623 -1.144,3.4852 -0.7449,1.5962 -1.9155,2.7668 -1.144,1.1706 -2.687,1.6494 -0.2394,0.08 -0.5587,0.08 -0.2926,0 -0.5587,-0.053 -0.2394,-0.08 -0.4256,-0.2128 -0.1597,-0.1596 -0.1597,-0.4257 -0.027,-5.507 0.027,-10.2691 0.08,-4.7622 0.08,-9.2582 z m 1.8622,1.0641 q -0.027,4.1503 0,8.3271 0.027,4.1768 0,8.3803 1.1174,-0.6385 1.9155,-1.7559 0.7982,-1.144 1.2504,-2.5274 0.4789,-1.41 0.6385,-2.953 0.1597,-1.5697 0.027,-3.0329 -0.133,-1.4898 -0.5853,-2.7934 -0.4522,-1.3302 -1.1705,-2.2348 -0.5055,-0.6385 -1.0642,-1.0109 -0.5587,-0.3991 -1.011,-0.3991 z"
           style="font-style:normal;font-variant:normal;font-weight:normal;font-stretch:normal;font-size:26.60404968px;line-height:125%;font-family:Photographs;-inkscape-font-specification:Photographs;text-align:center;text-anchor:middle;fill:#000000;fill-opacity:1"
           id="path30488" />
      </g>
      <g
         transform="matrix(0.96741988,0,0,0.96741988,-97.829947,-7032.2568)"
         id="g5369">
        <path
           style="opacity:1;fill:#364a62;fill-opacity:1;stroke:none;stroke-width:5.80000019;stroke-linejoin:round;stroke-miterlimit:4;stroke-dasharray:none;stroke-dashoffset:0;stroke-opacity:1"
           d="m 2610.2369,-2774.1025 h 114.6366 c 2.4436,0 4.4109,1.9672 4.4109,4.4109 v 48.6781 c 0,2.4437 -1.9673,4.411 -4.4109,4.411 h -114.6366 c -2.4437,0 -4.411,-1.9673 -4.411,-4.411 v -48.6781 c 0,-2.4437 1.9673,-4.4109 4.411,-4.4109 z"
           id="rect5371" />
        <g
           aria-label="file.txt
v1"
           style="font-style:normal;font-variant:normal;font-weight:normal;font-stretch:normal;line-height:0%;font-family:Photographs;-inkscape-font-specification:Photographs;letter-spacing:0px;word-spacing:0px;fill:#ffffff;fill-opacity:1;stroke:none;stroke-width:1px;stroke-linecap:butt;stroke-linejoin:miter;stroke-opacity:1"
           id="text5373">
          <path
             d="m 2630.4927,-2764.5759 v 1.4941 h -2.041 q -0.9668,0 -1.3477,0.4004 -0.3711,0.3906 -0.3711,1.3965 v 0.9668 h 3.7598 v 1.3965 h -3.7598 v 9.541 h -1.7969 v -9.541 h -2.9199 v -1.3965 h 2.9199 v -0.7617 q 0,-1.7969 0.8203,-2.6465 0.8301,-0.8496 2.5782,-0.8496 z"
             style="font-style:normal;font-variant:normal;font-weight:normal;font-stretch:normal;font-size:20px;line-height:125%;font-family:monospace;-inkscape-font-specification:monospace;text-align:center;text-anchor:middle;fill:#ffffff;fill-opacity:1"
             id="path30492" />
          <path
             d="m 2634.6431,-2760.3181 h 4.5996 v 9.541 h 3.5644 v 1.3965 h -8.9258 v -1.3965 h 3.5645 v -8.1445 h -2.8027 z m 2.8027,-4.2578 h 1.7969 v 2.2754 h -1.7969 z"
             style="font-style:normal;font-variant:normal;font-weight:normal;font-stretch:normal;font-size:20px;line-height:125%;font-family:monospace;-inkscape-font-specification:monospace;text-align:center;text-anchor:middle;fill:#ffffff;fill-opacity:1"
             id="path30494" />
          <path
             d="m 2650.4146,-2753.3455 q 0,1.211 0.4394,1.8262 0.4492,0.6152 1.3184,0.6152 h 2.0996 v 1.5235 h -2.2754 q -1.6113,0 -2.5,-1.0352 -0.8789,-1.0351 -0.8789,-2.9297 v -9.9316 h -2.8809 v -1.4062 h 4.6778 z"
             style="font-style:normal;font-variant:normal;font-weight:normal;font-stretch:normal;font-size:20px;line-height:125%;font-family:monospace;-inkscape-font-specification:monospace;text-align:center;text-anchor:middle;fill:#ffffff;fill-opacity:1"
             id="path30496" />
          <path
             d="m 2667.0649,-2755.2986 v 0.8789 h -7.7832 v 0.059 q 0,1.7871 0.9278,2.7637 0.9375,0.9766 2.6367,0.9766 0.8594,0 1.7969,-0.2735 0.9375,-0.2734 2.0019,-0.8301 v 1.7871 q -1.0254,0.42 -1.9824,0.625 -0.9473,0.2149 -1.8359,0.2149 -2.5489,0 -3.9844,-1.5234 -1.4356,-1.5333 -1.4356,-4.2188 0,-2.6172 1.4063,-4.1797 1.4062,-1.5625 3.75,-1.5625 2.0898,0 3.291,1.416 1.2109,1.416 1.2109,3.8672 z m -1.7968,-0.5273 q -0.039,-1.5821 -0.752,-2.4024 -0.7031,-0.83 -2.0312,-0.83 -1.2989,0 -2.1387,0.8593 -0.8399,0.8594 -0.9961,2.3828 z"
             style="font-style:normal;font-variant:normal;font-weight:normal;font-stretch:normal;font-size:20px;line-height:125%;font-family:monospace;-inkscape-font-specification:monospace;text-align:center;text-anchor:middle;fill:#ffffff;fill-opacity:1"
             id="path30498" />
          <path
             d="m 2673.0122,-2752.3591 h 2.4609 v 2.9785 h -2.4609 z"
             style="font-style:normal;font-variant:normal;font-weight:normal;font-stretch:normal;font-size:20px;line-height:125%;font-family:monospace;-inkscape-font-specification:monospace;text-align:center;text-anchor:middle;fill:#ffffff;fill-opacity:1"
             id="path30500" />
          <path
             d="m 2686.2642,-2763.4236 v 3.1055 h 4.082 v 1.3965 h -4.082 v 5.9375 q 0,1.2109 0.4589,1.6894 0.459,0.4785 1.6016,0.4785 h 2.0215 v 1.4356 h -2.1973 q -2.0215,0 -2.8515,-0.8106 -0.8301,-0.8105 -0.8301,-2.7929 v -5.9375 h -2.9199 v -1.3965 h 2.9199 v -3.1055 z"
             style="font-style:normal;font-variant:normal;font-weight:normal;font-stretch:normal;font-size:20px;line-height:125%;font-family:monospace;-inkscape-font-specification:monospace;text-align:center;text-anchor:middle;fill:#ffffff;fill-opacity:1"
             id="path30502" />
          <path
             d="m 2703.2173,-2760.3181 -3.916,5.2344 4.2968,5.7031 h -2.08 l -3.2032,-4.3848 -3.1933,4.3848 h -2.0801 l 4.2969,-5.7031 -3.916,-5.2344 h 1.9922 l 2.9003,3.9551 2.8809,-3.9551 z"
             style="font-style:normal;font-variant:normal;font-weight:normal;font-stretch:normal;font-size:20px;line-height:125%;font-family:monospace;-inkscape-font-specification:monospace;text-align:center;text-anchor:middle;fill:#ffffff;fill-opacity:1"
             id="path30504" />
          <path
             d="m 2710.3267,-2763.4236 v 3.1055 h 4.082 v 1.3965 h -4.082 v 5.9375 q 0,1.2109 0.4589,1.6894 0.459,0.4785 1.6016,0.4785 h 2.0215 v 1.4356 h -2.1973 q -2.0215,0 -2.8515,-0.8106 -0.8301,-0.8105 -0.8301,-2.7929 v -5.9375 h -2.9199 v -1.3965 h 2.9199 v -3.1055 z"
             style="font-style:normal;font-variant:normal;font-weight:normal;font-stretch:normal;font-size:20px;line-height:125%;font-family:monospace;-inkscape-font-specification:monospace;text-align:center;text-anchor:middle;fill:#ffffff;fill-opacity:1"
             id="path30506" />
          <path
             d="m 2657.1821,-2735.3181 h 1.8653 l 3.1738,9.1797 3.1836,-9.1797 h 1.8652 l -3.8867,10.9375 h -2.3145 z"
             style="font-style:normal;font-variant:normal;font-weight:normal;font-stretch:normal;font-size:20px;line-height:125%;font-family:monospace;-inkscape-font-specification:monospace;text-align:center;text-anchor:middle;fill:#ffffff;fill-opacity:1"
             id="path30508" />
          <path
             d="m 2670.8735,-2726.0408 h 3.0664 v -11.1425 l -3.3007,0.7421 v -1.7968 l 3.2812,-0.7227 h 1.9727 v 12.9199 h 3.0273 v 1.6602 h -8.0469 z"
             style="font-style:normal;font-variant:normal;font-weight:normal;font-stretch:normal;font-size:20px;line-height:125%;font-family:monospace;-inkscape-font-specification:monospace;text-align:center;text-anchor:middle;fill:#ffffff;fill-opacity:1"
             id="path30510" />
        </g>
      </g>
    </g>
    <path
       style="fill:none;fill-opacity:1;stroke:#000000;stroke-width:13.22996426;stroke-linejoin:round;stroke-miterlimit:4;stroke-dasharray:none;stroke-opacity:1"
       d="m 483.87412,1570.5206 h 367.74306 c 4.60395,0 8.31037,3.7065 8.31037,8.3104 v 248.7615 c 0,4.604 -3.70642,8.3104 -8.31037,8.3104 H 483.87412 c -4.60394,0 -8.31037,-3.7064 -8.31037,-8.3104 V 1578.831 c 0,-4.6039 3.70643,-8.3104 8.31037,-8.3104 z"
       id="rect5379" />
    <g
       aria-label="Working Directory"
       style="font-style:normal;font-variant:normal;font-weight:normal;font-stretch:normal;line-height:0%;font-family:Photographs;-inkscape-font-specification:Photographs;letter-spacing:0px;word-spacing:0px;fill:#000000;fill-opacity:1;stroke:none;stroke-width:1px;stroke-linecap:butt;stroke-linejoin:miter;stroke-opacity:1"
       id="text5381">
      <path
         d="m 500.09252,1588.6549 q 0.15963,-1.676 0.87794,-2.5539 0.79812,-0.878 1.67605,-0.9578 0.95775,-0.1596 1.9155,0.5587 0.95774,0.6385 1.43661,1.9953 0.87794,7.8216 1.51643,13.6479 0.71831,5.7465 1.277,9.9765 0.55868,4.1502 0.95774,7.1033 0.47888,2.953 0.79813,5.0281 0.31924,1.9953 0.55868,3.5118 0.31925,1.4366 0.6385,2.7934 1.19718,-5.3474 2.47418,-10.7746 1.27699,-5.5071 2.6338,-11.3334 0.31924,-1.1971 1.11737,-1.7558 0.87793,-0.6385 1.83568,-0.6385 0.95774,0 1.75586,0.6385 0.79812,0.5587 1.19719,1.8357 0.23943,3.1924 0.63849,6.0657 0.39906,2.8732 0.79812,5.6666 0.47888,2.7137 0.87794,5.5869 0.47887,2.7934 0.95774,5.9061 1.11737,-5.5869 1.99531,-10.9343 0.87793,-5.3474 1.67605,-10.6948 0.87794,-5.4272 1.75587,-10.9343 0.87793,-5.5868 1.9953,-11.5727 0.23944,-1.0376 1.19719,-1.4366 1.03755,-0.4789 2.15492,-0.3193 1.19719,0.08 2.07512,0.8779 0.87793,0.7183 0.79812,1.9953 -0.87793,7.3428 -1.9953,14.5258 -1.03756,7.1033 -2.31456,14.2066 -1.27699,7.0235 -2.79342,14.2066 -1.43662,7.1033 -2.95305,14.446 -0.39906,1.5164 -1.11737,2.2347 -0.71831,0.7183 -1.59624,0.8779 -0.79812,0.1597 -1.67606,-0.1596 -0.79812,-0.399 -1.43662,-1.0375 -0.47887,-0.7982 -0.95774,-2.3944 -0.47888,-1.5962 -1.03756,-4.1502 -0.55869,-2.6338 -1.19718,-6.3052 -0.6385,-3.7512 -1.51643,-8.8591 -0.71831,3.1126 -1.19719,5.5868 -0.39906,2.3944 -0.79812,4.7887 -0.39906,2.3146 -0.79812,4.7888 -0.39906,2.4741 -1.03756,5.6666 -0.39906,1.1174 -1.19718,1.7559 -0.71831,0.5587 -1.59624,0.5587 -0.87794,0 -1.75587,-0.5587 -0.87793,-0.5587 -1.43662,-1.7559 -0.39906,-0.6385 -1.27699,-3.7511 -0.79812,-3.1925 -1.91549,-7.9014 -1.03756,-4.7888 -2.15493,-10.6949 -1.03756,-5.9061 -1.99531,-12.0516 -0.87793,-6.2254 -1.43661,-12.2113 -0.47888,-6.0657 -0.39907,-11.0939 z"
         style="font-style:normal;font-variant:normal;font-weight:normal;font-stretch:normal;font-size:79.81214905px;line-height:125%;font-family:Photographs;-inkscape-font-specification:Photographs;text-align:center;text-anchor:middle;fill:#000000;fill-opacity:1"
         id="path30447" />
      <path
         d="m 552.15623,1603.1009 q 1.75587,1.1972 2.87324,3.3522 1.11737,2.1549 1.67606,4.8685 0.63849,2.7136 0.71831,5.9061 0.15962,3.1127 0,6.3052 -0.15963,3.1924 -0.6385,6.2253 -0.39906,3.0329 -0.95775,5.5869 -0.39906,1.8356 -1.11737,4.4694 -0.71831,2.6338 -1.9953,4.8686 -1.19718,2.1549 -2.95305,3.5117 -1.75587,1.277 -4.23005,0.4789 -1.03755,-0.3991 -1.83567,-1.4366 -0.79813,-1.0376 -1.43662,-2.3146 -0.55869,-1.3568 -0.95775,-2.7136 -0.31925,-1.3568 -0.55868,-2.3944 -0.31925,-1.7558 -0.71831,-5.507 -0.31925,-3.831 -0.31925,-8.3803 0,-4.5493 0.47887,-9.1784 0.55869,-4.7089 1.91549,-8.1408 1.35681,-3.5117 3.75117,-5.1878 2.47418,-1.6761 6.30516,-0.3193 z m -0.39906,5.5071 q -0.47887,-0.6385 -1.11737,-1.1174 -0.63849,-0.4789 -1.43662,-0.6385 -0.71831,-0.1596 -1.43661,0.08 -0.71831,0.1597 -1.277,0.9578 -1.27699,1.7558 -1.9953,4.9483 -0.6385,3.1127 -0.95775,6.7042 -0.23944,3.5118 -0.23944,6.9437 0.0798,3.3521 0.23944,5.5869 0.0798,0.7183 0.23944,2.4741 0.23943,1.6761 0.55868,3.5916 0.39906,1.9155 0.87794,3.5915 0.55868,1.6761 1.27699,2.3944 0.79812,0.6385 1.75587,-0.08 0.95774,-0.7183 2.15493,-3.5916 0.63849,-1.5164 1.03755,-3.0328 0.39906,-1.5165 0.71831,-3.1127 0.47888,-2.1549 0.87794,-5.6667 0.47887,-3.5915 0.55868,-7.3427 0.15963,-3.831 -0.23943,-7.2629 -0.39907,-3.4319 -1.59625,-5.4272 z"
         style="font-style:normal;font-variant:normal;font-weight:normal;font-stretch:normal;font-size:79.81214905px;line-height:125%;font-family:Photographs;-inkscape-font-specification:Photographs;text-align:center;text-anchor:middle;fill:#000000;fill-opacity:1"
         id="path30449" />
      <path
         d="m 560.27837,1605.4155 q 0.15962,-1.1972 0.95774,-1.6761 0.79812,-0.4788 1.59624,0 1.51644,-0.9577 3.43193,-1.1173 1.9953,-0.1597 3.75117,0.399 1.83568,0.5587 3.11267,1.7559 1.35681,1.1174 1.59625,2.8732 0.31924,2.8733 -0.39907,5.4273 -0.63849,2.4741 -1.9953,4.7089 -1.27699,2.2347 -3.11267,4.23 -1.75587,1.9953 -3.51174,3.831 2.31455,3.0329 3.83099,5.6667 1.51643,2.554 3.35211,5.5868 1.27699,2.0751 2.39436,4.2301 1.11737,2.1549 2.23474,4.3896 0.23944,0.9578 -0.0798,1.6761 -0.23944,0.7183 -0.79812,1.1174 -0.47888,0.3192 -1.19719,0.1596 -0.7183,-0.08 -1.3568,-0.7981 -2.39437,-4.4695 -4.78873,-8.6197 -2.31455,-4.2301 -5.34741,-8.7794 v 16.6009 q -0.15963,0.7184 -0.71831,1.1972 -0.55869,0.3991 -1.19719,0.3991 -0.55868,0.08 -1.19718,-0.2395 -0.55868,-0.399 -0.79812,-1.2769 0.23944,-12.0517 0.23944,-22.108 0,-10.1362 0,-19.6338 z m 3.59154,3.2723 v 13.0094 q 2.39437,-2.3146 4.30986,-4.7888 1.91549,-2.4741 2.6338,-5.3474 0.55868,-2.3145 -0.31925,-3.3521 -0.87793,-1.1173 -2.23474,-1.277 -1.35681,-0.1596 -2.71361,0.3991 -1.35681,0.4789 -1.67606,1.3568 z"
         style="font-style:normal;font-variant:normal;font-weight:normal;font-stretch:normal;font-size:79.81214905px;line-height:125%;font-family:Photographs;-inkscape-font-specification:Photographs;text-align:center;text-anchor:middle;fill:#000000;fill-opacity:1"
         id="path30451" />
      <path
         d="m 580.46336,1604.3779 q 0.15962,-0.8779 0.6385,-1.3568 0.47887,-0.5587 1.03755,-0.5587 0.6385,0 1.11737,0.4789 0.55869,0.3991 0.87794,1.4366 -0.0798,4.0705 -0.0798,8.3005 0,4.23 0,8.4601 2.31455,-4.2301 4.46948,-8.3803 2.23474,-4.1502 4.70891,-7.5023 0.79812,-0.7183 1.51643,-0.5587 0.71831,0.08 1.11737,0.7183 0.39906,0.6385 0.39906,1.5962 0,0.9578 -0.63849,1.9155 -2.71362,4.2301 -4.86854,8.2207 -2.07512,3.9906 -4.5493,7.662 1.19719,2.3145 2.47418,4.9483 1.35681,2.6338 2.6338,5.3474 1.277,2.6338 2.39437,5.2676 1.11737,2.554 1.9953,4.7887 0.39906,1.0376 0.15962,1.9155 -0.15962,0.878 -0.71831,1.277 -0.47887,0.3991 -1.19718,0.2395 -0.6385,-0.2395 -1.19718,-1.3568 -2.47418,-4.709 -4.54929,-9.1784 -1.99531,-4.4695 -4.07042,-8.7794 v 17.7981 q -0.15963,0.7184 -0.71831,1.1972 -0.47887,0.3991 -1.11737,0.3991 -0.55869,0.08 -1.19718,-0.2395 -0.55869,-0.399 -0.79813,-1.2769 0.0798,-5.5071 0.0798,-10.6949 0.0798,-5.2676 0.0798,-10.4554 0,-5.2676 0,-10.5352 0,-5.3474 0,-11.0939 z"
         style="font-style:normal;font-variant:normal;font-weight:normal;font-stretch:normal;font-size:79.81214905px;line-height:125%;font-family:Photographs;-inkscape-font-specification:Photographs;text-align:center;text-anchor:middle;fill:#000000;fill-opacity:1"
         id="path30453" />
      <path
         d="m 599.3514,1648.5939 q -0.87793,-0.1597 -1.27699,-0.878 -0.31925,-0.7183 -0.31925,-1.4366 0.0798,-0.7981 0.55869,-1.4366 0.47887,-0.6385 1.3568,-0.7183 0.15963,0 0.6385,0.08 0.47887,0 1.03756,0 0.55868,0 1.11737,0 0.55868,0 0.79812,-0.08 0.15962,-9.338 0.0798,-18.1972 -0.0798,-8.8591 -0.0798,-18.676 -0.95775,0 -1.35681,0 -0.39906,0 -0.71831,0.08 -0.23943,0 -0.55868,0.08 -0.23944,0 -0.95775,0.08 -0.87793,-0.1596 -1.43662,-0.7183 -0.47887,-0.5587 -0.55868,-1.1972 -0.0798,-0.7183 0.23944,-1.3568 0.39906,-0.7183 1.27699,-1.1174 0.55869,-0.2394 2.39436,-0.399 1.9155,-0.1596 4.07042,-0.1596 2.15493,0 3.99061,0.08 1.91549,0 2.47418,0.08 0.95774,0.2394 1.3568,0.9577 0.47888,0.7183 0.39907,1.4367 -0.0798,0.7183 -0.6385,1.3568 -0.55869,0.5586 -1.43662,0.5586 -0.95775,0 -2.23474,0.08 -1.19718,0.08 -2.39436,0.08 -0.0798,9.0986 0,18.4366 0.0798,9.338 0.0798,18.4366 1.11737,0 2.15493,0 1.11737,0 2.15492,0.08 0.79812,0.2394 1.19719,0.9577 0.39906,0.6385 0.39906,1.3568 0.0798,0.7184 -0.31925,1.3569 -0.31925,0.6384 -1.03756,0.7981 -1.19718,0.1596 -2.95305,0.1596 -1.67605,0.08 -3.43192,0.08 -1.67606,0 -3.35211,-0.08 -1.59625,-0.08 -2.71362,-0.1596 z"
         style="font-style:normal;font-variant:normal;font-weight:normal;font-stretch:normal;font-size:79.81214905px;line-height:125%;font-family:Photographs;-inkscape-font-specification:Photographs;text-align:center;text-anchor:middle;fill:#000000;fill-opacity:1"
         id="path30455" />
      <path
         d="m 616.24788,1604.777 v -0.08 q 0,-0.08 0.0798,-0.1596 0,-0.7982 0.31925,-1.277 0.39906,-0.5587 0.87793,-0.7183 0.55869,-0.1597 1.11737,0.1596 0.6385,0.2394 1.11737,0.9577 1.11737,2.554 1.9155,5.3474 0.87793,2.7935 1.67605,5.6667 1.11737,3.9108 2.15493,7.9014 1.03756,3.9906 2.07511,8.061 0.0798,-2.6338 0.15963,-6.4647 0.0798,-3.831 0.0798,-7.662 0.0798,-3.831 0,-7.0235 0,-3.2723 0,-4.7089 0,-1.277 0.6385,-1.7559 0.6385,-0.5587 1.3568,-0.399 0.71831,0.08 1.277,0.7183 0.6385,0.5587 0.6385,1.4366 -0.23944,10.6948 -0.0798,21.0704 0.15963,10.3756 -0.31924,21.0704 -0.71831,1.5963 -1.83568,1.6761 -1.03756,0.1596 -1.9155,-1.3568 -0.87793,-3.432 -1.51643,-6.3052 -0.55868,-2.953 -1.43661,-6.4648 -1.11737,-4.6291 -2.31456,-9.0986 -1.11737,-4.5493 -2.39436,-9.0985 l -0.15963,-0.4789 q 0,7.8216 0,15.723 0.0798,7.8216 0,15.6432 -0.15962,0.7981 -0.63849,1.1971 -0.47888,0.3991 -1.11737,0.3991 -0.55869,0.08 -1.11737,-0.3193 -0.55869,-0.399 -0.79812,-1.1971 0.0798,-5.4273 0.0798,-10.6151 0.0798,-5.1877 0.0798,-10.3755 0,-5.1878 0,-10.4554 0,-5.3474 0,-11.0141 z"
         style="font-style:normal;font-variant:normal;font-weight:normal;font-stretch:normal;font-size:79.81214905px;line-height:125%;font-family:Photographs;-inkscape-font-specification:Photographs;text-align:center;text-anchor:middle;fill:#000000;fill-opacity:1"
         id="path30457" />
      <path
         d="m 642.85525,1629.9178 q -0.23943,-1.1173 0.0798,-1.7558 0.39906,-0.7183 0.87793,-1.1174 0.47887,-0.3991 0.95774,-0.5587 0.47888,-0.1596 0.47888,-0.2394 0.63849,-0.1597 1.27699,-0.2395 1.277,-0.1596 2.23474,0.3991 0.87794,0.6385 1.19718,1.9155 0.39907,1.277 0.47888,2.7934 0.0798,1.5164 -0.0798,2.8732 -0.0798,1.3569 -0.15963,2.0752 -0.15962,1.277 -0.55868,3.0328 -0.39907,1.7559 -1.11737,3.5118 -0.71831,1.676 -1.67606,3.1924 -0.95775,1.4367 -2.23474,2.3146 -1.19718,0.8779 -2.6338,0.8779 -1.43662,0 -3.11267,-1.3568 -1.67606,-1.676 -2.63381,-4.9483 -0.95774,-3.3521 -1.3568,-7.5024 -0.39906,-4.23 -0.31925,-8.8591 0.15962,-4.7089 0.55868,-8.939 0.31925,-2.4742 0.71831,-4.7089 0.39906,-2.3145 0.87794,-4.0704 0.47887,-1.8357 1.11737,-3.0329 0.63849,-1.277 1.51643,-1.7558 2.95305,-1.7559 4.78873,-0.878 1.91549,0.878 2.95305,3.0329 1.11737,2.1549 1.43662,4.8685 0.39906,2.7136 0.39906,4.7089 0,0.9578 -0.6385,1.5963 -0.55869,0.6385 -1.277,0.7981 -0.7183,0.1596 -1.3568,-0.1596 -0.6385,-0.3991 -0.71831,-1.4366 -0.15963,-0.9578 -0.31925,-2.6338 -0.0798,-1.7559 -0.31925,-3.2723 -0.23943,-1.5963 -0.79812,-2.554 -0.55868,-0.9578 -1.67605,-0.3193 -0.6385,0.2395 -1.277,2.4742 -1.51643,6.385 -1.67605,11.8122 -0.15963,5.3474 0,10.5352 0,0.3991 0.0798,2.1549 0.15962,1.7559 0.47887,3.7512 0.31925,1.9953 0.79812,3.7512 0.47888,1.676 1.19718,1.9953 0.95775,0.4789 1.75587,-0.1596 0.79812,-0.7184 1.43662,-1.9953 0.6385,-1.277 1.03756,-2.9531 0.47887,-1.7559 0.71831,-3.3521 0.23943,-1.5963 0.31925,-2.8732 0.0798,-1.3569 -0.15963,-1.9155 -1.27699,0.3192 -2.31455,0.399 -0.95775,0.08 -1.35681,-1.277 z"
         style="font-style:normal;font-variant:normal;font-weight:normal;font-stretch:normal;font-size:79.81214905px;line-height:125%;font-family:Photographs;-inkscape-font-specification:Photographs;text-align:center;text-anchor:middle;fill:#000000;fill-opacity:1"
         id="path30459" />
      <path
         d="m 672.60149,1587.9366 q -0.0798,-0.7981 0.31925,-1.7558 0.47887,-1.0376 1.83568,-1.0376 5.18779,-0.3192 9.01877,1.9155 3.91079,2.2347 6.46478,6.2254 2.6338,3.9107 3.9108,9.1783 1.3568,5.1878 1.43662,10.8545 0.15962,5.6667 -0.95775,11.3333 -1.11737,5.5869 -3.43192,10.4554 -2.23474,4.7887 -5.74648,8.3005 -3.43192,3.5117 -8.06102,4.9483 -0.71831,0.2395 -1.67606,0.2395 -0.87793,0 -1.67605,-0.1597 -0.71831,-0.2394 -1.277,-0.6384 -0.47887,-0.4789 -0.47887,-1.277 -0.0798,-16.5212 0.0798,-30.8075 0.23944,-14.2864 0.23944,-27.7747 z m 5.58685,3.1925 q -0.0798,12.4507 0,24.9812 0.0798,12.5305 0,25.1409 3.35211,-1.9155 5.74647,-5.2676 2.39437,-3.432 3.75117,-7.5822 1.43662,-4.23 1.9155,-8.8592 0.47887,-4.7089 0.0798,-9.0985 -0.39906,-4.4695 -1.75587,-8.3803 -1.35681,-3.9906 -3.51173,-6.7042 -1.51644,-1.9155 -3.19249,-3.0329 -1.67606,-1.1972 -3.03286,-1.1972 z"
         style="font-style:normal;font-variant:normal;font-weight:normal;font-stretch:normal;font-size:79.81214905px;line-height:125%;font-family:Photographs;-inkscape-font-specification:Photographs;text-align:center;text-anchor:middle;fill:#000000;fill-opacity:1"
         id="path30461" />
      <path
         d="m 699.42835,1648.5939 q -0.87793,-0.1597 -1.27699,-0.878 -0.31925,-0.7183 -0.31925,-1.4366 0.0798,-0.7981 0.55869,-1.4366 0.47887,-0.6385 1.3568,-0.7183 0.15963,0 0.6385,0.08 0.47887,0 1.03756,0 0.55868,0 1.11737,0 0.55868,0 0.79812,-0.08 0.15962,-9.338 0.0798,-18.1972 -0.0798,-8.8591 -0.0798,-18.676 -0.95775,0 -1.35681,0 -0.39906,0 -0.71831,0.08 -0.23943,0 -0.55868,0.08 -0.23944,0 -0.95775,0.08 -0.87793,-0.1596 -1.43662,-0.7183 -0.47887,-0.5587 -0.55868,-1.1972 -0.0798,-0.7183 0.23944,-1.3568 0.39906,-0.7183 1.27699,-1.1174 0.55869,-0.2394 2.39436,-0.399 1.9155,-0.1596 4.07042,-0.1596 2.15493,0 3.99061,0.08 1.91549,0 2.47418,0.08 0.95774,0.2394 1.35681,0.9577 0.47887,0.7183 0.39906,1.4367 -0.0798,0.7183 -0.6385,1.3568 -0.55869,0.5586 -1.43662,0.5586 -0.95775,0 -2.23474,0.08 -1.19718,0.08 -2.39436,0.08 -0.0798,9.0986 0,18.4366 0.0798,9.338 0.0798,18.4366 1.11737,0 2.15493,0 1.11737,0 2.15492,0.08 0.79812,0.2394 1.19719,0.9577 0.39906,0.6385 0.39906,1.3568 0.0798,0.7184 -0.31925,1.3569 -0.31925,0.6384 -1.03756,0.7981 -1.19718,0.1596 -2.95305,0.1596 -1.67605,0.08 -3.43192,0.08 -1.67606,0 -3.35211,-0.08 -1.59625,-0.08 -2.71362,-0.1596 z"
         style="font-style:normal;font-variant:normal;font-weight:normal;font-stretch:normal;font-size:79.81214905px;line-height:125%;font-family:Photographs;-inkscape-font-specification:Photographs;text-align:center;text-anchor:middle;fill:#000000;fill-opacity:1"
         id="path30463" />
      <path
         d="m 716.00559,1605.4155 q 0.15962,-1.1972 0.95774,-1.6761 0.79813,-0.4788 1.59625,0 1.51643,-0.9577 3.43192,-1.1173 1.9953,-0.1597 3.75117,0.399 1.83568,0.5587 3.11267,1.7559 1.35681,1.1174 1.59625,2.8732 0.31925,2.8733 -0.39906,5.4273 -0.6385,2.4741 -1.99531,4.7089 -1.27699,2.2347 -3.11267,4.23 -1.75587,1.9953 -3.51174,3.831 2.31456,3.0329 3.83099,5.6667 1.51643,2.554 3.35211,5.5868 1.27699,2.0751 2.39436,4.2301 1.11737,2.1549 2.23474,4.3896 0.23944,0.9578 -0.0798,1.6761 -0.23944,0.7183 -0.79812,1.1174 -0.47887,0.3192 -1.19718,0.1596 -0.71831,-0.08 -1.35681,-0.7981 -2.39436,-4.4695 -4.78873,-8.6197 -2.31455,-4.2301 -5.34741,-8.7794 v 16.6009 q -0.15963,0.7184 -0.71831,1.1972 -0.55869,0.3991 -1.19718,0.3991 -0.55869,0.08 -1.19719,-0.2395 -0.55868,-0.399 -0.79812,-1.2769 0.23944,-12.0517 0.23944,-22.108 0,-10.1362 0,-19.6338 z m 3.59155,3.2723 v 13.0094 q 2.39436,-2.3146 4.30985,-4.7888 1.91549,-2.4741 2.6338,-5.3474 0.55869,-2.3145 -0.31925,-3.3521 -0.87793,-1.1173 -2.23474,-1.277 -1.3568,-0.1596 -2.71361,0.3991 -1.35681,0.4789 -1.67605,1.3568 z"
         style="font-style:normal;font-variant:normal;font-weight:normal;font-stretch:normal;font-size:79.81214905px;line-height:125%;font-family:Photographs;-inkscape-font-specification:Photographs;text-align:center;text-anchor:middle;fill:#000000;fill-opacity:1"
         id="path30465" />
      <path
         d="m 738.50513,1648.5939 q -0.87793,-0.1597 -1.43662,-0.7981 -0.55868,-0.7184 -0.79812,-1.5963 0.0798,-5.0282 0.0798,-9.6573 0.0798,-4.7089 0.0798,-9.338 0,-4.6291 -0.0798,-9.338 0,-4.7887 0,-9.9765 -0.71831,-1.7559 -0.23943,-2.7934 0.55868,-1.1174 1.75586,-1.6761 1.277,-0.5587 2.95305,-0.6385 1.67606,-0.1596 3.2723,0.08 1.67606,0.1596 3.03286,0.5587 1.35681,0.3192 1.83568,0.7981 1.19718,1.5963 0.31925,2.6338 -0.87793,1.0376 -2.39436,0.7183 -1.83568,-0.08 -3.51174,-0.2394 -1.59624,-0.2394 -3.43192,0.1596 0,4.3897 0,8.939 0,4.4695 0.15962,9.0986 1.19719,0 2.31456,-0.2395 1.19718,-0.2394 2.31455,-0.2394 1.11737,-0.3991 1.91549,0.5587 0.79812,0.9577 0.15962,2.554 -1.11737,1.1173 -3.03286,1.5164 -1.83568,0.3991 -3.67136,0.2394 0.0798,3.831 0.0798,7.2629 0,3.3521 -0.0798,7.1831 1.91549,-0.08 3.9108,-0.399 2.07511,-0.3991 3.91079,-1.1972 l -0.0798,0.1596 q 0.87793,-0.08 1.43662,0.3991 0.55868,0.399 0.71831,1.0375 0.15962,0.6385 -0.0798,1.3568 -0.23944,0.7183 -0.95775,1.1972 -2.31455,1.0376 -5.10798,1.4366 -2.79342,0.3991 -5.34741,0.2395 z"
         style="font-style:normal;font-variant:normal;font-weight:normal;font-stretch:normal;font-size:79.81214905px;line-height:125%;font-family:Photographs;-inkscape-font-specification:Photographs;text-align:center;text-anchor:middle;fill:#000000;fill-opacity:1"
         id="path30467" />
      <path
         d="m 752.63811,1617.1479 q 0.39906,-4.7887 1.277,-8.3803 0.87793,-3.5915 2.87323,-5.4272 2.55399,-1.8357 4.46948,-0.9578 1.91549,0.878 3.19249,3.1127 1.27699,2.1549 1.83568,4.9484 0.6385,2.7136 0.6385,4.6291 0,0.9577 -0.55869,1.676 -0.55868,0.6385 -1.19718,0.878 -0.6385,0.1596 -1.277,-0.1597 -0.63849,-0.399 -0.71831,-1.4366 -0.23943,-0.9577 -0.47887,-2.6338 -0.23943,-1.7559 -0.71831,-3.3521 -0.47887,-1.5962 -1.19718,-2.554 -0.6385,-1.0375 -1.67605,-0.4789 -0.71831,0.7184 -1.19719,2.6338 -1.3568,6.4648 -1.59624,11.8122 -0.15962,5.3475 0,10.6151 0,0.399 0.0798,2.1549 0.15963,1.7559 0.39906,3.7512 0.31925,1.9953 0.71831,3.7511 0.47888,1.6761 1.19718,2.0751 1.03756,0.6385 1.67606,-0.3192 0.71831,-0.9578 1.19718,-2.554 0.47887,-1.5962 0.71831,-3.2723 0.23944,-1.7559 0.47887,-2.7136 0.0798,-1.0376 0.6385,-1.3568 0.6385,-0.3991 1.277,-0.2394 0.71831,0.1596 1.19718,0.8779 0.55868,0.6385 0.55868,1.676 -0.15962,1.277 -0.47887,2.9531 -0.31925,1.676 -0.95775,3.3521 -0.55868,1.6761 -1.3568,3.1925 -0.79812,1.5164 -1.91549,2.3944 -1.03756,0.8779 -2.39437,0.8779 -1.3568,0.08 -3.03286,-1.1174 -1.59624,-1.277 -2.55399,-4.5493 -0.95774,-3.3521 -1.43662,-7.6619 -0.39906,-4.3099 -0.31925,-9.0986 0.0798,-4.7888 0.6385,-9.0986 z"
         style="font-style:normal;font-variant:normal;font-weight:normal;font-stretch:normal;font-size:79.81214905px;line-height:125%;font-family:Photographs;-inkscape-font-specification:Photographs;text-align:center;text-anchor:middle;fill:#000000;fill-opacity:1"
         id="path30469" />
      <path
         d="m 770.83403,1607.2512 q -0.95774,0 -1.43662,0 -0.39906,0 -0.71831,0.08 -0.23943,0 -0.55868,0.08 -0.23944,0 -0.95775,0.08 -0.95774,-0.2394 -1.43662,-0.7981 -0.47887,-0.5587 -0.55868,-1.1972 -0.0798,-0.7183 0.31925,-1.3568 0.31925,-0.6385 1.11737,-1.0376 0.63849,-0.2394 2.55399,-0.399 1.91549,-0.1596 4.07042,-0.1596 2.15492,-0.08 4.07042,0 1.91549,0.08 2.47417,0.1596 0.95775,0.2394 1.35681,0.9577 0.39906,0.6385 0.23943,1.3568 -0.0798,0.7183 -0.63849,1.3568 -0.55869,0.5587 -1.43662,0.5587 -0.95775,0 -2.23474,0.08 -1.19718,0 -2.39437,0.1597 0,3.7511 0,7.6619 0,3.9108 0,8.6197 0,4.6291 0,10.4554 0,5.7465 0,13.169 -0.15962,0.7184 -0.71831,1.1972 -0.55868,0.3991 -1.19718,0.3991 -0.63849,0.08 -1.27699,-0.2395 -0.55869,-0.399 -0.79812,-1.2769 0.15962,-10.2958 0.15962,-20.1127 0,-9.8967 0,-19.7934 z"
         style="font-style:normal;font-variant:normal;font-weight:normal;font-stretch:normal;font-size:79.81214905px;line-height:125%;font-family:Photographs;-inkscape-font-specification:Photographs;text-align:center;text-anchor:middle;fill:#000000;fill-opacity:1"
         id="path30471" />
      <path
         d="m 793.15152,1603.1009 q 1.75587,1.1972 2.87324,3.3522 1.11737,2.1549 1.67605,4.8685 0.6385,2.7136 0.71831,5.9061 0.15963,3.1127 0,6.3052 -0.15962,3.1924 -0.63849,6.2253 -0.39906,3.0329 -0.95775,5.5869 -0.39906,1.8356 -1.11737,4.4694 -0.71831,2.6338 -1.9953,4.8686 -1.19719,2.1549 -2.95305,3.5117 -1.75587,1.277 -4.23005,0.4789 -1.03755,-0.3991 -1.83568,-1.4366 -0.79812,-1.0376 -1.43661,-2.3146 -0.55869,-1.3568 -0.95775,-2.7136 -0.31925,-1.3568 -0.55869,-2.3944 -0.31924,-1.7558 -0.7183,-5.507 -0.31925,-3.831 -0.31925,-8.3803 0,-4.5493 0.47887,-9.1784 0.55868,-4.7089 1.91549,-8.1408 1.35681,-3.5117 3.75117,-5.1878 2.47418,-1.6761 6.30516,-0.3193 z m -0.39906,5.5071 q -0.47887,-0.6385 -1.11737,-1.1174 -0.6385,-0.4789 -1.43662,-0.6385 -0.71831,-0.1596 -1.43662,0.08 -0.71831,0.1597 -1.27699,0.9578 -1.27699,1.7558 -1.9953,4.9483 -0.6385,3.1127 -0.95775,6.7042 -0.23944,3.5118 -0.23944,6.9437 0.0798,3.3521 0.23944,5.5869 0.0798,0.7183 0.23944,2.4741 0.23943,1.6761 0.55868,3.5916 0.39906,1.9155 0.87794,3.5915 0.55868,1.6761 1.27699,2.3944 0.79812,0.6385 1.75587,-0.08 0.95774,-0.7183 2.15492,-3.5916 0.6385,-1.5164 1.03756,-3.0328 0.39906,-1.5165 0.71831,-3.1127 0.47888,-2.1549 0.87794,-5.6667 0.47887,-3.5915 0.55868,-7.3427 0.15963,-3.831 -0.23944,-7.2629 -0.39906,-3.4319 -1.59624,-5.4272 z"
         style="font-style:normal;font-variant:normal;font-weight:normal;font-stretch:normal;font-size:79.81214905px;line-height:125%;font-family:Photographs;-inkscape-font-specification:Photographs;text-align:center;text-anchor:middle;fill:#000000;fill-opacity:1"
         id="path30473" />
      <path
         d="m 801.27366,1605.4155 q 0.15962,-1.1972 0.95774,-1.6761 0.79812,-0.4788 1.59624,0 1.51643,-0.9577 3.43193,-1.1173 1.9953,-0.1597 3.75117,0.399 1.83568,0.5587 3.11267,1.7559 1.35681,1.1174 1.59624,2.8732 0.31925,2.8733 -0.39906,5.4273 -0.63849,2.4741 -1.9953,4.7089 -1.27699,2.2347 -3.11267,4.23 -1.75587,1.9953 -3.51174,3.831 2.31455,3.0329 3.83098,5.6667 1.51644,2.554 3.35211,5.5868 1.277,2.0751 2.39437,4.2301 1.11737,2.1549 2.23474,4.3896 0.23944,0.9578 -0.0798,1.6761 -0.23944,0.7183 -0.79812,1.1174 -0.47888,0.3192 -1.19719,0.1596 -0.71831,-0.08 -1.3568,-0.7981 -2.39437,-4.4695 -4.78873,-8.6197 -2.31455,-4.2301 -5.34742,-8.7794 v 16.6009 q -0.15962,0.7184 -0.71831,1.1972 -0.55868,0.3991 -1.19718,0.3991 -0.55868,0.08 -1.19718,-0.2395 -0.55868,-0.399 -0.79812,-1.2769 0.23944,-12.0517 0.23944,-22.108 0,-10.1362 0,-19.6338 z m 3.59154,3.2723 v 13.0094 q 2.39437,-2.3146 4.30986,-4.7888 1.91549,-2.4741 2.6338,-5.3474 0.55868,-2.3145 -0.31925,-3.3521 -0.87793,-1.1173 -2.23474,-1.277 -1.35681,-0.1596 -2.71361,0.3991 -1.35681,0.4789 -1.67606,1.3568 z"
         style="font-style:normal;font-variant:normal;font-weight:normal;font-stretch:normal;font-size:79.81214905px;line-height:125%;font-family:Photographs;-inkscape-font-specification:Photographs;text-align:center;text-anchor:middle;fill:#000000;fill-opacity:1"
         id="path30475" />
      <path
         d="m 818.64525,1604.777 q 0.15963,-0.9577 0.71831,-1.4366 0.6385,-0.5587 1.277,-0.6385 0.71831,-0.08 1.3568,0.399 0.6385,0.3991 0.87794,1.3569 0.31925,3.1924 1.03756,6.3849 0.71831,3.1925 1.83568,6.2254 0.87793,-1.7559 1.67605,-3.4319 0.87793,-1.7559 1.75587,-3.432 0.95774,-1.676 2.07511,-3.2723 1.11737,-1.5962 2.63381,-3.2723 0.87793,-0.7183 1.67605,-0.7981 0.87793,-0.1596 1.43662,0.2394 0.55868,0.3193 0.71831,1.0376 0.23943,0.7183 -0.15963,1.6761 -2.07511,2.8732 -4.23004,6.4647 -2.15493,3.5118 -3.75117,7.1033 -0.23944,0.4789 -0.55869,1.4366 -0.31924,0.878 -0.71831,1.9155 -0.31924,1.0376 -0.55868,1.9953 -0.23944,0.878 -0.23944,1.3568 0,3.831 0,6.7841 0.0798,2.8732 0.0798,5.2676 0.0798,2.3145 0.0798,4.3896 0,1.9954 -0.15963,4.0705 -0.23943,0.8779 -0.87793,1.4366 -0.55869,0.4789 -1.27699,0.4789 -0.6385,0 -1.277,-0.3991 -0.55868,-0.4789 -0.79812,-1.5164 0,-5.6667 0,-11.4132 0.0798,-5.7464 0,-11.4929 -0.79812,-1.5963 -1.59624,-4.2301 -0.79813,-2.6338 -1.43662,-5.3474 -0.6385,-2.7934 -1.11737,-5.3474 -0.39906,-2.554 -0.47888,-3.9906 z"
         style="font-style:normal;font-variant:normal;font-weight:normal;font-stretch:normal;font-size:79.81214905px;line-height:125%;font-family:Photographs;-inkscape-font-specification:Photographs;text-align:center;text-anchor:middle;fill:#000000;fill-opacity:1"
         id="path30477" />
    </g>
    <path
       style="opacity:1;fill:#7e005e;fill-opacity:1;stroke:none;stroke-width:5.80000019;stroke-linejoin:round;stroke-miterlimit:4;stroke-dasharray:none;stroke-dashoffset:0;stroke-opacity:1"
       d="m 501.13957,1657.4503 h 332.70514 c 7.09212,0 12.80165,5.7096 12.80165,12.8017 v 141.2766 c 0,7.0921 -5.70953,12.8016 -12.80165,12.8016 H 501.13957 c -7.09211,0 -12.80165,-5.7095 -12.80165,-12.8016 V 1670.252 c 0,-7.0921 5.70954,-12.8017 12.80165,-12.8017 z"
       id="rect5385" />
    <g
       aria-label="file.txt
v2"
       style="font-style:normal;font-variant:normal;font-weight:normal;font-stretch:normal;line-height:0%;font-family:Photographs;-inkscape-font-specification:Photographs;letter-spacing:0px;word-spacing:0px;fill:#ffffff;fill-opacity:1;stroke:none;stroke-width:1px;stroke-linecap:butt;stroke-linejoin:miter;stroke-opacity:1"
       id="text5387">
      <path
         d="m 559.92655,1685.0976 v 4.3364 h -5.92356 q -2.8059,0 -3.91125,1.162 -1.07701,1.1337 -1.07701,4.053 v 2.8059 h 10.91182 v 4.053 h -10.91182 v 27.6905 h -5.215 v -27.6905 h -8.47437 v -4.053 h 8.47437 v -2.2107 q 0,-5.215 2.38076,-7.6808 2.4091,-2.4658 7.48239,-2.4658 z"
         style="font-style:normal;font-variant:normal;font-weight:normal;font-stretch:normal;font-size:58.04519653px;line-height:125%;font-family:monospace;-inkscape-font-specification:monospace;text-align:center;text-anchor:middle;fill:#ffffff;fill-opacity:1"
         id="path30425" />
      <path
         d="m 571.97206,1697.4549 h 13.34926 v 27.6905 h 10.34497 v 4.053 h -25.90494 v -4.053 h 10.34497 v -23.6375 h -8.13426 z m 8.13426,-12.3573 h 5.215 v 6.6038 h -5.215 z"
         style="font-style:normal;font-variant:normal;font-weight:normal;font-stretch:normal;font-size:58.04519653px;line-height:125%;font-family:monospace;-inkscape-font-specification:monospace;text-align:center;text-anchor:middle;fill:#ffffff;fill-opacity:1"
         id="path30427" />
      <path
         d="m 617.745,1717.6914 q 0,3.5144 1.27541,5.3 1.30375,1.7856 3.82622,1.7856 h 6.09361 v 4.4214 h -6.60377 q -4.6765,0 -7.25565,-3.0043 -2.55082,-3.0043 -2.55082,-8.5027 v -28.8242 h -8.361 v -4.0813 h 13.576 z"
         style="font-style:normal;font-variant:normal;font-weight:normal;font-stretch:normal;font-size:58.04519653px;line-height:125%;font-family:monospace;-inkscape-font-specification:monospace;text-align:center;text-anchor:middle;fill:#ffffff;fill-opacity:1"
         id="path30429" />
      <path
         d="m 666.06876,1712.0229 v 2.5508 h -22.58888 v 0.17 q 0,5.1867 2.69252,8.0209 2.72087,2.8343 7.65245,2.8343 2.49413,0 5.21499,-0.7936 2.72087,-0.7936 5.81019,-2.4091 v 5.1866 q -2.97595,1.2188 -5.7535,1.814 -2.74921,0.6235 -5.32837,0.6235 -7.39736,0 -11.56369,-4.4214 -4.16633,-4.4498 -4.16633,-12.2439 0,-7.5958 4.0813,-12.1306 4.08131,-4.5347 10.88348,-4.5347 6.06527,0 9.55138,4.1096 3.51446,4.1096 3.51446,11.2236 z m -5.215,-1.5305 q -0.11337,-4.5915 -2.18237,-6.9722 -2.04065,-2.4091 -5.89521,-2.4091 -3.76954,0 -6.20698,2.4941 -2.43745,2.4941 -2.89093,6.9155 z"
         style="font-style:normal;font-variant:normal;font-weight:normal;font-stretch:normal;font-size:58.04519653px;line-height:125%;font-family:monospace;-inkscape-font-specification:monospace;text-align:center;text-anchor:middle;fill:#ffffff;fill-opacity:1"
         id="path30431" />
      <path
         d="m 683.32927,1720.5539 h 7.14228 v 8.6445 h -7.14228 z"
         style="font-style:normal;font-variant:normal;font-weight:normal;font-stretch:normal;font-size:58.04519653px;line-height:125%;font-family:monospace;-inkscape-font-specification:monospace;text-align:center;text-anchor:middle;fill:#ffffff;fill-opacity:1"
         id="path30433" />
      <path
         d="m 721.78988,1688.442 v 9.0129 H 733.637 v 4.053 h -11.84712 v 17.2321 q 0,3.5145 1.33209,4.9033 1.3321,1.3887 4.64815,1.3887 h 5.86688 v 4.1664 h -6.37704 q -5.86687,0 -8.27597,-2.3525 -2.40911,-2.3524 -2.40911,-8.1059 v -17.2321 h -8.47437 v -4.053 h 8.47437 v -9.0129 z"
         style="font-style:normal;font-variant:normal;font-weight:normal;font-stretch:normal;font-size:58.04519653px;line-height:125%;font-family:monospace;-inkscape-font-specification:monospace;text-align:center;text-anchor:middle;fill:#ffffff;fill-opacity:1"
         id="path30435" />
      <path
         d="m 770.99224,1697.4549 -11.36529,15.1915 12.47065,16.552 h -6.03693 l -9.2963,-12.7258 -9.26796,12.7258 h -6.03693 l 12.47065,-16.552 -11.3653,-15.1915 h 5.78185 l 8.41769,11.4787 8.361,-11.4787 z"
         style="font-style:normal;font-variant:normal;font-weight:normal;font-stretch:normal;font-size:58.04519653px;line-height:125%;font-family:monospace;-inkscape-font-specification:monospace;text-align:center;text-anchor:middle;fill:#ffffff;fill-opacity:1"
         id="path30437" />
      <path
         d="m 791.6255,1688.442 v 9.0129 h 11.84711 v 4.053 H 791.6255 v 17.2321 q 0,3.5145 1.33209,4.9033 1.33209,1.3887 4.64815,1.3887 h 5.86687 v 4.1664 h -6.37703 q -5.86687,0 -8.27598,-2.3525 -2.4091,-2.3524 -2.4091,-8.1059 v -17.2321 h -8.47437 v -4.053 h 8.47437 v -9.0129 z"
         style="font-style:normal;font-variant:normal;font-weight:normal;font-stretch:normal;font-size:58.04519653px;line-height:125%;font-family:monospace;-inkscape-font-specification:monospace;text-align:center;text-anchor:middle;fill:#ffffff;fill-opacity:1"
         id="path30439" />
      <path
         d="m 637.38627,1770.0114 h 5.4134 l 9.21127,26.6418 9.23962,-26.6418 h 5.41339 l -11.28026,31.7435 h -6.71715 z"
         style="font-style:normal;font-variant:normal;font-weight:normal;font-stretch:normal;font-size:58.04519653px;line-height:125%;font-family:monospace;-inkscape-font-specification:monospace;text-align:center;text-anchor:middle;fill:#ffffff;fill-opacity:1"
         id="path30441" />
      <path
         d="m 680.04156,1796.9367 h 19.44287 v 4.8182 h -25.70654 v -4.8182 q 5.30002,-5.5835 9.26796,-9.8632 3.96793,-4.2797 5.47008,-6.0369 2.83424,-3.4578 3.82622,-5.5835 0.99198,-2.154 0.99198,-4.393 0,-3.5428 -2.09733,-5.5551 -2.069,-2.0124 -5.69682,-2.0124 -2.57916,0 -5.4134,0.9353 -2.83424,0.9353 -6.00858,2.8343 v -5.7819 q 2.91926,-1.3887 5.72516,-2.0973 2.83424,-0.7086 5.58345,-0.7086 6.20698,0 9.97652,3.3161 3.79788,3.2877 3.79788,8.6444 0,2.7209 -1.27541,5.4418 -1.24707,2.7208 -4.0813,6.0085 -1.58718,1.8423 -4.61981,5.1017 -3.0043,3.2593 -9.18293,9.7498 z"
         style="font-style:normal;font-variant:normal;font-weight:normal;font-stretch:normal;font-size:58.04519653px;line-height:125%;font-family:monospace;-inkscape-font-specification:monospace;text-align:center;text-anchor:middle;fill:#ffffff;fill-opacity:1"
         id="path30443" />
    </g>
    <g
       aria-label="git reset"
       style="font-style:normal;font-variant:normal;font-weight:normal;font-stretch:normal;line-height:0%;font-family:Photographs;-inkscape-font-specification:Photographs;letter-spacing:0px;word-spacing:0px;fill:#000000;fill-opacity:1;stroke:none;stroke-width:1px;stroke-linecap:butt;stroke-linejoin:miter;stroke-opacity:1"
       id="text5414">
      <path
         d="m 927.24196,1657.6448 q 0,-5.8669 -1.92728,-8.8995 -1.89894,-3.061 -5.55511,-3.061 -3.82622,0 -5.83853,3.061 -2.01231,3.0326 -2.01231,8.8995 0,5.8669 2.01231,8.9562 2.04065,3.061 5.89521,3.061 3.59949,0 5.49843,-3.0894 1.92728,-3.0893 1.92728,-8.9278 z m 5.215,14.0862 q 0,7.1422 -3.37275,10.8267 -3.37274,3.6846 -9.91983,3.6846 -2.15402,0 -4.50644,-0.3968 -2.35242,-0.3968 -4.70484,-1.1621 v -5.1583 q 2.77756,1.3038 5.04495,1.9273 2.26739,0.6235 4.16633,0.6235 4.22301,0 6.1503,-2.2957 1.92728,-2.2957 1.92728,-7.284 v -0.2267 -3.5428 q -1.24707,2.6641 -3.40109,3.9679 -2.15402,1.3037 -5.24334,1.3037 -5.55511,0 -8.87116,-4.4497 -3.31606,-4.4498 -3.31606,-11.9038 0,-7.4824 3.31606,-11.9322 3.31605,-4.4497 8.87116,-4.4497 3.06098,0 5.18666,1.2187 2.12568,1.2187 3.45777,3.7696 v -4.1097 h 5.215 z"
         style="font-style:normal;font-variant:normal;font-weight:normal;font-stretch:normal;font-size:58.04519653px;line-height:125%;font-family:monospace;-inkscape-font-specification:monospace;fill:#000000;fill-opacity:1"
         id="path30408" />
      <path
         d="m 945.09766,1642.0281 h 13.34926 v 27.6905 h 10.34497 v 4.053 h -25.90494 v -4.053 h 10.34497 v -23.6375 h -8.13426 z m 8.13426,-12.3572 h 5.215 v 6.6037 h -5.215 z"
         style="font-style:normal;font-variant:normal;font-weight:normal;font-stretch:normal;font-size:58.04519653px;line-height:125%;font-family:monospace;-inkscape-font-specification:monospace;fill:#000000;fill-opacity:1"
         id="path30410" />
      <path
         d="m 990.16204,1633.0153 v 9.0128 h 11.84716 v 4.053 h -11.84716 v 17.2322 q 0,3.5144 1.33209,4.9032 1.33209,1.3888 4.64815,1.3888 h 5.86692 v 4.1663 h -6.37708 q -5.86687,0 -8.27597,-2.3524 -2.40911,-2.3524 -2.40911,-8.1059 v -17.2322 h -8.47437 v -4.053 h 8.47437 v -9.0128 z"
         style="font-style:normal;font-variant:normal;font-weight:normal;font-stretch:normal;font-size:58.04519653px;line-height:125%;font-family:monospace;-inkscape-font-specification:monospace;fill:#000000;fill-opacity:1"
         id="path30412" />
      <path
         d="m 1075.3309,1648.5752 q -1.6722,-1.3037 -3.4011,-1.8989 -1.7289,-0.5952 -3.7979,-0.5952 -4.8749,0 -7.454,3.061 -2.5792,3.061 -2.5792,8.8428 v 15.7867 h -5.2433 v -31.7435 h 5.2433 v 6.207 q 1.3038,-3.3727 3.9963,-5.1583 2.7209,-1.8139 6.4337,-1.8139 1.9273,0 3.5995,0.4818 1.6722,0.4818 3.2027,1.5022 z"
         style="font-style:normal;font-variant:normal;font-weight:normal;font-stretch:normal;font-size:58.04519653px;line-height:125%;font-family:monospace;-inkscape-font-specification:monospace;fill:#000000;fill-opacity:1"
         id="path30414" />
      <path
         d="m 1109.03,1656.5961 v 2.5508 h -22.5889 v 0.1701 q 0,5.1866 2.6925,8.0209 2.7209,2.8342 7.6525,2.8342 2.4941,0 5.215,-0.7936 2.7208,-0.7935 5.8102,-2.4091 v 5.1867 q -2.976,1.2187 -5.7535,1.8139 -2.7492,0.6235 -5.3284,0.6235 -7.3974,0 -11.5637,-4.4214 -4.1663,-4.4497 -4.1663,-12.2439 0,-7.5957 4.0813,-12.1305 4.0813,-4.5348 10.8834,-4.5348 6.0653,0 9.5514,4.1096 3.5145,4.1097 3.5145,11.2236 z m -5.215,-1.5305 q -0.1134,-4.5914 -2.1824,-6.9722 -2.0406,-2.4091 -5.8952,-2.4091 -3.7695,0 -6.207,2.4941 -2.4374,2.4942 -2.8909,6.9156 z"
         style="font-style:normal;font-variant:normal;font-weight:normal;font-stretch:normal;font-size:58.04519653px;line-height:125%;font-family:monospace;-inkscape-font-specification:monospace;fill:#000000;fill-opacity:1"
         id="path30416" />
      <path
         d="m 1140.0082,1643.1335 v 5.1016 q -2.2391,-1.3037 -4.5064,-1.9556 -2.2674,-0.6519 -4.6198,-0.6519 -3.5428,0 -5.3001,1.1621 -1.7289,1.1337 -1.7289,3.4861 0,2.1257 1.3038,3.1743 1.3037,1.0487 6.4904,2.0407 l 2.0973,0.3968 q 3.8829,0.7369 5.8669,2.9476 2.0123,2.2107 2.0123,5.7535 0,4.7048 -3.3444,7.369 -3.3444,2.6358 -9.2963,2.6358 -2.3524,0 -4.9316,-0.5101 -2.5791,-0.4818 -5.5834,-1.4738 v -5.3851 q 2.9193,1.5022 5.5834,2.2674 2.6642,0.7369 5.045,0.7369 3.4578,0 5.3567,-1.3888 1.8989,-1.4171 1.8989,-3.9396 0,-3.6278 -6.9439,-5.0166 l -0.2267,-0.057 -1.9556,-0.3968 q -4.5065,-0.8787 -6.5754,-2.9476 -2.069,-2.0974 -2.069,-5.6969 0,-4.5631 3.0893,-7.0289 3.0893,-2.4941 8.8145,-2.4941 2.5508,0 4.9032,0.4818 2.3524,0.4535 4.6198,1.3888 z"
         style="font-style:normal;font-variant:normal;font-weight:normal;font-stretch:normal;font-size:58.04519653px;line-height:125%;font-family:monospace;-inkscape-font-specification:monospace;fill:#000000;fill-opacity:1"
         id="path30418" />
      <path
         d="m 1178.8656,1656.5961 v 2.5508 h -22.5889 v 0.1701 q 0,5.1866 2.6926,8.0209 2.7208,2.8342 7.6524,2.8342 2.4941,0 5.215,-0.7936 2.7209,-0.7935 5.8102,-2.4091 v 5.1867 q -2.976,1.2187 -5.7535,1.8139 -2.7492,0.6235 -5.3284,0.6235 -7.3974,0 -11.5637,-4.4214 -4.1663,-4.4497 -4.1663,-12.2439 0,-7.5957 4.0813,-12.1305 4.0813,-4.5348 10.8835,-4.5348 6.0652,0 9.5513,4.1096 3.5145,4.1097 3.5145,11.2236 z m -5.215,-1.5305 q -0.1134,-4.5914 -2.1824,-6.9722 -2.0406,-2.4091 -5.8952,-2.4091 -3.7695,0 -6.207,2.4941 -2.4374,2.4942 -2.8909,6.9156 z"
         style="font-style:normal;font-variant:normal;font-weight:normal;font-stretch:normal;font-size:58.04519653px;line-height:125%;font-family:monospace;-inkscape-font-specification:monospace;fill:#000000;fill-opacity:1"
         id="path30420" />
      <path
         d="m 1199.6689,1633.0153 v 9.0128 h 11.8471 v 4.053 h -11.8471 v 17.2322 q 0,3.5144 1.3321,4.9032 1.3321,1.3888 4.6482,1.3888 h 5.8668 v 4.1663 h -6.377 q -5.8669,0 -8.276,-2.3524 -2.4091,-2.3524 -2.4091,-8.1059 v -17.2322 h -8.4744 v -4.053 h 8.4744 v -9.0128 z"
         style="font-style:normal;font-variant:normal;font-weight:normal;font-stretch:normal;font-size:58.04519653px;line-height:125%;font-family:monospace;-inkscape-font-specification:monospace;fill:#000000;fill-opacity:1"
         id="path30422" />
    </g>
    <path
       transform="matrix(0,1,-1,0,0,0)"
       style="fill:#000000;fill-opacity:1;stroke:none;stroke-width:5.80000019;stroke-linejoin:round;stroke-miterlimit:4;stroke-dasharray:none;stroke-dashoffset:0;stroke-opacity:1"
       d="m 1715.9188,-1234.8724 h 8.0547 c 2.5924,0 4.6794,2.087 4.6794,4.6794 v 322.88139 c 0,2.59241 -2.087,4.67944 -4.6794,4.67944 h -8.0547 c -2.5924,0 -4.6794,-2.08703 -4.6794,-4.67944 V -1230.193 c 0,-2.5924 2.087,-4.6794 4.6794,-4.6794 z"
       id="rect5420" />
    <path
       sodipodi:nodetypes="cccc"
       inkscape:connector-curvature="0"
       id="path5422"
       d="m 924.19911,1695.3977 0,49.7175 -49.764,-24.8586 z"
       inkscape:transform-center-y="19.550455"
       inkscape:transform-center-x="-18.813084"
       style="fill:#000000;fill-opacity:1;stroke:none;stroke-width:0;stroke-linejoin:miter;stroke-miterlimit:4;stroke-dasharray:none;stroke-opacity:0.62420379" />
    <g
       aria-label="file.txt"
       style="font-style:normal;font-variant:normal;font-weight:normal;font-stretch:normal;line-height:0%;font-family:Photographs;-inkscape-font-specification:Photographs;letter-spacing:0px;word-spacing:0px;fill:#d40000;fill-opacity:1;stroke:none;stroke-width:1px;stroke-linecap:butt;stroke-linejoin:miter;stroke-opacity:1"
       id="text5426">
      <path
         d="m 952.49648,1475.956 v 4.3364 h -5.92356 q -2.80589,0 -3.91125,1.162 -1.07701,1.1337 -1.07701,4.053 v 2.8059 h 10.91182 v 4.053 h -10.91182 v 27.6905 h -5.215 v -27.6905 h -8.47437 v -4.053 h 8.47437 v -2.2107 q 0,-5.215 2.38076,-7.6808 2.40911,-2.4658 7.48239,-2.4658 z"
         style="font-style:normal;font-variant:normal;font-weight:normal;font-stretch:normal;font-size:58.0451889px;line-height:125%;font-family:monospace;-inkscape-font-specification:monospace;fill:#d40000;fill-opacity:1"
         id="path30390" />
      <path
         d="m 964.54199,1488.3133 h 13.34926 v 27.6905 h 10.34496 v 4.053 h -25.90493 v -4.053 h 10.34497 v -23.6375 h -8.13426 z m 8.13426,-12.3573 h 5.215 v 6.6038 h -5.215 z"
         style="font-style:normal;font-variant:normal;font-weight:normal;font-stretch:normal;font-size:58.0451889px;line-height:125%;font-family:monospace;-inkscape-font-specification:monospace;fill:#d40000;fill-opacity:1"
         id="path30392" />
      <path
         d="m 1010.3149,1508.5498 q 0,3.5144 1.2754,5.3 1.3038,1.7856 3.8263,1.7856 h 6.0936 v 4.4214 h -6.6038 q -4.6765,0 -7.2557,-3.0043 -2.5508,-3.0043 -2.5508,-8.5027 v -28.8242 h -8.36097 v -4.0813 h 13.57597 z"
         style="font-style:normal;font-variant:normal;font-weight:normal;font-stretch:normal;font-size:58.0451889px;line-height:125%;font-family:monospace;-inkscape-font-specification:monospace;fill:#d40000;fill-opacity:1"
         id="path30394" />
      <path
         d="m 1058.6387,1502.8813 v 2.5508 h -22.5889 v 0.1701 q 0,5.1866 2.6925,8.0208 2.7209,2.8343 7.6525,2.8343 2.4941,0 5.215,-0.7936 2.7208,-0.7936 5.8102,-2.4091 v 5.1866 q -2.976,1.2188 -5.7535,1.814 -2.7493,0.6235 -5.3284,0.6235 -7.3974,0 -11.5637,-4.4214 -4.1663,-4.4498 -4.1663,-12.2439 0,-7.5958 4.0813,-12.1306 4.0813,-4.5347 10.8834,-4.5347 6.0653,0 9.5514,4.1096 3.5145,4.1096 3.5145,11.2236 z m -5.215,-1.5305 q -0.1134,-4.5915 -2.1824,-6.9722 -2.0406,-2.4091 -5.8952,-2.4091 -3.7695,0 -6.207,2.4941 -2.4374,2.4941 -2.8909,6.9155 z"
         style="font-style:normal;font-variant:normal;font-weight:normal;font-stretch:normal;font-size:58.0451889px;line-height:125%;font-family:monospace;-inkscape-font-specification:monospace;fill:#d40000;fill-opacity:1"
         id="path30396" />
      <path
         d="m 1075.8992,1511.4123 h 7.1423 v 8.6445 h -7.1423 z"
         style="font-style:normal;font-variant:normal;font-weight:normal;font-stretch:normal;font-size:58.0451889px;line-height:125%;font-family:monospace;-inkscape-font-specification:monospace;fill:#d40000;fill-opacity:1"
         id="path30398" />
      <path
         d="m 1114.3598,1479.3004 v 9.0129 h 11.8471 v 4.053 h -11.8471 v 17.2321 q 0,3.5145 1.3321,4.9033 1.3321,1.3887 4.6481,1.3887 h 5.8669 v 4.1664 h -6.377 q -5.8669,0 -8.276,-2.3525 -2.4091,-2.3524 -2.4091,-8.1059 v -17.2321 h -8.4744 v -4.053 h 8.4744 v -9.0129 z"
         style="font-style:normal;font-variant:normal;font-weight:normal;font-stretch:normal;font-size:58.0451889px;line-height:125%;font-family:monospace;-inkscape-font-specification:monospace;fill:#d40000;fill-opacity:1"
         id="path30400" />
      <path
         d="m 1163.5622,1488.3133 -11.3653,15.1915 12.4706,16.552 h -6.0369 l -9.2963,-12.7258 -9.268,12.7258 h -6.0369 l 12.4706,-16.552 -11.3652,-15.1915 h 5.7818 l 8.4177,11.4787 8.361,-11.4787 z"
         style="font-style:normal;font-variant:normal;font-weight:normal;font-stretch:normal;font-size:58.0451889px;line-height:125%;font-family:monospace;-inkscape-font-specification:monospace;fill:#d40000;fill-opacity:1"
         id="path30402" />
      <path
         d="m 1184.1954,1479.3004 v 9.0129 h 11.8471 v 4.053 h -11.8471 v 17.2321 q 0,3.5145 1.3321,4.9033 1.3321,1.3887 4.6481,1.3887 h 5.8669 v 4.1664 h -6.377 q -5.8669,0 -8.276,-2.3525 -2.4091,-2.3524 -2.4091,-8.1059 v -17.2321 h -8.4744 v -4.053 h 8.4744 v -9.0129 z"
         style="font-style:normal;font-variant:normal;font-weight:normal;font-stretch:normal;font-size:58.0451889px;line-height:125%;font-family:monospace;-inkscape-font-specification:monospace;fill:#d40000;fill-opacity:1"
         id="path30404" />
    </g>
    <g
       transform="matrix(3,0,0,3,-6000.955,30805.383)"
       id="g5430">
      <path
         style="fill:none;fill-opacity:1;stroke:#000000;stroke-width:4.40998793;stroke-linejoin:round;stroke-miterlimit:4;stroke-dasharray:none;stroke-opacity:1"
         d="m 2421.61,-9744.9551 h 122.581 c 1.5346,0 2.7701,1.2355 2.7701,2.7701 v 82.9206 c 0,1.5346 -1.2355,2.7701 -2.7701,2.7701 H 2421.61 c -1.5347,0 -2.7702,-1.2355 -2.7702,-2.7701 v -82.9206 c 0,-1.5346 1.2355,-2.7701 2.7702,-2.7701 z"
         id="rect5432" />
      <g
         aria-label="Index"
         style="font-style:normal;font-variant:normal;font-weight:normal;font-stretch:normal;line-height:0%;font-family:Photographs;-inkscape-font-specification:Photographs;letter-spacing:0px;word-spacing:0px;fill:#000000;fill-opacity:1;stroke:none;stroke-width:1px;stroke-linecap:butt;stroke-linejoin:miter;stroke-opacity:1"
         id="text5434">
        <path
           d="m 2467.6726,-9719.0105 q -0.4256,-0.08 -0.6119,-0.3724 -0.1862,-0.3193 -0.133,-0.6651 0.027,-0.3459 0.2661,-0.6119 0.2394,-0.2927 0.6385,-0.2927 h 1.7558 q 0.027,-2.1549 0.027,-4.23 0.027,-2.1017 0,-4.1769 0,-2.1017 -0.027,-4.23 0,-2.1283 0,-4.3631 -0.4523,0 -0.6651,0 -0.2128,0 -0.3458,0.027 -0.1065,0 -0.2661,0.027 -0.133,0 -0.4788,0.027 -0.4523,-0.08 -0.6918,-0.3193 -0.266,-0.266 -0.2926,-0.5587 -0.053,-0.3192 0.133,-0.6119 0.1862,-0.3192 0.6119,-0.5055 0.1862,-0.08 0.6917,-0.133 0.5055,-0.053 1.144,-0.08 0.6651,-0.027 1.3834,-0.027 0.7183,-0.027 1.3568,0 0.6385,0 1.1174,0.027 0.5055,0 0.6917,0.027 0.4789,0.133 0.6651,0.4523 0.2128,0.3192 0.1596,0.6651 -0.053,0.3458 -0.3192,0.6119 -0.2661,0.266 -0.6917,0.266 h 0.053 q -0.5321,0 -1.144,0.027 -0.6119,0.027 -1.1706,0.053 -0.027,4.1769 0,8.4601 0.027,4.2833 0,8.4867 0.5321,-0.027 1.0642,-0.027 0.5321,-0.027 1.0375,0.1064 0.3991,0.08 0.5853,0.3725 0.2129,0.2926 0.2129,0.6385 0.027,0.3192 -0.1331,0.6119 -0.1596,0.2926 -0.5054,0.3724 -0.6119,0.053 -1.4367,0.053 -0.7981,0.027 -1.676,0 -0.8513,0 -1.6495,-0.027 -0.7981,-0.027 -1.3568,-0.08 z"
           style="font-style:normal;font-variant:normal;font-weight:normal;font-stretch:normal;font-size:26.60404968px;line-height:125%;font-family:Photographs;-inkscape-font-specification:Photographs;text-align:center;text-anchor:middle;fill:#000000;fill-opacity:1"
           id="path30357" />
        <path
           d="m 2475.0357,-9733.5363 v -0.027 q 0,-0.027 0.027,-0.053 0,-0.266 0.1064,-0.4257 0.1331,-0.1862 0.2927,-0.2394 0.1862,-0.053 0.3724,0.053 0.2129,0.08 0.3725,0.3193 0.3724,0.8513 0.6385,1.7824 0.2926,0.9312 0.5587,1.8889 0.3724,1.3036 0.7183,2.6338 0.3458,1.3302 0.6917,2.687 0.027,-0.8779 0.053,-2.1549 0.027,-1.277 0.027,-2.554 0.027,-1.277 0,-2.3411 0,-1.0908 0,-1.5697 0,-0.4257 0.2128,-0.5853 0.2129,-0.1862 0.4523,-0.133 0.2394,0.027 0.4257,0.2394 0.2128,0.1863 0.2128,0.4789 -0.08,3.565 -0.027,7.0235 0.053,3.4585 -0.1064,7.0235 -0.2395,0.532 -0.6119,0.5586 -0.3459,0.053 -0.6385,-0.4522 -0.2927,-1.144 -0.5055,-2.1018 -0.1862,-0.9843 -0.4789,-2.1549 -0.3724,-1.543 -0.7715,-3.0328 -0.3724,-1.5165 -0.7981,-3.0329 l -0.053,-0.1596 q 0,2.6072 0,5.241 0.027,2.6072 0,5.2144 -0.053,0.266 -0.2128,0.399 -0.1597,0.133 -0.3725,0.133 -0.1862,0.027 -0.3725,-0.1064 -0.1862,-0.133 -0.266,-0.399 0.027,-1.8091 0.027,-3.5384 0.027,-1.7292 0.027,-3.4585 0,-1.7293 0,-3.4851 0,-1.7825 0,-3.6714 z"
           style="font-style:normal;font-variant:normal;font-weight:normal;font-stretch:normal;font-size:26.60404968px;line-height:125%;font-family:Photographs;-inkscape-font-specification:Photographs;text-align:center;text-anchor:middle;fill:#000000;fill-opacity:1"
           id="path30359" />
        <path
           d="m 2481.1646,-9733.6161 q -0.027,-0.1862 0.053,-0.4523 0.1064,-0.266 0.4257,-0.266 1.1174,-0.08 1.9421,0.4789 0.8513,0.5586 1.41,1.5164 0.5587,0.9577 0.8513,2.2347 0.2927,1.2504 0.2927,2.6338 0.027,1.3834 -0.2129,2.7669 -0.2394,1.3568 -0.7449,2.5273 -0.4788,1.1706 -1.2504,2.0486 -0.7449,0.8513 -1.7292,1.1971 -0.3193,0.08 -0.7183,0 -0.3991,-0.08 -0.3991,-0.4522 -0.027,-4.0172 0.027,-7.4758 0.053,-3.4851 0.053,-6.7574 z m 1.1972,0.7715 q 0,3.0329 0,6.0657 0.027,3.0329 0,6.0924 0.7183,-0.4523 1.2238,-1.277 0.5321,-0.8248 0.8247,-1.8357 0.3193,-1.0376 0.4257,-2.1549 0.1064,-1.144 0,-2.2348 -0.08,-1.0907 -0.3725,-2.0485 -0.266,-0.9577 -0.7449,-1.6228 -0.3458,-0.4523 -0.7183,-0.7183 -0.3459,-0.2661 -0.6385,-0.2661 z"
           style="font-style:normal;font-variant:normal;font-weight:normal;font-stretch:normal;font-size:26.60404968px;line-height:125%;font-family:Photographs;-inkscape-font-specification:Photographs;text-align:center;text-anchor:middle;fill:#000000;fill-opacity:1"
           id="path30361" />
        <path
           d="m 2487.7292,-9718.9307 q -0.2927,-0.053 -0.4789,-0.266 -0.1862,-0.2394 -0.266,-0.5321 0.027,-1.676 0.027,-3.2191 0.027,-1.5696 0.027,-3.1126 0,-1.5431 -0.027,-3.1127 0,-1.5963 0,-3.3255 -0.2395,-0.5853 -0.08,-0.9312 0.1863,-0.3724 0.5853,-0.5587 0.4257,-0.1862 0.9844,-0.2128 0.5587,-0.053 1.0908,0.027 0.5586,0.053 1.0109,0.1862 0.4523,0.1065 0.6119,0.2661 0.3991,0.5321 0.1064,0.8779 -0.2926,0.3459 -0.7981,0.2395 -0.6119,-0.027 -1.1706,-0.08 -0.5321,-0.08 -1.144,0.053 0,1.4632 0,2.9796 0,1.4898 0.053,3.0329 0.399,0 0.7715,-0.08 0.399,-0.08 0.7715,-0.08 0.3724,-0.133 0.6385,0.1863 0.266,0.3192 0.053,0.8513 -0.3725,0.3725 -1.011,0.5055 -0.6119,0.133 -1.2237,0.08 0.027,1.277 0.027,2.421 0,1.1173 -0.027,2.3943 0.6384,-0.027 1.3035,-0.133 0.6918,-0.133 1.3036,-0.3991 l -0.027,0.053 q 0.2927,-0.027 0.4789,0.1331 0.1862,0.133 0.2395,0.3458 0.053,0.2129 -0.027,0.4523 -0.08,0.2394 -0.3192,0.3991 -0.7715,0.3458 -1.7027,0.4788 -0.9311,0.133 -1.7824,0.08 z"
           style="font-style:normal;font-variant:normal;font-weight:normal;font-stretch:normal;font-size:26.60404968px;line-height:125%;font-family:Photographs;-inkscape-font-specification:Photographs;text-align:center;text-anchor:middle;fill:#000000;fill-opacity:1"
           id="path30363" />
        <path
           d="m 2496.3244,-9733.9087 q 0.1064,-0.2927 0.3724,-0.3725 0.2927,-0.08 0.5321,0 0.266,0.08 0.4257,0.2926 0.1596,0.2129 0.053,0.4789 -0.027,0.1862 -0.1597,0.7449 -0.1064,0.5321 -0.2926,1.2504 -0.1862,0.6917 -0.3991,1.5165 -0.2128,0.7981 -0.4256,1.5696 -0.1863,0.7449 -0.3725,1.3568 -0.1596,0.5853 -0.2394,0.8779 0.2394,0.7449 0.5055,1.5697 0.2926,0.7981 0.5586,1.6228 0.2927,0.7981 0.5587,1.5963 0.2927,0.7981 0.5055,1.5164 0.133,0.3991 -0.027,0.6385 -0.133,0.2394 -0.3725,0.3192 -0.2394,0.053 -0.5054,-0.053 -0.2395,-0.1064 -0.2927,-0.399 -0.4789,-1.2504 -0.8513,-2.3944 -0.3725,-1.144 -0.9045,-2.5274 -0.3991,1.1706 -0.7716,2.4742 -0.3724,1.277 -0.8247,2.554 -0.08,0.2394 -0.2926,0.3192 -0.2129,0.053 -0.4257,-0.027 -0.1862,-0.08 -0.3192,-0.3192 -0.1065,-0.2661 -0.027,-0.6917 0.2395,-0.878 0.4789,-1.6495 0.2395,-0.7981 0.4789,-1.5164 0.2394,-0.7449 0.4523,-1.4632 0.2394,-0.7183 0.4522,-1.4633 -0.2394,-0.8513 -0.4788,-1.7824 -0.2395,-0.9578 -0.4789,-1.9155 -0.2395,-0.9578 -0.4523,-1.8889 -0.1862,-0.9577 -0.3192,-1.8357 -0.027,-0.3192 0.1064,-0.5321 0.133,-0.2394 0.3458,-0.3192 0.2129,-0.08 0.4257,0 0.2394,0.08 0.4257,0.3458 0.399,1.3568 0.6651,2.8999 0.266,1.543 0.5587,2.8732 0.1596,-0.7981 0.3458,-1.6228 0.1862,-0.8248 0.3725,-1.5697 0.1862,-0.7715 0.3458,-1.41 0.1596,-0.6651 0.2661,-1.0641 z"
           style="font-style:normal;font-variant:normal;font-weight:normal;font-stretch:normal;font-size:26.60404968px;line-height:125%;font-family:Photographs;-inkscape-font-specification:Photographs;text-align:center;text-anchor:middle;fill:#000000;fill-opacity:1"
           id="path30365" />
      </g>
      <g
         transform="matrix(0.96741988,0,0,0.96741988,-97.829947,-7032.2568)"
         id="g5438">
        <path
           style="opacity:1;fill:#364a62;fill-opacity:1;stroke:none;stroke-width:5.80000019;stroke-linejoin:round;stroke-miterlimit:4;stroke-dasharray:none;stroke-dashoffset:0;stroke-opacity:1"
           d="m 2610.2369,-2774.1025 h 114.6366 c 2.4436,0 4.4109,1.9672 4.4109,4.4109 v 48.6781 c 0,2.4437 -1.9673,4.411 -4.4109,4.411 h -114.6366 c -2.4437,0 -4.411,-1.9673 -4.411,-4.411 v -48.6781 c 0,-2.4437 1.9673,-4.4109 4.411,-4.4109 z"
           id="rect5440" />
        <g
           aria-label="file.txt
v1"
           style="font-style:normal;font-variant:normal;font-weight:normal;font-stretch:normal;line-height:0%;font-family:Photographs;-inkscape-font-specification:Photographs;letter-spacing:0px;word-spacing:0px;fill:#ffffff;fill-opacity:1;stroke:none;stroke-width:1px;stroke-linecap:butt;stroke-linejoin:miter;stroke-opacity:1"
           id="text5442">
          <path
             d="m 2630.4927,-2764.5759 v 1.4941 h -2.041 q -0.9668,0 -1.3477,0.4004 -0.3711,0.3906 -0.3711,1.3965 v 0.9668 h 3.7598 v 1.3965 h -3.7598 v 9.541 h -1.7969 v -9.541 h -2.9199 v -1.3965 h 2.9199 v -0.7617 q 0,-1.7969 0.8203,-2.6465 0.8301,-0.8496 2.5782,-0.8496 z"
             style="font-style:normal;font-variant:normal;font-weight:normal;font-stretch:normal;font-size:20px;line-height:125%;font-family:monospace;-inkscape-font-specification:monospace;text-align:center;text-anchor:middle;fill:#ffffff;fill-opacity:1"
             id="path30369" />
          <path
             d="m 2634.6431,-2760.3181 h 4.5996 v 9.541 h 3.5644 v 1.3965 h -8.9258 v -1.3965 h 3.5645 v -8.1445 h -2.8027 z m 2.8027,-4.2578 h 1.7969 v 2.2754 h -1.7969 z"
             style="font-style:normal;font-variant:normal;font-weight:normal;font-stretch:normal;font-size:20px;line-height:125%;font-family:monospace;-inkscape-font-specification:monospace;text-align:center;text-anchor:middle;fill:#ffffff;fill-opacity:1"
             id="path30371" />
          <path
             d="m 2650.4146,-2753.3455 q 0,1.211 0.4394,1.8262 0.4492,0.6152 1.3184,0.6152 h 2.0996 v 1.5235 h -2.2754 q -1.6113,0 -2.5,-1.0352 -0.8789,-1.0351 -0.8789,-2.9297 v -9.9316 h -2.8809 v -1.4062 h 4.6778 z"
             style="font-style:normal;font-variant:normal;font-weight:normal;font-stretch:normal;font-size:20px;line-height:125%;font-family:monospace;-inkscape-font-specification:monospace;text-align:center;text-anchor:middle;fill:#ffffff;fill-opacity:1"
             id="path30373" />
          <path
             d="m 2667.0649,-2755.2986 v 0.8789 h -7.7832 v 0.059 q 0,1.7871 0.9278,2.7637 0.9375,0.9766 2.6367,0.9766 0.8594,0 1.7969,-0.2735 0.9375,-0.2734 2.0019,-0.8301 v 1.7871 q -1.0254,0.42 -1.9824,0.625 -0.9473,0.2149 -1.8359,0.2149 -2.5489,0 -3.9844,-1.5234 -1.4356,-1.5333 -1.4356,-4.2188 0,-2.6172 1.4063,-4.1797 1.4062,-1.5625 3.75,-1.5625 2.0898,0 3.291,1.416 1.2109,1.416 1.2109,3.8672 z m -1.7968,-0.5273 q -0.039,-1.5821 -0.752,-2.4024 -0.7031,-0.83 -2.0312,-0.83 -1.2989,0 -2.1387,0.8593 -0.8399,0.8594 -0.9961,2.3828 z"
             style="font-style:normal;font-variant:normal;font-weight:normal;font-stretch:normal;font-size:20px;line-height:125%;font-family:monospace;-inkscape-font-specification:monospace;text-align:center;text-anchor:middle;fill:#ffffff;fill-opacity:1"
             id="path30375" />
          <path
             d="m 2673.0122,-2752.3591 h 2.4609 v 2.9785 h -2.4609 z"
             style="font-style:normal;font-variant:normal;font-weight:normal;font-stretch:normal;font-size:20px;line-height:125%;font-family:monospace;-inkscape-font-specification:monospace;text-align:center;text-anchor:middle;fill:#ffffff;fill-opacity:1"
             id="path30377" />
          <path
             d="m 2686.2642,-2763.4236 v 3.1055 h 4.082 v 1.3965 h -4.082 v 5.9375 q 0,1.2109 0.4589,1.6894 0.459,0.4785 1.6016,0.4785 h 2.0215 v 1.4356 h -2.1973 q -2.0215,0 -2.8515,-0.8106 -0.8301,-0.8105 -0.8301,-2.7929 v -5.9375 h -2.9199 v -1.3965 h 2.9199 v -3.1055 z"
             style="font-style:normal;font-variant:normal;font-weight:normal;font-stretch:normal;font-size:20px;line-height:125%;font-family:monospace;-inkscape-font-specification:monospace;text-align:center;text-anchor:middle;fill:#ffffff;fill-opacity:1"
             id="path30379" />
          <path
             d="m 2703.2173,-2760.3181 -3.916,5.2344 4.2968,5.7031 h -2.08 l -3.2032,-4.3848 -3.1933,4.3848 h -2.0801 l 4.2969,-5.7031 -3.916,-5.2344 h 1.9922 l 2.9003,3.9551 2.8809,-3.9551 z"
             style="font-style:normal;font-variant:normal;font-weight:normal;font-stretch:normal;font-size:20px;line-height:125%;font-family:monospace;-inkscape-font-specification:monospace;text-align:center;text-anchor:middle;fill:#ffffff;fill-opacity:1"
             id="path30381" />
          <path
             d="m 2710.3267,-2763.4236 v 3.1055 h 4.082 v 1.3965 h -4.082 v 5.9375 q 0,1.2109 0.4589,1.6894 0.459,0.4785 1.6016,0.4785 h 2.0215 v 1.4356 h -2.1973 q -2.0215,0 -2.8515,-0.8106 -0.8301,-0.8105 -0.8301,-2.7929 v -5.9375 h -2.9199 v -1.3965 h 2.9199 v -3.1055 z"
             style="font-style:normal;font-variant:normal;font-weight:normal;font-stretch:normal;font-size:20px;line-height:125%;font-family:monospace;-inkscape-font-specification:monospace;text-align:center;text-anchor:middle;fill:#ffffff;fill-opacity:1"
             id="path30383" />
          <path
             d="m 2657.1821,-2735.3181 h 1.8653 l 3.1738,9.1797 3.1836,-9.1797 h 1.8652 l -3.8867,10.9375 h -2.3145 z"
             style="font-style:normal;font-variant:normal;font-weight:normal;font-stretch:normal;font-size:20px;line-height:125%;font-family:monospace;-inkscape-font-specification:monospace;text-align:center;text-anchor:middle;fill:#ffffff;fill-opacity:1"
             id="path30385" />
          <path
             d="m 2670.8735,-2726.0408 h 3.0664 v -11.1425 l -3.3007,0.7421 v -1.7968 l 3.2812,-0.7227 h 1.9727 v 12.9199 h 3.0273 v 1.6602 h -8.0469 z"
             style="font-style:normal;font-variant:normal;font-weight:normal;font-stretch:normal;font-size:20px;line-height:125%;font-family:monospace;-inkscape-font-specification:monospace;text-align:center;text-anchor:middle;fill:#ffffff;fill-opacity:1"
             id="path30387" />
        </g>
      </g>
    </g>
    <g
       id="g30310"
       transform="matrix(3,0,0,3,-5220.9553,31424.133)">
      <rect
         style="fill:none;fill-opacity:1;stroke:#000000;stroke-width:4.40998793;stroke-linejoin:round;stroke-miterlimit:4;stroke-dasharray:none;stroke-opacity:1"
         id="rect30294"
         width="128.12128"
         height="88.460762"
         x="2418.8398"
         y="-9744.9551"
         ry="2.770124" />
      <text
         inkscape:export-ydpi="90"
         inkscape:export-xdpi="90"
         id="text30298"
         y="-9718.9307"
         x="2482.9727"
         style="font-style:normal;font-variant:normal;font-weight:normal;font-stretch:normal;line-height:0%;font-family:Photographs;-inkscape-font-specification:Photographs;letter-spacing:0px;word-spacing:0px;fill:#000000;fill-opacity:1;stroke:none;stroke-width:1px;stroke-linecap:butt;stroke-linejoin:miter;stroke-opacity:1"
         xml:space="preserve"><tspan
           style="font-style:normal;font-variant:normal;font-weight:normal;font-stretch:normal;font-size:26.60404968px;line-height:125%;font-family:Photographs;-inkscape-font-specification:Photographs;text-align:center;text-anchor:middle;fill:#000000;fill-opacity:1"
           y="-9718.9307"
           x="2482.9727"
           sodipodi:role="line"
           id="tspan30296">HEAD</tspan></text>
      <g
         id="g30308"
         transform="matrix(0.96741988,0,0,0.96741988,-97.829947,-7032.2568)">
        <rect
           ry="4.4109259"
           y="-2774.1025"
           x="2605.8259"
           height="57.5"
           width="123.45845"
           id="rect30300"
           style="opacity:1;fill:#364a62;fill-opacity:1;stroke:none;stroke-width:5.80000019;stroke-linejoin:round;stroke-miterlimit:4;stroke-dasharray:none;stroke-dashoffset:0;stroke-opacity:1" />
        <text
           inkscape:export-ydpi="90"
           inkscape:export-xdpi="90"
           id="text30306"
           y="-2749.3806"
           x="2668.2368"
           style="font-style:normal;font-variant:normal;font-weight:normal;font-stretch:normal;line-height:0%;font-family:Photographs;-inkscape-font-specification:Photographs;letter-spacing:0px;word-spacing:0px;fill:#ffffff;fill-opacity:1;stroke:none;stroke-width:1px;stroke-linecap:butt;stroke-linejoin:miter;stroke-opacity:1"
           xml:space="preserve"><tspan
             style="font-style:normal;font-variant:normal;font-weight:normal;font-stretch:normal;font-size:20px;line-height:125%;font-family:monospace;-inkscape-font-specification:monospace;text-align:center;text-anchor:middle;fill:#ffffff;fill-opacity:1"
             y="-2749.3806"
             x="2668.2368"
             sodipodi:role="line"
             id="tspan30302">file.txt</tspan><tspan
             id="tspan30304"
             style="font-style:normal;font-variant:normal;font-weight:normal;font-stretch:normal;font-size:20px;line-height:125%;font-family:monospace;-inkscape-font-specification:monospace;text-align:center;text-anchor:middle;fill:#ffffff;fill-opacity:1"
             y="-2724.3806"
             x="2668.2368"
             sodipodi:role="line">v1</tspan></text>
      </g>
    </g>
    <rect
       ry="8.3103714"
       y="2189.2705"
       x="475.56375"
       height="265.38226"
       width="384.3638"
       id="rect30312"
       style="fill:none;fill-opacity:1;stroke:#000000;stroke-width:13.22996426;stroke-linejoin:round;stroke-miterlimit:4;stroke-dasharray:none;stroke-opacity:1" />
    <text
       xml:space="preserve"
       style="font-style:normal;font-variant:normal;font-weight:normal;font-stretch:normal;line-height:0%;font-family:Photographs;-inkscape-font-specification:Photographs;letter-spacing:0px;word-spacing:0px;fill:#000000;fill-opacity:1;stroke:none;stroke-width:1px;stroke-linecap:butt;stroke-linejoin:miter;stroke-opacity:1"
       x="667.96179"
       y="2267.3438"
       id="text30316"
       inkscape:export-xdpi="90"
       inkscape:export-ydpi="90"><tspan
         id="tspan30314"
         sodipodi:role="line"
         x="667.96179"
         y="2267.3438"
         style="font-style:normal;font-variant:normal;font-weight:normal;font-stretch:normal;font-size:79.81214905px;line-height:125%;font-family:Photographs;-inkscape-font-specification:Photographs;text-align:center;text-anchor:middle;fill:#000000;fill-opacity:1">Working Directory</tspan></text>
    <rect
       ry="12.80165"
       y="2276.2002"
       x="488.33792"
       height="166.87991"
       width="358.30844"
       id="rect30318"
       style="opacity:1;fill:#7e005e;fill-opacity:1;stroke:none;stroke-width:5.80000019;stroke-linejoin:round;stroke-miterlimit:4;stroke-dasharray:none;stroke-dashoffset:0;stroke-opacity:1" />
    <text
       inkscape:export-ydpi="90"
       inkscape:export-xdpi="90"
       id="text30324"
       y="2347.9482"
       x="669.46985"
       style="font-style:normal;font-variant:normal;font-weight:normal;font-stretch:normal;line-height:0%;font-family:Photographs;-inkscape-font-specification:Photographs;letter-spacing:0px;word-spacing:0px;fill:#ffffff;fill-opacity:1;stroke:none;stroke-width:1px;stroke-linecap:butt;stroke-linejoin:miter;stroke-opacity:1"
       xml:space="preserve"><tspan
         style="font-style:normal;font-variant:normal;font-weight:normal;font-stretch:normal;font-size:58.04519653px;line-height:125%;font-family:monospace;-inkscape-font-specification:monospace;text-align:center;text-anchor:middle;fill:#ffffff;fill-opacity:1"
         y="2347.9482"
         x="669.46985"
         sodipodi:role="line"
         id="tspan30320">file.txt</tspan><tspan
         id="tspan30322"
         style="font-style:normal;font-variant:normal;font-weight:normal;font-stretch:normal;font-size:58.04519653px;line-height:125%;font-family:monospace;-inkscape-font-specification:monospace;text-align:center;text-anchor:middle;fill:#ffffff;fill-opacity:1"
         y="2420.5046"
         x="669.46985"
         sodipodi:role="line">v2</tspan></text>
    <text
       inkscape:export-ydpi="90"
       inkscape:export-xdpi="90"
       id="text30328"
       y="2292.5215"
       x="902.92419"
       style="font-style:normal;font-variant:normal;font-weight:normal;font-stretch:normal;line-height:0%;font-family:Photographs;-inkscape-font-specification:Photographs;letter-spacing:0px;word-spacing:0px;fill:#000000;fill-opacity:1;stroke:none;stroke-width:1px;stroke-linecap:butt;stroke-linejoin:miter;stroke-opacity:1"
       xml:space="preserve"><tspan
         style="font-style:normal;font-variant:normal;font-weight:normal;font-stretch:normal;font-size:58.04519653px;line-height:125%;font-family:monospace;-inkscape-font-specification:monospace;fill:#000000;fill-opacity:1"
         y="2292.5215"
         x="902.92419"
         sodipodi:role="line"
         id="tspan30326">git reset</tspan></text>
    <rect
       style="fill:#000000;fill-opacity:1;stroke:none;stroke-width:5.80000019;stroke-linejoin:round;stroke-miterlimit:4;stroke-dasharray:none;stroke-dashoffset:0;stroke-opacity:1"
       id="rect30330"
       width="17.413555"
       height="332.24026"
       x="2329.9893"
       y="-1234.8724"
       ry="4.67944"
       transform="rotate(90)" />
    <path
       style="fill:#000000;fill-opacity:1;stroke:none;stroke-width:0;stroke-linejoin:miter;stroke-miterlimit:4;stroke-dasharray:none;stroke-opacity:0.62420379"
       inkscape:transform-center-x="-18.813084"
       inkscape:transform-center-y="19.550455"
       d="m 924.19911,2314.1477 v 49.7175 l -49.764,-24.8586 z"
       id="path30332"
       inkscape:connector-curvature="0"
       sodipodi:nodetypes="cccc" />
    <text
       inkscape:export-ydpi="90"
       inkscape:export-xdpi="90"
       id="text30336"
       y="2138.8066"
       x="922.36853"
       style="font-style:normal;font-variant:normal;font-weight:normal;font-stretch:normal;line-height:0%;font-family:Photographs;-inkscape-font-specification:Photographs;letter-spacing:0px;word-spacing:0px;fill:#d40000;fill-opacity:1;stroke:none;stroke-width:1px;stroke-linecap:butt;stroke-linejoin:miter;stroke-opacity:1"
       xml:space="preserve"><tspan
         style="font-style:normal;font-variant:normal;font-weight:normal;font-stretch:normal;font-size:58.0451889px;line-height:125%;font-family:monospace;-inkscape-font-specification:monospace;fill:#d40000;fill-opacity:1"
         y="2138.8066"
         x="922.36853"
         sodipodi:role="line"
         id="tspan30334">file.txt</tspan></text>
    <g
       id="g30354"
       transform="matrix(3,0,0,3,-6000.955,31424.133)">
      <rect
         style="fill:none;fill-opacity:1;stroke:#000000;stroke-width:4.40998793;stroke-linejoin:round;stroke-miterlimit:4;stroke-dasharray:none;stroke-opacity:1"
         id="rect30338"
         width="128.12128"
         height="88.460762"
         x="2418.8398"
         y="-9744.9551"
         ry="2.770124" />
      <text
         inkscape:export-ydpi="90"
         inkscape:export-xdpi="90"
         id="text30342"
         y="-9718.9307"
         x="2482.9727"
         style="font-style:normal;font-variant:normal;font-weight:normal;font-stretch:normal;line-height:0%;font-family:Photographs;-inkscape-font-specification:Photographs;letter-spacing:0px;word-spacing:0px;fill:#000000;fill-opacity:1;stroke:none;stroke-width:1px;stroke-linecap:butt;stroke-linejoin:miter;stroke-opacity:1"
         xml:space="preserve"><tspan
           style="font-style:normal;font-variant:normal;font-weight:normal;font-stretch:normal;font-size:26.60404968px;line-height:125%;font-family:Photographs;-inkscape-font-specification:Photographs;text-align:center;text-anchor:middle;fill:#000000;fill-opacity:1"
           y="-9718.9307"
           x="2482.9727"
           sodipodi:role="line"
           id="tspan30340">Index</tspan></text>
      <g
         id="g30352"
         transform="matrix(0.96741988,0,0,0.96741988,-97.829947,-7032.2568)">
        <rect
           ry="4.4109259"
           y="-2774.1025"
           x="2605.8259"
           height="57.5"
           width="123.45845"
           id="rect30344"
           style="opacity:1;fill:#364a62;fill-opacity:1;stroke:none;stroke-width:5.80000019;stroke-linejoin:round;stroke-miterlimit:4;stroke-dasharray:none;stroke-dashoffset:0;stroke-opacity:1" />
        <text
           inkscape:export-ydpi="90"
           inkscape:export-xdpi="90"
           id="text30350"
           y="-2749.3806"
           x="2668.2368"
           style="font-style:normal;font-variant:normal;font-weight:normal;font-stretch:normal;line-height:0%;font-family:Photographs;-inkscape-font-specification:Photographs;letter-spacing:0px;word-spacing:0px;fill:#ffffff;fill-opacity:1;stroke:none;stroke-width:1px;stroke-linecap:butt;stroke-linejoin:miter;stroke-opacity:1"
           xml:space="preserve"><tspan
             style="font-style:normal;font-variant:normal;font-weight:normal;font-stretch:normal;font-size:20px;line-height:125%;font-family:monospace;-inkscape-font-specification:monospace;text-align:center;text-anchor:middle;fill:#ffffff;fill-opacity:1"
             y="-2749.3806"
             x="2668.2368"
             sodipodi:role="line"
             id="tspan30346">file.txt</tspan><tspan
             id="tspan30348"
             style="font-style:normal;font-variant:normal;font-weight:normal;font-stretch:normal;font-size:20px;line-height:125%;font-family:monospace;-inkscape-font-specification:monospace;text-align:center;text-anchor:middle;fill:#ffffff;fill-opacity:1"
             y="-2724.3806"
             x="2668.2368"
             sodipodi:role="line">v1</tspan></text>
      </g>
    </g>
  </g>
</svg>
