<?xml version="1.0" encoding="UTF-8" standalone="no"?>
<svg
   xmlns:dc="http://purl.org/dc/elements/1.1/"
   xmlns:cc="http://creativecommons.org/ns#"
   xmlns:rdf="http://www.w3.org/1999/02/22-rdf-syntax-ns#"
   xmlns:svg="http://www.w3.org/2000/svg"
   xmlns="http://www.w3.org/2000/svg"
   xmlns:sodipodi="http://sodipodi.sourceforge.net/DTD/sodipodi-0.dtd"
   xmlns:inkscape="http://www.inkscape.org/namespaces/inkscape"
   version="1.1"
   id="svg2"
   viewBox="0 0 147.55632 670.5516"
   height="670.55157"
   width="147.55632"
   inkscape:version="0.91 r13725"
   sodipodi:docname="git-edit-pull-1.svg">
  <sodipodi:namedview
     pagecolor="#ffffff"
     bordercolor="#666666"
     borderopacity="1"
     objecttolerance="10"
     gridtolerance="10"
     guidetolerance="10"
     inkscape:pageopacity="0"
     inkscape:pageshadow="2"
     inkscape:window-width="1920"
     inkscape:window-height="1023"
     id="namedview4153"
     showgrid="false"
     units="px"
     fit-margin-top="0"
     fit-margin-left="0"
     fit-margin-right="0"
     fit-margin-bottom="0"
     inkscape:zoom="0.76684624"
     inkscape:cx="7.7725569"
     inkscape:cy="524.66234"
     inkscape:window-x="0"
     inkscape:window-y="0"
     inkscape:window-maximized="1"
     inkscape:current-layer="svg2" />
  <defs
     id="defs4" />
  <metadata
     id="metadata7">
    <rdf:RDF>
      <cc:Work
         rdf:about="">
        <dc:format>image/svg+xml</dc:format>
        <dc:type
           rdf:resource="http://purl.org/dc/dcmitype/StillImage" />
        <dc:title></dc:title>
      </cc:Work>
    </rdf:RDF>
  </metadata>
  <g
     id="layer1"
     transform="matrix(0.63873037,0,0,0.63873037,-179.36569,-0.65399865)">
    <circle
       r="67.891891"
       cy="970.00128"
       cx="361.65808"
       id="circle4469"
       style="fill:none;fill-opacity:1;stroke:#364a62;stroke-width:25.90043449;stroke-linejoin:miter;stroke-miterlimit:4;stroke-dasharray:none;stroke-opacity:1" />
    <circle
       r="67.891891"
       style="fill:none;fill-opacity:1;stroke:#364a62;stroke-width:25.90043449;stroke-linejoin:miter;stroke-miterlimit:4;stroke-dasharray:none;stroke-opacity:1"
       id="circle4491"
       cx="361.65808"
       cy="545.51996" />
    <g
       style="fill:#666666;fill-opacity:1"
       transform="matrix(7.074689,0,0,6.2033883,-101.38529,-3010.8401)"
       id="g4493">
      <path
         style="fill:#666666;fill-opacity:1;stroke:none;stroke-width:0;stroke-linejoin:miter;stroke-miterlimit:4;stroke-dasharray:none;stroke-opacity:0.62420379"
         d="m 62.46421,626.93112 c 0,0 -1.9752,-4.86969 -1.97011,-7.31496 0.008,-3.97993 3.01214,-7.92543 3.25613,-11.90476 0.15983,-2.60649 -1.17554,-7.81364 -1.17554,-7.81364 l 5.72377,0.0251 c 0,0 1.36373,5.14131 1.22477,7.71535 -0.21658,4.0118 -3.2243,7.99084 -3.20606,12.0031 0.011,2.42886 2.00689,7.26479 2.00689,7.26479 0,0 -1.924299,-0.35764 -2.897269,-0.35488 -0.99561,0.003 -2.962581,0.3799 -2.962581,0.3799 z"
         id="path4495"
         inkscape:connector-curvature="0" />
      <path
         style="fill:#666666;fill-opacity:1;stroke:none;stroke-width:0;stroke-linejoin:miter;stroke-miterlimit:4;stroke-dasharray:none;stroke-opacity:0.62420379"
         d="m 71.71751,600.44513 -12.361,0 6.1805,-12.6625 z"
         id="path4497"
         inkscape:connector-curvature="0" />
    </g>
    <g
       style="fill:#666666;fill-opacity:1"
       transform="matrix(7.074689,0,0,6.2033883,-101.38529,-3435.3214)"
       id="g4501">
      <path
         style="fill:#666666;fill-opacity:1;stroke:none;stroke-width:0;stroke-linejoin:miter;stroke-miterlimit:4;stroke-dasharray:none;stroke-opacity:0.62420379"
         d="m 62.46421,626.93112 c 0,0 -1.9752,-4.86969 -1.97011,-7.31496 0.008,-3.97993 3.01214,-7.92543 3.25613,-11.90476 0.15983,-2.60649 -1.17554,-7.81364 -1.17554,-7.81364 l 5.72377,0.0251 c 0,0 1.36373,5.14131 1.22477,7.71535 -0.21658,4.0118 -3.2243,7.99084 -3.20606,12.0031 0.011,2.42886 2.00689,7.26479 2.00689,7.26479 0,0 -1.924299,-0.35764 -2.897269,-0.35488 -0.99561,0.003 -2.962581,0.3799 -2.962581,0.3799 z"
         id="path4503"
         inkscape:connector-curvature="0" />
      <path
         style="fill:#666666;fill-opacity:1;stroke:none;stroke-width:0;stroke-linejoin:miter;stroke-miterlimit:4;stroke-dasharray:none;stroke-opacity:0.62420379"
         d="m 71.71751,600.44513 -12.361,0 6.1805,-12.6625 z"
         id="path4505"
         inkscape:connector-curvature="0" />
    </g>
    <circle
       r="67.891891"
       cy="121.03857"
       cx="361.65808"
       id="circle4507"
       style="fill:none;fill-opacity:1;stroke:#364a62;stroke-width:25.90043449;stroke-linejoin:miter;stroke-miterlimit:4;stroke-dasharray:none;stroke-opacity:1" />
    <text
       xml:space="preserve"
       style="font-style:normal;font-weight:normal;font-size:282.98754883px;line-height:125%;font-family:sans-serif;letter-spacing:0px;word-spacing:0px;fill:#000000;fill-opacity:1;stroke:none;stroke-width:1px;stroke-linecap:butt;stroke-linejoin:miter;stroke-opacity:1"
       x="457.51508"
       y="142.00182"
       id="text4577"
       sodipodi:linespacing="125%"><tspan
         id="tspan4579"
         x="457.51508"
         y="142.00182"
         style="font-style:normal;font-variant:normal;font-weight:normal;font-stretch:normal;font-size:176.86721802px;font-family:Photographs;-inkscape-font-specification:Photographs">B</tspan></text>
    <text
       id="text4581"
       y="566.48315"
       x="457.51508"
       style="font-style:normal;font-weight:normal;font-size:282.98754883px;line-height:125%;font-family:sans-serif;letter-spacing:0px;word-spacing:0px;fill:#000000;fill-opacity:1;stroke:none;stroke-width:1px;stroke-linecap:butt;stroke-linejoin:miter;stroke-opacity:1"
       xml:space="preserve"
       sodipodi:linespacing="125%"><tspan
         style="font-style:normal;font-variant:normal;font-weight:normal;font-stretch:normal;font-size:176.86721802px;font-family:Photographs;-inkscape-font-specification:Photographs"
         y="566.48315"
         x="457.51508"
         id="tspan4583">A</tspan></text>
  </g>
</svg>
