<?xml version="1.0" encoding="UTF-8" standalone="no"?>
<!-- Generator: Adobe Illustrator 20.1.0, SVG Export Plug-In . SVG Version: 6.00 Build 0)  -->

<svg
   xmlns:dc="http://purl.org/dc/elements/1.1/"
   xmlns:cc="http://creativecommons.org/ns#"
   xmlns:rdf="http://www.w3.org/1999/02/22-rdf-syntax-ns#"
   xmlns:svg="http://www.w3.org/2000/svg"
   xmlns="http://www.w3.org/2000/svg"
   xmlns:sodipodi="http://sodipodi.sourceforge.net/DTD/sodipodi-0.dtd"
   xmlns:inkscape="http://www.inkscape.org/namespaces/inkscape"
   version="1.1"
   id="Calque_1"
   x="0px"
   y="0px"
   viewBox="0 0 841.9 595.3"
   style="enable-background:new 0 0 841.9 595.3;"
   xml:space="preserve"
   inkscape:version="0.91 r13725"
   sodipodi:docname="logo-ineat-white.svg"><metadata
     id="metadata53"><rdf:RDF><cc:Work
         rdf:about=""><dc:format>image/svg+xml</dc:format><dc:type
           rdf:resource="http://purl.org/dc/dcmitype/StillImage" /></cc:Work></rdf:RDF></metadata><defs
     id="defs51" /><sodipodi:namedview
     pagecolor="#ffffff"
     bordercolor="#666666"
     borderopacity="1"
     objecttolerance="10"
     gridtolerance="10"
     guidetolerance="10"
     inkscape:pageopacity="0"
     inkscape:pageshadow="2"
     inkscape:window-width="1920"
     inkscape:window-height="1051"
     id="namedview49"
     showgrid="false"
     inkscape:zoom="0.39643878"
     inkscape:cx="420.95001"
     inkscape:cy="297.64999"
     inkscape:window-x="0"
     inkscape:window-y="0"
     inkscape:window-maximized="1"
     inkscape:current-layer="Calque_1" /><style
     type="text/css"
     id="style3">
	.st0{fill:#FDFEFE;}
</style><g
     id="g5"
     transform="translate(3.0449153,2.5224585)"
     style="fill:#3f3f3f;fill-opacity:1"><g
       id="g7"
       style="fill:#3f3f3f;fill-opacity:1"><g
         id="g9"
         style="fill:#3f3f3f;fill-opacity:1"><path
           class="st0"
           d="m 156.7,534.1 0,-12.1 7.7,0 0,-53.1 -7.7,0 0,-12.1 28.9,0 0,12.1 -7.7,0 0,53.1 7.7,0 0,12.1 -28.9,0 z"
           id="path11"
           inkscape:connector-curvature="0"
           style="fill:#3f3f3f;fill-opacity:1" /></g><g
         id="g13"
         style="fill:#3f3f3f;fill-opacity:1"><path
           class="st0"
           d="m 247.8,534.1 0,-12.1 4.7,0 c 1.6,0 2.4,-0.8 2.4,-2.4 l 0,-62.7 12.8,0 29.3,42.7 c 0.9,1.3 1.8,2.9 2.9,4.7 1.1,1.8 1.9,3.3 2.5,4.5 l 1,1.7 0.2,0 c -0.5,-4.3 -0.8,-7.9 -0.8,-10.9 l 0,-35.3 c 0,-2.5 0.6,-4.4 1.7,-5.6 1.2,-1.2 3,-1.8 5.7,-1.8 l 13.9,0 0,12.1 -4.7,0 c -1.6,0 -2.4,0.8 -2.4,2.4 l 0,62.7 -12.7,0 -29.3,-42.6 c -0.9,-1.3 -1.8,-2.9 -2.9,-4.7 -1.1,-1.8 -1.9,-3.3 -2.5,-4.5 l -1,-1.7 -0.2,0 c 0.5,4.3 0.8,7.9 0.8,10.9 l 0,35.2 c 0,2.6 -0.6,4.5 -1.7,5.7 -1.2,1.2 -3,1.7 -5.7,1.7 l -14,0 z"
           id="path15"
           inkscape:connector-curvature="0"
           style="fill:#3f3f3f;fill-opacity:1" /></g><g
         id="g17"
         style="fill:#3f3f3f;fill-opacity:1"><path
           class="st0"
           d="m 393,526.7 0,-57.7 -7.1,0 0,-12.1 46.7,0 c 4.9,0 7.4,2.5 7.4,7.4 l 0,11.7 -13,0 0,-4.7 c 0,-1.6 -0.8,-2.4 -2.4,-2.4 l -17.4,0 0,20.2 25,0 0,12.1 -25,0 0,18.4 c 0,1.6 0.8,2.4 2.4,2.4 l 17.8,0 c 1.6,0 2.4,-0.8 2.4,-2.4 l 0,-4.7 12.9,0 0,11.7 c 0,2.6 -0.6,4.5 -1.8,5.7 -1.2,1.2 -3.1,1.7 -5.6,1.7 l -35,0 c -2.6,0 -4.5,-0.6 -5.7,-1.7 -1.1,-1.1 -1.6,-3 -1.6,-5.6 z"
           id="path19"
           inkscape:connector-curvature="0"
           style="fill:#3f3f3f;fill-opacity:1" /></g><g
         id="g21"
         style="fill:#3f3f3f;fill-opacity:1"><path
           class="st0"
           d="m 500.6,534.1 0,-12.1 1.7,0 c 1.7,0 2.9,-0.8 3.4,-2.4 l 22.9,-62.7 14.9,0 22.8,62.7 c 0.5,1.6 1.6,2.4 3.4,2.4 l 1.7,0 0,12.1 -8.4,0 c -2.7,0 -4.7,-0.4 -5.9,-1.3 -1.3,-0.9 -2.3,-2.5 -3.2,-5 l -4.8,-13.5 -26.1,0 -4.8,13.5 c -0.9,2.5 -1.9,4.1 -3.2,5 -1.2,0.9 -3.2,1.3 -5.9,1.3 l -8.5,0 z m 25.7,-31.6 19.6,0 -6.6,-19.4 -3,-11.5 -0.3,0 c -1.1,4.9 -2.1,8.7 -3,11.5 l -6.7,19.4 z"
           id="path23"
           inkscape:connector-curvature="0"
           style="fill:#3f3f3f;fill-opacity:1" /></g><g
         id="g25"
         style="fill:#3f3f3f;fill-opacity:1"><path
           class="st0"
           d="m 646.1,534.1 0,-65.1 -11.9,0 c -1.6,0 -2.4,0.8 -2.4,2.4 l 0,4.7 -12.5,0 0,-12.2 c 0,-2.5 0.5,-4.3 1.5,-5.4 1,-1.1 2.8,-1.6 5.4,-1.6 l 53.8,0 c 2.6,0 4.4,0.5 5.4,1.6 1,1.1 1.5,2.8 1.5,5.4 l 0,12.1 -12.5,0 0,-4.7 c 0,-1.6 -0.8,-2.4 -2.4,-2.4 l -11.9,0 0,65.1 -14,0 z"
           id="path27"
           inkscape:connector-curvature="0"
           style="fill:#3f3f3f;fill-opacity:1" /></g></g><g
       id="g29"
       style="fill:#3f3f3f;fill-opacity:1"><g
         id="g31"
         style="fill:#3f3f3f;fill-opacity:1"><g
           id="g33"
           style="fill:#3f3f3f;fill-opacity:1"><path
             class="st0"
             d="m 429.6,367.5 0,-93.1 -30.2,0 0,93.1 c -9.1,4.5 -15.1,15.1 -15.1,25.6 0,16.6 13.6,30.2 30.2,30.2 16.6,0 30.2,-13.6 30.2,-30.2 0,-10.5 -6.1,-21.1 -15.1,-25.6 l 0,0 z m 0,0"
             id="path35"
             inkscape:connector-curvature="0"
             style="fill:#3f3f3f;fill-opacity:1" /></g><g
           id="g37"
           style="fill:#3f3f3f;fill-opacity:1"><path
             class="st0"
             d="m 565.4,317.7 c -10.6,0 -21.1,6 -25.6,15.1 l -49.8,0 0,-30.2 12,0 c 40.7,0 77,-30.2 78.5,-70.9 1.5,-39.2 -25.7,-70.9 -61.9,-78.5 -6,-51.3 -49.8,-92 -104.1,-92 l -9.1,0 c -54.3,4.5 -96.6,54.3 -96.6,110.1 0,4.5 -4.5,10.6 -10.6,12.1 -30.2,4.5 -52.8,33.2 -49.8,64.9 3,31.7 31.7,54.3 63.4,54.3 l 27.2,0 0,30.2 -49.8,0 c -4.5,-9.1 -15.1,-15.1 -25.6,-15.1 -16.6,0 -30.2,13.6 -30.2,30.2 0,16.6 13.6,30.2 30.2,30.2 10.6,0 21.1,-6 25.6,-15.1 l 80,0 0,-88.6 -57.3,0 c -16.6,0 -31.7,-14 -33.2,-29.1 -1.5,-15.1 9.1,-30.2 25.7,-33.2 19.6,-3 34.7,-21.1 34.7,-40.7 0,-40.7 30.2,-75.4 69.4,-78.5 l 6,0 c 37.7,0 69.4,28.7 75.4,66.4 l 3,21.1 21.1,4.5 c 22.6,4.5 37.7,24.1 36.2,46.8 -1.5,24.1 -22.6,42.2 -48.3,42.2 l -42.2,0 0,90.5 80,0 c 4.5,9.1 15.1,15.1 25.6,15.1 16.6,0 30.2,-13.6 30.2,-30.2 0.1,-18 -13.5,-31.6 -30.1,-31.6 l 0,0 z m 0,0"
             id="path39"
             inkscape:connector-curvature="0"
             style="fill:#3f3f3f;fill-opacity:1" /></g></g><g
         id="g41"
         style="fill:#3f3f3f;fill-opacity:1"><circle
           class="st0"
           cx="384.29999"
           cy="210.3"
           r="15.2"
           id="circle43"
           style="fill:#3f3f3f;fill-opacity:1" /></g><g
         id="g45"
         style="fill:#3f3f3f;fill-opacity:1"><rect
           x="429.39999"
           y="195"
           class="st0"
           width="30.5"
           height="30.5"
           id="rect47"
           style="fill:#3f3f3f;fill-opacity:1" /></g></g></g><g
     id="g4181"
     style="fill:#e6e6e6;fill-opacity:1"><g
       id="g4183"
       style="fill:#e6e6e6;fill-opacity:1"><g
         id="g4185"
         style="fill:#e6e6e6;fill-opacity:1"><path
           id="path4187"
           d="M156.7,534.1V522h7.7v-53.1h-7.7v-12.1h28.9v12.1h-7.7V522h7.7v12.1H156.7z"
           class="st0"
           style="fill:#e6e6e6;fill-opacity:1" /></g><g
         id="g4189"
         style="fill:#e6e6e6;fill-opacity:1"><path
           id="path4191"
           d="M247.8,534.1V522h4.7c1.6,0,2.4-0.8,2.4-2.4v-62.7h12.8l29.3,42.7c0.9,1.3,1.8,2.9,2.9,4.7     c1.1,1.8,1.9,3.3,2.5,4.5l1,1.7h0.2c-0.5-4.3-0.8-7.9-0.8-10.9v-35.3c0-2.5,0.6-4.4,1.7-5.6c1.2-1.2,3-1.8,5.7-1.8h13.9v12.1     h-4.7c-1.6,0-2.4,0.8-2.4,2.4v62.7h-12.7L275,491.5c-0.9-1.3-1.8-2.9-2.9-4.7c-1.1-1.8-1.9-3.3-2.5-4.5l-1-1.7h-0.2     c0.5,4.3,0.8,7.9,0.8,10.9v35.2c0,2.6-0.6,4.5-1.7,5.7c-1.2,1.2-3,1.7-5.7,1.7H247.8z"
           class="st0"
           style="fill:#e6e6e6;fill-opacity:1" /></g><g
         id="g4193"
         style="fill:#e6e6e6;fill-opacity:1"><path
           id="path4195"
           d="M393,526.7v-57.7h-7.1v-12.1h46.7c4.9,0,7.4,2.5,7.4,7.4V476H427v-4.7c0-1.6-0.8-2.4-2.4-2.4h-17.4v20.2h25     v12.1h-25v18.4c0,1.6,0.8,2.4,2.4,2.4h17.8c1.6,0,2.4-0.8,2.4-2.4v-4.7h12.9v11.7c0,2.6-0.6,4.5-1.8,5.7     c-1.2,1.2-3.1,1.7-5.6,1.7h-35c-2.6,0-4.5-0.6-5.7-1.7C393.5,531.2,393,529.3,393,526.7z"
           class="st0"
           style="fill:#e6e6e6;fill-opacity:1" /></g><g
         id="g4197"
         style="fill:#e6e6e6;fill-opacity:1"><path
           id="path4199"
           d="M500.6,534.1V522h1.7c1.7,0,2.9-0.8,3.4-2.4l22.9-62.7h14.9l22.8,62.7c0.5,1.6,1.6,2.4,3.4,2.4h1.7v12.1H563     c-2.7,0-4.7-0.4-5.9-1.3c-1.3-0.9-2.3-2.5-3.2-5l-4.8-13.5H523l-4.8,13.5c-0.9,2.5-1.9,4.1-3.2,5c-1.2,0.9-3.2,1.3-5.9,1.3H500.6     z M526.3,502.5h19.6l-6.6-19.4l-3-11.5H536c-1.1,4.9-2.1,8.7-3,11.5L526.3,502.5z"
           class="st0"
           style="fill:#e6e6e6;fill-opacity:1" /></g><g
         id="g4201"
         style="fill:#e6e6e6;fill-opacity:1"><path
           id="path4203"
           d="M646.1,534.1v-65.1h-11.9c-1.6,0-2.4,0.8-2.4,2.4v4.7h-12.5v-12.2c0-2.5,0.5-4.3,1.5-5.4     c1-1.1,2.8-1.6,5.4-1.6h53.8c2.6,0,4.4,0.5,5.4,1.6c1,1.1,1.5,2.8,1.5,5.4V476h-12.5v-4.7c0-1.6-0.8-2.4-2.4-2.4h-11.9v65.1     H646.1z"
           class="st0"
           style="fill:#e6e6e6;fill-opacity:1" /></g></g><g
       id="g4205"
       style="fill:#e6e6e6;fill-opacity:1"><g
         id="g4207"
         style="fill:#e6e6e6;fill-opacity:1"><g
           id="g4209"
           style="fill:#e6e6e6;fill-opacity:1"><path
             id="path4211"
             d="M429.6,367.5v-93.1h-30.2v93.1c-9.1,4.5-15.1,15.1-15.1,25.6c0,16.6,13.6,30.2,30.2,30.2      c16.6,0,30.2-13.6,30.2-30.2C444.7,382.6,438.6,372,429.6,367.5L429.6,367.5z M429.6,367.5"
             class="st0"
             style="fill:#e6e6e6;fill-opacity:1" /></g><g
           id="g4213"
           style="fill:#e6e6e6;fill-opacity:1"><path
             id="path4215"
             d="M565.4,317.7c-10.6,0-21.1,6-25.6,15.1h-49.8v-30.2H502c40.7,0,77-30.2,78.5-70.9      c1.5-39.2-25.7-70.9-61.9-78.5c-6-51.3-49.8-92-104.1-92h-9.1c-54.3,4.5-96.6,54.3-96.6,110.1c0,4.5-4.5,10.6-10.6,12.1      c-30.2,4.5-52.8,33.2-49.8,64.9c3,31.7,31.7,54.3,63.4,54.3h27.2v30.2h-49.8c-4.5-9.1-15.1-15.1-25.6-15.1      c-16.6,0-30.2,13.6-30.2,30.2c0,16.6,13.6,30.2,30.2,30.2c10.6,0,21.1-6,25.6-15.1h80v-88.6h-57.3c-16.6,0-31.7-14-33.2-29.1      c-1.5-15.1,9.1-30.2,25.7-33.2c19.6-3,34.7-21.1,34.7-40.7c0-40.7,30.2-75.4,69.4-78.5h6c37.7,0,69.4,28.7,75.4,66.4l3,21.1      l21.1,4.5c22.6,4.5,37.7,24.1,36.2,46.8c-1.5,24.1-22.6,42.2-48.3,42.2h-42.2v90.5h80c4.5,9.1,15.1,15.1,25.6,15.1      c16.6,0,30.2-13.6,30.2-30.2C595.6,331.3,582,317.7,565.4,317.7L565.4,317.7z M565.4,317.7"
             class="st0"
             style="fill:#e6e6e6;fill-opacity:1" /></g></g><g
         id="g4217"
         style="fill:#e6e6e6;fill-opacity:1"><circle
           id="circle4219"
           r="15.2"
           cy="210.3"
           cx="384.3"
           class="st0"
           style="fill:#e6e6e6;fill-opacity:1" /></g><g
         id="g4221"
         style="fill:#e6e6e6;fill-opacity:1"><rect
           id="rect4223"
           height="30.5"
           width="30.5"
           class="st0"
           y="195"
           x="429.4"
           style="fill:#e6e6e6;fill-opacity:1" /></g></g></g><g
     style="fill:#ffffff;fill-opacity:1"
     id="g4225"><g
       style="fill:#ffffff;fill-opacity:1"
       id="g4227"><g
         style="fill:#ffffff;fill-opacity:1"
         id="g4229"><path
           style="fill:#ffffff;fill-opacity:1"
           class="st0"
           d="M156.7,534.1V522h7.7v-53.1h-7.7v-12.1h28.9v12.1h-7.7V522h7.7v12.1H156.7z"
           id="path4231" /></g><g
         style="fill:#ffffff;fill-opacity:1"
         id="g4233"><path
           style="fill:#ffffff;fill-opacity:1"
           class="st0"
           d="M247.8,534.1V522h4.7c1.6,0,2.4-0.8,2.4-2.4v-62.7h12.8l29.3,42.7c0.9,1.3,1.8,2.9,2.9,4.7     c1.1,1.8,1.9,3.3,2.5,4.5l1,1.7h0.2c-0.5-4.3-0.8-7.9-0.8-10.9v-35.3c0-2.5,0.6-4.4,1.7-5.6c1.2-1.2,3-1.8,5.7-1.8h13.9v12.1     h-4.7c-1.6,0-2.4,0.8-2.4,2.4v62.7h-12.7L275,491.5c-0.9-1.3-1.8-2.9-2.9-4.7c-1.1-1.8-1.9-3.3-2.5-4.5l-1-1.7h-0.2     c0.5,4.3,0.8,7.9,0.8,10.9v35.2c0,2.6-0.6,4.5-1.7,5.7c-1.2,1.2-3,1.7-5.7,1.7H247.8z"
           id="path4235" /></g><g
         style="fill:#ffffff;fill-opacity:1"
         id="g4237"><path
           style="fill:#ffffff;fill-opacity:1"
           class="st0"
           d="M393,526.7v-57.7h-7.1v-12.1h46.7c4.9,0,7.4,2.5,7.4,7.4V476H427v-4.7c0-1.6-0.8-2.4-2.4-2.4h-17.4v20.2h25     v12.1h-25v18.4c0,1.6,0.8,2.4,2.4,2.4h17.8c1.6,0,2.4-0.8,2.4-2.4v-4.7h12.9v11.7c0,2.6-0.6,4.5-1.8,5.7     c-1.2,1.2-3.1,1.7-5.6,1.7h-35c-2.6,0-4.5-0.6-5.7-1.7C393.5,531.2,393,529.3,393,526.7z"
           id="path4239" /></g><g
         style="fill:#ffffff;fill-opacity:1"
         id="g4241"><path
           style="fill:#ffffff;fill-opacity:1"
           class="st0"
           d="M500.6,534.1V522h1.7c1.7,0,2.9-0.8,3.4-2.4l22.9-62.7h14.9l22.8,62.7c0.5,1.6,1.6,2.4,3.4,2.4h1.7v12.1H563     c-2.7,0-4.7-0.4-5.9-1.3c-1.3-0.9-2.3-2.5-3.2-5l-4.8-13.5H523l-4.8,13.5c-0.9,2.5-1.9,4.1-3.2,5c-1.2,0.9-3.2,1.3-5.9,1.3H500.6     z M526.3,502.5h19.6l-6.6-19.4l-3-11.5H536c-1.1,4.9-2.1,8.7-3,11.5L526.3,502.5z"
           id="path4243" /></g><g
         style="fill:#ffffff;fill-opacity:1"
         id="g4245"><path
           style="fill:#ffffff;fill-opacity:1"
           class="st0"
           d="M646.1,534.1v-65.1h-11.9c-1.6,0-2.4,0.8-2.4,2.4v4.7h-12.5v-12.2c0-2.5,0.5-4.3,1.5-5.4     c1-1.1,2.8-1.6,5.4-1.6h53.8c2.6,0,4.4,0.5,5.4,1.6c1,1.1,1.5,2.8,1.5,5.4V476h-12.5v-4.7c0-1.6-0.8-2.4-2.4-2.4h-11.9v65.1     H646.1z"
           id="path4247" /></g></g><g
       style="fill:#ffffff;fill-opacity:1"
       id="g4249"><g
         style="fill:#ffffff;fill-opacity:1"
         id="g4251"><g
           style="fill:#ffffff;fill-opacity:1"
           id="g4253"><path
             style="fill:#ffffff;fill-opacity:1"
             class="st0"
             d="M429.6,367.5v-93.1h-30.2v93.1c-9.1,4.5-15.1,15.1-15.1,25.6c0,16.6,13.6,30.2,30.2,30.2      c16.6,0,30.2-13.6,30.2-30.2C444.7,382.6,438.6,372,429.6,367.5L429.6,367.5z M429.6,367.5"
             id="path4255" /></g><g
           style="fill:#ffffff;fill-opacity:1"
           id="g4257"><path
             style="fill:#ffffff;fill-opacity:1"
             class="st0"
             d="M565.4,317.7c-10.6,0-21.1,6-25.6,15.1h-49.8v-30.2H502c40.7,0,77-30.2,78.5-70.9      c1.5-39.2-25.7-70.9-61.9-78.5c-6-51.3-49.8-92-104.1-92h-9.1c-54.3,4.5-96.6,54.3-96.6,110.1c0,4.5-4.5,10.6-10.6,12.1      c-30.2,4.5-52.8,33.2-49.8,64.9c3,31.7,31.7,54.3,63.4,54.3h27.2v30.2h-49.8c-4.5-9.1-15.1-15.1-25.6-15.1      c-16.6,0-30.2,13.6-30.2,30.2c0,16.6,13.6,30.2,30.2,30.2c10.6,0,21.1-6,25.6-15.1h80v-88.6h-57.3c-16.6,0-31.7-14-33.2-29.1      c-1.5-15.1,9.1-30.2,25.7-33.2c19.6-3,34.7-21.1,34.7-40.7c0-40.7,30.2-75.4,69.4-78.5h6c37.7,0,69.4,28.7,75.4,66.4l3,21.1      l21.1,4.5c22.6,4.5,37.7,24.1,36.2,46.8c-1.5,24.1-22.6,42.2-48.3,42.2h-42.2v90.5h80c4.5,9.1,15.1,15.1,25.6,15.1      c16.6,0,30.2-13.6,30.2-30.2C595.6,331.3,582,317.7,565.4,317.7L565.4,317.7z M565.4,317.7"
             id="path4259" /></g></g><g
         style="fill:#ffffff;fill-opacity:1"
         id="g4261"><circle
           style="fill:#ffffff;fill-opacity:1"
           class="st0"
           cx="384.3"
           cy="210.3"
           r="15.2"
           id="circle4263" /></g><g
         style="fill:#ffffff;fill-opacity:1"
         id="g4265"><rect
           style="fill:#ffffff;fill-opacity:1"
           x="429.4"
           y="195"
           class="st0"
           width="30.5"
           height="30.5"
           id="rect4267" /></g></g></g></svg>