<?xml version="1.0" encoding="UTF-8" standalone="no"?>
<!-- Created with Inkscape (http://www.inkscape.org/) -->

<svg
   xmlns:dc="http://purl.org/dc/elements/1.1/"
   xmlns:cc="http://creativecommons.org/ns#"
   xmlns:rdf="http://www.w3.org/1999/02/22-rdf-syntax-ns#"
   xmlns:svg="http://www.w3.org/2000/svg"
   xmlns="http://www.w3.org/2000/svg"
   xmlns:sodipodi="http://sodipodi.sourceforge.net/DTD/sodipodi-0.dtd"
   xmlns:inkscape="http://www.inkscape.org/namespaces/inkscape"
   width="127.91463mm"
   height="306.87906mm"
   viewBox="0 0 453.24054 1087.3667"
   id="svg7813"
   version="1.1"
   inkscape:version="0.91 r13725"
   sodipodi:docname="merged-branch-wrong.svg">
  <defs
     id="defs7815" />
  <sodipodi:namedview
     id="base"
     pagecolor="#ffffff"
     bordercolor="#666666"
     borderopacity="1.0"
     inkscape:pageopacity="0.0"
     inkscape:pageshadow="2"
     inkscape:zoom="0.49497475"
     inkscape:cx="-104.56073"
     inkscape:cy="784.35482"
     inkscape:document-units="px"
     inkscape:current-layer="layer1"
     showgrid="false"
     fit-margin-top="0"
     fit-margin-left="0"
     fit-margin-right="0"
     fit-margin-bottom="0"
     inkscape:window-width="1920"
     inkscape:window-height="1051"
     inkscape:window-x="0"
     inkscape:window-y="0"
     inkscape:window-maximized="1" />
  <metadata
     id="metadata7818">
    <rdf:RDF>
      <cc:Work
         rdf:about="">
        <dc:format>image/svg+xml</dc:format>
        <dc:type
           rdf:resource="http://purl.org/dc/dcmitype/StillImage" />
        <dc:title></dc:title>
      </cc:Work>
    </rdf:RDF>
  </metadata>
  <g
     inkscape:label="Calque 1"
     inkscape:groupmode="layer"
     id="layer1"
     transform="translate(1900.9929,189.43086)">
    <g
       id="g9125"
       transform="matrix(4.023948,0,0,4.023948,1322.1032,-1293.1571)">
      <circle
         inkscape:export-ydpi="90"
         inkscape:export-xdpi="90"
         style="fill:none;fill-opacity:1;stroke:#364a62;stroke-width:3.66100001;stroke-linejoin:miter;stroke-miterlimit:4;stroke-dasharray:none;stroke-opacity:1"
         id="circle10442"
         cx="-709.55164"
         cy="437.93747"
         r="9.5964489" />
      <g
         style="fill:#666666;fill-opacity:1"
         transform="matrix(1,0,0,0.87684254,-775.00235,-124.75032)"
         id="g10450">
        <path
           style="fill:#666666;fill-opacity:1;stroke:none;stroke-width:0;stroke-linejoin:miter;stroke-miterlimit:4;stroke-dasharray:none;stroke-opacity:0.62420379"
           d="m 62.46421,626.93112 c 0,0 -1.9752,-4.86969 -1.97011,-7.31496 0.008,-3.97993 3.01214,-7.92543 3.25613,-11.90476 0.15983,-2.60649 -1.17554,-7.81364 -1.17554,-7.81364 l 5.72377,0.0251 c 0,0 1.36373,5.14131 1.22477,7.71535 -0.21658,4.0118 -3.2243,7.99084 -3.20606,12.0031 0.011,2.42886 2.00689,7.26479 2.00689,7.26479 0,0 -1.924299,-0.35764 -2.897269,-0.35488 -0.99561,0.003 -2.962581,0.3799 -2.962581,0.3799 z"
           id="path10452"
           inkscape:connector-curvature="0"
           sodipodi:nodetypes="cssccsscac" />
        <path
           style="fill:#666666;fill-opacity:1;stroke:none;stroke-width:0;stroke-linejoin:miter;stroke-miterlimit:4;stroke-dasharray:none;stroke-opacity:0.62420379"
           inkscape:transform-center-x="4.5249998"
           inkscape:transform-center-y="-4.0701"
           d="m 71.71751,600.44513 -12.361,0 6.1805,-12.6625 z"
           id="path10454"
           inkscape:connector-curvature="0"
           sodipodi:nodetypes="cccc" />
      </g>
      <circle
         r="9.5964489"
         cy="377.93747"
         cx="-709.55164"
         id="circle10456"
         style="fill:none;fill-opacity:1;stroke:#364a62;stroke-width:3.66100001;stroke-linejoin:miter;stroke-miterlimit:4;stroke-dasharray:none;stroke-opacity:1"
         inkscape:export-xdpi="90"
         inkscape:export-ydpi="90" />
      <text
         xml:space="preserve"
         style="font-style:normal;font-variant:normal;font-weight:normal;font-stretch:normal;font-size:40px;line-height:125%;font-family:Photographs;-inkscape-font-specification:Photographs;letter-spacing:0px;word-spacing:0px;fill:#000000;fill-opacity:1;stroke:none;stroke-width:1px;stroke-linecap:butt;stroke-linejoin:miter;stroke-opacity:1"
         x="-696.00238"
         y="380.9006"
         id="text10458"
         sodipodi:linespacing="125%"><tspan
           sodipodi:role="line"
           id="tspan10460"
           x="-696.00238"
           y="380.9006"
           style="font-style:normal;font-variant:normal;font-weight:normal;font-stretch:normal;font-size:25px;font-family:Photographs;-inkscape-font-specification:Photographs">B</tspan></text>
      <text
         sodipodi:linespacing="125%"
         id="text10462"
         y="440.9006"
         x="-696.00238"
         style="font-style:normal;font-variant:normal;font-weight:normal;font-stretch:normal;font-size:40px;line-height:125%;font-family:Photographs;-inkscape-font-specification:Photographs;letter-spacing:0px;word-spacing:0px;fill:#000000;fill-opacity:1;stroke:none;stroke-width:1px;stroke-linecap:butt;stroke-linejoin:miter;stroke-opacity:1"
         xml:space="preserve"><tspan
           style="font-style:normal;font-variant:normal;font-weight:normal;font-stretch:normal;font-size:25px;font-family:Photographs;-inkscape-font-specification:Photographs"
           y="440.9006"
           x="-696.00238"
           id="tspan10464"
           sodipodi:role="line">A</tspan></text>
      <circle
         r="9.5964489"
         cy="497.93747"
         cx="-789.55164"
         id="circle10466"
         style="fill:none;fill-opacity:1;stroke:#364a62;stroke-width:3.66100001;stroke-linejoin:miter;stroke-miterlimit:4;stroke-dasharray:none;stroke-opacity:1"
         inkscape:export-xdpi="90"
         inkscape:export-ydpi="90" />
      <g
         style="fill:#666666;fill-opacity:1"
         transform="matrix(1,0,0,0.87684254,-855.00235,-64.750323)"
         id="g10468">
        <path
           style="fill:#666666;fill-opacity:1;stroke:none;stroke-width:0;stroke-linejoin:miter;stroke-miterlimit:4;stroke-dasharray:none;stroke-opacity:0.62420379"
           d="m 62.46421,626.93112 c 0,0 -1.9752,-4.86969 -1.97011,-7.31496 0.008,-3.97993 3.01214,-7.92543 3.25613,-11.90476 0.15983,-2.60649 -1.17554,-7.81364 -1.17554,-7.81364 l 5.72377,0.0251 c 0,0 1.36373,5.14131 1.22477,7.71535 -0.21658,4.0118 -3.2243,7.99084 -3.20606,12.0031 0.011,2.42886 2.00689,7.26479 2.00689,7.26479 0,0 -1.924299,-0.35764 -2.897269,-0.35488 -0.99561,0.003 -2.962581,0.3799 -2.962581,0.3799 z"
           id="path10470"
           inkscape:connector-curvature="0"
           sodipodi:nodetypes="cssccsscac" />
        <path
           style="fill:#666666;fill-opacity:1;stroke:none;stroke-width:0;stroke-linejoin:miter;stroke-miterlimit:4;stroke-dasharray:none;stroke-opacity:0.62420379"
           inkscape:transform-center-x="4.5249998"
           inkscape:transform-center-y="-4.0701"
           d="m 71.71751,600.44513 -12.361,0 6.1805,-12.6625 z"
           id="path10472"
           inkscape:connector-curvature="0"
           sodipodi:nodetypes="cccc" />
      </g>
      <circle
         r="9.5964489"
         cy="437.93747"
         cx="-789.55164"
         id="circle10474"
         style="fill:none;fill-opacity:1;stroke:#ff591c;stroke-width:3.66100001;stroke-linejoin:miter;stroke-miterlimit:4;stroke-dasharray:none;stroke-opacity:1"
         inkscape:export-xdpi="90"
         inkscape:export-ydpi="90" />
      <circle
         inkscape:export-ydpi="90"
         inkscape:export-xdpi="90"
         style="fill:none;fill-opacity:1;stroke:#ff591c;stroke-width:3.66100001;stroke-linejoin:miter;stroke-miterlimit:4;stroke-dasharray:none;stroke-opacity:1"
         id="circle10476"
         cx="-789.55164"
         cy="377.93747"
         r="9.5964489" />
      <g
         style="fill:#666666;fill-opacity:1"
         id="g10478"
         transform="matrix(1,0,0,0.87684254,-855.00235,-124.75032)">
        <path
           sodipodi:nodetypes="cssccsscac"
           inkscape:connector-curvature="0"
           id="path10480"
           d="m 62.46421,626.93112 c 0,0 -1.9752,-4.86969 -1.97011,-7.31496 0.008,-3.97993 3.01214,-7.92543 3.25613,-11.90476 0.15983,-2.60649 -1.17554,-7.81364 -1.17554,-7.81364 l 5.72377,0.0251 c 0,0 1.36373,5.14131 1.22477,7.71535 -0.21658,4.0118 -3.2243,7.99084 -3.20606,12.0031 0.011,2.42886 2.00689,7.26479 2.00689,7.26479 0,0 -1.924299,-0.35764 -2.897269,-0.35488 -0.99561,0.003 -2.962581,0.3799 -2.962581,0.3799 z"
           style="fill:#666666;fill-opacity:1;stroke:none;stroke-width:0;stroke-linejoin:miter;stroke-miterlimit:4;stroke-dasharray:none;stroke-opacity:0.62420379" />
        <path
           sodipodi:nodetypes="cccc"
           inkscape:connector-curvature="0"
           id="path10482"
           d="m 71.71751,600.44513 -12.361,0 6.1805,-12.6625 z"
           inkscape:transform-center-y="-4.0701"
           inkscape:transform-center-x="4.5249998"
           style="fill:#666666;fill-opacity:1;stroke:none;stroke-width:0;stroke-linejoin:miter;stroke-miterlimit:4;stroke-dasharray:none;stroke-opacity:0.62420379" />
      </g>
      <text
         sodipodi:linespacing="125%"
         id="text10484"
         y="380.9006"
         x="-776.00238"
         style="font-style:normal;font-variant:normal;font-weight:normal;font-stretch:normal;font-size:40px;line-height:125%;font-family:Photographs;-inkscape-font-specification:Photographs;letter-spacing:0px;word-spacing:0px;fill:#000000;fill-opacity:1;stroke:none;stroke-width:1px;stroke-linecap:butt;stroke-linejoin:miter;stroke-opacity:1"
         xml:space="preserve"><tspan
           style="font-style:normal;font-variant:normal;font-weight:normal;font-stretch:normal;font-size:25px;font-family:Photographs;-inkscape-font-specification:Photographs"
           y="380.9006"
           x="-776.00238"
           id="tspan10486"
           sodipodi:role="line">B'</tspan></text>
      <text
         xml:space="preserve"
         style="font-style:normal;font-variant:normal;font-weight:normal;font-stretch:normal;font-size:40px;line-height:125%;font-family:Photographs;-inkscape-font-specification:Photographs;letter-spacing:0px;word-spacing:0px;fill:#000000;fill-opacity:1;stroke:none;stroke-width:1px;stroke-linecap:butt;stroke-linejoin:miter;stroke-opacity:1"
         x="-776.00238"
         y="440.9006"
         id="text10488"
         sodipodi:linespacing="125%"><tspan
           sodipodi:role="line"
           id="tspan10490"
           x="-776.00238"
           y="440.9006"
           style="font-style:normal;font-variant:normal;font-weight:normal;font-stretch:normal;font-size:25px;font-family:Photographs;-inkscape-font-specification:Photographs">A'</tspan></text>
      <g
         id="g10492"
         transform="matrix(1,0,0,0.87684254,-775.00235,-124.75032)"
         style="fill:#666666;fill-opacity:1">
        <path
           sodipodi:nodetypes="cssccsscac"
           inkscape:connector-curvature="0"
           id="path10494"
           d="m 62.46421,626.93112 c 0,0 -1.9752,-4.86969 -1.97011,-7.31496 0.008,-3.97993 3.01214,-7.92543 3.25613,-11.90476 0.15983,-2.60649 -1.17554,-7.81364 -1.17554,-7.81364 l 5.72377,0.0251 c 0,0 1.36373,5.14131 1.22477,7.71535 -0.21658,4.0118 -3.2243,7.99084 -3.20606,12.0031 0.011,2.42886 2.00689,7.26479 2.00689,7.26479 0,0 -1.924299,-0.35764 -2.897269,-0.35488 -0.99561,0.003 -2.962581,0.3799 -2.962581,0.3799 z"
           style="fill:#666666;fill-opacity:1;stroke:none;stroke-width:0;stroke-linejoin:miter;stroke-miterlimit:4;stroke-dasharray:none;stroke-opacity:0.62420379" />
        <path
           sodipodi:nodetypes="cccc"
           inkscape:connector-curvature="0"
           id="path10496"
           d="m 71.71751,600.44513 -12.361,0 6.1805,-12.6625 z"
           inkscape:transform-center-y="-4.0701"
           inkscape:transform-center-x="4.5249998"
           style="fill:#666666;fill-opacity:1;stroke:none;stroke-width:0;stroke-linejoin:miter;stroke-miterlimit:4;stroke-dasharray:none;stroke-opacity:0.62420379" />
      </g>
      <circle
         inkscape:export-ydpi="90"
         inkscape:export-xdpi="90"
         style="fill:none;fill-opacity:1;stroke:#364a62;stroke-width:3.66100001;stroke-linejoin:miter;stroke-miterlimit:4;stroke-dasharray:none;stroke-opacity:1"
         id="circle10498"
         cx="-709.55164"
         cy="377.93747"
         r="9.5964489" />
      <text
         sodipodi:linespacing="125%"
         id="text10500"
         y="380.9006"
         x="-696.00238"
         style="font-style:normal;font-variant:normal;font-weight:normal;font-stretch:normal;font-size:40px;line-height:125%;font-family:Photographs;-inkscape-font-specification:Photographs;letter-spacing:0px;word-spacing:0px;fill:#000000;fill-opacity:1;stroke:none;stroke-width:1px;stroke-linecap:butt;stroke-linejoin:miter;stroke-opacity:1"
         xml:space="preserve"><tspan
           style="font-style:normal;font-variant:normal;font-weight:normal;font-stretch:normal;font-size:25px;font-family:Photographs;-inkscape-font-specification:Photographs"
           y="380.9006"
           x="-696.00238"
           id="tspan10502"
           sodipodi:role="line">B</tspan></text>
      <g
         style="fill:#666666;fill-opacity:1"
         id="g10504"
         transform="matrix(1.0394247,0,0,0.92878518,-858.09466,-40.230233)">
        <g
           style="fill:#666666;fill-opacity:1"
           id="g10506"
           transform="matrix(1.0048764,0,0,1,-0.38248267,0)">
          <path
             style="fill:#666666;fill-opacity:1;stroke:none;stroke-width:0;stroke-linejoin:miter;stroke-miterlimit:4;stroke-dasharray:none;stroke-opacity:0.62420379"
             d="m 78.435775,583.59022 c 0,0 44.294635,7.9623 59.159255,-5.10712 9.50876,-8.36039 8.37724,-22.51046 8.08417,-37.11416 l -5.72377,0.0303 c 0.44888,13.47426 1.54816,24.95584 -6.7019,32.1525 -13.80271,12.04032 -54.816726,3.80585 -54.816726,3.80585 0,0 0.529764,1.99332 0.535224,3.01354 0.0058,1.0878 -0.536253,3.21909 -0.536253,3.21909 z"
             id="path10508"
             inkscape:connector-curvature="0"
             sodipodi:nodetypes="caccacac"
             inkscape:export-xdpi="90"
             inkscape:export-ydpi="90" />
          <path
             style="fill:#666666;fill-opacity:1;stroke:none;stroke-width:0;stroke-linejoin:miter;stroke-miterlimit:4;stroke-dasharray:none;stroke-opacity:0.62420379"
             inkscape:transform-center-x="-4.5249998"
             inkscape:transform-center-y="-4.0701"
             d="m 136.53619,541.91631 12.361,0 -6.1805,-12.6625 z"
             id="path10510"
             inkscape:connector-curvature="0"
             sodipodi:nodetypes="cccc"
             inkscape:export-xdpi="90"
             inkscape:export-ydpi="90" />
        </g>
      </g>
      <g
         id="g10512"
         transform="matrix(0.94401633,0,0,1,-846.68869,-81.961563)"
         style="fill:#666666;fill-opacity:1">
        <path
           style="fill:#666666;fill-opacity:1;stroke:none;stroke-width:0;stroke-linejoin:miter;stroke-miterlimit:4;stroke-dasharray:none;stroke-opacity:0.62420379"
           d="m 99.712251,413.11206 c 9.315199,2.40598 30.318469,-3.821 40.654179,5.10712 7.62198,6.58396 8.37724,14.51046 8.08417,29.11416 0,0 -1.88249,-0.35106 -2.87489,-0.35267 -0.9924,-0.002 -2.84888,0.32237 -2.84888,0.32237 0.44888,-13.47426 -0.32005,-18.76005 -6.7019,-24.1525 -9.42389,-7.96288 -27.49704,-1.20425 -36.816725,-3.80585 -9.319684,-2.6016 -17.418693,-7.02611 -17.418693,-7.02611 l 2.369496,-5.42866 c 0,0 6.238044,3.81616 15.553243,6.22214 z"
           id="path10514"
           inkscape:connector-curvature="0"
           sodipodi:nodetypes="zaczcazccz"
           inkscape:export-xdpi="90"
           inkscape:export-ydpi="90" />
        <path
           style="fill:#666666;fill-opacity:1;stroke:none;stroke-width:0;stroke-linejoin:miter;stroke-miterlimit:4;stroke-dasharray:none;stroke-opacity:0.62420379"
           inkscape:transform-center-x="-6.9384988"
           inkscape:transform-center-y="0.43656"
           d="m 81.881357,415.50563 4.772041,-11.4027 -14.066856,0.81291 z"
           id="path10516"
           inkscape:connector-curvature="0"
           sodipodi:nodetypes="cccc"
           inkscape:export-xdpi="90"
           inkscape:export-ydpi="90" />
      </g>
      <circle
         r="9.5964489"
         cy="317.93747"
         cx="-789.55164"
         id="circle10518"
         style="fill:none;fill-opacity:1;stroke:#364a62;stroke-width:3.66100001;stroke-linejoin:miter;stroke-miterlimit:4;stroke-dasharray:none;stroke-opacity:1"
         inkscape:export-xdpi="90"
         inkscape:export-ydpi="90" />
      <g
         transform="matrix(1,0,0,0.87684254,-855.00235,-184.75032)"
         id="g10520"
         style="fill:#666666;fill-opacity:1">
        <path
           style="fill:#666666;fill-opacity:1;stroke:none;stroke-width:0;stroke-linejoin:miter;stroke-miterlimit:4;stroke-dasharray:none;stroke-opacity:0.62420379"
           d="m 62.46421,626.93112 c 0,0 -1.9752,-4.86969 -1.97011,-7.31496 0.008,-3.97993 3.01214,-7.92543 3.25613,-11.90476 0.15983,-2.60649 -1.17554,-7.81364 -1.17554,-7.81364 l 5.72377,0.0251 c 0,0 1.36373,5.14131 1.22477,7.71535 -0.21658,4.0118 -3.2243,7.99084 -3.20606,12.0031 0.011,2.42886 2.00689,7.26479 2.00689,7.26479 0,0 -1.924299,-0.35764 -2.897269,-0.35488 -0.99561,0.003 -2.962581,0.3799 -2.962581,0.3799 z"
           id="path10522"
           inkscape:connector-curvature="0"
           sodipodi:nodetypes="cssccsscac" />
        <path
           style="fill:#666666;fill-opacity:1;stroke:none;stroke-width:0;stroke-linejoin:miter;stroke-miterlimit:4;stroke-dasharray:none;stroke-opacity:0.62420379"
           inkscape:transform-center-x="4.5249998"
           inkscape:transform-center-y="-4.0701"
           d="m 71.71751,600.44513 -12.361,0 6.1805,-12.6625 z"
           id="path10524"
           inkscape:connector-curvature="0"
           sodipodi:nodetypes="cccc" />
      </g>
      <text
         sodipodi:linespacing="125%"
         id="text10526"
         y="320.9006"
         x="-776.00238"
         style="font-style:normal;font-variant:normal;font-weight:normal;font-stretch:normal;font-size:40px;line-height:125%;font-family:Photographs;-inkscape-font-specification:Photographs;letter-spacing:0px;word-spacing:0px;fill:#000000;fill-opacity:1;stroke:none;stroke-width:1px;stroke-linecap:butt;stroke-linejoin:miter;stroke-opacity:1"
         xml:space="preserve"><tspan
           style="font-style:normal;font-variant:normal;font-weight:normal;font-stretch:normal;font-size:25px;font-family:Photographs;-inkscape-font-specification:Photographs"
           y="320.9006"
           x="-776.00238"
           id="tspan10528"
           sodipodi:role="line">Merge</tspan></text>
    </g>
  </g>
</svg>
