<?xml version="1.0" encoding="UTF-8" standalone="no"?>
<!-- Created with Inkscape (http://www.inkscape.org/) -->

<svg
   xmlns:dc="http://purl.org/dc/elements/1.1/"
   xmlns:cc="http://creativecommons.org/ns#"
   xmlns:rdf="http://www.w3.org/1999/02/22-rdf-syntax-ns#"
   xmlns:svg="http://www.w3.org/2000/svg"
   xmlns="http://www.w3.org/2000/svg"
   xmlns:sodipodi="http://sodipodi.sourceforge.net/DTD/sodipodi-0.dtd"
   xmlns:inkscape="http://www.inkscape.org/namespaces/inkscape"
   width="37.201748mm"
   height="285.91394mm"
   viewBox="0 0 131.81722 1013.0809"
   id="svg9838"
   version="1.1"
   inkscape:version="0.91 r13725"
   sodipodi:docname="rebased-branch-wrong.svg">
  <defs
     id="defs9840" />
  <sodipodi:namedview
     id="base"
     pagecolor="#ffffff"
     bordercolor="#666666"
     borderopacity="1.0"
     inkscape:pageopacity="0.0"
     inkscape:pageshadow="2"
     inkscape:zoom="0.35"
     inkscape:cx="-445.99131"
     inkscape:cy="503.68331"
     inkscape:document-units="px"
     inkscape:current-layer="layer1"
     showgrid="false"
     fit-margin-top="0"
     fit-margin-left="0"
     fit-margin-right="0"
     fit-margin-bottom="0"
     inkscape:window-width="1920"
     inkscape:window-height="1023"
     inkscape:window-x="0"
     inkscape:window-y="1080"
     inkscape:window-maximized="1" />
  <metadata
     id="metadata9843">
    <rdf:RDF>
      <cc:Work
         rdf:about="">
        <dc:format>image/svg+xml</dc:format>
        <dc:type
           rdf:resource="http://purl.org/dc/dcmitype/StillImage" />
        <dc:title></dc:title>
      </cc:Work>
    </rdf:RDF>
  </metadata>
  <g
     inkscape:label="Calque 1"
     inkscape:groupmode="layer"
     id="layer1"
     transform="translate(-128.13417,-22.964583)">
    <circle
       inkscape:export-ydpi="90"
       inkscape:export-xdpi="90"
       style="fill:none;fill-opacity:1;stroke:#364a62;stroke-width:13.72525024;stroke-linejoin:miter;stroke-miterlimit:4;stroke-dasharray:none;stroke-opacity:1"
       id="circle8373"
       cx="170.9743"
       cy="993.20538"
       r="35.977509" />
    <circle
       r="35.977509"
       cy="768.26276"
       cx="170.9743"
       id="circle8375"
       style="fill:none;fill-opacity:1;stroke:#364a62;stroke-width:13.72525024;stroke-linejoin:miter;stroke-miterlimit:4;stroke-dasharray:none;stroke-opacity:1"
       inkscape:export-xdpi="90"
       inkscape:export-ydpi="90" />
    <g
       id="g8377"
       transform="matrix(3.749044,0,0,3.2873212,-74.403299,-1116.3359)"
       style="fill:#666666;fill-opacity:1">
      <path
         sodipodi:nodetypes="cssccsscac"
         inkscape:connector-curvature="0"
         id="path8379"
         d="m 62.46421,626.93112 c 0,0 -1.9752,-4.86969 -1.97011,-7.31496 0.008,-3.97993 3.01214,-7.92543 3.25613,-11.90476 0.15983,-2.60649 -1.17554,-7.81364 -1.17554,-7.81364 l 5.72377,0.0251 c 0,0 1.36373,5.14131 1.22477,7.71535 -0.21658,4.0118 -3.2243,7.99084 -3.20606,12.0031 0.011,2.42886 2.00689,7.26479 2.00689,7.26479 0,0 -1.924299,-0.35764 -2.897269,-0.35488 -0.99561,0.003 -2.962581,0.3799 -2.962581,0.3799 z"
         style="fill:#666666;fill-opacity:1;stroke:none;stroke-width:0;stroke-linejoin:miter;stroke-miterlimit:4;stroke-dasharray:none;stroke-opacity:0.62420379" />
      <path
         sodipodi:nodetypes="cccc"
         inkscape:connector-curvature="0"
         id="path8381"
         d="m 71.71751,600.44513 -12.361,0 6.1805,-12.6625 z"
         inkscape:transform-center-y="-4.0701"
         inkscape:transform-center-x="4.5249998"
         style="fill:#666666;fill-opacity:1;stroke:none;stroke-width:0;stroke-linejoin:miter;stroke-miterlimit:4;stroke-dasharray:none;stroke-opacity:0.62420379" />
    </g>
    <g
       id="g8383"
       transform="matrix(3.749044,0,0,3.2873212,-74.403299,-1341.2785)"
       style="fill:#666666;fill-opacity:1">
      <path
         sodipodi:nodetypes="cssccsscac"
         inkscape:connector-curvature="0"
         id="path8385"
         d="m 62.46421,626.93112 c 0,0 -1.9752,-4.86969 -1.97011,-7.31496 0.008,-3.97993 3.01214,-7.92543 3.25613,-11.90476 0.15983,-2.60649 -1.17554,-7.81364 -1.17554,-7.81364 l 5.72377,0.0251 c 0,0 1.36373,5.14131 1.22477,7.71535 -0.21658,4.0118 -3.2243,7.99084 -3.20606,12.0031 0.011,2.42886 2.00689,7.26479 2.00689,7.26479 0,0 -1.924299,-0.35764 -2.897269,-0.35488 -0.99561,0.003 -2.962581,0.3799 -2.962581,0.3799 z"
         style="fill:#666666;fill-opacity:1;stroke:none;stroke-width:0;stroke-linejoin:miter;stroke-miterlimit:4;stroke-dasharray:none;stroke-opacity:0.62420379" />
      <path
         sodipodi:nodetypes="cccc"
         inkscape:connector-curvature="0"
         id="path8387"
         d="m 71.71751,600.44513 -12.361,0 6.1805,-12.6625 z"
         inkscape:transform-center-y="-4.0701"
         inkscape:transform-center-x="4.5249998"
         style="fill:#666666;fill-opacity:1;stroke:none;stroke-width:0;stroke-linejoin:miter;stroke-miterlimit:4;stroke-dasharray:none;stroke-opacity:0.62420379" />
    </g>
    <circle
       inkscape:export-ydpi="90"
       inkscape:export-xdpi="90"
       style="fill:none;fill-opacity:1;stroke:#364a62;stroke-width:13.72525024;stroke-linejoin:miter;stroke-miterlimit:4;stroke-dasharray:none;stroke-opacity:1"
       id="circle8389"
       cx="170.9743"
       cy="543.32013"
       r="35.977509" />
    <g
       id="g8391"
       transform="matrix(3.749044,0,0,3.2873212,-74.403299,-1566.2212)"
       style="fill:#666666;fill-opacity:1">
      <path
         sodipodi:nodetypes="cssccsscac"
         inkscape:connector-curvature="0"
         id="path8393"
         d="m 62.46421,626.93112 c 0,0 -1.9752,-4.86969 -1.97011,-7.31496 0.008,-3.97993 3.01214,-7.92543 3.25613,-11.90476 0.15983,-2.60649 -1.17554,-7.81364 -1.17554,-7.81364 l 5.72377,0.0251 c 0,0 1.36373,5.14131 1.22477,7.71535 -0.21658,4.0118 -3.2243,7.99084 -3.20606,12.0031 0.011,2.42886 2.00689,7.26479 2.00689,7.26479 0,0 -1.924299,-0.35764 -2.897269,-0.35488 -0.99561,0.003 -2.962581,0.3799 -2.962581,0.3799 z"
         style="fill:#666666;fill-opacity:1;stroke:none;stroke-width:0;stroke-linejoin:miter;stroke-miterlimit:4;stroke-dasharray:none;stroke-opacity:0.62420379" />
      <path
         sodipodi:nodetypes="cccc"
         inkscape:connector-curvature="0"
         id="path8395"
         d="m 71.71751,600.44513 -12.361,0 6.1805,-12.6625 z"
         inkscape:transform-center-y="-4.0701"
         inkscape:transform-center-x="4.5249998"
         style="fill:#666666;fill-opacity:1;stroke:none;stroke-width:0;stroke-linejoin:miter;stroke-miterlimit:4;stroke-dasharray:none;stroke-opacity:0.62420379" />
    </g>
    <circle
       inkscape:export-ydpi="90"
       inkscape:export-xdpi="90"
       style="fill:none;fill-opacity:1;stroke:#ff591c;stroke-width:13.72525024;stroke-linejoin:miter;stroke-miterlimit:4;stroke-dasharray:none;stroke-opacity:1"
       id="circle8397"
       cx="170.9743"
       cy="318.37747"
       r="35.977509" />
    <circle
       r="35.977509"
       cy="93.434853"
       cx="170.9743"
       id="circle8399"
       style="fill:none;fill-opacity:1;stroke:#ff591c;stroke-width:13.72525024;stroke-linejoin:miter;stroke-miterlimit:4;stroke-dasharray:none;stroke-opacity:1"
       inkscape:export-xdpi="90"
       inkscape:export-ydpi="90" />
    <g
       transform="matrix(3.749044,0,0,3.2873212,-74.403299,-1791.1638)"
       id="g8401"
       style="fill:#666666;fill-opacity:1">
      <path
         style="fill:#666666;fill-opacity:1;stroke:none;stroke-width:0;stroke-linejoin:miter;stroke-miterlimit:4;stroke-dasharray:none;stroke-opacity:0.62420379"
         d="m 62.46421,626.93112 c 0,0 -1.9752,-4.86969 -1.97011,-7.31496 0.008,-3.97993 3.01214,-7.92543 3.25613,-11.90476 0.15983,-2.60649 -1.17554,-7.81364 -1.17554,-7.81364 l 5.72377,0.0251 c 0,0 1.36373,5.14131 1.22477,7.71535 -0.21658,4.0118 -3.2243,7.99084 -3.20606,12.0031 0.011,2.42886 2.00689,7.26479 2.00689,7.26479 0,0 -1.924299,-0.35764 -2.897269,-0.35488 -0.99561,0.003 -2.962581,0.3799 -2.962581,0.3799 z"
         id="path8403"
         inkscape:connector-curvature="0"
         sodipodi:nodetypes="cssccsscac" />
      <path
         style="fill:#666666;fill-opacity:1;stroke:none;stroke-width:0;stroke-linejoin:miter;stroke-miterlimit:4;stroke-dasharray:none;stroke-opacity:0.62420379"
         inkscape:transform-center-x="4.5249998"
         inkscape:transform-center-y="-4.0701"
         d="m 71.71751,600.44513 -12.361,0 6.1805,-12.6625 z"
         id="path8405"
         inkscape:connector-curvature="0"
         sodipodi:nodetypes="cccc" />
    </g>
    <text
       xml:space="preserve"
       style="font-style:normal;font-weight:normal;font-size:149.96176147px;line-height:125%;font-family:sans-serif;letter-spacing:0px;word-spacing:0px;fill:#000000;fill-opacity:1;stroke:none;stroke-width:1px;stroke-linecap:butt;stroke-linejoin:miter;stroke-opacity:1"
       x="221.77118"
       y="104.54378"
       id="text8407"
       sodipodi:linespacing="125%"><tspan
         sodipodi:role="line"
         id="tspan8409"
         x="221.77118"
         y="104.54378"
         style="font-style:normal;font-variant:normal;font-weight:normal;font-stretch:normal;font-size:93.72609711px;font-family:Photographs;-inkscape-font-specification:Photographs">B'</tspan></text>
    <text
       sodipodi:linespacing="125%"
       id="text8411"
       y="329.48642"
       x="221.77118"
       style="font-style:normal;font-weight:normal;font-size:149.96176147px;line-height:125%;font-family:sans-serif;letter-spacing:0px;word-spacing:0px;fill:#000000;fill-opacity:1;stroke:none;stroke-width:1px;stroke-linecap:butt;stroke-linejoin:miter;stroke-opacity:1"
       xml:space="preserve"><tspan
         style="font-style:normal;font-variant:normal;font-weight:normal;font-stretch:normal;font-size:93.72609711px;font-family:Photographs;-inkscape-font-specification:Photographs"
         y="329.48642"
         x="221.77118"
         id="tspan8413"
         sodipodi:role="line">A'</tspan></text>
    <text
       sodipodi:linespacing="125%"
       id="text8415"
       y="554.42908"
       x="221.77118"
       style="font-style:normal;font-weight:normal;font-size:149.96176147px;line-height:125%;font-family:sans-serif;letter-spacing:0px;word-spacing:0px;fill:#000000;fill-opacity:1;stroke:none;stroke-width:1px;stroke-linecap:butt;stroke-linejoin:miter;stroke-opacity:1"
       xml:space="preserve"><tspan
         style="font-style:normal;font-variant:normal;font-weight:normal;font-stretch:normal;font-size:93.72609711px;font-family:Photographs;-inkscape-font-specification:Photographs"
         y="554.42908"
         x="221.77118"
         id="tspan8417"
         sodipodi:role="line">B</tspan></text>
    <text
       xml:space="preserve"
       style="font-style:normal;font-weight:normal;font-size:149.96176147px;line-height:125%;font-family:sans-serif;letter-spacing:0px;word-spacing:0px;fill:#000000;fill-opacity:1;stroke:none;stroke-width:1px;stroke-linecap:butt;stroke-linejoin:miter;stroke-opacity:1"
       x="221.77118"
       y="779.3717"
       id="text8419"
       sodipodi:linespacing="125%"><tspan
         sodipodi:role="line"
         id="tspan8421"
         x="221.77118"
         y="779.3717"
         style="font-style:normal;font-variant:normal;font-weight:normal;font-stretch:normal;font-size:93.72609711px;font-family:Photographs;-inkscape-font-specification:Photographs">A</tspan></text>
  </g>
</svg>
