<?xml version="1.0" encoding="UTF-8" standalone="no"?>
<!-- Created with Inkscape (http://www.inkscape.org/) -->

<svg
   xmlns:dc="http://purl.org/dc/elements/1.1/"
   xmlns:cc="http://creativecommons.org/ns#"
   xmlns:rdf="http://www.w3.org/1999/02/22-rdf-syntax-ns#"
   xmlns:svg="http://www.w3.org/2000/svg"
   xmlns="http://www.w3.org/2000/svg"
   xmlns:sodipodi="http://sodipodi.sourceforge.net/DTD/sodipodi-0.dtd"
   xmlns:inkscape="http://www.inkscape.org/namespaces/inkscape"
   width="79.602364mm"
   height="271.53882mm"
   viewBox="0 0 282.05562 962.14542"
   id="svg9172"
   version="1.1"
   inkscape:version="0.92.1 r"
   sodipodi:docname="remote-branch.svg">
  <defs
     id="defs9174" />
  <sodipodi:namedview
     id="base"
     pagecolor="#ffffff"
     bordercolor="#666666"
     borderopacity="1.0"
     inkscape:pageopacity="0.0"
     inkscape:pageshadow="2"
     inkscape:zoom="0.35"
     inkscape:cx="-1099.7497"
     inkscape:cy="475.35843"
     inkscape:document-units="px"
     inkscape:current-layer="layer1"
     showgrid="false"
     fit-margin-top="0"
     fit-margin-left="0"
     fit-margin-right="0"
     fit-margin-bottom="0"
     inkscape:window-width="1920"
     inkscape:window-height="1023"
     inkscape:window-x="0"
     inkscape:window-y="0"
     inkscape:window-maximized="1" />
  <metadata
     id="metadata9177">
    <rdf:RDF>
      <cc:Work
         rdf:about="">
        <dc:format>image/svg+xml</dc:format>
        <dc:type
           rdf:resource="http://purl.org/dc/dcmitype/StillImage" />
        <dc:title />
      </cc:Work>
    </rdf:RDF>
  </metadata>
  <g
     inkscape:label="Calque 1"
     inkscape:groupmode="layer"
     id="layer1"
     transform="translate(-150.46399,-45.575208)">
    <path
       style="fill:none;fill-opacity:1;stroke:#364a62;stroke-width:18.46933937;stroke-linejoin:miter;stroke-miterlimit:4;stroke-dasharray:none;stroke-opacity:1"
       d="m 318.55002,950.07294 a 48.413025,48.413025 0 0 1 -48.41303,48.41302 48.413025,48.413025 0 0 1 -48.41302,-48.41302 48.413025,48.413025 0 0 1 48.41302,-48.41303 48.413025,48.413025 0 0 1 48.41303,48.41303 z"
       id="circle4469" />
    <path
       style="fill:none;fill-opacity:1;stroke:#364a62;stroke-width:18.46933937;stroke-linejoin:miter;stroke-miterlimit:4;stroke-dasharray:none;stroke-opacity:1"
       d="m 318.55002,647.37964 a 48.413025,48.413025 0 0 1 -48.41303,48.41302 48.413025,48.413025 0 0 1 -48.41302,-48.41302 48.413025,48.413025 0 0 1 48.41302,-48.41303 48.413025,48.413025 0 0 1 48.41303,48.41303 z"
       id="circle4491" />
    <g
       id="g4493"
       transform="matrix(5.0448894,0,0,4.4235736,-60.054599,-1888.6249)"
       style="fill:#666666;fill-opacity:1">
      <path
         sodipodi:nodetypes="cssccsscac"
         inkscape:connector-curvature="0"
         id="path4495"
         d="m 62.46421,626.93112 c 0,0 -1.9752,-4.86969 -1.97011,-7.31496 0.008,-3.97993 3.01214,-7.92543 3.25613,-11.90476 0.15983,-2.60649 -1.17554,-7.81364 -1.17554,-7.81364 l 5.72377,0.0251 c 0,0 1.36373,5.14131 1.22477,7.71535 -0.21658,4.0118 -3.2243,7.99084 -3.20606,12.0031 0.011,2.42886 2.00689,7.26479 2.00689,7.26479 0,0 -1.924299,-0.35764 -2.897269,-0.35488 -0.99561,0.003 -2.962581,0.3799 -2.962581,0.3799 z"
         style="fill:#666666;fill-opacity:1;stroke:none;stroke-width:0;stroke-linejoin:miter;stroke-miterlimit:4;stroke-dasharray:none;stroke-opacity:0.62420379" />
      <path
         sodipodi:nodetypes="cccc"
         inkscape:connector-curvature="0"
         id="path4497"
         d="m 71.71751,600.44513 -12.361,0 6.1805,-12.6625 z"
         inkscape:transform-center-y="-4.0701"
         inkscape:transform-center-x="4.5249998"
         style="fill:#666666;fill-opacity:1;stroke:none;stroke-width:0;stroke-linejoin:miter;stroke-miterlimit:4;stroke-dasharray:none;stroke-opacity:0.62420379" />
    </g>
    <g
       id="g4501"
       transform="matrix(5.0448894,0,0,4.4235736,-60.054599,-2191.3182)"
       style="fill:#666666;fill-opacity:1">
      <path
         sodipodi:nodetypes="cssccsscac"
         inkscape:connector-curvature="0"
         id="path4503"
         d="m 62.46421,626.93112 c 0,0 -1.9752,-4.86969 -1.97011,-7.31496 0.008,-3.97993 3.01214,-7.92543 3.25613,-11.90476 0.15983,-2.60649 -1.17554,-7.81364 -1.17554,-7.81364 l 5.72377,0.0251 c 0,0 1.36373,5.14131 1.22477,7.71535 -0.21658,4.0118 -3.2243,7.99084 -3.20606,12.0031 0.011,2.42886 2.00689,7.26479 2.00689,7.26479 0,0 -1.924299,-0.35764 -2.897269,-0.35488 -0.99561,0.003 -2.962581,0.3799 -2.962581,0.3799 z"
         style="fill:#666666;fill-opacity:1;stroke:none;stroke-width:0;stroke-linejoin:miter;stroke-miterlimit:4;stroke-dasharray:none;stroke-opacity:0.62420379" />
      <path
         sodipodi:nodetypes="cccc"
         inkscape:connector-curvature="0"
         id="path4505"
         d="m 71.71751,600.44513 -12.361,0 6.1805,-12.6625 z"
         inkscape:transform-center-y="-4.0701"
         inkscape:transform-center-x="4.5249998"
         style="fill:#666666;fill-opacity:1;stroke:none;stroke-width:0;stroke-linejoin:miter;stroke-miterlimit:4;stroke-dasharray:none;stroke-opacity:0.62420379" />
    </g>
    <path
       style="fill:none;fill-opacity:1;stroke:#364a62;stroke-width:18.46933937;stroke-linejoin:miter;stroke-miterlimit:4;stroke-dasharray:none;stroke-opacity:1"
       d="m 318.55002,344.68613 a 48.413025,48.413025 0 0 1 -48.41303,48.41302 48.413025,48.413025 0 0 1 -48.41302,-48.41302 48.413025,48.413025 0 0 1 48.41302,-48.41303 48.413025,48.413025 0 0 1 48.41303,48.41303 z"
       id="circle4507" />
    <g
       aria-label="B"
       style="font-style:normal;font-weight:normal;line-height:0%;font-family:sans-serif;letter-spacing:0px;word-spacing:0px;fill:#000000;fill-opacity:1;stroke:none;stroke-width:1px;stroke-linecap:butt;stroke-linejoin:miter;stroke-opacity:1"
       id="text4577">
      <path
         d="m 340.63572,263.78193 q 0.37836,-2.01795 1.51346,-3.02693 1.26123,-1.1351 2.64857,-1.1351 1.51347,-0.12612 2.77469,0.88285 1.38734,1.00898 2.14408,3.15306 v 0.63061 q 2.64856,-2.52244 5.54937,-3.90979 3.02694,-1.38734 5.92775,-1.26122 2.90081,0.12612 5.42326,1.89183 2.64856,1.76571 4.5404,5.54938 2.39632,4.91877 2.64856,10.34202 0.25225,5.42326 -1.00898,11.09876 -1.26122,5.54938 -3.78366,11.09876 -2.52245,5.54937 -5.54938,10.59426 4.16203,1.1351 6.43223,4.16204 2.39633,3.02693 3.27918,6.93672 0.88286,3.90979 0.37837,8.19794 -0.37837,4.16204 -1.89184,7.56734 -1.89183,4.41428 -4.16203,8.07182 -2.2702,3.65755 -5.80162,6.68448 -2.90081,2.64857 -6.05387,4.16203 -3.15305,1.51347 -6.68448,2.14408 -0.75673,1.1351 -2.01795,1.76571 -1.1351,0.50449 -2.39632,0.37837 -1.26123,0 -2.39633,-0.88286 -1.00897,-0.88285 -1.51346,-2.52244 -0.12613,-0.75673 -0.25225,-1.63959 -0.12612,-1.00898 -0.12612,-3.4053 0,-2.52245 0,-7.06285 0.12612,-4.66652 0.37837,-12.73834 -1.63959,0 -3.4053,-1.76571 -1.00898,-1.51347 -1.00898,-3.02694 -0.12612,-1.51346 0.50449,-3.02693 0.50449,-1.51347 1.63959,-2.90081 1.00897,-1.51347 2.2702,-2.77469 z m 8.95467,11.60325 q 0,3.78366 0,8.45019 0,4.66652 0,9.58529 0,4.79264 0,9.45916 0.12613,4.66653 0.12613,8.57631 0.25224,-0.12612 0.50449,-0.25224 0.37836,-0.12612 0.63061,-0.25224 2.77469,-1.38735 5.17101,-4.79265 2.39632,-3.4053 4.16203,-7.69346 1.89184,-4.28815 3.15306,-9.0808 1.26122,-4.79264 1.51346,-9.0808 0.37837,-4.28815 -0.25224,-7.44121 -0.63061,-3.15305 -2.52244,-4.28815 -1.76572,-1.1351 -4.91877,0.37836 -3.02694,1.38735 -7.56734,6.43224 z m 13.62121,46.16073 q -1.00898,-2.52244 -2.64857,-2.90081 -1.63959,-0.50449 -3.65755,0 -1.63959,1.76571 -3.4053,3.90979 -1.76571,2.14408 -3.78366,4.03591 v 21.31466 q 3.27917,-1.26122 6.30611,-4.03591 3.15305,-2.90081 5.17101,-6.55836 2.14408,-3.65754 2.77469,-7.81958 0.75673,-4.16203 -0.75673,-7.9457 z"
         style="font-style:normal;font-variant:normal;font-weight:normal;font-stretch:normal;font-size:126.12223053px;line-height:1.25;font-family:Photographs;-inkscape-font-specification:Photographs"
         id="path32490" />
    </g>
    <g
       aria-label="A"
       style="font-style:normal;font-weight:normal;line-height:0%;font-family:sans-serif;letter-spacing:0px;word-spacing:0px;fill:#000000;fill-opacity:1;stroke:none;stroke-width:1px;stroke-linecap:butt;stroke-linejoin:miter;stroke-opacity:1"
       id="text4581">
      <path
         d="m 351.22998,628.90586 q -0.88285,7.18896 -1.38734,14.50405 -0.37837,7.18897 -0.63061,14.37794 -0.37837,2.52244 -1.89184,3.65754 -1.38734,1.00898 -3.02693,0.88286 -1.51347,-0.25225 -2.90081,-1.51347 -1.38735,-1.38734 -1.63959,-3.90979 1.1351,-22.702 3.78367,-45.404 2.77469,-22.82813 6.55835,-45.53013 0.37837,-1.63959 2.01796,-2.64856 1.63959,-1.00898 3.53142,-1.1351 1.89183,-0.12613 3.53142,0.75673 1.76572,0.88286 2.39633,3.02693 2.01795,11.60325 4.03591,22.82813 2.01795,11.22488 4.03591,22.32363 2.01795,11.09876 3.90979,22.32364 1.89183,11.09875 3.65754,22.82812 0.12613,2.39632 -1.00897,4.03591 -1.1351,1.51347 -2.77469,2.01796 -1.51347,0.37836 -3.15306,-0.50449 -1.63959,-1.00898 -2.39632,-3.53142 -0.63061,-4.28816 -1.26122,-8.07183 -0.63062,-3.90979 -1.38735,-7.69345 -0.63061,-3.78367 -1.38734,-7.56734 -0.75674,-3.90979 -1.51347,-8.19794 -2.52244,-0.25225 -5.29713,0.12612 -2.77469,0.25224 -5.80163,2.01796 z m 1.1351,-10.84652 q 2.14408,-0.50448 4.16204,-0.63061 2.14408,-0.12612 4.28815,-0.12612 -1.00897,-6.17999 -2.14407,-12.35998 -1.00898,-6.17999 -2.01796,-12.4861 l -0.63061,-3.65754 q -0.25225,1.76571 -0.37837,3.53142 -0.12612,1.63959 -0.37837,3.4053 z"
         style="font-style:normal;font-variant:normal;font-weight:normal;font-stretch:normal;font-size:126.12223053px;line-height:1.25;font-family:Photographs;-inkscape-font-specification:Photographs"
         id="path32487" />
    </g>
    <g
       aria-label="REMOTE"
       style="font-style:normal;font-weight:normal;line-height:0%;font-family:sans-serif;letter-spacing:0px;word-spacing:0px;fill:#364a62;fill-opacity:1;stroke:none;stroke-width:1px;stroke-linecap:butt;stroke-linejoin:miter;stroke-opacity:1"
       id="text4278">
      <path
         d="m 150.74146,52.607979 q 0.69367,-3.052159 2.77469,-4.162034 2.21975,-1.109876 4.30077,0 4.16203,-2.497221 9.43394,-2.77469 5.27191,-0.416203 10.12762,0.971141 4.8557,1.248611 8.32407,4.300769 3.46836,2.913424 4.0233,7.214192 0.97114,7.075458 -0.83241,13.179775 -1.80355,6.104316 -5.41065,11.51496 -3.46836,5.410644 -8.32406,10.266351 -4.71698,4.855706 -9.43395,9.433947 5.96558,7.35292 9.98888,13.87344 4.16204,6.38179 9.01774,13.59598 3.32963,4.99444 6.38179,10.40509 3.05216,5.27191 5.96558,10.54382 0.69367,2.21975 0,4.02329 -0.69367,1.80355 -2.08101,2.63596 -1.38735,0.83241 -3.32963,0.55494 -1.80355,-0.13874 -3.46836,-1.80355 -6.52052,-10.96002 -13.04104,-21.22637 -6.38179,-10.40509 -14.28965,-21.36511 v 40.51046 q -0.55494,1.94229 -2.08102,2.91343 -1.38735,0.97114 -3.05216,0.97114 -1.52608,0.13873 -3.05216,-0.69367 -1.52608,-0.97115 -2.21975,-3.05216 0.27747,-14.70586 0.27747,-28.02437 0.13873,-13.3185 0.13873,-25.80461 0,-12.486098 -0.13873,-24.417262 0,-11.931164 0,-23.584859 z m 9.98888,8.046599 v 31.631458 q 6.52052,-5.688113 11.51496,-11.653695 5.13318,-6.104317 7.07546,-13.179775 1.52608,-5.549378 -0.83241,-8.185333 -2.35848,-2.635955 -6.10431,-3.052158 -3.6071,-0.416204 -7.2142,0.971141 -3.46836,1.24861 -4.4395,3.468362 z"
         style="font-style:normal;font-variant:normal;font-weight:normal;font-stretch:normal;font-size:138.73446655px;line-height:125%;font-family:Photographs;-inkscape-font-specification:Photographs;fill:#364a62;fill-opacity:1"
         id="path32474" />
      <path
         d="m 207.07416,158.18491 q -2.35849,-0.41621 -4.43951,-1.80355 -1.94228,-1.52608 -1.94228,-4.30077 0.41621,-12.20863 0.41621,-23.44612 0.13873,-11.2375 0.13873,-22.33625 0,-11.09876 -0.13873,-22.474987 0,-11.51496 0,-24.001062 -1.94229,-4.162034 -0.55494,-6.797989 1.38734,-2.635955 4.71697,-4.0233 3.32963,-1.387344 7.90786,-1.664813 4.57824,-0.277469 9.01774,0.138734 4.43951,0.416204 8.0466,1.387345 3.6071,0.832407 4.99444,1.942282 1.66482,1.664814 1.80355,3.329628 0.13874,1.664813 -0.8324,2.913423 -0.97115,1.109876 -2.77469,1.803549 -1.66482,0.554937 -3.74583,0.138734 -4.99445,-0.277469 -9.57268,-0.693672 -4.43951,-0.554938 -9.15648,0.277469 0,10.821288 0,21.781311 0,10.821288 0.13874,22.058778 3.46836,0.13874 6.38178,-0.4162 3.05216,-0.69367 6.24305,-0.97114 1.52608,-0.27747 2.91343,0.27747 1.52608,0.4162 2.49722,1.52608 0.97114,0.97114 1.10987,2.63595 0.13874,1.52608 -1.10987,3.32963 -3.1909,2.77469 -8.18534,3.74583 -4.99444,0.8324 -9.85014,0.55494 0.27747,9.15647 0.27747,17.48054 0,8.32407 -0.27747,17.34181 5.27191,-0.13874 10.82129,-0.97114 5.54937,-0.83241 10.26635,-2.77469 2.49722,-0.55494 4.0233,0.55493 1.52607,1.10988 1.94228,2.91343 0.55494,1.66481 -0.27747,3.60709 -0.69367,1.94229 -2.77469,3.05216 -6.24305,2.35849 -13.87345,3.32963 -7.49166,0.83241 -14.15091,0.55494 z"
         style="font-style:normal;font-variant:normal;font-weight:normal;font-stretch:normal;font-size:138.73446655px;line-height:125%;font-family:Photographs;-inkscape-font-specification:Photographs;fill:#364a62;fill-opacity:1"
         id="path32476" />
      <path
         d="m 242.32789,52.607979 q 0.8324,-1.803549 2.35848,-3.190893 1.66482,-1.387345 3.46836,-1.803548 1.94229,-0.554938 4.0233,0.138734 2.08102,0.554938 3.88457,2.497221 1.80355,4.300768 3.32963,10.26635 1.66481,5.826848 2.91342,12.624837 1.24861,6.659254 2.35849,13.873446 1.10987,7.075458 1.94228,14.012184 0.97114,6.93672 1.66481,13.17977 0.69367,6.24305 1.38735,11.09876 0.27746,-4.16204 0.8324,-10.26635 0.55494,-6.10432 1.24861,-13.04104 0.83241,-7.075459 1.80355,-14.428386 0.97114,-7.491661 2.08102,-14.28965 1.24861,-6.936723 2.63595,-12.624836 1.38735,-5.826848 2.91343,-9.711413 0.69367,-1.803548 2.77469,-2.635955 2.21975,-0.971141 4.57823,-0.693672 2.35849,0.277469 4.16204,1.942282 1.94228,1.526079 2.08101,4.578238 1.38735,14.428384 2.21976,27.33069 0.97114,12.76357 1.38734,24.556002 0.55494,11.79243 0.55494,23.02992 0.13873,11.09876 0,22.33625 0,3.19089 -1.52608,4.99444 -1.38735,1.66481 -3.19089,1.94228 -1.66482,0.27747 -3.32963,-0.97114 -1.52608,-1.38734 -1.66481,-4.30077 -0.13874,-19.83903 -0.69368,-38.70691 -0.55493,-18.867891 -2.49722,-37.874513 -1.38734,10.405085 -2.77469,19.977763 -1.24861,9.57268 -2.63595,18.86789 -1.24861,9.29521 -2.63596,18.59042 -1.38734,9.29521 -3.05215,19.14535 -0.41621,2.77469 -2.21976,4.0233 -1.66481,1.24861 -3.60709,1.10988 -1.94228,0 -3.6071,-1.38735 -1.66481,-1.38734 -1.80355,-4.0233 -1.24861,-8.879 -2.63595,-18.72915 -1.38735,-9.85015 -2.77469,-19.70029 -1.38734,-9.85015 -2.91342,-19.422829 -1.38735,-9.711413 -3.05216,-18.451684 0,19.56156 0,39.123123 0.13873,19.42282 0.13873,38.70691 -0.55494,1.94229 -2.08101,2.91343 -1.38735,0.97114 -3.05216,0.97114 -1.52608,0.13873 -3.05216,-0.69367 -1.52608,-0.97115 -2.21975,-3.05216 0.27747,-13.04104 0.27747,-25.52714 0.13873,-12.48611 0.13873,-24.83347 0,-12.486106 -0.13873,-25.110943 0,-12.763571 0,-26.359548 z"
         style="font-style:normal;font-variant:normal;font-weight:normal;font-stretch:normal;font-size:138.73446655px;line-height:125%;font-family:Photographs;-inkscape-font-specification:Photographs;fill:#364a62;fill-opacity:1"
         id="path32478" />
      <path
         d="m 338.21725,49.139617 q 4.85571,2.913424 7.90787,8.046599 3.05215,5.133175 4.71697,11.653695 1.66481,6.52052 1.94228,14.012181 0.4162,7.491661 -0.13873,15.122057 -0.55494,7.630391 -1.80355,14.844591 -1.10988,7.21419 -2.63596,13.17977 -0.69367,2.91343 -1.80354,6.79799 -1.10988,3.74583 -2.77469,7.76913 -1.66482,3.88457 -3.88457,7.49166 -2.21975,3.6071 -5.13317,6.10432 -2.91343,2.49722 -6.65926,3.60709 -3.60709,0.97115 -8.0466,-0.27746 -2.91342,-0.83241 -5.13317,-3.32963 -2.21975,-2.49722 -3.88457,-5.54938 -1.52608,-3.19089 -2.63595,-6.38179 -0.97114,-3.32962 -1.52608,-5.68811 -0.69367,-3.19089 -1.52608,-9.15647 -0.69367,-5.96559 -1.10988,-13.45725 -0.4162,-7.49166 -0.27747,-15.815726 0.27747,-8.462803 1.38735,-16.370668 1.24861,-8.046599 3.6071,-14.983322 2.35848,-7.075458 6.24305,-11.79243 3.88456,-4.716971 9.57267,-6.520519 5.68812,-1.803549 13.59598,0.693672 z m -1.24861,13.318509 q -1.10987,-1.664814 -2.91342,-2.77469 -1.80355,-1.24861 -3.88457,-1.664813 -1.94228,-0.416204 -4.0233,0.138734 -2.08101,0.554938 -3.60709,2.358486 -2.35849,2.774689 -4.0233,7.214192 -1.52608,4.439503 -2.49722,9.711413 -0.97114,5.133175 -1.52608,10.960023 -0.41621,5.688113 -0.55494,11.237492 -0.13873,5.410647 0,10.266347 0.27747,4.85571 0.55494,8.32407 0.13873,1.66481 0.69367,5.82685 0.55494,4.0233 1.52608,8.60154 0.97114,4.4395 2.49722,8.4628 1.52608,4.0233 3.46836,5.68811 2.08102,1.66481 4.71697,0 2.63596,-1.80355 5.96559,-8.74027 1.52607,-3.46836 2.63595,-7.21419 1.24861,-3.74583 2.21975,-7.35293 0.83241,-3.46836 1.66482,-8.4628 0.8324,-4.99444 1.38734,-10.68256 0.69367,-5.826843 0.83241,-11.93116 0.27747,-6.104316 -0.13874,-11.653695 -0.4162,-5.688113 -1.66481,-10.405085 -1.10988,-4.855706 -3.32963,-7.907864 z"
         style="font-style:normal;font-variant:normal;font-weight:normal;font-stretch:normal;font-size:138.73446655px;line-height:125%;font-family:Photographs;-inkscape-font-specification:Photographs;fill:#364a62;fill-opacity:1"
         id="path32480" />
      <path
         d="m 364.23429,58.85103 q -2.49722,0 -3.60709,0 -0.97114,0 -1.80355,0.138734 -0.69367,0 -1.52608,0.138734 -0.69367,0 -2.49722,0.138735 -2.35849,-0.416203 -3.6071,-1.664814 -1.38734,-1.387344 -1.52607,-2.913423 -0.27747,-1.664814 0.69367,-3.190893 0.97114,-1.664814 3.19089,-2.635955 0.97114,-0.416203 3.6071,-0.693672 2.63595,-0.277469 5.96558,-0.416204 3.46836,-0.138734 7.21419,-0.138734 3.74583,-0.138735 7.07546,0 3.32963,0 5.82685,0.138734 2.63595,0 3.60709,0.138735 2.49722,0.693672 3.46836,2.358486 1.10988,1.664813 0.83241,3.468361 -0.13873,1.664814 -1.52608,3.052159 -1.24861,1.387344 -3.46836,1.526079 -2.63595,0 -5.96558,0.138734 -3.19089,0.138735 -6.10432,0.277469 0,8.879006 0,18.31295 0,9.433943 0,20.671435 0,11.23749 0,25.11094 0.13874,13.73471 0.13874,31.49272 -0.55494,1.94229 -1.94229,2.91343 -1.38734,0.97114 -3.05215,0.97114 -1.66482,0.13873 -3.1909,-0.69367 -1.52608,-0.97115 -2.21975,-3.05216 0.4162,-24.69474 0.4162,-48.2796 0,-23.584857 0,-47.30845 z"
         style="font-style:normal;font-variant:normal;font-weight:normal;font-stretch:normal;font-size:138.73446655px;line-height:125%;font-family:Photographs;-inkscape-font-specification:Photographs;fill:#364a62;fill-opacity:1"
         id="path32482" />
      <path
         d="m 401.22113,158.18491 q -2.35849,-0.41621 -4.43951,-1.80355 -1.94228,-1.52608 -1.94228,-4.30077 0.4162,-12.20863 0.4162,-23.44612 0.13874,-11.2375 0.13874,-22.33625 0,-11.09876 -0.13874,-22.474987 0,-11.51496 0,-24.001062 -1.94228,-4.162034 -0.55493,-6.797989 1.38734,-2.635955 4.71697,-4.0233 3.32963,-1.387344 7.90786,-1.664813 4.57824,-0.277469 9.01774,0.138734 4.43951,0.416204 8.0466,1.387345 3.6071,0.832407 4.99444,1.942282 1.66482,1.664814 1.80355,3.329628 0.13874,1.664813 -0.83241,2.913423 -0.97114,1.109876 -2.77469,1.803549 -1.66481,0.554937 -3.74583,0.138734 -4.99444,-0.277469 -9.57267,-0.693672 -4.43951,-0.554938 -9.15648,0.277469 0,10.821288 0,21.781311 0,10.821288 0.13874,22.058778 3.46836,0.13874 6.38178,-0.4162 3.05216,-0.69367 6.24305,-0.97114 1.52608,-0.27747 2.91343,0.27747 1.52607,0.4162 2.49722,1.52608 0.97114,0.97114 1.10987,2.63595 0.13874,1.52608 -1.10987,3.32963 -3.1909,2.77469 -8.18534,3.74583 -4.99444,0.8324 -9.85014,0.55494 0.27746,9.15647 0.27746,17.48054 0,8.32407 -0.27746,17.34181 5.27191,-0.13874 10.82128,-0.97114 5.54938,-0.83241 10.26635,-2.77469 2.49722,-0.55494 4.0233,0.55493 1.52608,1.10988 1.94229,2.91343 0.55493,1.66481 -0.27747,3.60709 -0.69367,1.94229 -2.77469,3.05216 -6.24305,2.35849 -13.87345,3.32963 -7.49166,0.83241 -14.15091,0.55494 z"
         style="font-style:normal;font-variant:normal;font-weight:normal;font-stretch:normal;font-size:138.73446655px;line-height:125%;font-family:Photographs;-inkscape-font-specification:Photographs;fill:#364a62;fill-opacity:1"
         id="path32484" />
    </g>
    <g
       style="fill:#666666;fill-opacity:1"
       transform="matrix(5.0448894,0,0,4.4235736,-60.054599,-2191.3182)"
       id="g4286">
      <path
         style="fill:#666666;fill-opacity:1;stroke:none;stroke-width:0;stroke-linejoin:miter;stroke-miterlimit:4;stroke-dasharray:none;stroke-opacity:0.62420379"
         d="m 62.46421,626.93112 c 0,0 -1.9752,-4.86969 -1.97011,-7.31496 0.008,-3.97993 3.01214,-7.92543 3.25613,-11.90476 0.15983,-2.60649 -1.17554,-7.81364 -1.17554,-7.81364 l 5.72377,0.0251 c 0,0 1.36373,5.14131 1.22477,7.71535 -0.21658,4.0118 -3.2243,7.99084 -3.20606,12.0031 0.011,2.42886 2.00689,7.26479 2.00689,7.26479 0,0 -1.924299,-0.35764 -2.897269,-0.35488 -0.99561,0.003 -2.962581,0.3799 -2.962581,0.3799 z"
         id="path4288"
         inkscape:connector-curvature="0"
         sodipodi:nodetypes="cssccsscac" />
      <path
         style="fill:#666666;fill-opacity:1;stroke:none;stroke-width:0;stroke-linejoin:miter;stroke-miterlimit:4;stroke-dasharray:none;stroke-opacity:0.62420379"
         inkscape:transform-center-x="4.5249998"
         inkscape:transform-center-y="-4.0701"
         d="m 71.71751,600.44513 -12.361,0 6.1805,-12.6625 z"
         id="path4290"
         inkscape:connector-curvature="0"
         sodipodi:nodetypes="cccc" />
    </g>
    <path
       style="fill:none;fill-opacity:1;stroke:#364a62;stroke-width:18.46933937;stroke-linejoin:miter;stroke-miterlimit:4;stroke-dasharray:none;stroke-opacity:1"
       d="m 318.55002,344.68613 a 48.413025,48.413025 0 0 1 -48.41303,48.41302 48.413025,48.413025 0 0 1 -48.41302,-48.41302 48.413025,48.413025 0 0 1 48.41302,-48.41303 48.413025,48.413025 0 0 1 48.41303,48.41303 z"
       id="circle4292" />
    <g
       aria-label="B"
       style="font-style:normal;font-weight:normal;line-height:0%;font-family:sans-serif;letter-spacing:0px;word-spacing:0px;fill:#000000;fill-opacity:1;stroke:none;stroke-width:1px;stroke-linecap:butt;stroke-linejoin:miter;stroke-opacity:1"
       id="text4294">
      <path
         d="m 340.63572,263.78193 q 0.37836,-2.01795 1.51346,-3.02693 1.26123,-1.1351 2.64857,-1.1351 1.51347,-0.12612 2.77469,0.88285 1.38734,1.00898 2.14408,3.15306 v 0.63061 q 2.64856,-2.52244 5.54937,-3.90979 3.02694,-1.38734 5.92775,-1.26122 2.90081,0.12612 5.42326,1.89183 2.64856,1.76571 4.5404,5.54938 2.39632,4.91877 2.64856,10.34202 0.25225,5.42326 -1.00898,11.09876 -1.26122,5.54938 -3.78366,11.09876 -2.52245,5.54937 -5.54938,10.59426 4.16203,1.1351 6.43223,4.16204 2.39633,3.02693 3.27918,6.93672 0.88286,3.90979 0.37837,8.19794 -0.37837,4.16204 -1.89184,7.56734 -1.89183,4.41428 -4.16203,8.07182 -2.2702,3.65755 -5.80162,6.68448 -2.90081,2.64857 -6.05387,4.16203 -3.15305,1.51347 -6.68448,2.14408 -0.75673,1.1351 -2.01795,1.76571 -1.1351,0.50449 -2.39632,0.37837 -1.26123,0 -2.39633,-0.88286 -1.00897,-0.88285 -1.51346,-2.52244 -0.12613,-0.75673 -0.25225,-1.63959 -0.12612,-1.00898 -0.12612,-3.4053 0,-2.52245 0,-7.06285 0.12612,-4.66652 0.37837,-12.73834 -1.63959,0 -3.4053,-1.76571 -1.00898,-1.51347 -1.00898,-3.02694 -0.12612,-1.51346 0.50449,-3.02693 0.50449,-1.51347 1.63959,-2.90081 1.00897,-1.51347 2.2702,-2.77469 z m 8.95467,11.60325 q 0,3.78366 0,8.45019 0,4.66652 0,9.58529 0,4.79264 0,9.45916 0.12613,4.66653 0.12613,8.57631 0.25224,-0.12612 0.50449,-0.25224 0.37836,-0.12612 0.63061,-0.25224 2.77469,-1.38735 5.17101,-4.79265 2.39632,-3.4053 4.16203,-7.69346 1.89184,-4.28815 3.15306,-9.0808 1.26122,-4.79264 1.51346,-9.0808 0.37837,-4.28815 -0.25224,-7.44121 -0.63061,-3.15305 -2.52244,-4.28815 -1.76572,-1.1351 -4.91877,0.37836 -3.02694,1.38735 -7.56734,6.43224 z m 13.62121,46.16073 q -1.00898,-2.52244 -2.64857,-2.90081 -1.63959,-0.50449 -3.65755,0 -1.63959,1.76571 -3.4053,3.90979 -1.76571,2.14408 -3.78366,4.03591 v 21.31466 q 3.27917,-1.26122 6.30611,-4.03591 3.15305,-2.90081 5.17101,-6.55836 2.14408,-3.65754 2.77469,-7.81958 0.75673,-4.16203 -0.75673,-7.9457 z"
         style="font-style:normal;font-variant:normal;font-weight:normal;font-stretch:normal;font-size:126.12223053px;line-height:1.25;font-family:Photographs;-inkscape-font-specification:Photographs"
         id="path32470" />
    </g>
    <circle
       r="48.413025"
       cy="950.07294"
       cx="682.63702"
       id="circle32428"
       style="fill:none;fill-opacity:1;stroke:#364a62;stroke-width:18.46933937;stroke-linejoin:miter;stroke-miterlimit:4;stroke-dasharray:none;stroke-opacity:1"
       inkscape:export-xdpi="90"
       inkscape:export-ydpi="90" />
    <circle
       inkscape:export-ydpi="90"
       inkscape:export-xdpi="90"
       style="fill:none;fill-opacity:1;stroke:#364a62;stroke-width:18.46933937;stroke-linejoin:miter;stroke-miterlimit:4;stroke-dasharray:none;stroke-opacity:1"
       id="circle32430"
       cx="682.63702"
       cy="647.37964"
       r="48.413025" />
    <g
       style="fill:#666666;fill-opacity:1"
       transform="matrix(5.0448894,0,0,4.4235736,352.4454,-1888.6249)"
       id="g32436">
      <path
         style="fill:#666666;fill-opacity:1;stroke:none;stroke-width:0;stroke-linejoin:miter;stroke-miterlimit:4;stroke-dasharray:none;stroke-opacity:0.62420379"
         d="m 62.46421,626.93112 c 0,0 -1.9752,-4.86969 -1.97011,-7.31496 0.008,-3.97993 3.01214,-7.92543 3.25613,-11.90476 0.15983,-2.60649 -1.17554,-7.81364 -1.17554,-7.81364 l 5.72377,0.0251 c 0,0 1.36373,5.14131 1.22477,7.71535 -0.21658,4.0118 -3.2243,7.99084 -3.20606,12.0031 0.011,2.42886 2.00689,7.26479 2.00689,7.26479 0,0 -1.924299,-0.35764 -2.897269,-0.35488 -0.99561,0.003 -2.962581,0.3799 -2.962581,0.3799 z"
         id="path32432"
         inkscape:connector-curvature="0"
         sodipodi:nodetypes="cssccsscac" />
      <path
         style="fill:#666666;fill-opacity:1;stroke:none;stroke-width:0;stroke-linejoin:miter;stroke-miterlimit:4;stroke-dasharray:none;stroke-opacity:0.62420379"
         inkscape:transform-center-x="4.5249998"
         inkscape:transform-center-y="-4.0701"
         d="m 71.71751,600.44513 h -12.361 l 6.1805,-12.6625 z"
         id="path32434"
         inkscape:connector-curvature="0"
         sodipodi:nodetypes="cccc" />
    </g>
    <g
       style="fill:#666666;fill-opacity:1"
       transform="matrix(5.0448894,0,0,4.4235736,352.4454,-2191.3182)"
       id="g32442">
      <path
         style="fill:#666666;fill-opacity:1;stroke:none;stroke-width:0;stroke-linejoin:miter;stroke-miterlimit:4;stroke-dasharray:none;stroke-opacity:0.62420379"
         d="m 62.46421,626.93112 c 0,0 -1.9752,-4.86969 -1.97011,-7.31496 0.008,-3.97993 3.01214,-7.92543 3.25613,-11.90476 0.15983,-2.60649 -1.17554,-7.81364 -1.17554,-7.81364 l 5.72377,0.0251 c 0,0 1.36373,5.14131 1.22477,7.71535 -0.21658,4.0118 -3.2243,7.99084 -3.20606,12.0031 0.011,2.42886 2.00689,7.26479 2.00689,7.26479 0,0 -1.924299,-0.35764 -2.897269,-0.35488 -0.99561,0.003 -2.962581,0.3799 -2.962581,0.3799 z"
         id="path32438"
         inkscape:connector-curvature="0"
         sodipodi:nodetypes="cssccsscac" />
      <path
         style="fill:#666666;fill-opacity:1;stroke:none;stroke-width:0;stroke-linejoin:miter;stroke-miterlimit:4;stroke-dasharray:none;stroke-opacity:0.62420379"
         inkscape:transform-center-x="4.5249998"
         inkscape:transform-center-y="-4.0701"
         d="m 71.71751,600.44513 h -12.361 l 6.1805,-12.6625 z"
         id="path32440"
         inkscape:connector-curvature="0"
         sodipodi:nodetypes="cccc" />
    </g>
    <circle
       r="48.413025"
       cy="344.68613"
       cx="682.63702"
       id="circle32444"
       style="fill:none;fill-opacity:1;stroke:#364a62;stroke-width:18.46933937;stroke-linejoin:miter;stroke-miterlimit:4;stroke-dasharray:none;stroke-opacity:1"
       inkscape:export-xdpi="90"
       inkscape:export-ydpi="90" />
    <text
       xml:space="preserve"
       style="font-style:normal;font-weight:normal;line-height:0%;font-family:sans-serif;letter-spacing:0px;word-spacing:0px;fill:#000000;fill-opacity:1;stroke:none;stroke-width:1px;stroke-linecap:butt;stroke-linejoin:miter;stroke-opacity:1"
       x="750.99164"
       y="359.63483"
       id="text32448"><tspan
         sodipodi:role="line"
         id="tspan32446"
         x="750.99164"
         y="359.63483"
         style="font-style:normal;font-variant:normal;font-weight:normal;font-stretch:normal;font-size:126.12223053px;line-height:1.25;font-family:Photographs;-inkscape-font-specification:Photographs">B</tspan></text>
    <text
       id="text32452"
       y="662.32825"
       x="750.99164"
       style="font-style:normal;font-weight:normal;line-height:0%;font-family:sans-serif;letter-spacing:0px;word-spacing:0px;fill:#000000;fill-opacity:1;stroke:none;stroke-width:1px;stroke-linecap:butt;stroke-linejoin:miter;stroke-opacity:1"
       xml:space="preserve"><tspan
         style="font-style:normal;font-variant:normal;font-weight:normal;font-stretch:normal;font-size:126.12223053px;line-height:1.25;font-family:Photographs;-inkscape-font-specification:Photographs"
         y="662.32825"
         x="750.99164"
         id="tspan32450"
         sodipodi:role="line">A</tspan></text>
    <text
       inkscape:export-ydpi="90"
       inkscape:export-xdpi="90"
       id="text32456"
       y="158.04617"
       x="560.0506"
       style="font-style:normal;font-weight:normal;line-height:0%;font-family:sans-serif;letter-spacing:0px;word-spacing:0px;fill:#364a62;fill-opacity:1;stroke:none;stroke-width:1px;stroke-linecap:butt;stroke-linejoin:miter;stroke-opacity:1"
       xml:space="preserve"><tspan
         id="tspan32454"
         style="font-style:normal;font-variant:normal;font-weight:normal;font-stretch:normal;font-size:138.73446655px;line-height:125%;font-family:Photographs;-inkscape-font-specification:Photographs;fill:#364a62;fill-opacity:1"
         y="158.04617"
         x="560.0506"
         sodipodi:role="line">REMOTE</tspan></text>
    <g
       id="g32462"
       transform="matrix(5.0448894,0,0,4.4235736,352.4454,-2191.3182)"
       style="fill:#666666;fill-opacity:1">
      <path
         sodipodi:nodetypes="cssccsscac"
         inkscape:connector-curvature="0"
         id="path32458"
         d="m 62.46421,626.93112 c 0,0 -1.9752,-4.86969 -1.97011,-7.31496 0.008,-3.97993 3.01214,-7.92543 3.25613,-11.90476 0.15983,-2.60649 -1.17554,-7.81364 -1.17554,-7.81364 l 5.72377,0.0251 c 0,0 1.36373,5.14131 1.22477,7.71535 -0.21658,4.0118 -3.2243,7.99084 -3.20606,12.0031 0.011,2.42886 2.00689,7.26479 2.00689,7.26479 0,0 -1.924299,-0.35764 -2.897269,-0.35488 -0.99561,0.003 -2.962581,0.3799 -2.962581,0.3799 z"
         style="fill:#666666;fill-opacity:1;stroke:none;stroke-width:0;stroke-linejoin:miter;stroke-miterlimit:4;stroke-dasharray:none;stroke-opacity:0.62420379" />
      <path
         sodipodi:nodetypes="cccc"
         inkscape:connector-curvature="0"
         id="path32460"
         d="m 71.71751,600.44513 h -12.361 l 6.1805,-12.6625 z"
         inkscape:transform-center-y="-4.0701"
         inkscape:transform-center-x="4.5249998"
         style="fill:#666666;fill-opacity:1;stroke:none;stroke-width:0;stroke-linejoin:miter;stroke-miterlimit:4;stroke-dasharray:none;stroke-opacity:0.62420379" />
    </g>
    <circle
       inkscape:export-ydpi="90"
       inkscape:export-xdpi="90"
       style="fill:none;fill-opacity:1;stroke:#364a62;stroke-width:18.46933937;stroke-linejoin:miter;stroke-miterlimit:4;stroke-dasharray:none;stroke-opacity:1"
       id="circle32464"
       cx="682.63702"
       cy="344.68613"
       r="48.413025" />
    <text
       id="text32468"
       y="359.63483"
       x="750.99164"
       style="font-style:normal;font-weight:normal;line-height:0%;font-family:sans-serif;letter-spacing:0px;word-spacing:0px;fill:#000000;fill-opacity:1;stroke:none;stroke-width:1px;stroke-linecap:butt;stroke-linejoin:miter;stroke-opacity:1"
       xml:space="preserve"><tspan
         style="font-style:normal;font-variant:normal;font-weight:normal;font-stretch:normal;font-size:126.12223053px;line-height:1.25;font-family:Photographs;-inkscape-font-specification:Photographs"
         y="359.63483"
         x="750.99164"
         id="tspan32466"
         sodipodi:role="line">B</tspan></text>
  </g>
</svg>
