<?xml version="1.0" encoding="UTF-8" standalone="no"?>
<svg
   xmlns:dc="http://purl.org/dc/elements/1.1/"
   xmlns:cc="http://creativecommons.org/ns#"
   xmlns:rdf="http://www.w3.org/1999/02/22-rdf-syntax-ns#"
   xmlns:svg="http://www.w3.org/2000/svg"
   xmlns="http://www.w3.org/2000/svg"
   xmlns:sodipodi="http://sodipodi.sourceforge.net/DTD/sodipodi-0.dtd"
   xmlns:inkscape="http://www.inkscape.org/namespaces/inkscape"
   version="1.1"
   width="586.50018"
   height="714.08459"
   xlink="http://www.w3.org/1999/xlink"
   style="overflow:hidden"
   id="svg1629"
   inkscape:version="0.91 r13725"
   sodipodi:docname="aurore-angry.svg">
  <metadata
     id="metadata1808">
    <rdf:RDF>
      <cc:Work
         rdf:about="">
        <dc:format>image/svg+xml</dc:format>
        <dc:type
           rdf:resource="http://purl.org/dc/dcmitype/StillImage" />
        <dc:title></dc:title>
      </cc:Work>
    </rdf:RDF>
  </metadata>
  <sodipodi:namedview
     pagecolor="#ffffff"
     bordercolor="#666666"
     borderopacity="1"
     objecttolerance="10"
     gridtolerance="10"
     guidetolerance="10"
     inkscape:pageopacity="0"
     inkscape:pageshadow="2"
     inkscape:window-width="640"
     inkscape:window-height="480"
     id="namedview1806"
     showgrid="false"
     fit-margin-top="0"
     fit-margin-left="0"
     fit-margin-right="0"
     fit-margin-bottom="0"
     inkscape:zoom="0.39333333"
     inkscape:cx="293.64"
     inkscape:cy="383.25"
     inkscape:window-x="0"
     inkscape:window-y="0"
     inkscape:window-maximized="0"
     inkscape:current-layer="svg1629" />
  <g
     id="svga-group-wrapper"
     transform="matrix(3,0,0,3,-6.36,30.834618)">
    <g
       id="svga-group-backs-single" />
    <g
       id="svga-group-subwrapper">
      <g
         id="svga-group-hair-back">
        <path
           id="SvgjsPath4956"
           d="m 56.121,137.894 c -0.284,-3.904 -1.705,-10.141 -3.683,-16.807 0,0 3.453,13.279 0.099,24.668 1.421,-24.748 -3.5,-31.88 -5.756,-39.022 0.653,-1.621 5.689,1.326 5.69,1.333 3.326,9.517 4.595,24.543 3.65,29.828 z m 91.639,-27.471 c -4.348,10.77 -7.406,23.196 -2.63,31.81 -1.362,-13.107 3.633,-24.778 6.497,-31.218 l -3.867,-0.592 z"
           stroke-miterlimit="10"
           inkscape:connector-curvature="0"
           style="opacity:1;fill:#b79675;stroke:#895c2f;stroke-width:1;stroke-miterlimit:10" />
      </g>
      <g
         id="svga-group-humanbody-single">
        <path
           id="SvgjsPath2761"
           d="m 190.858,199.866 c -6.008,-10.158 -13.474,-11.973 -19.628,-13.936 -6.323,-2.016 -19.346,-3.178 -26.449,-4.6 -6.86,-1.373 -23.153,-5.789 -23.339,-13.488 -0.192,-8.066 4.291,-40.09 4.291,-40.09 l -51.728,0 c 0,0 4.487,32.023 4.294,40.09 -0.184,7.699 -16.48,12.115 -23.341,13.488 -7.104,1.422 -20.125,2.584 -26.448,4.6 -6.156,1.963 -13.624,3.777 -19.632,13.936 -3.644,6.16 -6.008,16.133 -6.008,27.133 l 194,0 c -0.001,-11 -2.361,-20.973 -6.012,-27.133 z"
           stroke-width="none"
           inkscape:connector-curvature="0"
           style="opacity:1;fill:#ffd0bc;stroke:none" />
        <path
           id="SvgjsPath2762"
           d="m 121.442,167.843 c 2.495,10.929 18.165,13.698 26.293,15.325 21.909,4.379 33.772,5.134 42.297,19.539 2.903,4.916 5.459,15.864 5.962,24.153 1.835,0.291 0.531,-17.432 -5.136,-26.994 -9.742,-16.472 -29.089,-15.135 -46.077,-18.535 -6.86,-1.373 -23.153,-5.789 -23.339,-13.488 l 0,0 z m -42.884,0 c -0.186,7.699 -16.479,12.115 -23.339,13.488 -16.988,3.4 -36.335,2.063 -46.077,18.535 -5.667,9.563 -6.971,27.285 -5.136,26.994 0.503,-8.289 3.059,-19.237 5.962,-24.153 8.524,-14.405 20.388,-15.16 42.297,-19.539 8.128,-1.627 23.798,-4.397 26.293,-15.325 l 0,0 z"
           stroke-width="none"
           inkscape:connector-curvature="0"
           style="opacity:1;fill:#ffe2d6;stroke:none" />
        <path
           id="SvgjsPath2763"
           d="m 51.206,189.513 c 0,0 28.641,0.299 33.473,1.885 2.314,0.758 8.372,5.633 8.372,5.633 0,0 -6.556,-3.17 -8.658,-3.758 -4.883,-1.364 -33.187,-3.76 -33.187,-3.76 z m 48.589,10.486 c 2.053,-0.041 7.887,-3.799 7.887,-3.799 0,0 -5.574,2.059 -7.342,2.16 -1.491,0.086 -6.366,-1.238 -6.366,-1.238 0,0 4.138,2.91 5.821,2.877 z m 17.213,-7.242 c 6.75,-1.818 29.786,-3.23 29.786,-3.23 0,0 -23.791,-0.516 -30.51,1.725 -2.252,0.752 -7.562,5.16 -7.562,5.16 0,0 6.064,-3.058 8.286,-3.655 z"
           stroke-width="none"
           inkscape:connector-curvature="0"
           style="opacity:1;fill:#f0b399;stroke:none" />
        <path
           id="SvgjsPath2764"
           d="m 190.858,199.866 c -9.741,-16.471 -29.122,-15.142 -46.077,-18.535 -6.86,-1.373 -23.153,-5.789 -23.339,-13.488 -0.192,-8.066 4.291,-40.09 4.291,-40.09 l -51.728,0 c 0,0 4.487,32.023 4.294,40.09 -0.184,7.699 -16.48,12.115 -23.341,13.488 -7.104,1.422 -20.125,2.584 -26.448,4.6 -6.156,1.963 -13.624,3.777 -19.632,13.936 C 5.234,206.027 2.87,216 2.87,227 l 194,0 c -0.001,-11.001 -2.361,-20.974 -6.012,-27.134 z"
           inkscape:connector-curvature="0"
           style="opacity:1;fill:none;stroke:#d17f5b;stroke-width:1.5" />
      </g>
      <g
         id="svga-group-chinshadow-single">
        <path
           id="SvgjsPath4455"
           d="m 90.469,169.769 c 4.474,1.646 14.594,1.646 19.067,0 3.511,-1.291 7.479,-4.019 11.489,-7.484 0.785,-10.522 3.279,-28.936 3.919,-33.578 -1.113,-0.109 -2.256,-0.21 -3.428,-0.303 l -42.907,0 c -1.305,0.103 -2.578,0.216 -3.811,0.339 0.643,4.663 3.096,22.765 3.899,33.297 4.107,3.582 8.178,6.407 11.772,7.729 z"
           inkscape:connector-curvature="0"
           style="opacity:1;fill:url(#SvgjsLinearGradient4456)" />
      </g>
      <g
         id="svga-group-clothes-single">
        <path
           id="SvgjsPath4822"
           d="m 3.229,223.031 c -0.622,-0.007 -0.456,-0.006 -0.92,-0.006 0.025,-17.784 6.689,-31.059 17.837,-35.518 1.466,0.314 3.037,0.725 4.514,1.033 -13.109,6.346 -20.129,20.274 -21.431,34.491 z m 178.414,-34.627 c -1.855,0.251 -3.683,0.491 -5.504,0.729 13.353,5.75 17.424,20.534 19.434,33.854 0.344,-0.001 0.655,-0.002 0.931,-0.002 -1.083,-16.768 -1.352,-27.634 -14.861,-34.581 z"
           stroke-width="none"
           inkscape:connector-curvature="0"
           style="opacity:1;fill:#2d373d;stroke:none" />
        <path
           id="SvgjsPath4823"
           d="m 181.509,192.193 c 0.734,-0.111 2.033,-0.324 2.761,-0.438 -1.678,-1.271 -2.67,-1.958 -3.67,-2.549 -5.851,1.009 -59.284,7.112 -88.51,7.112 -38.337,0 -66.622,-6.76 -71.951,-8.293 -1.09,0.62 -2.15,1.301 -3.15,2.061 1,0.257 2.201,0.598 3.218,0.841 -10.338,7.09 -15.825,19.518 -16.978,32.104 30.39,0.341 61.447,0.514 92.321,0.514 0.005,0 0.01,0 0.015,0 40.676,0 71.674,-0.298 88.328,-0.458 5.388,-0.052 9.327,-0.09 11.679,-0.1 -1.722,-11.415 -4.937,-23.828 -14.063,-30.794 z"
           stroke-width="none"
           inkscape:connector-curvature="0"
           style="opacity:1;fill:#1d282e;stroke:none" />
        <path
           id="SvgjsPath4824"
           d="m 23.439,189.002 c -1.117,0.595 -2.181,1.252 -3.204,1.955 49.803,12.038 110.22,9.005 161.174,1.236 -1.131,-0.854 -2.354,-1.625 -3.673,-2.303 -48.73,8.216 -106.674,11.927 -154.297,-0.888 z"
           stroke-width="none"
           inkscape:connector-curvature="0"
           style="opacity:1;fill:#101a1f;stroke:none" />
        <path
           id="SvgjsPath4825"
           d="m 181.629,188.306 c -89.42,12.081 -124.385,7.031 -161.52,-0.891 -13.279,5.312 -17.9,21.352 -17.9,35.71 0.17,0 0.33,0 0.49,0 105.661,1.193 182.323,-0.04 193.91,-0.04 -1.1,-16.833 -1.293,-27.764 -14.98,-34.779 z m -161.39,-0.181 c 49.132,14.134 109.964,10.021 160.36,1.28 1,0.591 1.992,1.079 3.67,2.35 -52.607,8.26 -115.869,11.615 -167.18,-1.569 1,-0.76 2.06,-1.441 3.15,-2.061 z m -17.47,34.48 c 1.961,-14.393 4.62,-24.719 13.97,-32.15 50.694,14.553 116.182,11.469 168.26,1.86 8.309,6.651 7.884,13.707 11.01,30.32 -55.042,-0.613 -127.613,-0.788 -193.24,-0.03 z"
           stroke-width="none"
           inkscape:connector-curvature="0"
           style="opacity:1;fill:#000000;stroke:none" />
      </g>
      <g
         id="svga-group-head">
        <g
           id="svga-group-ears-left">
          <path
             id="SvgjsPath4828"
             d="m 47.218,82.634 c -0.967,-2.31 -8.082,-5.576 -11.21,-5.06 -3.538,0.583 -4.838,4.047 -4.369,6.612 1.103,6.025 3.996,8.563 5.296,13.268 1.096,3.97 3.433,6.253 4.588,7.938 1.42,2.07 2.73,6.818 3.023,7.512 0.463,1.096 2.103,3.757 5.002,3.619 3.333,-0.16 7.545,-6.211 7.614,-7.557 0.382,-7.287 -7.429,-20.319 -9.944,-26.332 z"
             inkscape:connector-curvature="0"
             style="opacity:1;fill:#ffd0bc;stroke:#d17f5b;stroke-width:1.5" />
          <path
             id="SvgjsPath4829"
             d="m 47.953,107.204 c 0,0 0.429,-0.995 -0.094,-1.879 -0.672,-1.134 -2.423,-3.219 -2.821,-4.467 -0.325,-1.021 -0.16,-3.2 -0.213,-4.266 -0.094,-1.886 -1.492,-3.177 -1.927,-4.26 -2.914,-7.238 -6.792,-11.723 -9,-12.656 -1.633,3.705 -0.339,6.416 1.94,12.116 -1.375,-7.748 -0.054,-10.17 -0.054,-10.17 0,0 4.019,3.22 6.002,10.378 0.359,1.292 -1.111,3.988 -0.83,5.299 0.352,1.646 4.184,4.83 5.257,6.163 0.836,1.038 1.74,3.742 1.74,3.742 z"
             stroke-width="none"
             inkscape:connector-curvature="0"
             style="opacity:1;fill:#d17f5b" />
        </g>
        <g
           id="svga-group-ears-right">
          <path
             id="SvgjsPath4830"
             d="m 152.52,82.634 c 0.967,-2.31 8.082,-5.576 11.211,-5.06 3.539,0.583 4.838,4.047 4.369,6.612 -1.104,6.025 -3.996,8.563 -5.297,13.268 -1.096,3.97 -3.434,6.253 -4.588,7.938 -1.42,2.07 -2.73,6.818 -3.023,7.512 -0.463,1.096 -2.104,3.757 -5.002,3.619 -3.332,-0.16 -7.545,-6.211 -7.613,-7.557 -0.384,-7.287 7.429,-20.319 9.943,-26.332 z"
             inkscape:connector-curvature="0"
             style="opacity:1;fill:#ffd0bc;stroke:#d17f5b;stroke-width:1.5" />
          <path
             id="SvgjsPath4831"
             d="m 151.785,107.204 c 0,0 -0.43,-0.995 0.094,-1.879 0.672,-1.134 2.424,-3.219 2.82,-4.467 0.324,-1.021 0.16,-3.2 0.215,-4.266 0.094,-1.886 1.49,-3.177 1.926,-4.26 2.914,-7.238 6.793,-11.723 9,-12.656 1.633,3.705 0.338,6.416 -1.939,12.116 1.375,-7.748 0.053,-10.17 0.053,-10.17 0,0 -4.018,3.219 -6.002,10.376 -0.357,1.292 1.111,3.988 0.83,5.299 -0.352,1.646 -4.184,4.83 -5.256,6.163 -0.837,1.04 -1.741,3.744 -1.741,3.744 z"
             stroke-width="none"
             inkscape:connector-curvature="0"
             style="opacity:1;fill:#d17f5b" />
        </g>
        <g
           id="svga-group-faceshape-wrap">
          <g
             id="svga-group-faceshape-single">
            <path
               id="SvgjsPath4452"
               d="m 144.004,125.052 c -6.87,10.737 -23.072,30.026 -34.468,34.218 -4.474,1.646 -14.594,1.646 -19.067,0 C 79.073,155.078 62.873,135.789 56.002,125.052 49.249,114.501 41.15,77.249 41.139,77.196 39.839,72.284 39.143,67.13 39.135,61.814 39.082,28.339 66.289,1.168 99.907,1.116 c 33.621,-0.052 60.913,27.032 60.963,60.506 0.009,5.316 -0.669,10.473 -1.952,15.389 -0.017,0.052 -8.138,37.449 -14.914,48.041 z"
               stroke-width="none"
               inkscape:connector-curvature="0"
               style="opacity:1;fill:#ffd0bc;stroke:none" />
            <path
               id="SvgjsPath4453"
               d="m 110.152,1.969 c 26.994,6.24 47.097,30.337 47.052,59.111 -0.009,5.315 -0.704,10.471 -2.004,15.382 -0.012,0.053 -7.377,37.307 -14.13,47.856 -6.872,10.735 -22.339,29.292 -33.734,33.484 -1.476,0.544 -5.027,1.092 -7.334,1.092 -2.307,0 -5.857,-0.548 -7.333,-1.092 C 81.273,153.61 65.806,135.053 58.935,124.318 52.182,113.768 44.816,76.515 44.805,76.462 43.505,71.551 42.809,66.396 42.801,61.08 42.756,32.307 62.857,8.209 89.853,1.969 61.03,6.788 39.087,31.751 39.134,61.813 c 0.008,5.315 0.704,10.47 2.004,15.382 0.012,0.053 8.11,37.306 14.863,47.856 6.871,10.736 23.072,30.025 34.467,34.218 2.239,0.824 5.889,1.235 9.537,1.232 3.646,0.001 7.292,-0.408 9.53,-1.232 11.396,-4.192 27.596,-23.481 34.468,-34.218 6.753,-10.551 14.852,-47.803 14.862,-47.856 1.3,-4.912 1.996,-10.066 2.004,-15.382 C 160.918,31.751 138.975,6.788 110.152,1.969 Z"
               stroke-width="none"
               inkscape:connector-curvature="0"
               style="opacity:1;fill:#f7c1aa;stroke:none" />
            <path
               id="SvgjsPath4454"
               d="m 144.004,125.052 c -6.87,10.737 -23.072,30.026 -34.468,34.218 -4.474,1.646 -14.594,1.646 -19.067,0 C 79.073,155.078 62.873,135.789 56.002,125.052 49.249,114.501 41.15,77.249 41.139,77.196 39.839,72.284 39.143,67.13 39.135,61.814 39.082,28.339 66.289,1.168 99.907,1.116 c 33.621,-0.052 60.913,27.032 60.963,60.506 0.009,5.316 -0.669,10.473 -1.952,15.389 -0.017,0.052 -8.138,37.449 -14.914,48.041 z"
               inkscape:connector-curvature="0"
               style="opacity:1;fill:none;stroke:#d17f5b;stroke-width:1.5" />
          </g>
        </g>
        <g
           id="svga-group-mouth-single">
          <path
             id="SvgjsPath4954"
             d="m 94.859,136.427 c 0.259,0.002 11.018,-0.099 11.018,-0.099 0,0 -3.174,0.714 -5.865,0.688 -2.324,-0.019 -5.153,-0.589 -5.153,-0.589 z"
             stroke-width="none"
             inkscape:connector-curvature="0"
             style="opacity:1;fill:#f0b399" />
          <path
             id="SvgjsPath4955"
             d="m 86.537,134.998 c -0.649,-0.642 3.796,-2.875 5.987,-3.547 2.769,-0.882 5.481,-0.17 8.3,-0.383 2.571,-0.195 4.901,-0.735 7.421,0.076 2.277,0.733 6.579,3.048 6.292,3.601 -0.289,0.558 -4.189,-1.703 -6.378,-2.18 -2.508,-0.534 -4.781,0.241 -7.28,0.488 -2.558,0.254 -5.083,-0.713 -7.64,-0.307 -2.319,0.368 -6.345,2.605 -6.702,2.252 z"
             stroke-width="none"
             inkscape:connector-curvature="0"
             style="opacity:1;fill:#d17f5b" />
        </g>
        <g
           id="svga-group-eyes-left">
          <g
             id="svga-group-eyesback-left">
            <path
               id="SvgjsPath4670"
               d="m 61.952,84.523 c -0.506,-2.285 5.191,-3.973 12.711,-3.051 7.518,0.923 12.738,5.524 12.052,7.844 -0.38,1.286 -10.639,3.245 -14.253,2.847 -3.664,-0.405 -9.288,-2.123 -10.51,-7.64 z"
               inkscape:connector-curvature="0"
               style="opacity:1;fill:url(#SvgjsRadialGradient4671)" />
          </g>
          <g
             id="svga-group-eyesiriswrapper-left"
             transform="translate(-0.75,-0.5)">
            <g
               id="svga-group-eyesiriscontrol-left">
              <g
                 id="svga-group-eyesiris-left">
                <path
                   id="SvgjsPath4624"
                   d="m 83.5,87 c 0,4.694 -3.806,8.5 -8.499,8.5 C 70.307,95.5 66.5,91.694 66.5,87 l 0,0 c 0,-4.694 3.807,-8.5 8.501,-8.5 4.693,-0.001 8.499,3.805 8.499,8.5 l 0,0 z"
                   stroke-width="none"
                   inkscape:connector-curvature="0"
                   style="opacity:1;fill:#681711" />
                <path
                   id="SvgjsPath4625"
                   d="m 74.048,78.595 c -0.033,0.004 -0.066,0.008 -0.101,0.012 0.041,0.191 0.081,0.384 0.12,0.575 -0.007,-0.195 -0.012,-0.393 -0.019,-0.587 z m 0.018,0.585 c 0.099,2.793 0.262,5.282 0.732,6.183 0.249,-0.986 -0.173,-3.443 -0.732,-6.183 z m 0.734,6.185 c -0.061,0.236 -0.153,0.397 -0.294,0.452 -0.142,0.053 -0.319,-0.008 -0.521,-0.146 0.058,0.236 0.052,0.422 -0.051,0.537 -0.102,0.114 -0.285,0.142 -0.527,0.11 0.16,0.184 0.242,0.353 0.206,0.5 -0.039,0.148 -0.189,0.258 -0.415,0.343 0.225,0.088 0.376,0.199 0.411,0.347 0.036,0.148 -0.046,0.315 -0.205,0.498 0.241,-0.029 0.426,0.001 0.525,0.115 0.101,0.114 0.106,0.301 0.05,0.537 0.199,-0.137 0.376,-0.197 0.518,-0.142 0.143,0.053 0.234,0.216 0.291,0.454 0.114,-0.215 0.243,-0.353 0.396,-0.368 0.148,-0.02 0.307,0.084 0.466,0.267 0.002,-0.244 0.053,-0.423 0.181,-0.51 0.124,-0.086 0.311,-0.069 0.537,0.018 -0.11,-0.216 -0.148,-0.398 -0.078,-0.534 0.071,-0.135 0.245,-0.207 0.487,-0.235 -0.199,-0.14 -0.321,-0.283 -0.318,-0.436 -0.001,-0.153 0.119,-0.296 0.321,-0.434 -0.241,-0.03 -0.412,-0.103 -0.484,-0.237 -0.07,-0.135 -0.031,-0.319 0.081,-0.535 -0.229,0.085 -0.413,0.102 -0.538,0.016 -0.126,-0.086 -0.177,-0.267 -0.178,-0.51 -0.158,0.182 -0.316,0.282 -0.468,0.262 -0.152,-0.02 -0.282,-0.154 -0.393,-0.369 z m 0.86,0.106 c 0.679,-0.758 1.446,-3.13 2.224,-5.813 -1.21,2.516 -2.222,4.795 -2.224,5.813 z m 2.223,-5.814 c 0.085,-0.172 0.172,-0.348 0.253,-0.524 -0.03,-0.011 -0.06,-0.024 -0.09,-0.037 -0.054,0.188 -0.108,0.376 -0.163,0.561 z m -1.506,6.308 c 0.953,-0.357 2.736,-2.101 4.671,-4.115 -2.24,1.667 -4.197,3.215 -4.671,4.115 z m 4.671,-4.114 c 0.142,-0.106 0.287,-0.213 0.433,-0.318 -0.021,-0.025 -0.043,-0.047 -0.06,-0.07 -0.124,0.127 -0.247,0.259 -0.373,0.388 z m -4.271,4.887 c 1.01,0.125 3.399,-0.591 6.052,-1.475 -2.761,0.435 -5.212,0.896 -6.052,1.475 z m 6.052,-1.475 c 0.156,-0.022 0.318,-0.048 0.478,-0.073 -0.007,-0.026 -0.013,-0.054 -0.02,-0.081 -0.152,0.051 -0.308,0.103 -0.458,0.154 z m -6.054,2.343 c 0.836,0.583 3.284,1.057 6.038,1.505 -2.642,-0.897 -5.027,-1.627 -6.038,-1.505 z m 6.038,1.505 c 0.135,0.047 0.271,0.095 0.404,0.138 0.007,-0.024 0.013,-0.047 0.018,-0.071 -0.137,-0.02 -0.281,-0.043 -0.422,-0.067 z m -6.446,-0.736 c 0.471,0.902 2.42,2.462 4.649,4.142 -1.924,-2.025 -3.696,-3.78 -4.649,-4.142 z m 4.651,4.139 c 0.083,0.087 0.17,0.179 0.253,0.268 0.014,-0.017 0.027,-0.031 0.043,-0.046 -0.099,-0.074 -0.201,-0.149 -0.296,-0.222 z m -5.366,-3.647 c -0.004,1.019 0.995,3.302 2.191,5.827 -0.764,-2.688 -1.516,-5.066 -2.191,-5.827 z m 2.192,5.827 c 0.03,0.106 0.062,0.215 0.09,0.324 0.021,-0.008 0.036,-0.015 0.055,-0.02 -0.048,-0.102 -0.097,-0.205 -0.145,-0.304 z m -3.056,-5.726 c -0.476,0.902 -0.653,3.386 -0.768,6.178 0.574,-2.733 1.011,-5.188 0.768,-6.178 z m -0.767,6.178 c -0.023,0.106 -0.044,0.214 -0.066,0.323 0.02,0.004 0.035,0.005 0.055,0.007 0.003,-0.108 0.008,-0.222 0.011,-0.33 z m -0.042,-6.489 c -0.844,0.576 -2.154,2.697 -3.553,5.114 1.778,-2.154 3.307,-4.126 3.553,-5.114 z m -3.552,5.114 c -0.074,0.09 -0.152,0.185 -0.229,0.274 0.018,0.012 0.034,0.02 0.053,0.034 0.058,-0.103 0.118,-0.206 0.176,-0.308 z m 2.978,-5.765 c -1.015,0.119 -3.16,1.385 -5.522,2.875 2.577,-1.08 4.843,-2.113 5.522,-2.875 z m -5.522,2.878 c -0.122,0.051 -0.247,0.102 -0.372,0.156 0.009,0.019 0.021,0.038 0.033,0.057 0.114,-0.07 0.227,-0.143 0.339,-0.213 z m 5.315,-3.723 c -0.951,-0.365 -3.441,-0.238 -6.227,-0.016 2.784,0.238 5.273,0.376 6.227,0.016 z m -6.226,-0.016 c -0.151,-0.014 -0.308,-0.028 -0.457,-0.041 -0.001,0.027 -0.003,0.053 -0.001,0.08 0.155,-0.015 0.308,-0.028 0.458,-0.039 z m 6.435,-0.827 c -0.67,-0.763 -2.932,-1.809 -5.499,-2.905 2.351,1.502 4.489,2.783 5.499,2.905 z m -5.499,-2.905 c -0.147,-0.095 -0.297,-0.189 -0.446,-0.285 -0.013,0.026 -0.026,0.053 -0.041,0.078 0.164,0.07 0.329,0.138 0.487,0.207 z m 6.077,2.257 c -0.239,-0.989 -1.758,-2.967 -3.521,-5.132 1.385,2.425 2.683,4.552 3.521,5.132 z m -3.52,-5.132 c -0.095,-0.163 -0.188,-0.329 -0.281,-0.494 -0.026,0.018 -0.055,0.037 -0.079,0.054 0.119,0.147 0.243,0.295 0.36,0.44 z"
                   inkscape:connector-curvature="0"
                   style="opacity:1;fill:url(#SvgjsRadialGradient4626)" />
                <path
                   id="SvgjsPath4629"
                   d="m 76.255,78.622 c -0.034,-0.004 -0.066,-0.01 -0.1,-0.014 -0.011,0.196 -0.022,0.393 -0.034,0.586 0.043,-0.19 0.09,-0.382 0.134,-0.572 z m -0.135,0.571 c -0.627,2.724 -1.114,5.17 -0.892,6.162 0.496,-0.888 0.722,-3.371 0.892,-6.162 z m -0.891,6.163 c -0.119,0.212 -0.25,0.344 -0.401,0.36 -0.15,0.014 -0.306,-0.091 -0.464,-0.276 -0.006,0.243 -0.06,0.421 -0.188,0.505 -0.128,0.083 -0.313,0.063 -0.539,-0.03 0.107,0.219 0.143,0.403 0.069,0.536 -0.075,0.133 -0.249,0.201 -0.489,0.224 0.194,0.144 0.312,0.289 0.308,0.441 -0.003,0.152 -0.126,0.292 -0.327,0.428 0.24,0.034 0.41,0.111 0.478,0.247 0.067,0.136 0.025,0.318 -0.091,0.532 0.229,-0.081 0.414,-0.093 0.537,-0.003 0.123,0.088 0.17,0.27 0.164,0.514 0.166,-0.177 0.325,-0.278 0.478,-0.253 0.148,0.02 0.274,0.16 0.382,0.379 0.064,-0.236 0.16,-0.396 0.306,-0.447 0.143,-0.051 0.318,0.014 0.515,0.157 -0.051,-0.237 -0.041,-0.423 0.063,-0.536 0.104,-0.113 0.29,-0.136 0.532,-0.102 -0.157,-0.187 -0.238,-0.356 -0.195,-0.504 0.039,-0.148 0.192,-0.255 0.423,-0.336 -0.226,-0.091 -0.372,-0.206 -0.407,-0.354 -0.032,-0.149 0.053,-0.316 0.218,-0.495 -0.243,0.023 -0.427,-0.009 -0.524,-0.125 -0.099,-0.115 -0.102,-0.303 -0.039,-0.538 -0.201,0.134 -0.38,0.19 -0.521,0.132 -0.147,-0.056 -0.236,-0.219 -0.288,-0.456 z m 0.804,0.327 c 0.852,-0.558 2.206,-2.65 3.652,-5.04 -1.82,2.117 -3.387,4.056 -3.652,5.04 z m 3.652,-5.042 c 0.126,-0.145 0.255,-0.292 0.38,-0.44 -0.027,-0.019 -0.052,-0.04 -0.078,-0.06 -0.101,0.169 -0.202,0.336 -0.302,0.5 z m -3.088,5.704 c 1.013,-0.099 3.187,-1.322 5.577,-2.767 -2.596,1.031 -4.887,2.02 -5.577,2.767 z m 5.576,-2.766 c 0.165,-0.065 0.333,-0.131 0.501,-0.195 -0.014,-0.029 -0.029,-0.056 -0.04,-0.083 -0.153,0.091 -0.306,0.186 -0.461,0.278 z m -5.39,3.615 c 0.943,0.382 3.437,0.309 6.227,0.142 -2.779,-0.294 -5.265,-0.483 -6.227,-0.142 z m 6.227,0.142 c 0.158,0.019 0.32,0.036 0.48,0.053 0.001,-0.027 0.002,-0.055 0.003,-0.083 -0.161,0.01 -0.325,0.02 -0.483,0.03 z m -6.452,0.697 c 0.655,0.78 2.898,1.871 5.442,3.017 -2.321,-1.551 -4.435,-2.873 -5.442,-3.017 z M 82,91.049 c 0.117,0.08 0.236,0.161 0.354,0.238 0.013,-0.021 0.024,-0.042 0.035,-0.063 C 82.262,91.168 82.129,91.109 82,91.049 Z M 75.964,88.67 c 0.221,0.993 1.699,3.004 3.419,5.205 -1.335,-2.456 -2.592,-4.609 -3.419,-5.205 z m 3.42,5.202 c 0.059,0.106 0.117,0.217 0.176,0.325 0.018,-0.013 0.034,-0.023 0.053,-0.034 -0.077,-0.098 -0.155,-0.196 -0.229,-0.291 z M 75.146,88.96 c -0.267,0.982 0.107,3.447 0.608,6.195 -0.043,-2.794 -0.153,-5.285 -0.608,-6.195 z m 0.608,6.195 c 0.002,0.11 0.004,0.224 0.004,0.337 0.021,-0.003 0.038,-0.005 0.058,-0.005 -0.02,-0.111 -0.041,-0.223 -0.062,-0.332 z m -1.469,-6.321 c -0.693,0.748 -1.508,3.102 -2.341,5.769 1.261,-2.493 2.321,-4.75 2.341,-5.769 z m -2.341,5.769 c -0.05,0.096 -0.099,0.195 -0.147,0.295 0.017,0.008 0.032,0.013 0.051,0.021 0.031,-0.104 0.065,-0.212 0.096,-0.316 z m 1.64,-6.279 c -0.964,0.338 -2.779,2.048 -4.756,4.021 2.276,-1.621 4.263,-3.13 4.756,-4.021 z m -4.756,4.021 c -0.095,0.067 -0.194,0.138 -0.29,0.206 0.014,0.016 0.027,0.028 0.041,0.045 0.082,-0.085 0.167,-0.168 0.249,-0.251 z m 4.369,-4.799 c -1.01,-0.148 -3.409,0.521 -6.078,1.349 2.77,-0.377 5.226,-0.789 6.078,-1.349 z m -6.078,1.351 c -0.131,0.018 -0.265,0.034 -0.4,0.054 0.005,0.021 0.011,0.042 0.018,0.063 0.128,-0.037 0.256,-0.078 0.382,-0.117 z m 6.098,-2.22 c -0.824,-0.599 -3.263,-1.121 -6.01,-1.627 2.626,0.95 4.995,1.727 6.01,1.627 z m -6.01,-1.627 c -0.143,-0.052 -0.29,-0.106 -0.432,-0.158 -0.008,0.026 -0.016,0.051 -0.021,0.077 0.153,0.026 0.306,0.053 0.453,0.081 z m 6.43,0.867 c -0.45,-0.911 -2.363,-2.506 -4.561,-4.23 1.883,2.06 3.617,3.851 4.561,4.23 z m -4.561,-4.229 c -0.118,-0.13 -0.236,-0.26 -0.355,-0.391 -0.021,0.022 -0.041,0.044 -0.061,0.065 0.14,0.109 0.281,0.218 0.416,0.326 z m 5.287,3.752 c 0.024,-1.017 -0.93,-3.321 -2.073,-5.868 0.709,2.701 1.414,5.091 2.073,5.868 z M 72.29,79.572 c -0.049,-0.182 -0.096,-0.366 -0.144,-0.55 -0.029,0.01 -0.062,0.021 -0.09,0.032 0.078,0.173 0.158,0.347 0.234,0.518 z"
                   inkscape:connector-curvature="0"
                   style="opacity:1;fill:url(#SvgjsRadialGradient4630)" />
                <path
                   id="SvgjsPath4633"
                   d="m 78.334,87 c 0,1.842 -1.492,3.333 -3.333,3.333 -1.841,0 -3.335,-1.492 -3.335,-3.333 0,-1.841 1.494,-3.334 3.335,-3.334 1.843,0 3.333,1.493 3.333,3.334 z"
                   stroke-width="none"
                   inkscape:connector-curvature="0"
                   style="opacity:1;fill:#681711" />
                <path
                   id="SvgjsPath4634"
                   d="m 78.334,87 c 0,1.842 -1.492,3.333 -3.333,3.333 -1.841,0 -3.335,-1.492 -3.335,-3.333 0,-1.841 1.494,-3.334 3.335,-3.334 1.843,0 3.333,1.493 3.333,3.334 z"
                   stroke-width="none"
                   inkscape:connector-curvature="0"
                   style="opacity:0.9;fill:#000000" />
                <path
                   id="SvgjsPath4635"
                   d="m 70.35,90.893 c 0.636,-0.427 1.5,-0.255 1.927,0.38 0.427,0.637 0.258,1.5 -0.379,1.927 -0.638,0.429 -1.5,0.258 -1.927,-0.378 -0.427,-0.637 -0.258,-1.502 0.379,-1.929 l 0,0 z"
                   inkscape:connector-curvature="0"
                   style="opacity:0.5;fill:url(#SvgjsLinearGradient4636)" />
                <path
                   id="SvgjsPath4639"
                   d="m 77.635,86.536 c -0.356,0.53 -1.373,0.468 -2.275,-0.136 -0.903,-0.605 -1.346,-1.526 -0.991,-2.055 l 0.001,-0.001 c 0.354,-0.53 1.372,-0.469 2.274,0.137 0.903,0.604 1.346,1.524 0.992,2.054 -10e-4,0.001 -10e-4,0.001 -10e-4,0.001 z"
                   inkscape:connector-curvature="0"
                   style="opacity:0.5;fill:url(#SvgjsLinearGradient4640)" />
                <path
                   id="SvgjsPath4643"
                   d="m 81.682,85.121 c -0.806,1.237 -2.884,1.31 -4.641,0.166 -1.756,-1.145 -2.527,-3.075 -1.722,-4.311 0.806,-1.235 2.884,-1.31 4.641,-0.166 1.755,1.146 2.525,3.077 1.722,4.311 l 0,0 z"
                   inkscape:connector-curvature="0"
                   style="opacity:0.75;fill:url(#SvgjsLinearGradient4644)" />
              </g>
            </g>
          </g>
          <g
             id="svga-group-eyesfront-left">
            <path
               id="SvgjsPath4692"
               d="m 55.5,88 c 0,13.807 8.06,24.999 18,24.999 9.94,0 18,-11.192 18,-24.999 0,-13.808 -8.06,-25 -18,-25 -9.94,0 -18,11.192 -18,25 z m 6.452,-3.477 c -0.506,-2.285 5.191,-3.973 12.711,-3.051 7.518,0.923 12.738,5.524 12.052,7.844 -0.38,1.286 -10.639,3.245 -14.253,2.847 -3.664,-0.405 -9.288,-2.123 -10.51,-7.64 z"
               stroke-width="none"
               inkscape:connector-curvature="0"
               style="opacity:1;fill:#ffd0bc" />
            <path
               id="SvgjsPath4693"
               d="m 72.462,92.163 c 3.614,0.398 13.873,-1.561 14.253,-2.847 0.687,-2.32 -4.534,-6.921 -12.052,-7.844 -6.46,-0.792 -11.563,0.345 -12.556,2.128 0.898,-6.4 7.7,-11.397 15.987,-11.434 8.911,-0.037 16.148,5.676 16.172,12.765 0.021,7.088 -7.185,12.862 -16.095,12.902 -8.913,0.037 -16.149,-5.676 -16.173,-12.764 0,-0.105 0.016,-0.208 0.019,-0.313 1.331,5.327 6.835,7.008 10.445,7.407 z"
               inkscape:connector-curvature="0"
               style="opacity:1;fill:url(#SvgjsRadialGradient4694)" />
            <path
               id="SvgjsPath4698"
               d="m 61.952,84.523 c -0.506,-2.285 5.191,-3.973 12.711,-3.051 7.518,0.923 12.738,5.524 12.052,7.844 -0.38,1.286 -10.639,3.245 -14.253,2.847 -3.664,-0.405 -9.288,-2.123 -10.51,-7.64 z"
               inkscape:connector-curvature="0"
               style="opacity:1;fill:url(#SvgjsRadialGradient4699)" />
            <path
               id="SvgjsPath4702"
               d="m 62.349,79.417 c 4.208,-1.978 9.35,-2.16 13.838,-1.005 2.404,0.561 4.965,1.285 7.063,2.638 1.945,1.135 3.525,2.5 5.002,4.19 -1.342,-1.701 -2.773,-3.118 -4.623,-4.27 -2.276,-1.416 -4.769,-2.294 -7.364,-2.916 -4.587,-1.126 -9.723,-0.87 -13.916,1.363 z"
               stroke-width="none"
               inkscape:connector-curvature="0"
               style="opacity:1;fill:#d17f5b" />
            <path
               id="SvgjsPath4703"
               d="m 57.318,80.972 c 0,0 2.328,0.881 3.595,0.62 -0.39,-0.459 -1.096,-1.604 -1.096,-1.604 0,0 1.853,0.551 3.151,0.032 0.88,-0.352 4.065,-1 5.456,-1.066 1.687,-0.082 5.073,0.125 6.735,0.424 3.374,0.608 8.985,2.63 11.678,7.184 0.255,0.572 1.407,0.921 1.407,0.921 0,0 -1.02,-0.215 -1.149,0.042 -0.282,0.561 1.298,2.016 1.496,2.197 -0.161,-0.145 -1.289,-1.135 -1.722,-0.967 -0.061,0.022 -0.137,0.388 -0.155,0.482 0.3,-2.426 -4.838,-6.746 -12.052,-7.604 -7.52,-0.894 -13.217,0.743 -12.711,2.958 1.222,5.348 6.846,7.013 10.51,7.405 2.526,0.271 8.298,-0.577 11.675,-1.537 l 1.011,-0.317 c -1.999,1.009 -7.524,2.195 -9.767,2.403 -0.744,0.07 -2.24,0.104 -2.986,0.085 -5.949,-0.158 -10.16,-3.179 -11.729,-7.26 -0.125,-0.328 -0.494,-0.619 -0.838,-0.696 -1.604,-0.361 -5.096,-1.811 -5.096,-1.811 2.32,0.361 3.483,0.674 5.305,0.059 -1.779,-0.666 -2.718,-1.95 -2.718,-1.95 z"
               stroke-width="none"
               inkscape:connector-curvature="0"
               style="opacity:1;fill:#000000" />
          </g>
        </g>
        <g
           id="svga-group-eyes-right">
          <g
             id="svga-group-eyesback-right">
            <path
               id="SvgjsPath4677"
               d="m 138.048,84.523 c 0.506,-2.285 -5.191,-3.973 -12.711,-3.051 -7.518,0.923 -12.738,5.524 -12.052,7.844 0.38,1.286 10.639,3.245 14.253,2.847 3.664,-0.405 9.288,-2.123 10.51,-7.64 z"
               inkscape:connector-curvature="0"
               style="opacity:1;fill:url(#SvgjsRadialGradient4678)" />
          </g>
          <g
             id="svga-group-eyesiriswrapper-right"
             transform="translate(0.75,-0.5)">
            <g
               id="svga-group-eyesiriscontrol-right">
              <g
                 id="svga-group-eyesiris-right">
                <path
                   id="SvgjsPath4647"
                   d="m 133.5,87 c 0,4.694 -3.806,8.5 -8.499,8.5 -4.694,0 -8.501,-3.806 -8.501,-8.5 l 0,0 c 0,-4.694 3.807,-8.5 8.501,-8.5 4.693,-0.001 8.499,3.805 8.499,8.5 l 0,0 z"
                   stroke-width="none"
                   inkscape:connector-curvature="0"
                   style="opacity:1;fill:#681711" />
                <path
                   id="SvgjsPath4648"
                   d="m 124.048,78.595 c -0.033,0.004 -0.066,0.008 -0.101,0.012 0.041,0.191 0.081,0.384 0.12,0.575 -0.007,-0.195 -0.012,-0.393 -0.019,-0.587 z m 0.018,0.585 c 0.099,2.793 0.262,5.282 0.732,6.183 0.249,-0.986 -0.173,-3.443 -0.732,-6.183 z m 0.734,6.185 c -0.061,0.236 -0.153,0.397 -0.294,0.452 -0.142,0.053 -0.319,-0.008 -0.521,-0.146 0.058,0.236 0.052,0.422 -0.051,0.537 -0.102,0.114 -0.285,0.142 -0.527,0.11 0.16,0.184 0.242,0.353 0.206,0.5 -0.039,0.148 -0.189,0.258 -0.415,0.343 0.225,0.088 0.376,0.199 0.411,0.347 0.036,0.148 -0.046,0.315 -0.205,0.498 0.241,-0.029 0.426,0.001 0.525,0.115 0.101,0.114 0.106,0.301 0.05,0.537 0.199,-0.137 0.376,-0.197 0.518,-0.142 0.143,0.053 0.234,0.216 0.291,0.454 0.114,-0.215 0.243,-0.353 0.396,-0.368 0.148,-0.02 0.307,0.084 0.466,0.267 0.002,-0.244 0.053,-0.423 0.181,-0.51 0.124,-0.086 0.311,-0.069 0.537,0.018 -0.11,-0.216 -0.148,-0.398 -0.078,-0.534 0.071,-0.135 0.245,-0.207 0.487,-0.235 -0.199,-0.14 -0.321,-0.283 -0.318,-0.436 -0.001,-0.153 0.119,-0.296 0.321,-0.434 -0.241,-0.03 -0.412,-0.103 -0.484,-0.237 -0.07,-0.135 -0.031,-0.319 0.081,-0.535 -0.229,0.085 -0.413,0.102 -0.538,0.016 -0.126,-0.086 -0.177,-0.267 -0.178,-0.51 -0.158,0.182 -0.316,0.282 -0.468,0.262 -0.152,-0.02 -0.282,-0.154 -0.393,-0.369 z m 0.86,0.106 c 0.679,-0.758 1.446,-3.13 2.224,-5.813 -1.21,2.516 -2.222,4.795 -2.224,5.813 z m 2.223,-5.814 c 0.085,-0.172 0.172,-0.348 0.253,-0.524 -0.03,-0.011 -0.06,-0.024 -0.09,-0.037 -0.054,0.188 -0.108,0.376 -0.163,0.561 z m -1.506,6.308 c 0.953,-0.357 2.736,-2.101 4.671,-4.115 -2.24,1.667 -4.197,3.215 -4.671,4.115 z m 4.671,-4.114 c 0.142,-0.106 0.287,-0.213 0.433,-0.318 -0.021,-0.025 -0.043,-0.047 -0.06,-0.07 -0.124,0.127 -0.247,0.259 -0.373,0.388 z m -4.271,4.887 c 1.01,0.125 3.399,-0.591 6.052,-1.475 -2.761,0.435 -5.212,0.896 -6.052,1.475 z m 6.052,-1.475 c 0.156,-0.022 0.318,-0.048 0.478,-0.073 -0.007,-0.026 -0.013,-0.054 -0.02,-0.081 -0.152,0.051 -0.308,0.103 -0.458,0.154 z m -6.054,2.343 c 0.836,0.583 3.284,1.057 6.038,1.505 -2.642,-0.897 -5.027,-1.627 -6.038,-1.505 z m 6.038,1.505 c 0.135,0.047 0.271,0.095 0.404,0.138 0.007,-0.024 0.013,-0.047 0.018,-0.071 -0.137,-0.02 -0.281,-0.043 -0.422,-0.067 z m -6.446,-0.736 c 0.471,0.902 2.42,2.462 4.649,4.142 -1.924,-2.025 -3.696,-3.78 -4.649,-4.142 z m 4.651,4.139 c 0.083,0.087 0.17,0.179 0.253,0.268 0.014,-0.017 0.027,-0.031 0.043,-0.046 -0.099,-0.074 -0.201,-0.149 -0.296,-0.222 z m -5.366,-3.647 c -0.004,1.019 0.995,3.302 2.191,5.827 -0.764,-2.688 -1.516,-5.066 -2.191,-5.827 z m 2.192,5.827 c 0.03,0.106 0.062,0.215 0.09,0.324 0.021,-0.008 0.036,-0.015 0.055,-0.02 -0.048,-0.102 -0.097,-0.205 -0.145,-0.304 z m -3.056,-5.726 c -0.476,0.902 -0.653,3.386 -0.768,6.178 0.574,-2.733 1.011,-5.188 0.768,-6.178 z m -0.767,6.178 c -0.023,0.106 -0.044,0.214 -0.066,0.323 0.02,0.004 0.035,0.005 0.055,0.007 0.003,-0.108 0.008,-0.222 0.011,-0.33 z m -0.042,-6.489 c -0.844,0.576 -2.154,2.697 -3.553,5.114 1.778,-2.154 3.307,-4.126 3.553,-5.114 z m -3.552,5.114 c -0.074,0.09 -0.152,0.185 -0.229,0.274 0.018,0.012 0.034,0.02 0.053,0.034 0.058,-0.103 0.118,-0.206 0.176,-0.308 z m 2.978,-5.765 c -1.015,0.119 -3.16,1.385 -5.522,2.875 2.577,-1.08 4.843,-2.113 5.522,-2.875 z m -5.522,2.878 c -0.122,0.051 -0.247,0.102 -0.372,0.156 0.009,0.019 0.021,0.038 0.033,0.057 0.114,-0.07 0.227,-0.143 0.339,-0.213 z m 5.315,-3.723 c -0.951,-0.365 -3.441,-0.238 -6.227,-0.016 2.784,0.238 5.273,0.376 6.227,0.016 z m -6.226,-0.016 c -0.151,-0.014 -0.308,-0.028 -0.457,-0.041 -0.001,0.027 -0.003,0.053 -0.001,0.08 0.155,-0.015 0.308,-0.028 0.458,-0.039 z m 6.435,-0.827 c -0.67,-0.763 -2.932,-1.809 -5.499,-2.905 2.351,1.502 4.489,2.783 5.499,2.905 z m -5.499,-2.905 c -0.147,-0.095 -0.297,-0.189 -0.446,-0.285 -0.013,0.026 -0.026,0.053 -0.041,0.078 0.164,0.07 0.329,0.138 0.487,0.207 z m 6.077,2.257 c -0.239,-0.989 -1.758,-2.967 -3.521,-5.132 1.385,2.425 2.683,4.552 3.521,5.132 z m -3.52,-5.132 c -0.095,-0.163 -0.188,-0.329 -0.281,-0.494 -0.026,0.018 -0.055,0.037 -0.079,0.054 0.119,0.147 0.243,0.295 0.36,0.44 z"
                   inkscape:connector-curvature="0"
                   style="opacity:1;fill:url(#SvgjsRadialGradient4649)" />
                <path
                   id="SvgjsPath4652"
                   d="m 126.255,78.622 c -0.034,-0.004 -0.066,-0.01 -0.1,-0.014 -0.011,0.196 -0.022,0.393 -0.034,0.586 0.043,-0.19 0.09,-0.382 0.134,-0.572 z m -0.135,0.571 c -0.627,2.724 -1.114,5.17 -0.892,6.162 0.496,-0.888 0.722,-3.371 0.892,-6.162 z m -0.891,6.163 c -0.119,0.212 -0.25,0.344 -0.401,0.36 -0.15,0.014 -0.306,-0.091 -0.464,-0.276 -0.006,0.243 -0.06,0.421 -0.188,0.505 -0.128,0.083 -0.313,0.063 -0.539,-0.03 0.107,0.219 0.143,0.403 0.069,0.536 -0.075,0.133 -0.249,0.201 -0.489,0.224 0.194,0.144 0.312,0.289 0.308,0.441 -0.003,0.152 -0.126,0.292 -0.327,0.428 0.24,0.034 0.41,0.111 0.478,0.247 0.067,0.136 0.025,0.318 -0.091,0.532 0.229,-0.081 0.414,-0.093 0.537,-0.003 0.123,0.088 0.17,0.27 0.164,0.514 0.166,-0.177 0.325,-0.278 0.478,-0.253 0.148,0.02 0.274,0.16 0.382,0.379 0.064,-0.236 0.16,-0.396 0.306,-0.447 0.143,-0.051 0.318,0.014 0.515,0.157 -0.051,-0.237 -0.041,-0.423 0.063,-0.536 0.104,-0.113 0.29,-0.136 0.532,-0.102 -0.157,-0.187 -0.238,-0.356 -0.195,-0.504 0.039,-0.148 0.192,-0.255 0.423,-0.336 -0.226,-0.091 -0.372,-0.206 -0.407,-0.354 -0.032,-0.149 0.053,-0.316 0.218,-0.495 -0.243,0.023 -0.427,-0.009 -0.524,-0.125 -0.099,-0.115 -0.102,-0.303 -0.039,-0.538 -0.201,0.134 -0.38,0.19 -0.521,0.132 -0.147,-0.056 -0.236,-0.219 -0.288,-0.456 z m 0.804,0.327 c 0.852,-0.558 2.206,-2.65 3.652,-5.04 -1.82,2.117 -3.387,4.056 -3.652,5.04 z m 3.652,-5.042 c 0.126,-0.145 0.255,-0.292 0.38,-0.44 -0.027,-0.019 -0.052,-0.04 -0.078,-0.06 -0.101,0.169 -0.202,0.336 -0.302,0.5 z m -3.088,5.704 c 1.013,-0.099 3.187,-1.322 5.577,-2.767 -2.596,1.031 -4.887,2.02 -5.577,2.767 z m 5.576,-2.766 c 0.165,-0.065 0.333,-0.131 0.501,-0.195 -0.014,-0.029 -0.029,-0.056 -0.04,-0.083 -0.153,0.091 -0.306,0.186 -0.461,0.278 z m -5.39,3.615 c 0.943,0.382 3.437,0.309 6.227,0.142 -2.779,-0.294 -5.265,-0.483 -6.227,-0.142 z m 6.227,0.142 c 0.158,0.019 0.32,0.036 0.48,0.053 0.001,-0.027 0.002,-0.055 0.003,-0.083 -0.161,0.01 -0.325,0.02 -0.483,0.03 z m -6.452,0.697 c 0.655,0.78 2.898,1.871 5.442,3.017 -2.321,-1.551 -4.435,-2.873 -5.442,-3.017 z M 132,91.049 c 0.117,0.08 0.236,0.161 0.354,0.238 0.013,-0.021 0.024,-0.042 0.035,-0.063 -0.127,-0.056 -0.26,-0.115 -0.389,-0.175 z m -6.036,-2.379 c 0.221,0.993 1.699,3.004 3.419,5.205 -1.335,-2.456 -2.592,-4.609 -3.419,-5.205 z m 3.42,5.202 c 0.059,0.106 0.117,0.217 0.176,0.325 0.018,-0.013 0.034,-0.023 0.053,-0.034 -0.077,-0.098 -0.155,-0.196 -0.229,-0.291 z m -4.238,-4.912 c -0.267,0.982 0.107,3.447 0.608,6.195 -0.043,-2.794 -0.153,-5.285 -0.608,-6.195 z m 0.608,6.195 c 0.002,0.11 0.004,0.224 0.004,0.337 0.021,-0.003 0.038,-0.005 0.058,-0.005 -0.02,-0.111 -0.041,-0.223 -0.062,-0.332 z m -1.469,-6.321 c -0.693,0.748 -1.508,3.102 -2.341,5.769 1.261,-2.493 2.321,-4.75 2.341,-5.769 z m -2.341,5.769 c -0.05,0.096 -0.099,0.195 -0.147,0.295 0.017,0.008 0.032,0.013 0.051,0.021 0.031,-0.104 0.065,-0.212 0.096,-0.316 z m 1.64,-6.279 c -0.964,0.338 -2.779,2.048 -4.756,4.021 2.276,-1.621 4.263,-3.13 4.756,-4.021 z m -4.756,4.021 c -0.095,0.067 -0.194,0.138 -0.29,0.206 0.014,0.016 0.027,0.028 0.041,0.045 0.082,-0.085 0.167,-0.168 0.249,-0.251 z m 4.369,-4.799 c -1.01,-0.148 -3.409,0.521 -6.078,1.349 2.77,-0.377 5.226,-0.789 6.078,-1.349 z m -6.078,1.351 c -0.131,0.018 -0.265,0.034 -0.4,0.054 0.005,0.021 0.011,0.042 0.018,0.063 0.128,-0.037 0.256,-0.078 0.382,-0.117 z m 6.098,-2.22 c -0.824,-0.599 -3.263,-1.121 -6.01,-1.627 2.626,0.95 4.995,1.727 6.01,1.627 z m -6.01,-1.627 c -0.143,-0.052 -0.29,-0.106 -0.432,-0.158 -0.008,0.026 -0.016,0.051 -0.021,0.077 0.153,0.026 0.306,0.053 0.453,0.081 z m 6.43,0.867 c -0.45,-0.911 -2.363,-2.506 -4.561,-4.23 1.883,2.06 3.617,3.851 4.561,4.23 z m -4.561,-4.229 c -0.118,-0.13 -0.236,-0.26 -0.355,-0.391 -0.021,0.022 -0.041,0.044 -0.061,0.065 0.14,0.109 0.281,0.218 0.416,0.326 z m 5.287,3.752 c 0.024,-1.017 -0.93,-3.321 -2.073,-5.868 0.709,2.701 1.414,5.091 2.073,5.868 z m -2.073,-5.868 c -0.049,-0.182 -0.096,-0.366 -0.144,-0.55 -0.029,0.01 -0.062,0.021 -0.09,0.032 0.078,0.173 0.158,0.347 0.234,0.518 z"
                   inkscape:connector-curvature="0"
                   style="opacity:1;fill:url(#SvgjsRadialGradient4653)" />
                <path
                   id="SvgjsPath4656"
                   d="m 128.334,87 c 0,1.842 -1.492,3.333 -3.333,3.333 -1.841,0 -3.335,-1.492 -3.335,-3.333 0,-1.841 1.494,-3.334 3.335,-3.334 1.843,0 3.333,1.493 3.333,3.334 z"
                   stroke-width="none"
                   inkscape:connector-curvature="0"
                   style="opacity:1;fill:#681711" />
                <path
                   id="SvgjsPath4657"
                   d="m 128.334,87 c 0,1.842 -1.492,3.333 -3.333,3.333 -1.841,0 -3.335,-1.492 -3.335,-3.333 0,-1.841 1.494,-3.334 3.335,-3.334 1.843,0 3.333,1.493 3.333,3.334 z"
                   stroke-width="none"
                   inkscape:connector-curvature="0"
                   style="opacity:0.9;fill:#000000" />
                <path
                   id="SvgjsPath4658"
                   d="m 120.35,90.893 c 0.636,-0.427 1.5,-0.255 1.927,0.38 0.427,0.637 0.258,1.5 -0.379,1.927 -0.638,0.429 -1.5,0.258 -1.927,-0.378 -0.427,-0.637 -0.258,-1.502 0.379,-1.929 l 0,0 z"
                   inkscape:connector-curvature="0"
                   style="opacity:0.5;fill:url(#SvgjsLinearGradient4659)" />
                <path
                   id="SvgjsPath4662"
                   d="m 127.635,86.536 c -0.356,0.53 -1.373,0.468 -2.275,-0.136 -0.903,-0.605 -1.346,-1.526 -0.991,-2.055 l 0.001,-0.001 c 0.354,-0.53 1.372,-0.469 2.274,0.137 0.903,0.604 1.346,1.524 0.992,2.054 -10e-4,0.001 -10e-4,0.001 -10e-4,0.001 z"
                   inkscape:connector-curvature="0"
                   style="opacity:0.5;fill:url(#SvgjsLinearGradient4663)" />
                <path
                   id="SvgjsPath4666"
                   d="m 131.682,85.121 c -0.806,1.237 -2.884,1.31 -4.641,0.166 -1.756,-1.145 -2.527,-3.075 -1.722,-4.311 0.806,-1.235 2.884,-1.31 4.641,-0.166 1.755,1.146 2.525,3.077 1.722,4.311 l 0,0 z"
                   inkscape:connector-curvature="0"
                   style="opacity:0.75;fill:url(#SvgjsLinearGradient4667)" />
              </g>
            </g>
          </g>
          <g
             id="svga-group-eyesfront-right">
            <path
               id="SvgjsPath4712"
               d="m 126.5,63 c -9.94,0 -18,11.192 -18,25 0,13.807 8.06,24.999 18,24.999 9.94,0 18,-11.192 18,-24.999 0,-13.808 -8.06,-25 -18,-25 z m 1.038,29.163 c -3.614,0.398 -13.873,-1.561 -14.253,-2.847 -0.687,-2.32 4.534,-6.921 12.052,-7.844 7.52,-0.922 13.217,0.767 12.711,3.051 -1.222,5.517 -6.846,7.235 -10.51,7.64 z"
               stroke-width="none"
               inkscape:connector-curvature="0"
               style="opacity:1;fill:#ffd0bc" />
            <path
               id="SvgjsPath4713"
               d="m 127.538,92.163 c -3.614,0.398 -13.873,-1.561 -14.253,-2.847 -0.687,-2.32 4.534,-6.921 12.052,-7.844 6.46,-0.792 11.563,0.345 12.556,2.128 -0.898,-6.4 -7.7,-11.397 -15.987,-11.434 -8.911,-0.037 -16.148,5.676 -16.172,12.765 -0.021,7.088 7.185,12.862 16.095,12.902 8.913,0.037 16.149,-5.676 16.173,-12.764 0,-0.105 -0.016,-0.208 -0.019,-0.313 -1.331,5.327 -6.835,7.008 -10.445,7.407 z"
               inkscape:connector-curvature="0"
               style="opacity:1;fill:url(#SvgjsRadialGradient4714)" />
            <path
               id="SvgjsPath4718"
               d="m 138.048,84.523 c 0.506,-2.285 -5.191,-3.973 -12.711,-3.051 -7.518,0.923 -12.738,5.524 -12.052,7.844 0.38,1.286 10.639,3.245 14.253,2.847 3.664,-0.405 9.288,-2.123 10.51,-7.64 z"
               inkscape:connector-curvature="0"
               style="opacity:1;fill:url(#SvgjsRadialGradient4719)" />
            <path
               id="SvgjsPath4722"
               d="m 137.651,79.417 c -4.208,-1.978 -9.35,-2.16 -13.838,-1.005 -2.404,0.561 -4.965,1.285 -7.063,2.638 -1.945,1.135 -3.525,2.5 -5.002,4.19 1.342,-1.701 2.773,-3.118 4.623,-4.27 2.276,-1.416 4.769,-2.294 7.364,-2.916 4.587,-1.126 9.723,-0.87 13.916,1.363 z"
               stroke-width="none"
               inkscape:connector-curvature="0"
               style="opacity:1;fill:#d17f5b" />
            <path
               id="SvgjsPath4723"
               d="m 142.682,80.972 c 0,0 -2.328,0.881 -3.595,0.62 0.39,-0.459 1.096,-1.604 1.096,-1.604 0,0 -1.853,0.551 -3.151,0.032 -0.88,-0.352 -4.065,-1 -5.456,-1.066 -1.687,-0.082 -5.073,0.125 -6.735,0.424 -3.374,0.608 -8.985,2.63 -11.678,7.184 -0.255,0.572 -1.407,0.921 -1.407,0.921 0,0 1.02,-0.215 1.149,0.042 0.282,0.561 -1.298,2.016 -1.496,2.197 0.161,-0.145 1.289,-1.135 1.722,-0.967 0.061,0.022 0.137,0.388 0.155,0.482 -0.3,-2.426 4.838,-6.746 12.052,-7.604 7.52,-0.894 13.217,0.743 12.711,2.958 -1.222,5.348 -6.846,7.013 -10.51,7.405 -2.526,0.271 -8.298,-0.577 -11.675,-1.537 l -1.011,-0.317 c 1.999,1.009 7.524,2.195 9.767,2.403 0.744,0.07 2.24,0.104 2.986,0.085 5.949,-0.158 10.16,-3.179 11.729,-7.26 0.125,-0.328 0.494,-0.619 0.838,-0.696 1.604,-0.361 5.096,-1.811 5.096,-1.811 -2.32,0.361 -3.483,0.674 -5.305,0.059 1.779,-0.666 2.718,-1.95 2.718,-1.95 z"
               stroke-width="none"
               inkscape:connector-curvature="0"
               style="opacity:1;fill:#000000" />
          </g>
        </g>
        <g
           id="svga-group-facehighlight-single">
          <path
             id="SvgjsPath2753"
             d="m 140.204,113.007 c 0.035,22.275 -17.995,40.365 -40.273,40.396 C 77.657,153.439 59.57,135.41 59.535,113.131 59.501,90.857 77.53,72.77 99.808,72.735 c 22.275,-0.034 40.363,17.995 40.396,40.272 z"
             inkscape:connector-curvature="0"
             style="opacity:1;fill:url(#SvgjsRadialGradient2754)" />
          <path
             id="SvgjsPath2757"
             d="m 135,55.999 c 0,19.329 -15.671,35 -35,35 -19.329,0 -35,-15.671 -35,-35 0,-19.329 15.671,-35 35,-35 19.329,0 35,15.671 35,35 z"
             inkscape:connector-curvature="0"
             style="opacity:1;fill:url(#SvgjsRadialGradient2758)" />
        </g>
        <g
           id="svga-group-eyebrows-left"
           transform="translate(-3.0000003,4.0000003)">
          <path
             id="SvgjsPath5000"
             d="M 93.3,76.245 C 84.124,73.156 80.487,70.191 72.571,67.51 66.061,65.304 59.229,64.897 52.5,66.17 c 8.225,0.782 11.916,0.809 20.316,3.833 6.808,2.452 13.154,5.907 20.484,6.242 z"
             stroke-width="none"
             inkscape:connector-curvature="0"
             style="opacity:1;fill:#a46c47" />
        </g>
        <g
           id="svga-group-eyebrows-right"
           transform="translate(3.0000003,4.0000003)">
          <path
             id="SvgjsPath5001"
             d="m 106.5,76.545 c 9.176,-3.089 13.013,-6.354 20.929,-9.035 6.51,-2.206 13.342,-2.613 20.071,-1.34 -8.225,0.782 -11.916,0.809 -20.316,3.833 -6.808,2.452 -13.354,6.207 -20.684,6.542 z"
             stroke-width="none"
             inkscape:connector-curvature="0"
             style="opacity:1;fill:#a46c47" />
        </g>
        <g
           id="svga-group-nose-single">
          <path
             id="SvgjsPath4490"
             d="m 99.044,91.436 c 0,0 -0.827,19.066 -0.713,23.254 0.032,1.188 2.32,4.304 2.164,6.575 0,0 -4.462,-0.325 -5.914,-0.838 -1.519,-0.538 -3.869,-1.588 -2.94,-4.521 1.323,-4.171 7.403,-24.47 7.403,-24.47 z"
             stroke-width="none"
             inkscape:connector-curvature="0"
             style="opacity:1;fill:#f0b399;stroke:none" />
          <path
             id="SvgjsPath4491"
             d="m 98.627,119.026 c 0,0 -1.851,-0.657 -3.02,-0.624 -1.064,0.033 -1.218,-0.676 -1.11,-1.079 0.108,-0.403 0.473,-0.654 1.501,-0.38 1.029,0.276 2.629,2.083 2.629,2.083 z m 2.755,0.002 c 0,0 1.847,-0.609 3.02,-0.622 1.064,-0.013 1.219,-0.677 1.11,-1.079 -0.108,-0.404 -0.473,-0.657 -1.501,-0.383 -1.029,0.278 -2.629,2.084 -2.629,2.084 z"
             stroke-width="none"
             inkscape:connector-curvature="0"
             style="opacity:1;fill:#d17f5b;stroke:none" />
        </g>
        <g
           id="svga-group-hair-front">
          <path
             id="SvgjsPath4958"
             d="m 151.686,97.871 c 0,-11.927 -0.214,-18.574 -3.512,-30.116 -1.318,-4.613 -5.302,-8.946 -8.959,-13.721 -3.451,-4.509 -6.078,-10.609 -9.096,-16.049 -5.616,3.104 -11.944,5.362 -20.059,6.589 -4.189,0.633 -9.402,1.421 -15.795,2.708 C 71.786,51.797 49.403,59.715 46.839,78.165 44.288,92.602 33.033,44.93 100.48,32.229 c 49.198,-9.264 63.93,13.61 60.493,39.159 -1.912,14.236 -9.287,26.483 -9.287,26.483 z"
             stroke-width="none"
             inkscape:connector-curvature="0"
             style="opacity:0.1;fill:#b79675" />
          <path
             id="SvgjsPath4959"
             d="m 151.417,100.722 c 2.836,-14.29 3.792,-26.049 -0.761,-36.989 -1.874,-4.503 -5.385,-9.09 -9.102,-13.947 -3.507,-4.582 -7.132,-9.319 -10.193,-14.848 -5.702,3.156 -11.177,3.985 -19.42,5.232 -4.256,0.644 -9.551,1.445 -16.048,2.752 -22.833,4.591 -44.64,11.3 -49.561,29.146 -2.594,14.676 0.425,24.889 0.562,25.339 l 0.031,0.095 -0.043,0.136 -0.06,0.083 -0.25,0 -0.059,-0.193 C 46.429,97.269 45.645,94.924 43.36,90.028 36.355,75.018 30.399,58.188 40.965,32.187 47.262,16.686 55.446,6.695 67.499,-0.208 77.797,-6.107 87.54,-8.975 97.284,-8.975 c 8.261,0 21.392,3.475 21.588,4.475 8.281,0.491 15.644,-0.313 27.202,12.248 8.979,9.761 21.073,33.709 17.583,59.679 -1.943,14.471 -7.979,25.874 -10.557,30.743 -0.692,1.308 -1.193,2.253 -1.294,2.643 l -0.389,-0.091 z"
             stroke-width="none"
             inkscape:connector-curvature="0"
             style="opacity:1;fill:#b79675" />
          <path
             id="SvgjsPath4960"
             d="m 163.657,67.426 c -1.984,14.777 -11.24,32.525 -12.24,32.296 2.836,-14.29 3.792,-25.049 -0.761,-35.989 -4.134,-9.933 -16.133,-20.627 -18.963,-28.787 -2.224,1.728 -8.598,3.397 -19.752,5.224 -4.248,0.696 -9.551,1.445 -16.048,2.752 -22.833,4.591 -44.64,11.3 -49.561,29.146 -3.892,22.017 4.976,35.981 -2.973,18.959 -7.005,-15.01 -12.961,-33.14 -2.395,-59.141 6.684,-16.454 17.373,-31.883 34.121,-37.35 2.904,-0.948 3.78,-0.194 0.897,0.961 -14.968,6.018 -23.238,19.988 -30.293,38.335 0,0 0.304,-7.335 3.513,-13.843 C 41.369,33.611 35.222,47.894 40.323,71.59 39.372,54.736 47.83,40.974 56.996,33.807 48.616,45.145 44.672,54.736 44.702,65.405 c 5.167,-13.667 16.371,-22.259 31.5,-24.667 18.59,-2.958 48.883,-7.153 56.491,-13.126 0.312,-0.347 0.653,-0.686 1.066,-1.008 0,6.396 2.777,9.232 5.24,11.396 13.915,12.229 19,28 18,45 2,-17 -1,-34 -10,-48 8,8 12,19 14,30 1.22,-17.085 -3.16,-33.417 -10.611,-48.104 2.134,6.681 2.111,12.406 2.39,12.865 -0.604,-1 -3.022,-28.786 -28.181,-34.475 26.337,3.476 42.934,43.31 39.06,72.14 z M 149.595,45.788 c -0.771,-1.002 -10.38,-14.231 -10.343,-22.229 -1.129,9.501 3.132,12.87 10.343,22.229 z M 64.803,31.048 c 8.477,-6.569 14.928,-9.919 25.442,-12.212 6.227,-1.359 15.22,-1.644 27.042,-4.067 0.04,-0.008 0.081,-0.019 0.122,-0.026 0,0 -10.631,3.032 -26.412,5.793 -10.652,1.863 -15.956,3.921 -26.194,10.512 z M 84.513,4.102 C 103.738,-0.529 121.336,0.437 134.949,14.651 126.995,6.347 110.959,-0.393 84.513,4.102 Z"
             stroke-width="none"
             inkscape:connector-curvature="0"
             style="opacity:1;fill:#a8815a" />
          <path
             id="SvgjsPath4961"
             d="M 49.353,54.83 C 55.53,44.342 62.034,37.231 73.462,32.907 c 21.07,-7.974 37.013,-3.576 60.369,-11.915 -4.557,1.627 -7.094,4.249 -33.97,7.959 -17.238,2.382 -25.38,4.37 -31.725,7.597 C 59.112,41.139 54.101,47.572 49.353,54.83 Z M 102.038,5.505 C 102.025,5.507 101.951,5.51 101.948,5.51 94.744,5.986 68.798,4.83 49.344,34.759 66.716,12.814 83.166,9.125 102.038,5.505 Z"
             stroke-width="none"
             inkscape:connector-curvature="0"
             style="opacity:1;fill:#986e43" />
          <path
             id="SvgjsPath4962"
             d="M 51.695,46.43 C 62.172,32.583 69.831,29.205 81.094,27.502 66.793,29.664 51.695,45.36 51.695,46.43 c 0.363,-0.479 0,0 0,0 z M 67.385,8.454 C 51.056,18.625 47.031,32.039 46.892,33.039 49.467,26.4 59.661,13.267 67.385,8.454 Z m 89.928,68.952 c -0.259,-9.621 0.057,-23.952 -14.679,-35.755 11.695,10.894 12.86,23.584 14.679,35.755 z M 57.213,33.421 C 56.576,33.684 51.5,38.437 50.984,38.954 41.152,48.796 39.569,57.755 40.442,71.586 40.237,45.783 56.213,33.833 57.213,33.421 Z m 84.445,-14.039 c 7.828,10.565 12.673,21.56 15.459,29.502 -2.193,-5.436 -5.308,-10.323 -10.242,-14.787 6.684,7.154 13.271,23.233 13.731,28.865 -0.082,-1.006 0.638,-22.485 -18.948,-43.58 z m -41.013,17.726 c 25.392,-4.578 25.475,-6.359 33.177,-10.399 -8.732,4.581 -10.754,5.984 -33.37,9.444 C 74.583,40.11 52.81,42.523 45.684,63.331 53.682,42.119 75.816,41.586 100.645,37.108 Z"
             stroke-width="none"
             inkscape:connector-curvature="0"
             style="opacity:1;fill:#c6ac93" />
          <path
             id="SvgjsPath4963"
             d="M 151.28,11.084 C 143.767,1.365 132.528,-6.157 120.428,-4.755 89.597,-19.604 53.174,-3.752 38.345,33.664 25.039,67.235 46.132,101.756 47.706,101 50.107,99.846 43.539,82.946 48.859,70.118 54.275,57.059 74.289,50.539 94.517,45.445 c 19.117,-4.815 27.417,-4.69 36.338,-9.523 0.003,-10e-4 0.005,-0.003 0.008,-0.005 6.412,12.427 14.565,20.061 18.671,31.197 4.276,11.604 -0.18,34.874 0.916,35.321 2.902,1.185 11.388,-19.541 13.871,-30.778 5.066,-22.918 -1.114,-45.141 -13.041,-60.573 z m 12.179,56.315 c -2.461,18.324 -11.344,30.421 -11.846,32.362 2.592,-13.059 4.02,-24.59 -0.772,-36.105 -3.604,-8.663 -12.96,-17.276 -19.401,-28.991 -8.695,4.882 -16.492,4.22 -35.586,8.06 -20.014,4.025 -44.506,10.4 -49.715,29.29 -3.956,22.372 3.399,31.39 -2.599,18.928 -4.586,-9.527 -12.923,-32.762 -2.391,-58.681 5.666,-13.946 13.34,-24.789 26.45,-32.297 19.982,-11.446 35.868,-10.229 50.924,-4.437 1.509,-0.282 -8.718,2.916 -13.15,3.695 6.495,3.255 19.759,-13.941 40.555,8.659 9.862,10.722 20.836,34.929 17.531,59.517 z"
             stroke-width="none"
             inkscape:connector-curvature="0"
             style="opacity:1;fill:#895c2f" />
        </g>
        <g
           id="svga-group-glasses-single">
          <path
             id="SvgjsPath4964"
             d="m 100,18.13 0,0 0,0 0,0 z"
             stroke-width="none"
             inkscape:connector-curvature="0"
             style="opacity:1;fill:#26120b" />
        </g>
      </g>
    </g>
    <rect
       id="SvgjsRect1033"
       width="200"
       height="15"
       x="0"
       y="185"
       style="display:none;opacity:0.5;fill:#ecf0f1" />
    <text
       id="SvgjsText1034"
       style="font-weight:400;font-size:10.07999992px;font-family:Roboto, 'Helvetica Neue', Helvetica, Arial, sans-serif;text-anchor:middle;display:none;fill:#000000"
       font-size="0.84em"
       font-weight="400"
       x="100"
       y="185">
      <tspan
         id="SvgjsTspan1035"
         dy="0"
         x="100"
         style="font-weight:400;font-size:8.46719933px;font-family:Roboto, 'Helvetica Neue', Helvetica, Arial, sans-serif;text-anchor:middle">Created on AvatarMaker.com</tspan>
    </text>
  </g>
  <defs
     id="SvgjsDefs1001">
    <radialGradient
       id="SvgjsRadialGradient2754"
       cx="100"
       cy="113"
       r="40"
       gradientUnits="userSpaceOnUse"
       class="svga-on-canvas-facehighlight-gradient-single-0">
      <stop
         id="SvgjsStop2755"
         stop-opacity="0.5"
         stop-color="#ffe2d6"
         offset="0" />
      <stop
         id="SvgjsStop2756"
         stop-opacity="0"
         stop-color="#ffd0bc"
         offset="0.9" />
    </radialGradient>
    <radialGradient
       id="SvgjsRadialGradient2758"
       cx="100"
       cy="57"
       r="36"
       gradientUnits="userSpaceOnUse"
       class="svga-on-canvas-facehighlight-gradient-single-1">
      <stop
         id="SvgjsStop2759"
         stop-opacity="0.5"
         stop-color="#ffe2d6"
         offset="0" />
      <stop
         id="SvgjsStop2760"
         stop-opacity="0"
         stop-color="#ffd0bc"
         offset="0.9" />
    </radialGradient>
    <linearGradient
       id="SvgjsLinearGradient4456"
       x1="99.980003"
       y1="171.27"
       x2="99.980003"
       y2="136.351"
       gradientUnits="userSpaceOnUse"
       class="svga-on-canvas-chinshadow-gradient-single-0">
      <stop
         id="SvgjsStop4457"
         stop-opacity="0.8"
         stop-color="#f0b399"
         offset="0" />
      <stop
         id="SvgjsStop4458"
         stop-opacity="1"
         stop-color="#d17f5b"
         offset="0.7" />
    </linearGradient>
    <radialGradient
       id="SvgjsRadialGradient4626"
       cx="-558.58801"
       cy="-490.918"
       r="84.646004"
       gradientTransform="matrix(0.096,-0.0248,0.0245,0.0961,140.5478,120.3577)"
       gradientUnits="userSpaceOnUse"
       class="svga-on-canvas-eyesiris-gradient-left-1">
      <stop
         id="SvgjsStop4627"
         stop-opacity="0.8"
         stop-color="#ffffff"
         offset="0" />
      <stop
         id="SvgjsStop4628"
         stop-opacity="0"
         stop-color="#ffffff"
         offset="1" />
    </radialGradient>
    <radialGradient
       id="SvgjsRadialGradient4630"
       cx="-565.33698"
       cy="-492.69101"
       r="84.643997"
       gradientTransform="matrix(0.0991,8.856325e-4,-0.0011,0.0991,130.3774,136.3533)"
       gradientUnits="userSpaceOnUse"
       class="svga-on-canvas-eyesiris-gradient-left-2">
      <stop
         id="SvgjsStop4631"
         stop-opacity="0.8"
         stop-color="#ffffff"
         offset="0" />
      <stop
         id="SvgjsStop4632"
         stop-opacity="0"
         stop-color="#ffffff"
         offset="1" />
    </radialGradient>
    <linearGradient
       id="SvgjsLinearGradient4636"
       x1="122.283"
       y1="93.046997"
       x2="123.61"
       y2="91.466003"
       gradientTransform="translate(-52,0)"
       gradientUnits="userSpaceOnUse"
       class="svga-on-canvas-eyesiris-gradient-left-5">
      <stop
         id="SvgjsStop4637"
         stop-opacity="1"
         stop-color="#ffffff"
         offset="0" />
      <stop
         id="SvgjsStop4638"
         stop-opacity="0"
         stop-color="#ffffff"
         offset="1" />
    </linearGradient>
    <linearGradient
       id="SvgjsLinearGradient4640"
       x1="127"
       y1="85"
       x2="125"
       y2="87"
       gradientTransform="translate(-50,0)"
       gradientUnits="userSpaceOnUse"
       class="svga-on-canvas-eyesiris-gradient-left-6">
      <stop
         id="SvgjsStop4641"
         stop-opacity="1"
         stop-color="#ffffff"
         offset="0" />
      <stop
         id="SvgjsStop4642"
         stop-opacity="0"
         stop-color="#ffffff"
         offset="1" />
    </linearGradient>
    <linearGradient
       id="SvgjsLinearGradient4644"
       x1="130"
       y1="81"
       x2="126"
       y2="85"
       gradientTransform="translate(-50,0)"
       gradientUnits="userSpaceOnUse"
       class="svga-on-canvas-eyesiris-gradient-left-7">
      <stop
         id="SvgjsStop4645"
         stop-opacity="1"
         stop-color="#ffffff"
         offset="0" />
      <stop
         id="SvgjsStop4646"
         stop-opacity="0"
         stop-color="#ffffff"
         offset="1" />
    </linearGradient>
    <radialGradient
       id="SvgjsRadialGradient4649"
       cx="-578.76001"
       cy="-490.73001"
       r="84.646004"
       gradientTransform="matrix(0.096,-0.0248,0.0245,0.0961,192.4794,119.8404)"
       gradientUnits="userSpaceOnUse"
       class="svga-on-canvas-eyesiris-gradient-right-1">
      <stop
         id="SvgjsStop4650"
         stop-opacity="0.8"
         stop-color="#ffffff"
         offset="0" />
      <stop
         id="SvgjsStop4651"
         stop-opacity="0"
         stop-color="#ffffff"
         offset="1" />
    </radialGradient>
    <radialGradient
       id="SvgjsRadialGradient4653"
       cx="-584.77802"
       cy="-487.32901"
       r="84.643997"
       gradientTransform="matrix(0.0991,8.856325e-4,-0.0011,0.0991,182.3104,135.839)"
       gradientUnits="userSpaceOnUse"
       class="svga-on-canvas-eyesiris-gradient-right-2">
      <stop
         id="SvgjsStop4654"
         stop-opacity="0.8"
         stop-color="#ffffff"
         offset="0" />
      <stop
         id="SvgjsStop4655"
         stop-opacity="0"
         stop-color="#ffffff"
         offset="1" />
    </radialGradient>
    <linearGradient
       id="SvgjsLinearGradient4659"
       x1="120.284"
       y1="93.046997"
       x2="121.611"
       y2="91.467003"
       gradientUnits="userSpaceOnUse"
       class="svga-on-canvas-eyesiris-gradient-right-5">
      <stop
         id="SvgjsStop4660"
         stop-opacity="1"
         stop-color="#ffffff"
         offset="0" />
      <stop
         id="SvgjsStop4661"
         stop-opacity="0"
         stop-color="#ffffff"
         offset="1" />
    </linearGradient>
    <linearGradient
       id="SvgjsLinearGradient4663"
       x1="127"
       y1="85"
       x2="125"
       y2="87"
       gradientUnits="userSpaceOnUse"
       class="svga-on-canvas-eyesiris-gradient-right-6">
      <stop
         id="SvgjsStop4664"
         stop-opacity="1"
         stop-color="#ffffff"
         offset="0" />
      <stop
         id="SvgjsStop4665"
         stop-opacity="0"
         stop-color="#ffffff"
         offset="1" />
    </linearGradient>
    <linearGradient
       id="SvgjsLinearGradient4667"
       x1="130"
       y1="81"
       x2="126"
       y2="85"
       gradientUnits="userSpaceOnUse"
       class="svga-on-canvas-eyesiris-gradient-right-7">
      <stop
         id="SvgjsStop4668"
         stop-opacity="1"
         stop-color="#ffffff"
         offset="0" />
      <stop
         id="SvgjsStop4669"
         stop-opacity="0"
         stop-color="#ffffff"
         offset="1" />
    </linearGradient>
    <radialGradient
       id="SvgjsRadialGradient4671"
       cx="129.05"
       cy="85.956001"
       r="15.117"
       gradientTransform="matrix(-0.9945,0.1042,0.1042,0.9945,192.8274,-12.4637)"
       gradientUnits="userSpaceOnUse"
       class="svga-on-canvas-eyesback-gradient-left-0">
      <stop
         id="SvgjsStop4672"
         stop-opacity="1"
         stop-color="#ffffff"
         offset="0" />
      <stop
         id="SvgjsStop4673"
         stop-opacity="1"
         stop-color="#fcfdfd"
         offset="0.316" />
      <stop
         id="SvgjsStop4674"
         stop-opacity="1"
         stop-color="#f4f7f8"
         offset="0.505" />
      <stop
         id="SvgjsStop4675"
         stop-opacity="1"
         stop-color="#e5ecef"
         offset="0.661" />
      <stop
         id="SvgjsStop4676"
         stop-opacity="1"
         stop-color="#d8e2e7"
         offset="0.76" />
    </radialGradient>
    <radialGradient
       id="SvgjsRadialGradient4678"
       cx="129.049"
       cy="85.956001"
       r="15.117"
       gradientTransform="matrix(0.9945,0.1042,-0.1042,0.9945,7.1735,-12.4637)"
       gradientUnits="userSpaceOnUse"
       class="svga-on-canvas-eyesback-gradient-right-0">
      <stop
         id="SvgjsStop4679"
         stop-opacity="1"
         stop-color="#ffffff"
         offset="0" />
      <stop
         id="SvgjsStop4680"
         stop-opacity="1"
         stop-color="#fcfdfd"
         offset="0.316" />
      <stop
         id="SvgjsStop4681"
         stop-opacity="1"
         stop-color="#f4f7f8"
         offset="0.505" />
      <stop
         id="SvgjsStop4682"
         stop-opacity="1"
         stop-color="#e5ecef"
         offset="0.661" />
      <stop
         id="SvgjsStop4683"
         stop-opacity="1"
         stop-color="#d8e2e7"
         offset="0.76" />
    </radialGradient>
    <radialGradient
       id="SvgjsRadialGradient4685"
       cx="129.05"
       cy="85.956001"
       r="15.117"
       gradientTransform="matrix(-0.9945,0.1042,0.1042,0.9945,192.8274,-12.4637)"
       gradientUnits="userSpaceOnUse"
       class="svga-on-canvas-eyesfront-gradient-left-0">
      <stop
         id="SvgjsStop4686"
         stop-opacity="1"
         stop-color="#ffffff"
         offset="0" />
      <stop
         id="SvgjsStop4687"
         stop-opacity="1"
         stop-color="#fcfdfd"
         offset="0.316" />
      <stop
         id="SvgjsStop4688"
         stop-opacity="1"
         stop-color="#f4f7f8"
         offset="0.505" />
      <stop
         id="SvgjsStop4689"
         stop-opacity="1"
         stop-color="#e5ecef"
         offset="0.661" />
      <stop
         id="SvgjsStop4690"
         stop-opacity="1"
         stop-color="#d8e2e7"
         offset="0.76" />
    </radialGradient>
    <radialGradient
       id="SvgjsRadialGradient4694"
       cx="121.786"
       cy="84.496002"
       fx="133.039"
       fy="84.527"
       r="16.003"
       gradientTransform="matrix(0.9998,0.0208,0.0166,-0.7998,-44.9524,149.5433)"
       gradientUnits="userSpaceOnUse"
       class="svga-on-canvas-eyesfront-gradient-left-3">
      <stop
         id="SvgjsStop4695"
         stop-opacity="1"
         stop-color="#f0b399"
         offset="0" />
      <stop
         id="SvgjsStop4696"
         stop-opacity="0.3"
         stop-color="#f0b399"
         offset="0.7" />
      <stop
         id="SvgjsStop4697"
         stop-opacity="0"
         stop-color="#ffd0bc"
         offset="1" />
    </radialGradient>
    <radialGradient
       id="SvgjsRadialGradient4699"
       cx="69.124001"
       cy="107.529"
       r="29.525"
       gradientTransform="matrix(1.0336,0,0,1.0336,-1.6792,1.7282)"
       gradientUnits="userSpaceOnUse"
       class="svga-on-canvas-eyesfront-gradient-left-4">
      <stop
         id="SvgjsStop4700"
         stop-opacity="0"
         stop-color="#000000"
         offset="0.95" />
      <stop
         id="SvgjsStop4701"
         stop-opacity="0.3"
         stop-color="#000000"
         offset="1" />
    </radialGradient>
    <radialGradient
       id="SvgjsRadialGradient4705"
       cx="129.049"
       cy="85.956001"
       r="15.117"
       gradientTransform="matrix(0.9945,0.1042,-0.1042,0.9945,7.1735,-12.4637)"
       gradientUnits="userSpaceOnUse"
       class="svga-on-canvas-eyesfront-gradient-right-0">
      <stop
         id="SvgjsStop4706"
         stop-opacity="1"
         stop-color="#ffffff"
         offset="0" />
      <stop
         id="SvgjsStop4707"
         stop-opacity="1"
         stop-color="#fcfdfd"
         offset="0.316" />
      <stop
         id="SvgjsStop4708"
         stop-opacity="1"
         stop-color="#f4f7f8"
         offset="0.505" />
      <stop
         id="SvgjsStop4709"
         stop-opacity="1"
         stop-color="#e5ecef"
         offset="0.661" />
      <stop
         id="SvgjsStop4710"
         stop-opacity="1"
         stop-color="#d8e2e7"
         offset="0.76" />
    </radialGradient>
    <radialGradient
       id="SvgjsRadialGradient4714"
       cx="121.786"
       cy="84.496002"
       fx="133.039"
       fy="84.527"
       r="16.003"
       gradientTransform="matrix(-0.9998,0.0208,-0.0166,-0.7998,244.9525,149.5433)"
       gradientUnits="userSpaceOnUse"
       class="svga-on-canvas-eyesfront-gradient-right-3">
      <stop
         id="SvgjsStop4715"
         stop-opacity="1"
         stop-color="#f0b399"
         offset="0" />
      <stop
         id="SvgjsStop4716"
         stop-opacity="0.3"
         stop-color="#f0b399"
         offset="0.7" />
      <stop
         id="SvgjsStop4717"
         stop-opacity="0"
         stop-color="#ffd0bc"
         offset="1" />
    </radialGradient>
    <radialGradient
       id="SvgjsRadialGradient4719"
       cx="69.124001"
       cy="107.529"
       r="29.525"
       gradientTransform="matrix(-1.0336,0,0,1.0336,201.6792,1.7282)"
       gradientUnits="userSpaceOnUse"
       class="svga-on-canvas-eyesfront-gradient-right-4">
      <stop
         id="SvgjsStop4720"
         stop-opacity="0"
         stop-color="#000000"
         offset="0.95" />
      <stop
         id="SvgjsStop4721"
         stop-opacity="0.3"
         stop-color="#000000"
         offset="1" />
    </radialGradient>
    <linearGradient
       id="SvgjsLinearGradient4950"
       x1="100"
       y1="141"
       x2="100"
       y2="138"
       gradientUnits="userSpaceOnUse"
       class="svga-on-canvas-mouth-gradient-single-0">
      <stop
         id="SvgjsStop4951"
         stop-opacity="1"
         stop-color="#ffd0bc"
         offset="0.1" />
      <stop
         id="SvgjsStop4952"
         stop-opacity="1"
         stop-color="#e09879"
         offset="0.9" />
    </linearGradient>
  </defs>
</svg>
