<?xml version="1.0" encoding="UTF-8" standalone="no"?>
<svg
   xmlns:dc="http://purl.org/dc/elements/1.1/"
   xmlns:cc="http://creativecommons.org/ns#"
   xmlns:rdf="http://www.w3.org/1999/02/22-rdf-syntax-ns#"
   xmlns:svg="http://www.w3.org/2000/svg"
   xmlns="http://www.w3.org/2000/svg"
   version="1.1"
   id="svg9172"
   viewBox="0 0 282.05562 962.14542"
   height="271.53882mm"
   width="79.602364mm">
  <defs
     id="defs9174" />
  <metadata
     id="metadata9177">
    <rdf:RDF>
      <cc:Work
         rdf:about="">
        <dc:format>image/svg+xml</dc:format>
        <dc:type
           rdf:resource="http://purl.org/dc/dcmitype/StillImage" />
        <dc:title></dc:title>
      </cc:Work>
    </rdf:RDF>
  </metadata>
  <g
     transform="translate(-150.46399,-45.575208)"
     id="layer1">
    <circle
       style="fill:none;fill-opacity:1;stroke:#364a62;stroke-width:18.22587395;stroke-linejoin:miter;stroke-miterlimit:4;stroke-dasharray:none;stroke-opacity:1"
       id="circle8343"
       cx="277.99356"
       cy="942.27551"
       r="47.774834" />
    <g
       id="g8345"
       transform="matrix(4.9783866,0,0,4.3652611,-47.84542,-1859.0016)"
       style="fill:#666666;fill-opacity:1">
      <path
         id="path8347"
         d="m 62.46421,626.93112 c 0,0 -1.9752,-4.86969 -1.97011,-7.31496 0.008,-3.97993 3.01214,-7.92543 3.25613,-11.90476 0.15983,-2.60649 -1.17554,-7.81364 -1.17554,-7.81364 l 5.72377,0.0251 c 0,0 1.36373,5.14131 1.22477,7.71535 -0.21658,4.0118 -3.2243,7.99084 -3.20606,12.0031 0.011,2.42886 2.00689,7.26479 2.00689,7.26479 0,0 -1.924299,-0.35764 -2.897269,-0.35488 -0.99561,0.003 -2.962581,0.3799 -2.962581,0.3799 z"
         style="fill:#666666;fill-opacity:1;stroke:none;stroke-width:0;stroke-linejoin:miter;stroke-miterlimit:4;stroke-dasharray:none;stroke-opacity:0.62420379" />
      <path
         id="path8349"
         d="m 71.71751,600.44513 -12.361,0 6.1805,-12.6625 z"
         style="fill:#666666;fill-opacity:1;stroke:none;stroke-width:0;stroke-linejoin:miter;stroke-miterlimit:4;stroke-dasharray:none;stroke-opacity:0.62420379" />
    </g>
    <circle
       style="fill:none;fill-opacity:1;stroke:#ff591c;stroke-width:18.22587395;stroke-linejoin:miter;stroke-miterlimit:4;stroke-dasharray:none;stroke-opacity:1"
       id="circle8351"
       cx="277.99356"
       cy="643.57239"
       r="47.774834" />
    <circle
       r="47.774834"
       cy="344.8692"
       cx="277.99356"
       id="circle8353"
       style="fill:none;fill-opacity:1;stroke:#ff591c;stroke-width:18.22587395;stroke-linejoin:miter;stroke-miterlimit:4;stroke-dasharray:none;stroke-opacity:1" />
    <g
       transform="matrix(4.9783866,0,0,4.3652611,-47.84542,-2157.7049)"
       id="g8355"
       style="fill:#666666;fill-opacity:1">
      <path
         style="fill:#666666;fill-opacity:1;stroke:none;stroke-width:0;stroke-linejoin:miter;stroke-miterlimit:4;stroke-dasharray:none;stroke-opacity:0.62420379"
         d="m 62.46421,626.93112 c 0,0 -1.9752,-4.86969 -1.97011,-7.31496 0.008,-3.97993 3.01214,-7.92543 3.25613,-11.90476 0.15983,-2.60649 -1.17554,-7.81364 -1.17554,-7.81364 l 5.72377,0.0251 c 0,0 1.36373,5.14131 1.22477,7.71535 -0.21658,4.0118 -3.2243,7.99084 -3.20606,12.0031 0.011,2.42886 2.00689,7.26479 2.00689,7.26479 0,0 -1.924299,-0.35764 -2.897269,-0.35488 -0.99561,0.003 -2.962581,0.3799 -2.962581,0.3799 z"
         id="path8357" />
      <path
         style="fill:#666666;fill-opacity:1;stroke:none;stroke-width:0;stroke-linejoin:miter;stroke-miterlimit:4;stroke-dasharray:none;stroke-opacity:0.62420379"
         d="m 71.71751,600.44513 -12.361,0 6.1805,-12.6625 z"
         id="path8359" />
    </g>
    <text
       xml:space="preserve"
       style="font-style:normal;font-weight:normal;font-size:199.13546753px;line-height:125%;font-family:sans-serif;letter-spacing:0px;word-spacing:0px;fill:#000000;fill-opacity:1;stroke:none;stroke-width:1px;stroke-linecap:butt;stroke-linejoin:miter;stroke-opacity:1"
       x="345.44714"
       y="359.62085"
       id="text8361"><tspan
         id="tspan8363"
         x="345.44714"
         y="359.62085"
         style="font-style:normal;font-variant:normal;font-weight:normal;font-stretch:normal;font-size:124.45966339px;font-family:Photographs;-inkscape-font-specification:Photographs">B'</tspan></text>
    <text
       id="text8365"
       y="658.32397"
       x="345.44714"
       style="font-style:normal;font-weight:normal;font-size:199.13546753px;line-height:125%;font-family:sans-serif;letter-spacing:0px;word-spacing:0px;fill:#000000;fill-opacity:1;stroke:none;stroke-width:1px;stroke-linecap:butt;stroke-linejoin:miter;stroke-opacity:1"
       xml:space="preserve"><tspan
         style="font-style:normal;font-variant:normal;font-weight:normal;font-stretch:normal;font-size:124.45966339px;font-family:Photographs;-inkscape-font-specification:Photographs"
         y="658.32397"
         x="345.44714"
         id="tspan8367">A'</tspan></text>
    <text
       id="text8369"
       y="160.68958"
       x="176.93665"
       style="font-style:normal;font-weight:normal;font-size:199.13546753px;line-height:125%;font-family:sans-serif;letter-spacing:0px;word-spacing:0px;fill:#364a62;fill-opacity:1;stroke:none;stroke-width:1px;stroke-linecap:butt;stroke-linejoin:miter;stroke-opacity:1"
       xml:space="preserve"><tspan
         style="font-style:normal;font-variant:normal;font-weight:normal;font-stretch:normal;font-size:136.90562439px;line-height:125%;font-family:Photographs;-inkscape-font-specification:Photographs;fill:#364a62;fill-opacity:1"
         y="160.68958"
         x="176.93665"
         id="tspan8371">LOCAL</tspan></text>
  </g>
</svg>
