<?xml version="1.0" encoding="UTF-8" standalone="no"?>
<svg
   xmlns:dc="http://purl.org/dc/elements/1.1/"
   xmlns:cc="http://creativecommons.org/ns#"
   xmlns:rdf="http://www.w3.org/1999/02/22-rdf-syntax-ns#"
   xmlns:svg="http://www.w3.org/2000/svg"
   xmlns="http://www.w3.org/2000/svg"
   xmlns:sodipodi="http://sodipodi.sourceforge.net/DTD/sodipodi-0.dtd"
   xmlns:inkscape="http://www.inkscape.org/namespaces/inkscape"
   version="1.1"
   width="614.5896"
   height="765.90765"
   xlink="http://www.w3.org/1999/xlink"
   style="overflow:hidden"
   id="svg179"
   inkscape:version="0.91 r13725"
   sodipodi:docname="maxime-overwhelmed.svg">
  <metadata
     id="metadata354">
    <rdf:RDF>
      <cc:Work
         rdf:about="">
        <dc:format>image/svg+xml</dc:format>
        <dc:type
           rdf:resource="http://purl.org/dc/dcmitype/StillImage" />
      </cc:Work>
    </rdf:RDF>
  </metadata>
  <sodipodi:namedview
     pagecolor="#ffffff"
     bordercolor="#666666"
     borderopacity="1"
     objecttolerance="10"
     gridtolerance="10"
     guidetolerance="10"
     inkscape:pageopacity="0"
     inkscape:pageshadow="2"
     inkscape:window-width="640"
     inkscape:window-height="480"
     id="namedview352"
     showgrid="false"
     fit-margin-top="0"
     fit-margin-left="0"
     fit-margin-right="0"
     fit-margin-bottom="0"
     inkscape:zoom="0.39333333"
     inkscape:cx="307.70977"
     inkscape:cy="401.98663"
     inkscape:window-x="0"
     inkscape:window-y="0"
     inkscape:window-maximized="0"
     inkscape:current-layer="svg179" />
  <g
     id="svga-group-wrapper"
     transform="matrix(3,0,0,3,7.7097688,63.921046)">
    <g
       id="svga-group-backs-single" />
    <g
       id="svga-group-subwrapper"
       transform="translate(0,-2)">
      <g
         id="svga-group-hair-back">
        <path
           id="SvgjsPath5409"
           d="m 100.5,100.5 -1,0 0,-1 1,0 0,1 z"
           stroke-width="none"
           inkscape:connector-curvature="0"
           style="opacity:1;fill:#2a232b" />
      </g>
      <g
         id="svga-group-humanbody-single">
        <path
           id="SvgjsPath2893"
           d="m 195.417,199.778 c -2.196,-4.746 -8.195,-11.779 -14.86,-13.722 -8.239,-2.403 -26.837,-5.308 -33.733,-6.923 -5.528,-1.296 -16.662,-11.294 -20.564,-14.65 -0.7,-0.6 -1.273,-1.839 -1.287,-2.76 -0.139,-10.864 4.195,-39.724 4.195,-39.724 l -29.168,0 -29.167,0 c 0,0 4.334,28.859 4.193,39.724 -0.011,0.921 -0.587,2.16 -1.285,2.76 -3.902,3.356 -15.036,13.354 -20.564,14.65 -6.897,1.615 -25.495,4.619 -33.733,7.022 -6.667,1.942 -12.664,8.876 -14.86,13.622 -3.708,8.008 -4.584,22.5 -4.584,35 l 100,0 100,0 c 0,-12.499 -0.877,-26.991 -4.583,-34.999 z"
           stroke-width="none"
           inkscape:connector-curvature="0"
           style="opacity:1;fill:#e9b995;stroke:none" />
        <path
           id="SvgjsPath2894"
           d="m 159.156,184.058 c 24.342,3.542 34.586,8.708 37.794,50.721 l 3.05,0 c 0,-12.5 -0.877,-26.992 -4.583,-35 -2.196,-4.746 -8.195,-11.779 -14.86,-13.722 -8.239,-2.403 -26.837,-5.308 -33.733,-6.923 -5.528,-1.296 -18.242,-12.069 -21.643,-16.35 3.36,4.704 12.791,15.605 21.054,18.46 3.953,1.366 7.245,1.988 12.921,2.814 z m -105.39,-2.814 c 8.263,-2.854 17.693,-13.756 21.054,-18.46 -3.4,4.28 -16.114,15.054 -21.643,16.35 -6.896,1.615 -25.494,4.619 -33.733,7.022 -6.665,1.942 -12.664,8.876 -14.86,13.622 -3.706,8.008 -4.583,22.5 -4.583,35 l 3.05,0 c 3.188,-41.744 13.475,-47.183 37.794,-50.721 5.675,-0.825 8.968,-1.447 12.921,-2.813 z"
           stroke-width="none"
           inkscape:connector-curvature="0"
           style="opacity:1;fill:#f8d3b8;stroke:none" />
        <path
           id="SvgjsPath2895"
           d="m 95.646,197.62 c 0,0 -5.074,-1.609 -7.083,-2.379 -10.449,-4.009 -44.395,-6.607 -44.395,-6.607 0,0 35.754,1.419 43.644,2.779 -0.458,-4.767 -3.017,-20.004 -3.017,-20.004 0,0 5.149,16.815 6.409,21.057 0.674,2.268 4.442,5.154 4.442,5.154 z m 10.799,-1.342 c -0.089,0.073 -0.191,0.168 -0.302,0.268 0.113,-0.085 0.215,-0.174 0.302,-0.268 z m -10.799,1.342 c 0,0 2.893,2.992 4.347,3.03 1.91,0.051 4.828,-2.899 6.151,-4.104 -1.265,0.957 -4.159,1.391 -5.31,1.436 -1.33,0.051 -5.188,-0.362 -5.188,-0.362 z m 21.018,-7.519 c -1.545,0.248 -4.386,0.789 -4.386,0.789 L 114.565,176 c -0.646,3.071 -4.474,16.211 -8.12,20.278 1.91,-1.616 6.158,-2.391 8.324,-2.704 10.236,-1.484 10.232,-1.483 41.062,-4.94 0,0 -29.071,-0.155 -39.167,1.467 z"
           stroke-width="none"
           inkscape:connector-curvature="0"
           style="opacity:1;fill:#daa075;stroke:none" />
        <path
           id="SvgjsPath2896"
           d="m 195.417,199.778 c -2.196,-4.746 -8.195,-11.779 -14.86,-13.722 -8.239,-2.403 -26.837,-5.308 -33.733,-6.923 -5.528,-1.296 -16.662,-11.294 -20.564,-14.65 -0.7,-0.6 -1.273,-1.839 -1.287,-2.76 -0.139,-10.864 4.195,-39.724 4.195,-39.724 l -29.168,0 -29.167,0 c 0,0 4.334,28.859 4.193,39.724 -0.011,0.921 -0.587,2.16 -1.285,2.76 -3.902,3.356 -15.036,13.354 -20.564,14.65 -6.897,1.615 -25.495,4.619 -33.733,7.022 -6.667,1.942 -12.664,8.876 -14.86,13.622 -3.708,8.008 -4.584,22.5 -4.584,35 l 100,0 100,0 c 0,-12.499 -0.877,-26.991 -4.583,-34.999 z"
           inkscape:connector-curvature="0"
           style="opacity:1;fill:none;stroke:#bb7440;stroke-width:1.5" />
      </g>
      <g
         id="svga-group-chinshadow-single">
        <path
           id="SvgjsPath7603"
           d="m 75.464,163.188 c 5.276,4.256 10.716,8.678 24.538,8.678 13.815,0 19.256,-4.418 24.531,-8.672 -0.188,-0.49 -0.305,-0.997 -0.312,-1.461 -0.088,-6.889 1.573,-20.711 2.835,-30.131 -15.695,-2.201 -38.418,-2.201 -54.113,0 1.261,9.421 2.922,23.242 2.833,30.13 -0.005,0.456 -0.122,0.963 -0.312,1.456 z"
           inkscape:connector-curvature="0"
           style="opacity:1;fill:url(#SvgjsLinearGradient7604)" />
      </g>
      <g
         id="svga-group-clothes-single">
        <path
           id="SvgjsPath7355"
           d="m 111.806,235.888 c -19.135,0 -41.455,-0.074 -68.233,-0.229 L 19.894,235.531 C 5.596,235.453 4.753,235.437 3.007,235.437 l -4.899,0.007 c -4.571,-41.875 14.41,-52.87 43.762,-56.708 7.789,-1.097 15.449,-3.097 21.459,-6.972 16.327,22.243 64.811,17.562 73.103,-0.629 1.39,0.53 2.539,1.215 3.977,1.734 4.666,3.433 11.072,5.836 17.628,6.199 26.008,1.441 44.419,12.996 44.057,54.64 0.003,0.165 0.004,1.175 -0.013,1.49 -12.513,0 -17.206,0.121 -27.034,0.262 -13.331,0.19 -29.923,0.427 -63.229,0.427 -0.005,0.001 -0.008,0.001 -0.012,0.001 z"
           stroke-width="none"
           inkscape:connector-curvature="0"
           style="opacity:1;fill:#386e77;stroke:none" />
        <path
           id="SvgjsPath7356"
           d="m 201.055,234.64 c -0.41,-7.385 -4.064,-28.058 -10.36,-37.541 -12.482,-18.805 -42.26,-12.206 -49.132,-19.693 -4.986,10.159 -24.975,16.595 -31.594,17.54 19.181,-6.36 27.237,-10.959 30.42,-21.87 6.405,8.33 41.074,1.971 54.717,24.331 3.995,6.547 7.794,27.386 5.949,37.233 z M 55.811,177.628 c 1.357,-0.315 2.034,-1.249 3.381,-1.614 l -1.426,-1.891 c -9.049,7.052 -42.909,2.645 -54.519,24.036 -3.659,6.741 -6.127,22.788 -4.192,36.439 0.537,-8.384 0.799,-26.314 7.095,-35.798 11.324,-17.06 31.974,-12.553 47.619,-19.775 6.983,8.6 17.888,12.828 28.984,14.577 C 68.832,189.971 60.85,183.84 55.811,177.628 Z"
           stroke-width="none"
           inkscape:connector-curvature="0"
           style="opacity:1;fill:#4d7e86;stroke:none" />
        <path
           id="SvgjsPath7357"
           d="m 135.31,173.244 c -5.532,11.514 -47.35,24.923 -70.93,0.879 -1.466,0.622 -5.852,2.112 -5.852,2.112 17.176,23.386 67.511,23.534 80.909,-0.114 -0.059,-0.023 -2.765,-2.185 -4.127,-2.877 z"
           stroke-width="none"
           inkscape:connector-curvature="0"
           style="opacity:1;fill:#265e68;stroke:none" />
        <path
           id="SvgjsPath7358"
           d="m 136.38,171.002 c -9.413,18.822 -58.397,21.485 -73.012,0.632 -5.337,1.578 -10.469,4.941 -15.636,5.782 -30.92,4.605 -53.778,6.919 -49.732,58.136 9.94,0 -6.611,-0.065 45.571,0.215 123.59,0.71 119.562,-0.461 158.606,-0.461 0.029,-0.14 0.015,-1.452 0.021,-1.596 2.096,-56.436 -30.852,-53.104 -53.12,-56.995 -3.144,-0.718 -6.066,-2.773 -8.635,-3.945 -1.419,-0.649 -2.625,-1.232 -4.063,-1.768 z m -73.366,1.263 c 12.974,23.392 64.219,18.699 74.113,0.101 1.2,0.504 1.507,0.704 2.898,1.197 -10.248,21.489 -60.942,28.337 -81.677,1.163 0.146,-0.041 3.204,-1.913 4.666,-2.461 z m -63.859,62.513 c -2.421,-26.431 1.797,-48.043 32.78,-53.345 10.276,-1.896 16.557,-1.962 25.384,-5.794 16.763,27.405 72.098,23.158 83.598,-1.305 1.652,1.409 4.228,3.03 7.405,3.785 18.098,4.299 54.838,-0.894 52.898,56.658 -54.057,-0.702 -98.865,-2.344 -202.065,0.001 z"
           stroke-width="none"
           inkscape:connector-curvature="0"
           style="opacity:1;fill:#0c4049;stroke:none" />
      </g>
      <g
         id="svga-group-head">
        <g
           id="svga-group-ears-left">
          <path
             id="SvgjsPath4516"
             d="m 47.218,81.505 c -0.967,-2.487 -8.082,-6.002 -11.21,-5.447 -3.538,0.627 -4.838,4.356 -4.369,7.119 1.103,6.487 3.996,9.219 5.296,14.286 1.096,4.273 3.433,6.732 4.588,8.548 1.42,2.228 2.73,7.341 3.023,8.087 0.463,1.18 2.103,4.043 5.002,3.896 3.333,-0.172 7.545,-6.688 7.614,-8.135 0.382,-7.85 -7.429,-21.88 -9.944,-28.354 z"
             inkscape:connector-curvature="0"
             style="opacity:1;fill:#e9b995;stroke:#bb7440;stroke-width:1.5" />
          <path
             id="SvgjsPath4517"
             d="m 47.953,107.96 c 0,0 0.429,-1.071 -0.094,-2.022 -0.672,-1.223 -2.423,-3.468 -2.821,-4.811 -0.325,-1.098 -0.16,-3.445 -0.213,-4.593 -0.094,-2.03 -1.492,-3.42 -1.927,-4.585 -2.914,-7.793 -6.792,-12.623 -9,-13.626 -1.633,3.989 -0.339,6.907 1.94,13.045 -1.375,-8.342 -0.054,-10.95 -0.054,-10.95 0,0 4.018,3.465 6.001,11.172 0.359,1.391 -1.111,4.294 -0.83,5.705 0.352,1.772 4.184,5.201 5.257,6.635 0.837,1.117 1.741,4.03 1.741,4.03 z"
             stroke-width="none"
             inkscape:connector-curvature="0"
             style="opacity:1;fill:#bb7440;stroke:none" />
        </g>
        <g
           id="svga-group-ears-right">
          <path
             id="SvgjsPath4518"
             d="m 152.52,81.505 c 0.967,-2.487 8.082,-6.002 11.211,-5.447 3.539,0.627 4.838,4.356 4.369,7.119 -1.104,6.487 -3.996,9.219 -5.297,14.286 -1.096,4.273 -3.434,6.732 -4.588,8.548 -1.42,2.228 -2.73,7.341 -3.023,8.087 -0.463,1.18 -2.104,4.043 -5.002,3.896 -3.332,-0.172 -7.545,-6.688 -7.613,-8.135 -0.384,-7.85 7.429,-21.88 9.943,-28.354 z"
             inkscape:connector-curvature="0"
             style="opacity:1;fill:#e9b995;stroke:#bb7440;stroke-width:1.5" />
          <path
             id="SvgjsPath4519"
             d="m 151.785,107.96 c 0,0 -0.43,-1.071 0.094,-2.022 0.672,-1.223 2.424,-3.468 2.82,-4.811 0.324,-1.098 0.16,-3.445 0.215,-4.593 0.094,-2.03 1.49,-3.42 1.926,-4.585 2.914,-7.793 6.793,-12.623 9,-13.626 1.633,3.989 0.338,6.907 -1.939,13.045 1.375,-8.342 0.053,-10.95 0.053,-10.95 0,0 -4.018,3.465 -6.002,11.172 -0.357,1.391 1.111,4.294 0.83,5.705 -0.352,1.772 -4.184,5.201 -5.256,6.635 -0.837,1.117 -1.741,4.03 -1.741,4.03 z"
             stroke-width="none"
             inkscape:connector-curvature="0"
             style="opacity:1;fill:#bb7440;stroke:none" />
        </g>
        <g
           id="svga-group-faceshape-wrap">
          <g
             id="svga-group-faceshape-single">
            <path
               id="SvgjsPath7600"
               d="M 100.002,0.867 C 66.384,0.92 39.082,28.536 39.134,62.56 c 0.008,5.403 0.704,10.643 2.002,15.634 l 10e-4,0 c 0.012,0.054 11.542,38.591 14.02,51.25 1.382,7.06 9.063,15.656 16.531,20.849 6.967,4.845 11.263,11.574 28.313,11.574 17.05,0 21.346,-6.729 28.313,-11.574 7.468,-5.192 15.149,-13.789 16.531,-20.849 2.479,-12.658 14.009,-51.196 14.02,-51.25 l 0.002,0 c 1.298,-4.992 1.994,-10.231 2.002,-15.634 C 160.923,28.536 133.62,0.92 100.002,0.867 Z"
               stroke-width="none"
               inkscape:connector-curvature="0"
               style="opacity:1;fill:#e9b995" />
            <path
               id="SvgjsPath7601"
               d="m 146.772,23.096 c 7.478,10.35 11.917,23.245 11.898,37.227 -0.009,5.403 -0.679,10.643 -1.93,15.634 l -0.002,0 c -0.011,0.054 -11.124,38.591 -13.512,51.25 -1.335,7.06 -8.737,15.656 -15.935,20.849 -6.718,4.845 -10.854,11.575 -27.291,11.575 -16.434,0 -20.575,-6.73 -27.291,-11.575 C 65.512,142.864 58.107,134.267 56.778,127.207 54.387,114.549 43.274,76.012 43.263,75.957 l 0,0 C 42.011,70.965 41.341,65.726 41.332,60.323 41.311,46.345 45.748,33.455 53.221,23.106 44.409,33.803 39.109,47.556 39.132,62.559 c 0.008,5.403 0.704,10.643 2.002,15.634 l 10e-4,0 c 0.012,0.054 11.542,38.591 14.02,51.25 1.382,7.06 9.063,15.656 16.531,20.849 6.967,4.845 11.263,11.574 28.313,11.574 17.05,0 21.346,-6.729 28.313,-11.574 7.468,-5.192 15.149,-13.789 16.531,-20.849 2.479,-12.658 14.009,-51.196 14.02,-51.25 l 0.002,0 c 1.298,-4.992 1.994,-10.231 2.002,-15.634 0.027,-15.007 -5.278,-28.764 -14.095,-39.463 z"
               stroke-width="none"
               inkscape:connector-curvature="0"
               style="opacity:1;fill:#e1ac85" />
            <path
               id="SvgjsPath7602"
               d="M 100.002,0.867 C 66.384,0.92 39.082,28.536 39.134,62.56 c 0.008,5.403 0.704,10.643 2.002,15.634 l 10e-4,0 c 0.012,0.054 11.542,38.591 14.02,51.25 1.382,7.06 9.063,15.656 16.531,20.849 6.967,4.845 11.263,11.574 28.313,11.574 17.05,0 21.346,-6.729 28.313,-11.574 7.468,-5.192 15.149,-13.789 16.531,-20.849 2.479,-12.658 14.009,-51.196 14.02,-51.25 l 0.002,0 c 1.298,-4.992 1.994,-10.231 2.002,-15.634 C 160.923,28.536 133.62,0.92 100.002,0.867 Z"
               inkscape:connector-curvature="0"
               style="opacity:1;fill:none;stroke:#bb7440;stroke-width:1.5" />
          </g>
        </g>
        <g
           id="svga-group-mouth-single">
          <path
             id="SvgjsPath7593"
             d="m 99.983,141.177 c -3.24,0 -4.753,-3.8 -4.753,-3.8 0,0 4.826,0.199 9.279,0.933 0,0 -1.677,2.867 -4.526,2.867 z"
             inkscape:connector-curvature="0"
             style="opacity:1;fill:url(#SvgjsLinearGradient7594)" />
          <path
             id="SvgjsPath7597"
             d="m 87.792,135.571 c -0.373,-0.33 1.528,-3.373 3.926,-4.045 3.031,-0.882 5.759,0.026 7.991,0.413 2.034,0.354 5.041,0.049 7.028,0.579 2.249,0.6 8.464,3.283 7.981,3.8 -0.238,0.255 -4.963,-1.676 -8.076,-2.278 -1.98,-0.384 -4.881,-0.086 -6.874,-0.413 -2.062,-0.337 -4.47,-1.21 -7.268,-0.805 -2.538,0.367 -4.283,3.125 -4.708,2.749 z"
             stroke-width="none"
             inkscape:connector-curvature="0"
             style="opacity:1;fill:#bb7440" />
        </g>
        <g
           id="svga-group-eyes-left">
          <g
             id="svga-group-eyesback-left">
            <path
               id="SvgjsPath7607"
               d="m 74.8,71.999 c 7.18,0 13,5.82 13,13 0,7.18 -5.82,13 -13,13 -7.18,0 -13,-5.82 -13,-13 0,-7.18 5.82,-13 13,-13 z"
               inkscape:connector-curvature="0"
               style="opacity:1;fill:url(#SvgjsRadialGradient7608)" />
          </g>
          <g
             id="svga-group-eyesiriswrapper-left"
             transform="translate(1,1)">
            <g
               id="svga-group-eyesiriscontrol-left">
              <g
                 id="svga-group-eyesiris-left">
                <path
                   id="SvgjsPath4342"
                   d="m 79.788,85.588 c -0.869,3.192 -4.162,5.073 -7.361,4.196 -3.197,-0.876 -5.084,-4.178 -4.214,-7.371 0.869,-3.195 4.168,-5.076 7.365,-4.198 3.194,0.875 5.081,4.177 4.21,7.373 z"
                   inkscape:connector-curvature="0"
                   style="opacity:1;fill:#4e60a3;stroke:#152975;stroke-width:0.5" />
                <path
                   id="SvgjsPath4343"
                   d="m 79.643,84.371 c -0.441,3.545 -3.072,5.392 -5.952,5.199 -2.658,-0.179 -5.034,-2.14 -5.254,-5.525 0.919,-0.264 2.14,0.165 3.211,0.001 -0.003,0.039 -0.017,0.074 -0.018,0.113 -0.084,1.3 0.958,2.433 2.329,2.525 1.374,0.092 2.556,-0.892 2.641,-2.191 0.009,-0.169 -10e-4,-0.336 -0.027,-0.496 0.954,0.144 2.12,0.002 3.07,0.374 z"
                   stroke-width="none"
                   inkscape:connector-curvature="0"
                   style="opacity:1;fill:#6777b2" />
                <path
                   id="SvgjsPath4344"
                   d="m 74.867,81.998 c -1.319,-0.377 -2.667,0.376 -3.007,1.691 -0.341,1.308 0.453,2.678 1.771,3.056 1.322,0.379 2.669,-0.375 3.011,-1.684 0.344,-1.316 -0.454,-2.685 -1.775,-3.063 z"
                   stroke-width="none"
                   inkscape:connector-curvature="0"
                   style="opacity:0.9;fill:#000000" />
                <path
                   id="SvgjsPath4345"
                   d="m 74.867,81.998 c -1.319,-0.377 -2.667,0.376 -3.007,1.691 -0.341,1.308 0.453,2.678 1.771,3.056 1.322,0.379 2.669,-0.375 3.011,-1.684 0.344,-1.316 -0.454,-2.685 -1.775,-3.063 z"
                   inkscape:connector-curvature="0"
                   style="opacity:1;fill:none;stroke:#152975;stroke-width:0.75" />
                <path
                   id="SvgjsPath4346"
                   d="m 71.16,87.657 c -0.125,0.437 -0.806,0.251 -0.681,-0.188 0.121,-0.423 0.446,-0.683 0.653,-1.055 0.221,-0.398 0.831,-0.042 0.609,0.356 -0.17,0.308 -0.484,0.544 -0.581,0.887 l 0,0 z m 1.086,-0.697 c -0.188,0.219 -0.434,1.03 -0.54,1.295 -0.17,0.422 0.513,0.604 0.681,0.188 0.058,-0.145 0.256,-0.863 0.359,-0.983 0.294,-0.344 -0.203,-0.846 -0.5,-0.5 l 0,0 z m 1.47,2.088 c 0.369,-0.425 0.332,-0.912 0.324,-1.441 -0.007,-0.455 -0.713,-0.455 -0.706,0 0.004,0.293 0.092,0.701 -0.117,0.942 -0.297,0.342 0.2,0.843 0.499,0.499 l 0,0 z m 0.721,-1.529 c 0.005,0.438 0.06,0.865 0.189,1.285 0.134,0.434 0.815,0.249 0.681,-0.188 -0.112,-0.362 -0.159,-0.719 -0.164,-1.097 -0.005,-0.455 -0.711,-0.456 -0.706,0 l 0,0 z"
                   stroke-width="none"
                   inkscape:connector-curvature="0"
                   style="opacity:0.5;fill:#ffffff" />
                <path
                   id="SvgjsPath4347"
                   d="m 78.197,82.971 c -0.695,0.417 -1.74,0.042 -2.333,-0.839 -0.592,-0.881 -0.503,-1.934 0.193,-2.349 0.694,-0.419 1.742,-0.043 2.33,0.838 0.592,0.881 0.506,1.933 -0.19,2.35 z"
                   stroke-width="none"
                   inkscape:connector-curvature="0"
                   style="opacity:0.8;fill:#ffffff" />
              </g>
            </g>
          </g>
          <g
             id="svga-group-eyesfront-left">
            <path
               id="SvgjsPath7632"
               d="m 56.198,84.999 c 0,13.807 8.507,25 19,25 10.493,0 19,-11.193 19,-25 0,-13.807 -8.507,-25 -19,-25 -10.493,0 -19,11.193 -19,25 z m 5.602,0 c 0,-7.18 5.82,-13 13,-13 7.18,0 13,5.82 13,13 0,7.18 -5.82,13 -13,13 -7.18,0 -13,-5.82 -13,-13 z"
               stroke-width="none"
               inkscape:connector-curvature="0"
               style="opacity:1;fill:#e9b995" />
            <path
               id="SvgjsPath7633"
               d="m 61.8,84.999 c 0,7.18 5.82,13 13,13 7.18,0 13,-5.82 13,-13 0,-7.18 -5.82,-13 -13,-13 -7.18,0 -13,5.82 -13,13 z m 1,0 c 0,-6.627 5.373,-12 12,-12 6.627,0 12,5.373 12,12 0,6.628 -5.373,12 -12,12 -6.627,0 -12,-5.372 -12,-12 z"
               stroke-width="none"
               inkscape:connector-curvature="0"
               style="opacity:1;fill:#000000" />
          </g>
        </g>
        <g
           id="svga-group-eyes-right">
          <g
             id="svga-group-eyesback-right">
            <path
               id="SvgjsPath7615"
               d="m 137.801,84.999 c 0,7.18 -5.82,13 -13,13 -7.18,0 -13,-5.82 -13,-13 0,-7.18 5.82,-13 13,-13 7.18,0 13,5.82 13,13 z"
               inkscape:connector-curvature="0"
               style="opacity:1;fill:url(#SvgjsRadialGradient7616)" />
          </g>
          <g
             id="svga-group-eyesiriswrapper-right"
             transform="translate(-1,1)">
            <g
               id="svga-group-eyesiriscontrol-right">
              <g
                 id="svga-group-eyesiris-right">
                <path
                   id="SvgjsPath4348"
                   d="m 131.788,85.588 c -0.869,3.192 -4.162,5.073 -7.362,4.196 -3.196,-0.876 -5.084,-4.178 -4.214,-7.371 0.869,-3.195 4.169,-5.076 7.365,-4.198 3.195,0.875 5.081,4.177 4.211,7.373 z"
                   inkscape:connector-curvature="0"
                   style="opacity:1;fill:#4e60a3;stroke:#152975;stroke-width:0.5" />
                <path
                   id="SvgjsPath4349"
                   d="m 131.643,84.371 c -0.44,3.545 -3.072,5.392 -5.951,5.199 -2.657,-0.179 -5.034,-2.14 -5.255,-5.525 0.919,-0.264 2.141,0.165 3.212,0.001 -0.004,0.039 -0.017,0.074 -0.019,0.113 -0.085,1.3 0.958,2.433 2.329,2.525 1.374,0.092 2.555,-0.892 2.64,-2.191 0.009,-0.169 -10e-4,-0.336 -0.026,-0.496 0.954,0.144 2.12,0.002 3.07,0.374 z"
                   stroke-width="none"
                   inkscape:connector-curvature="0"
                   style="opacity:1;fill:#6777b2" />
                <path
                   id="SvgjsPath4350"
                   d="m 126.867,81.998 c -1.319,-0.377 -2.666,0.376 -3.007,1.691 -0.341,1.308 0.453,2.678 1.771,3.056 1.322,0.379 2.669,-0.375 3.011,-1.684 0.344,-1.316 -0.454,-2.685 -1.775,-3.063 z"
                   stroke-width="none"
                   inkscape:connector-curvature="0"
                   style="opacity:0.9;fill:#000000" />
                <path
                   id="SvgjsPath4351"
                   d="m 126.867,81.998 c -1.319,-0.377 -2.666,0.376 -3.007,1.691 -0.341,1.308 0.453,2.678 1.771,3.056 1.322,0.379 2.669,-0.375 3.011,-1.684 0.344,-1.316 -0.454,-2.685 -1.775,-3.063 z"
                   inkscape:connector-curvature="0"
                   style="opacity:1;fill:none;stroke:#152975;stroke-width:0.75" />
                <path
                   id="SvgjsPath4352"
                   d="m 123.16,87.657 c -0.125,0.437 -0.806,0.251 -0.682,-0.188 0.121,-0.423 0.447,-0.683 0.654,-1.055 0.22,-0.398 0.83,-0.042 0.609,0.356 -0.17,0.308 -0.484,0.544 -0.581,0.887 l 0,0 z m 1.086,-0.697 c -0.188,0.219 -0.434,1.03 -0.54,1.295 -0.171,0.422 0.513,0.604 0.681,0.188 0.059,-0.145 0.256,-0.863 0.358,-0.983 0.295,-0.344 -0.202,-0.846 -0.499,-0.5 l 0,0 z m 1.47,2.088 c 0.369,-0.425 0.332,-0.912 0.324,-1.441 -0.007,-0.455 -0.713,-0.455 -0.706,0 0.004,0.293 0.092,0.701 -0.117,0.942 -0.297,0.342 0.201,0.843 0.499,0.499 l 0,0 z m 0.722,-1.529 c 0.005,0.438 0.059,0.865 0.188,1.285 0.135,0.434 0.815,0.249 0.681,-0.188 -0.112,-0.362 -0.159,-0.719 -0.164,-1.097 -0.005,-0.455 -0.711,-0.456 -0.705,0 l 0,0 z"
                   stroke-width="none"
                   inkscape:connector-curvature="0"
                   style="opacity:0.5;fill:#ffffff" />
                <path
                   id="SvgjsPath4353"
                   d="m 130.197,82.971 c -0.695,0.417 -1.74,0.042 -2.333,-0.839 -0.592,-0.881 -0.504,-1.934 0.192,-2.349 0.695,-0.419 1.742,-0.043 2.33,0.838 0.593,0.881 0.507,1.933 -0.189,2.35 z"
                   stroke-width="none"
                   inkscape:connector-curvature="0"
                   style="opacity:0.8;fill:#ffffff" />
              </g>
            </g>
          </g>
          <g
             id="svga-group-eyesfront-right">
            <path
               id="SvgjsPath7643"
               d="m 124.402,59.999 c -10.493,0 -19,11.193 -19,25 0,13.807 8.507,25 19,25 10.493,0 19,-11.193 19,-25 0,-13.807 -8.506,-25 -19,-25 z M 124.801,98 c -7.18,0 -13,-5.82 -13,-13 0,-7.18 5.82,-13 13,-13 7.18,0 13,5.82 13,13 0,7.179 -5.821,13 -13,13 z"
               stroke-width="none"
               inkscape:connector-curvature="0"
               style="opacity:1;fill:#e9b995" />
            <path
               id="SvgjsPath7644"
               d="m 124.801,71.999 c -7.18,0 -13,5.82 -13,13 0,7.18 5.82,13 13,13 7.18,0 13,-5.82 13,-13 0,-7.18 -5.821,-13 -13,-13 z m 0,25 c -6.627,0 -12,-5.372 -12,-12 0,-6.627 5.373,-12 12,-12 6.627,0 12,5.373 12,12 0,6.628 -5.373,12 -12,12 z"
               stroke-width="none"
               inkscape:connector-curvature="0"
               style="opacity:1;fill:#000000" />
          </g>
        </g>
        <g
           id="svga-group-facehighlight-single">
          <path
             id="SvgjsPath2885"
             d="m 141,113.974 c 0.035,22.622 -18.292,40.994 -40.938,41.025 -22.642,0.037 -41.028,-18.273 -41.063,-40.9 -0.035,-22.62 18.292,-41.064 40.937,-41.1 22.643,-0.035 41.031,18.35 41.064,40.975 z"
             inkscape:connector-curvature="0"
             style="opacity:1;fill:url(#SvgjsRadialGradient2886)" />
          <path
             id="SvgjsPath2889"
             d="m 137.5,53.999 c 0,20.711 -16.789,37.5 -37.499,37.5 -20.711,0 -37.501,-16.789 -37.501,-37.5 0,-20.711 16.79,-37.5 37.501,-37.5 20.71,0 37.499,16.789 37.499,37.5 z"
             inkscape:connector-curvature="0"
             style="opacity:1;fill:url(#SvgjsRadialGradient2890)" />
        </g>
        <g
           id="svga-group-eyebrows-left"
           transform="matrix(0.98256647,-0.18591161,0.18591161,0.98256647,-14.596073,10.899161)">
          <path
             id="SvgjsPath7671"
             d="M 54.205,76 C 75.5,58.2 97.741,71.497 90.924,74.732 88.252,76 78.133,64.999 54.205,76 Z"
             stroke-width="none"
             inkscape:connector-curvature="0"
             style="opacity:1;fill:#2a232b" />
        </g>
        <g
           id="svga-group-eyebrows-right"
           transform="matrix(0.98256647,0.18591161,-0.18591161,0.98256647,18.194306,-26.286485)">
          <path
             id="SvgjsPath7672"
             d="M 145.795,76 C 124.5,58.2 102.259,71.497 109.076,74.732 111.748,76 121.867,64.999 145.795,76 Z"
             stroke-width="none"
             inkscape:connector-curvature="0"
             style="opacity:1;fill:#2a232b" />
        </g>
        <g
           id="svga-group-nose-single">
          <path
             id="SvgjsPath7598"
             d="m 99.084,89.999 c 0,0 -0.887,20.454 -0.765,24.946 0.035,1.275 2.489,4.617 2.322,7.054 0,0 -4.788,-0.349 -6.345,-0.898 -1.629,-0.578 -4.151,-1.704 -3.154,-4.85 1.42,-4.475 7.942,-26.252 7.942,-26.252 z"
             stroke-width="none"
             inkscape:connector-curvature="0"
             style="opacity:1;fill:#daa075" />
          <path
             id="SvgjsPath7599"
             d="m 98.638,119.598 c 0,0 -1.985,-0.705 -3.239,-0.669 -1.142,0.035 -1.306,-0.726 -1.191,-1.158 0.116,-0.433 0.507,-0.701 1.61,-0.407 1.103,0.294 2.82,2.234 2.82,2.234 z m 2.955,0.002 c 0,0 1.98,-0.653 3.239,-0.667 1.142,-0.014 1.308,-0.726 1.191,-1.157 -0.116,-0.435 -0.508,-0.705 -1.61,-0.411 -1.103,0.297 -2.82,2.235 -2.82,2.235 z"
             stroke-width="none"
             inkscape:connector-curvature="0"
             style="opacity:1;fill:#bb7440" />
        </g>
        <g
           id="svga-group-beardwrap">
          <g
             id="svga-group-beard-single">
            <path
               id="SvgjsPath5818"
               d="m 100,18.13 0,0 0,0 0,0 z"
               stroke-width="none"
               inkscape:connector-curvature="0"
               style="opacity:1;fill:#a68469" />
          </g>
        </g>
        <g
           id="svga-group-mustache-single">
          <path
             id="SvgjsPath3019"
             d="m 100,18.13 0,0 0,0 0,0 z"
             stroke-width="none"
             inkscape:connector-curvature="0"
             style="opacity:1;fill:#2a232b" />
        </g>
        <g
           id="svga-group-hair-front">
          <path
             id="SvgjsPath5411"
             d="M 44.974,94.895 C 42.551,86.08 41.246,78.362 39.434,70.31 l 0.083,-0.019 c -0.686,-1.689 -3.162,-15.06 -3.185,-15.204 -2.525,-17.77 4.993,-18.784 4.84,-26.198 3.165,1.585 6.242,0.799 9.019,-1.365 -2.918,-1.499 -1.997,-1.736 -5.872,-4.095 2.731,-0.472 4.326,0.165 6.646,0.454 C 48.982,21.9 45.09,17.855 42.561,18.391 l -0.165,-0.354 c 3.661,-2.857 8.548,3.091 12.954,1.48 0.133,-16.373 24.067,-19.773 29.892,-22.206 7.755,-2.951 15.856,-9.441 21.553,-10.021 -3.225,3.241 -5.2,8.449 -5.347,12.358 4.698,-4.486 5.03,-4.355 12.151,-12.264 0,6.364 -1.763,7.163 -4.051,10.898 6.211,-4.07 13.955,-15.489 25.881,-17.235 l 0.131,0.37 c -4.298,2.532 -7.624,6.804 -9.898,12.708 2.257,-2.726 5.451,-5.683 8.986,-6.218 l 0.133,0.369 c -2.215,1.325 -6.554,5.742 -7.547,13.138 4.381,-4.893 11.35,-8.948 16.134,-10.48 l 0.187,0.346 c -4.392,3.573 -6.153,9.828 -7.146,15.146 3.08,-4.58 4.872,-5.624 8.747,-7.548 -1.247,1.865 -1.166,1.539 -2.158,3.566 2.396,6.123 10.313,6.361 11.666,17.059 1.63,-1.424 2.277,-1.781 4.151,-3.092 l 0.282,0.272 c -1.408,2.187 -2.569,6.06 -3.342,8.652 2.78,-2.123 7.073,-3.687 10.096,-4.778 l 0.211,0.328 c -2.551,2.593 -5.648,6.546 -6.162,10.834 1,-0.592 1.048,-0.524 2.35,-1.466 0,3.081 0.105,2.688 0.127,4.105 1.257,-1.125 1.45,-1.282 2.276,-2.181 -0.183,32.362 -1.845,25.912 -6.317,48.466 -0.784,3.963 -2.171,10.883 -3.061,14.207 l -6.049,1.039 c 1.87,-22.394 -0.093,-17.512 1.267,-31.604 2.012,-20.779 -14.804,-37.812 -37.025,-32.237 -4.496,1.128 -22.44,1.127 -26.934,0 -24.547,-6.163 -33.391,8.18 -36.026,33.278 -1.291,12.318 -1.607,8.161 0.267,30.563 l -5.801,-0.994 z"
             stroke-width="none"
             inkscape:connector-curvature="0"
             style="opacity:1;fill:#2a232b" />
          <path
             id="SvgjsPath5412"
             d="m 162.376,34.359 c -0.021,-1.418 -0.127,-1.024 -0.127,-4.105 -1.302,0.941 -1.35,0.874 -2.35,1.466 0.514,-4.288 3.611,-8.241 6.162,-10.834 l -0.211,-0.328 c -3.022,1.092 -7.315,2.655 -10.096,4.778 0.772,-2.592 1.934,-6.465 3.342,-8.652 l -0.282,-0.272 c -1.874,1.311 -2.521,1.668 -4.151,3.092 -1.353,-10.697 -9.27,-10.936 -11.666,-17.059 0.992,-2.027 0.911,-1.701 2.158,-3.566 -3.875,1.924 -5.667,2.968 -8.747,7.548 0.993,-5.318 2.755,-11.573 7.146,-15.146 l -0.187,-0.346 c -4.784,1.532 -11.753,5.587 -16.134,10.48 0.993,-7.396 5.332,-11.813 7.547,-13.138 l -0.133,-0.369 c -3.535,0.535 -6.729,3.493 -8.986,6.218 2.274,-5.904 5.601,-10.176 9.898,-12.708 l -0.131,-0.37 c -11.926,1.746 -19.67,13.165 -25.881,17.235 2.288,-3.735 4.051,-4.535 4.051,-10.898 -7.121,7.909 -7.453,7.778 -12.151,12.264 0.146,-3.909 2.122,-9.118 5.347,-12.358 -5.696,0.58 -13.797,7.069 -21.553,10.021 -5.824,2.432 -29.758,5.832 -29.891,22.206 -4.406,1.611 -9.293,-4.337 -12.954,-1.48 l 0.165,0.354 c 2.529,-0.537 6.421,3.508 8.404,5.492 -2.319,-0.289 -3.915,-0.926 -6.646,-0.454 3.875,2.359 2.954,2.596 5.872,4.095 -2.777,2.164 -5.854,2.95 -9.019,1.365 0.153,7.415 -7.366,8.429 -4.84,26.198 0.023,0.144 2.499,13.515 3.185,15.204 l -0.083,0.019 c 1.812,8.052 3.117,15.771 5.54,24.585 L 45,94.899 C 44.339,78.457 33.98,55.083 40.059,40.111 40.852,38.156 43.92,33 43.92,33 c 0,0 9.627,-1.264 10.08,-5 0,0 -2,-1 -3,-2 2,1 2,-2 4,-1 0,-2 -3,-1 -3,-3 2,0 4,0 6,2 -1,-5 0,-10 4,-13 10,-8 23,-7 33,-15 -1,5 -2,10 -2,15 6,-3 8,-9 13,-13 1,4 -1,9 -1,13 3,-7 7,-14 16,-16 -4,4 -4,10 -4,15 0,-4 4,-6 5,-9 0,4 0,8 0,12 2,-6 6,-9 11,-11 -4,4 -3,8 -4,13 3,-3 7,-4 10,-7 3,6 1,11 1,17 1,-5 6,-8 9,-12 1,5 1,10 0,15 1,-3 3,-5 4,-8 0,4.86 -0.668,9.062 -1.98,13.142 1.255,-1.452 3.304,-2.111 3.98,-4.142 0,4.325 0,7.904 0,12.027 0.58,-1.192 2.29,-1.608 3,-3.027 -0.854,3.413 -0.254,6.103 -0.059,9.302 0.371,-1.96 2.258,-3.162 2.94,-4.967 0.04,-0.778 0.081,-1.557 0.118,-2.335 0.229,0.912 0.135,1.664 -0.118,2.335 -0.912,17.771 -2.593,35.516 -6.256,52.628 l 0.648,-0.111 c 0.89,-3.324 2.276,-10.244 3.061,-14.207 4.473,-22.554 6.135,-16.104 6.317,-48.466 -0.825,0.899 -1.018,1.056 -2.275,2.18 z"
             stroke-width="none"
             inkscape:connector-curvature="0"
             style="opacity:1;fill:#3a353a" />
          <path
             id="SvgjsPath5413"
             d="m 167.779,19.695 c -4.949,0.834 -8.406,2.438 -11.05,4.25 0.385,-1.005 2.193,-6.67 4.14,-9.05 -2.99,1.333 -4.72,2.763 -5.72,3.51 0,-1.032 -0.398,-2.224 -0.59,-2.84 -0.189,-0.515 -0.348,-1.117 -1.271,-2.62 -5.171,-7.296 -5.494,-4.244 -9.729,-9.83 0.772,-1.811 1.889,-3.572 3.29,-5.03 -3.908,0.555 -5.965,2.075 -8.44,4.51 -0.04,0.04 -0.07,0.08 -0.1,0.12 1.551,-6.126 4.59,-11.437 10.56,-13.43 -7.384,-0.268 -16.525,5.192 -21.12,10.64 1.984,-6.381 4.646,-9.421 8.601,-12.25 -2.846,-0.421 -5.635,0.742 -7.841,2.58 2.541,-4.397 6.317,-7.899 9.351,-9.53 -0.431,-0.01 -0.94,-0.04 -1.5,0 -0.777,-0.199 -5.479,0.566 -7.16,1.29 -8.329,3.252 -14.389,10.822 -16.99,13.28 1.916,-3.098 2.01,-5.298 1.66,-8.52 -0.655,0.563 -11.615,11.055 -11.75,11.19 0.777,-4.309 2.245,-6.937 5.02,-10.79 -4.947,-0.926 -17.332,7.217 -25.01,9.39 -8.044,2.179 -28.004,6.723 -27.09,22.7 -4.295,0.819 -10.584,-6.077 -13.88,-0.29 2.646,-1.57 6.151,2.21 8.59,4.37 -1,-0.163 -4.343,-0.948 -5.96,0.13 1.894,0.735 3.55,2.932 5.89,4.1 0.03,0.01 0.06,0.02 0.09,0.04 -2.139,1.128 -4.667,2.034 -6.99,1.39 -0.35,-0.1 -0.58,-0.16 -0.58,-0.17 -0.27,-0.12 -0.56,-0.24 -0.87,-0.38 l -0.01,0 -0.01,-0.01 c -0.13,-0.07 -0.26,-0.14 -0.4,-0.21 0.695,5.608 -7.817,10.155 -6.88,22.02 0.385,7.301 4.949,29.508 10.686,44.566 l 0.483,0.144 c -2.392,-8.626 -3.777,-16.74 -5.569,-24.701 -0.156,0 -3.073,-15.044 -3.1,-15.21 -2.506,-17.631 4.994,-18.91 4.85,-25.84 3.121,1.561 6.532,0.436 9.18,-1.73 -3.118,-1.551 -2.453,-1.988 -5.68,-3.95 2.163,-0.374 4.803,0.483 6.62,0.6 -2.346,-2.346 -6.299,-6.51 -8.98,-5.94 3.568,-2.785 8.497,3.271 13.03,1.46 0,-16.383 23.723,-19.635 29.77,-22.16 7.271,-2.766 16.283,-9.476 20.939,-9.95 -2.44,2.458 -5.02,7.901 -5.02,12.58 4.834,-4.638 5.31,-4.615 12.16,-12.22 0,6.014 -2.247,7.088 -4.431,10.97 6.414,-3.698 14.179,-15.828 26.49,-17.63 -5.154,3.037 -8.435,8.325 -10.41,13.97 2.352,-3.059 5.8,-6.53 9.63,-7.11 -2.009,1.202 -6.861,5.782 -7.72,13.93 4.345,-5.114 11.586,-9.346 16.47,-10.91 -4.605,3.748 -6.368,10.371 -7.39,16.22 1.687,-2.573 3.357,-4.897 5.97,-6.54 0.011,-0.01 0.03,-0.02 0.04,-0.02 1.029,-0.699 0.76,-0.509 2.521,-1.39 -0.669,1 -0.731,0.87 -1.79,3.04 2.426,6.377 10.523,6.413 11.729,17.47 1.857,-1.647 2.441,-1.944 4.42,-3.33 -1.542,2.394 -2.784,6.768 -3.55,9.32 2.905,-2.485 8.279,-4.33 10.54,-5.15 -3,3.05 -5.913,7.096 -6.26,11.36 0.614,-0.413 1.394,-0.74 2.39,-1.46 0,2.724 0.13,2.36 0.13,4.16 0.526,-0.481 1.72,-1.51 2.271,-2.11 -0.196,31.716 -1.88,25.564 -6.311,47.91 -1.658,8.376 -2.533,12.25 -3.081,14.283 l 0.428,-0.087 c 3.584,-10.751 10.737,-35.042 10.414,-47.616 -0.033,-4.7 -1.059,-14.5 -1.11,-15.5 -0.021,0.018 -2.084,1.97 -2.11,1.97 0,-0.511 -0.21,-2.685 -0.21,-3.87 -0.353,0.271 -1.095,0.778 -2.09,1.36 1.379,-4.163 3.478,-6.75 7.4,-11.449 z"
             stroke-width="none"
             inkscape:connector-curvature="0"
             style="opacity:1;fill:#000000" />
        </g>
        <g
           id="svga-group-glasses-single">
          <path
             id="SvgjsPath4360"
             d="m 100,18.13 0,0 0,0 0,0 z"
             stroke-width="none"
             inkscape:connector-curvature="0"
             style="opacity:1;fill:#26120b" />
        </g>
      </g>
    </g>
    <rect
       id="SvgjsRect1036"
       width="200"
       height="15"
       x="0"
       y="185"
       style="display:none;opacity:0.5;fill:#ecf0f1" />
    <text
       id="SvgjsText1037"
       style="font-weight:400;font-size:10.07999992px;font-family:Roboto, 'Helvetica Neue', Helvetica, Arial, sans-serif;text-anchor:middle;display:none;fill:#000000"
       font-size="0.84em"
       font-weight="400"
       x="100"
       y="185">
      <tspan
         id="SvgjsTspan1038"
         dy="0"
         x="100"
         style="font-weight:400;font-size:8.46719933px;font-family:Roboto, 'Helvetica Neue', Helvetica, Arial, sans-serif;text-anchor:middle">Created on AvatarMaker.com</tspan>
    </text>
  </g>
  <defs
     id="SvgjsDefs1001">
    <radialGradient
       id="SvgjsRadialGradient2886"
       cx="100"
       cy="114"
       r="41"
       gradientUnits="userSpaceOnUse"
       class="svga-on-canvas-facehighlight-gradient-single-0">
      <stop
         id="SvgjsStop2887"
         stop-opacity="0.5"
         stop-color="#f8d3b8"
         offset="0" />
      <stop
         id="SvgjsStop2888"
         stop-opacity="0"
         stop-color="#e9b995"
         offset="0.9" />
    </radialGradient>
    <radialGradient
       id="SvgjsRadialGradient2890"
       cx="100"
       cy="54"
       r="37"
       gradientUnits="userSpaceOnUse"
       class="svga-on-canvas-facehighlight-gradient-single-1">
      <stop
         id="SvgjsStop2891"
         stop-opacity="0.5"
         stop-color="#f8d3b8"
         offset="0" />
      <stop
         id="SvgjsStop2892"
         stop-opacity="0"
         stop-color="#e9b995"
         offset="0.9" />
    </radialGradient>
    <radialGradient
       id="SvgjsRadialGradient4268"
       cx="-568.659"
       cy="-521.04199"
       r="59.750999"
       gradientTransform="matrix(0.096,-0.0248,0.0245,0.0961,141.2814,119.9893)"
       gradientUnits="userSpaceOnUse"
       class="svga-on-canvas-eyesiris-gradient-left-1">
      <stop
         id="SvgjsStop4269"
         stop-opacity="1"
         stop-color="#ffffff"
         offset="0" />
      <stop
         id="SvgjsStop4270"
         stop-opacity="0"
         stop-color="#ffffff"
         offset="1" />
    </radialGradient>
    <radialGradient
       id="SvgjsRadialGradient4272"
       cx="-582.83801"
       cy="-519.099"
       r="59.744999"
       gradientTransform="matrix(0.0991,8.856319e-4,-0.0011,0.0991,131.1134,135.9855)"
       gradientUnits="userSpaceOnUse"
       class="svga-on-canvas-eyesiris-gradient-left-2">
      <stop
         id="SvgjsStop4273"
         stop-opacity="1"
         stop-color="#ffffff"
         offset="0" />
      <stop
         id="SvgjsStop4274"
         stop-opacity="0"
         stop-color="#ffffff"
         offset="1" />
    </radialGradient>
    <linearGradient
       id="SvgjsLinearGradient4278"
       x1="122.67"
       y1="88.267998"
       x2="123.606"
       y2="87.152"
       gradientTransform="translate(-52,0)"
       gradientUnits="userSpaceOnUse"
       class="svga-on-canvas-eyesiris-gradient-left-5">
      <stop
         id="SvgjsStop4279"
         stop-opacity="1"
         stop-color="#ffffff"
         offset="0" />
      <stop
         id="SvgjsStop4280"
         stop-opacity="0"
         stop-color="#ffffff"
         offset="1" />
    </linearGradient>
    <linearGradient
       id="SvgjsLinearGradient4286"
       x1="129.636"
       y1="79.821999"
       x2="127.91"
       y2="81.878998"
       gradientTransform="translate(-52,0)"
       gradientUnits="userSpaceOnUse"
       class="svga-on-canvas-eyesiris-gradient-left-7">
      <stop
         id="SvgjsStop4287"
         stop-opacity="1"
         stop-color="#ffffff"
         offset="0" />
      <stop
         id="SvgjsStop4288"
         stop-opacity="0"
         stop-color="#ffffff"
         offset="1" />
    </linearGradient>
    <radialGradient
       id="SvgjsRadialGradient4291"
       cx="-568.65399"
       cy="-521.04199"
       r="59.751999"
       gradientTransform="matrix(0.096,-0.0248,0.0245,0.0961,193.2804,119.9894)"
       gradientUnits="userSpaceOnUse"
       class="svga-on-canvas-eyesiris-gradient-right-1">
      <stop
         id="SvgjsStop4292"
         stop-opacity="1"
         stop-color="#ffffff"
         offset="0" />
      <stop
         id="SvgjsStop4293"
         stop-opacity="0"
         stop-color="#ffffff"
         offset="1" />
    </radialGradient>
    <radialGradient
       id="SvgjsRadialGradient4295"
       cx="-582.83301"
       cy="-519.10199"
       r="59.747002"
       gradientTransform="matrix(0.0991,8.856319e-4,-0.0011,0.0991,183.1126,135.9856)"
       gradientUnits="userSpaceOnUse"
       class="svga-on-canvas-eyesiris-gradient-right-2">
      <stop
         id="SvgjsStop4296"
         stop-opacity="1"
         stop-color="#ffffff"
         offset="0" />
      <stop
         id="SvgjsStop4297"
         stop-opacity="0"
         stop-color="#ffffff"
         offset="1" />
    </radialGradient>
    <linearGradient
       id="SvgjsLinearGradient4301"
       x1="122.67"
       y1="88.267998"
       x2="123.606"
       y2="87.152"
       gradientUnits="userSpaceOnUse"
       class="svga-on-canvas-eyesiris-gradient-right-5">
      <stop
         id="SvgjsStop4302"
         stop-opacity="1"
         stop-color="#ffffff"
         offset="0" />
      <stop
         id="SvgjsStop4303"
         stop-opacity="0"
         stop-color="#ffffff"
         offset="1" />
    </linearGradient>
    <linearGradient
       id="SvgjsLinearGradient4309"
       x1="129.636"
       y1="79.821999"
       x2="127.91"
       y2="81.878998"
       gradientUnits="userSpaceOnUse"
       class="svga-on-canvas-eyesiris-gradient-right-7">
      <stop
         id="SvgjsStop4310"
         stop-opacity="1"
         stop-color="#ffffff"
         offset="0" />
      <stop
         id="SvgjsStop4311"
         stop-opacity="0"
         stop-color="#ffffff"
         offset="1" />
    </linearGradient>
    <linearGradient
       id="SvgjsLinearGradient4329"
       x1="132"
       y1="78"
       x2="126"
       y2="84"
       gradientTransform="translate(-50,0)"
       gradientUnits="userSpaceOnUse"
       class="svga-on-canvas-eyesiris-gradient-left-6">
      <stop
         id="SvgjsStop4330"
         stop-opacity="1"
         stop-color="#ffffff"
         offset="0" />
      <stop
         id="SvgjsStop4331"
         stop-opacity="0"
         stop-color="#ffffff"
         offset="1" />
    </linearGradient>
    <linearGradient
       id="SvgjsLinearGradient4339"
       x1="132"
       y1="78"
       x2="126"
       y2="84"
       gradientUnits="userSpaceOnUse"
       class="svga-on-canvas-eyesiris-gradient-right-6">
      <stop
         id="SvgjsStop4340"
         stop-opacity="1"
         stop-color="#ffffff"
         offset="0" />
      <stop
         id="SvgjsStop4341"
         stop-opacity="0"
         stop-color="#ffffff"
         offset="1" />
    </linearGradient>
    <radialGradient
       id="SvgjsRadialGradient7518"
       cx="121.986"
       cy="82.496002"
       fx="133.239"
       fy="82.527"
       r="16.003"
       gradientTransform="matrix(0.9998,0.0208,0.0166,-0.7998,-45.3195,145.9395)"
       gradientUnits="userSpaceOnUse"
       class="svga-on-canvas-eyesfront-gradient-left-3">
      <stop
         id="SvgjsStop7519"
         stop-opacity="1"
         stop-color="#daa075"
         offset="0" />
      <stop
         id="SvgjsStop7520"
         stop-opacity="0.3"
         stop-color="#daa075"
         offset="0.7" />
      <stop
         id="SvgjsStop7521"
         stop-opacity="0"
         stop-color="#e9b995"
         offset="1" />
    </radialGradient>
    <radialGradient
       id="SvgjsRadialGradient7523"
       cx="68.931"
       cy="105.995"
       r="29.524"
       gradientTransform="matrix(1.0336,0,0,1.0336,-1.6796,1.3127)"
       gradientUnits="userSpaceOnUse"
       class="svga-on-canvas-eyesfront-gradient-left-4">
      <stop
         id="SvgjsStop7524"
         stop-opacity="0"
         stop-color="#000000"
         offset="0.95" />
      <stop
         id="SvgjsStop7525"
         stop-opacity="0.2"
         stop-color="#000000"
         offset="1" />
    </radialGradient>
    <radialGradient
       id="SvgjsRadialGradient7538"
       cx="121.587"
       cy="82.496002"
       fx="132.839"
       fy="82.527"
       r="16.003"
       gradientTransform="matrix(-0.9998,0.0208,-0.0166,-0.7998,244.5208,145.9478)"
       gradientUnits="userSpaceOnUse"
       class="svga-on-canvas-eyesfront-gradient-right-3">
      <stop
         id="SvgjsStop7539"
         stop-opacity="1"
         stop-color="#daa075"
         offset="0" />
      <stop
         id="SvgjsStop7540"
         stop-opacity="0.3"
         stop-color="#daa075"
         offset="0.7" />
      <stop
         id="SvgjsStop7541"
         stop-opacity="0"
         stop-color="#e9b995"
         offset="1" />
    </radialGradient>
    <radialGradient
       id="SvgjsRadialGradient7543"
       cx="69.316002"
       cy="105.995"
       r="29.524"
       gradientTransform="matrix(-1.0336,0,0,1.0336,201.6796,1.3127)"
       gradientUnits="userSpaceOnUse"
       class="svga-on-canvas-eyesfront-gradient-right-4">
      <stop
         id="SvgjsStop7544"
         stop-opacity="0"
         stop-color="#000000"
         offset="0.95" />
      <stop
         id="SvgjsStop7545"
         stop-opacity="0.2"
         stop-color="#000000"
         offset="1" />
    </radialGradient>
    <linearGradient
       id="SvgjsLinearGradient7594"
       x1="100"
       y1="141"
       x2="100"
       y2="137"
       gradientUnits="userSpaceOnUse"
       class="svga-on-canvas-mouth-gradient-single-0">
      <stop
         id="SvgjsStop7595"
         stop-opacity="1"
         stop-color="#e1ac85"
         offset="0.1" />
      <stop
         id="SvgjsStop7596"
         stop-opacity="1"
         stop-color="#daa075"
         offset="1" />
    </linearGradient>
    <linearGradient
       id="SvgjsLinearGradient7604"
       x1="100"
       y1="172"
       x2="100"
       y2="130"
       gradientUnits="userSpaceOnUse"
       class="svga-on-canvas-chinshadow-gradient-single-0">
      <stop
         id="SvgjsStop7605"
         stop-opacity="0.8"
         stop-color="#daa075"
         offset="0" />
      <stop
         id="SvgjsStop7606"
         stop-opacity="1"
         stop-color="#bb7440"
         offset="0.7" />
    </linearGradient>
    <radialGradient
       id="SvgjsRadialGradient7608"
       cx="125.2"
       cy="85"
       r="13"
       gradientTransform="matrix(-1,0,0,1,200,0)"
       gradientUnits="userSpaceOnUse"
       class="svga-on-canvas-eyesback-gradient-left-0">
      <stop
         id="SvgjsStop7609"
         stop-opacity="1"
         stop-color="#ffffff"
         offset="0" />
      <stop
         id="SvgjsStop7610"
         stop-opacity="1"
         stop-color="#fdfefe"
         offset="0.544" />
      <stop
         id="SvgjsStop7611"
         stop-opacity="1"
         stop-color="#f6f8f9"
         offset="0.74" />
      <stop
         id="SvgjsStop7612"
         stop-opacity="1"
         stop-color="#eaeff2"
         offset="0.879" />
      <stop
         id="SvgjsStop7613"
         stop-opacity="1"
         stop-color="#d9e3e8"
         offset="0.992" />
      <stop
         id="SvgjsStop7614"
         stop-opacity="1"
         stop-color="#d8e2e7"
         offset="1" />
    </radialGradient>
    <radialGradient
       id="SvgjsRadialGradient7616"
       cx="124.801"
       cy="85"
       r="13"
       gradientUnits="userSpaceOnUse"
       class="svga-on-canvas-eyesback-gradient-right-0">
      <stop
         id="SvgjsStop7617"
         stop-opacity="1"
         stop-color="#ffffff"
         offset="0" />
      <stop
         id="SvgjsStop7618"
         stop-opacity="1"
         stop-color="#fdfefe"
         offset="0.544" />
      <stop
         id="SvgjsStop7619"
         stop-opacity="1"
         stop-color="#f6f8f9"
         offset="0.74" />
      <stop
         id="SvgjsStop7620"
         stop-opacity="1"
         stop-color="#eaeff2"
         offset="0.879" />
      <stop
         id="SvgjsStop7621"
         stop-opacity="1"
         stop-color="#d9e3e8"
         offset="0.992" />
      <stop
         id="SvgjsStop7622"
         stop-opacity="1"
         stop-color="#d8e2e7"
         offset="1" />
    </radialGradient>
    <radialGradient
       id="SvgjsRadialGradient7624"
       cx="125.2"
       cy="85"
       r="13"
       gradientTransform="matrix(-1,0,0,1,200,0)"
       gradientUnits="userSpaceOnUse"
       class="svga-on-canvas-eyesfront-gradient-left-0">
      <stop
         id="SvgjsStop7625"
         stop-opacity="1"
         stop-color="#ffffff"
         offset="0" />
      <stop
         id="SvgjsStop7626"
         stop-opacity="1"
         stop-color="#fdfefe"
         offset="0.544" />
      <stop
         id="SvgjsStop7627"
         stop-opacity="1"
         stop-color="#f6f8f9"
         offset="0.74" />
      <stop
         id="SvgjsStop7628"
         stop-opacity="1"
         stop-color="#eaeff2"
         offset="0.879" />
      <stop
         id="SvgjsStop7629"
         stop-opacity="1"
         stop-color="#d9e3e8"
         offset="0.992" />
      <stop
         id="SvgjsStop7630"
         stop-opacity="1"
         stop-color="#d8e2e7"
         offset="1" />
    </radialGradient>
    <radialGradient
       id="SvgjsRadialGradient7635"
       cx="124.801"
       cy="85"
       r="13"
       gradientUnits="userSpaceOnUse"
       class="svga-on-canvas-eyesfront-gradient-right-0">
      <stop
         id="SvgjsStop7636"
         stop-opacity="1"
         stop-color="#ffffff"
         offset="0" />
      <stop
         id="SvgjsStop7637"
         stop-opacity="1"
         stop-color="#fdfefe"
         offset="0.544" />
      <stop
         id="SvgjsStop7638"
         stop-opacity="1"
         stop-color="#f6f8f9"
         offset="0.74" />
      <stop
         id="SvgjsStop7639"
         stop-opacity="1"
         stop-color="#eaeff2"
         offset="0.879" />
      <stop
         id="SvgjsStop7640"
         stop-opacity="1"
         stop-color="#d9e3e8"
         offset="0.992" />
      <stop
         id="SvgjsStop7641"
         stop-opacity="1"
         stop-color="#d8e2e7"
         offset="1" />
    </radialGradient>
  </defs>
</svg>
