<?xml version="1.0" encoding="UTF-8" standalone="no"?>
<svg
   xmlns:dc="http://purl.org/dc/elements/1.1/"
   xmlns:cc="http://creativecommons.org/ns#"
   xmlns:rdf="http://www.w3.org/1999/02/22-rdf-syntax-ns#"
   xmlns:svg="http://www.w3.org/2000/svg"
   xmlns="http://www.w3.org/2000/svg"
   xmlns:sodipodi="http://sodipodi.sourceforge.net/DTD/sodipodi-0.dtd"
   xmlns:inkscape="http://www.inkscape.org/namespaces/inkscape"
   version="1.1"
   width="630.01111"
   height="725.95148"
   xlink="http://www.w3.org/1999/xlink"
   style="overflow:hidden"
   id="svg711"
   inkscape:version="0.91 r13725"
   sodipodi:docname="fabrice-happy.svg">
  <metadata
     id="metadata895">
    <rdf:RDF>
      <cc:Work
         rdf:about="">
        <dc:format>image/svg+xml</dc:format>
        <dc:type
           rdf:resource="http://purl.org/dc/dcmitype/StillImage" />
        <dc:title></dc:title>
      </cc:Work>
    </rdf:RDF>
  </metadata>
  <sodipodi:namedview
     pagecolor="#ffffff"
     bordercolor="#666666"
     borderopacity="1"
     objecttolerance="10"
     gridtolerance="10"
     guidetolerance="10"
     inkscape:pageopacity="0"
     inkscape:pageshadow="2"
     inkscape:window-width="640"
     inkscape:window-height="480"
     id="namedview893"
     showgrid="false"
     fit-margin-top="0"
     fit-margin-left="0"
     fit-margin-right="0"
     fit-margin-bottom="0"
     inkscape:zoom="0.39333333"
     inkscape:cx="315.039"
     inkscape:cy="414.00459"
     inkscape:window-x="0"
     inkscape:window-y="0"
     inkscape:window-maximized="0"
     inkscape:current-layer="svg711" />
  <g
     id="svga-group-wrapper"
     transform="matrix(3,0,0,3,15.039,11.946882)">
    <g
       id="svga-group-backs-single" />
    <g
       id="svga-group-subwrapper"
       transform="translate(0,2)">
      <g
         id="svga-group-hair-back">
        <path
           id="SvgjsPath7313"
           d="m 100.5,100.5 -1,0 0,-1 1,0 0,1 z"
           stroke-width="none"
           inkscape:connector-curvature="0"
           style="opacity:1;fill:#caa478" />
      </g>
      <g
         id="svga-group-humanbody-single">
        <path
           id="SvgjsPath4728"
           d="m 195.417,199.778 c -2.196,-4.746 -8.195,-11.779 -14.86,-13.722 -8.239,-2.403 -26.837,-5.308 -33.733,-6.923 -5.528,-1.296 -16.662,-11.294 -20.564,-14.65 -0.7,-0.6 -1.273,-1.839 -1.287,-2.76 -0.139,-10.864 4.195,-39.724 4.195,-39.724 l -29.168,0 -29.167,0 c 0,0 4.334,28.859 4.193,39.724 -0.011,0.921 -0.587,2.16 -1.285,2.76 -3.902,3.356 -15.036,13.354 -20.564,14.65 -6.897,1.615 -25.495,4.619 -33.733,7.022 -6.667,1.942 -12.664,8.876 -14.86,13.622 -3.708,8.008 -4.584,22.5 -4.584,35 l 100,0 100,0 c 0,-12.499 -0.877,-26.991 -4.583,-34.999 z"
           stroke-width="none"
           inkscape:connector-curvature="0"
           style="opacity:1;fill:#f0c7b1;stroke:none" />
        <path
           id="SvgjsPath4729"
           d="m 159.156,184.058 c 24.342,3.542 34.586,8.708 37.794,50.721 l 3.05,0 c 0,-12.5 -0.877,-26.992 -4.583,-35 -2.196,-4.746 -8.195,-11.779 -14.86,-13.722 -8.239,-2.403 -26.837,-5.308 -33.733,-6.923 -5.528,-1.296 -18.242,-12.069 -21.643,-16.35 3.36,4.704 12.791,15.605 21.054,18.46 3.953,1.366 7.245,1.988 12.921,2.814 z m -105.39,-2.814 c 8.263,-2.854 17.693,-13.756 21.054,-18.46 -3.4,4.28 -16.114,15.054 -21.643,16.35 -6.896,1.615 -25.494,4.619 -33.733,7.022 -6.665,1.942 -12.664,8.876 -14.86,13.622 -3.706,8.008 -4.583,22.5 -4.583,35 l 3.05,0 c 3.188,-41.744 13.475,-47.183 37.794,-50.721 5.675,-0.825 8.968,-1.447 12.921,-2.813 z"
           stroke-width="none"
           inkscape:connector-curvature="0"
           style="opacity:1;fill:#ffe4d6;stroke:none" />
        <path
           id="SvgjsPath4730"
           d="m 95.646,197.62 c 0,0 -5.074,-1.609 -7.083,-2.379 -10.449,-4.009 -44.395,-6.607 -44.395,-6.607 0,0 35.754,1.419 43.644,2.779 -0.458,-4.767 -3.017,-20.004 -3.017,-20.004 0,0 5.149,16.815 6.409,21.057 0.674,2.268 4.442,5.154 4.442,5.154 z m 10.799,-1.342 c -0.089,0.073 -0.191,0.168 -0.302,0.268 0.113,-0.085 0.215,-0.174 0.302,-0.268 z m -10.799,1.342 c 0,0 2.893,2.992 4.347,3.03 1.91,0.051 4.828,-2.899 6.151,-4.104 -1.265,0.957 -4.159,1.391 -5.31,1.436 -1.33,0.051 -5.188,-0.362 -5.188,-0.362 z m 21.018,-7.519 c -1.545,0.248 -4.386,0.789 -4.386,0.789 L 114.565,176 c -0.646,3.071 -4.474,16.211 -8.12,20.278 1.91,-1.616 6.158,-2.391 8.324,-2.704 10.236,-1.484 10.232,-1.483 41.062,-4.94 0,0 -29.071,-0.155 -39.167,1.467 z"
           stroke-width="none"
           inkscape:connector-curvature="0"
           style="opacity:1;fill:#e1ac8f;stroke:none" />
        <path
           id="SvgjsPath4731"
           d="m 195.417,199.778 c -2.196,-4.746 -8.195,-11.779 -14.86,-13.722 -8.239,-2.403 -26.837,-5.308 -33.733,-6.923 -5.528,-1.296 -16.662,-11.294 -20.564,-14.65 -0.7,-0.6 -1.273,-1.839 -1.287,-2.76 -0.139,-10.864 4.195,-39.724 4.195,-39.724 l -29.168,0 -29.167,0 c 0,0 4.334,28.859 4.193,39.724 -0.011,0.921 -0.587,2.16 -1.285,2.76 -3.902,3.356 -15.036,13.354 -20.564,14.65 -6.897,1.615 -25.495,4.619 -33.733,7.022 -6.667,1.942 -12.664,8.876 -14.86,13.622 -3.708,8.008 -4.584,22.5 -4.584,35 l 100,0 100,0 c 0,-12.499 -0.877,-26.991 -4.583,-34.999 z"
           inkscape:connector-curvature="0"
           style="opacity:1;fill:none;stroke:#c27b55;stroke-width:1.5" />
      </g>
      <g
         id="svga-group-chinshadow-single">
        <path
           id="SvgjsPath7321"
           d="m 117.136,169.742 c 2.515,-1.069 5.217,-3.028 7.927,-5.519 -0.494,-0.746 -0.828,-1.684 -0.841,-2.49 -0.093,-7.296 1.775,-22.369 3.054,-31.753 -15.779,-1.925 -38.771,-1.917 -54.549,0.014 1.278,9.384 3.145,24.446 3.05,31.738 -0.01,0.789 -0.348,1.735 -0.84,2.485 2.712,2.493 5.416,4.454 7.932,5.524 7.443,3.166 26.824,3.166 34.267,10e-4 z"
           inkscape:connector-curvature="0"
           style="opacity:1;fill:url(#SvgjsLinearGradient7322)" />
      </g>
      <g
         id="svga-group-clothes-single">
        <path
           id="SvgjsPath7308"
           d="m 197.798,201.546 c -10.478,-20.278 -30.653,-17.404 -49.968,-22.843 -0.468,3.585 -13.251,20.479 -16.287,30.061 -1.705,-1.423 -3.74,-3.325 -5.209,-5.066 -7.188,-8.443 -17.841,-35.76 -21.416,-14.428 0.777,-9.576 5.003,-11.686 10.871,-3.659 6.308,8.638 6.542,13.098 15.542,22.491 1.59,-6.601 5.032,-11.259 9.036,-17.104 3.875,-5.663 6.705,-8.217 7.119,-13.258 -1.445,-2.408 -1.099,-3.486 -3.434,-5.046 -14.655,-9.912 -4.192,-19.97 -17.476,-22.365 -0.104,1.198 -0.235,2.54 -0.345,3.549 2.841,1.462 3.691,7.152 -0.683,11.318 -6.951,7.631 -18.12,8.01 -21.032,19.723 l -0.007,-0.001 c -0.927,3.477 -1.669,8.799 -2.021,11.919 l -2.455,24.898 -2.47,-24.457 C 95.56,178.919 92.942,177.123 84.38,171.45 c -5.673,-3.76 -14.943,-9.433 -11.917,-15.847 0.345,-0.742 0.765,-1.198 1.286,-1.541 -0.15,-1.466 -0.238,-2.316 -0.354,-3.678 -10.967,0.467 -9.281,15.982 -17.586,21.69 -2.177,1.496 -3.287,2.879 -4.068,5.129 0.531,6.281 14.504,20.476 16.945,30.899 9.085,-9.592 9.155,-13.783 15.5,-22.459 5.465,-7.465 9.928,-6.699 10.867,3.403 -0.516,-3.035 -1.738,-7.681 -4.386,-7.681 -2.182,0 -4.456,3.218 -5.581,4.771 -6.299,8.678 -7.311,14.885 -16.647,22.633 -0.646,-1.941 -1.404,-3.891 -2.308,-5.706 -3.7,-7.474 -13.719,-22.555 -14.858,-24.017 -4.428,1.246 -11.177,2.626 -15.233,3.3 -26.504,4.411 -36.778,12.969 -40.685,53.031 97.202,-0.984 136.811,-0.556 209.21,-0.556 -0.905,-8.914 -2.684,-25.361 -6.767,-33.275 z"
           stroke-width="none"
           inkscape:connector-curvature="0"
           style="opacity:1;fill:#864025" />
        <path
           id="SvgjsPath7309"
           d="m 139.969,190.783 c -3.461,5.054 -6.201,9.3 -7.908,14.621 1.967,-10.979 14.436,-21.374 13.086,-27.939 -0.578,-2.812 -10.526,-9.081 -11.041,-18.4 2.745,8.538 12.992,14.632 13.009,18.723 0.027,6.694 -0.173,2.807 -7.146,12.995 z m 64.517,43.245 c 0.347,-8.682 -2.572,-25.584 -6.19,-32.598 -10.478,-20.278 -31.563,-17.691 -50.877,-23.13 -0.171,0.218 0.49,1.66 0.027,2.28 45.149,8.32 50.29,18.237 57.04,53.448 z M 55.812,172.075 c 5.547,-4.597 7.21,-9.05 8.483,-13.011 -2.85,16.28 -7.111,10.123 -10.22,18.276 -1.778,4.663 12.003,17.403 13.866,28.063 -2.442,-4.175 -5.06,-9.313 -8.521,-14.367 -2.694,-3.937 -4.41,-7.537 -7.079,-10.567 -1.272,-6.713 1.355,-6.64 3.471,-8.394 z m -3.472,8.395 c -0.463,-0.62 -0.894,-1.204 -1.065,-1.422 -19.314,5.438 -38.594,2.104 -49.071,22.383 -3.619,7.014 -5.426,21.363 -6.423,30.064 C -2.29,220.922 0.585,207.602 6.744,199.566 17.188,185.399 36.46,182.665 52.34,180.47 Z"
           stroke-width="none"
           inkscape:connector-curvature="0"
           style="opacity:1;fill:#955238" />
        <path
           id="SvgjsPath7310"
           d="m 119.848,171.392 c -4.863,2.82 -8.981,5.588 -11.713,9.481 6.567,0.362 11.421,12.099 12.734,13.695 -12.333,-17.166 -17,-5.5 -18.5,5.432 0.432,-3.546 0.787,-9.596 1.487,-12.193 0.204,-1.033 0.423,-2.021 0.654,-2.889 l 0.007,0.001 c 2.912,-11.713 14.081,-12.092 21.032,-19.723 4.374,-4.166 3.523,-9.856 0.683,-11.318 0.109,-1.009 0.241,-2.351 0.345,-3.549 0.729,0.133 1.379,0.292 1.982,0.469 8.959,7.881 -2.599,17.859 -8.711,20.594 z m -40.883,0 c 4.864,2.82 10.812,6.162 13.536,9.717 -4.798,-0.873 -10.131,6.294 -12.798,12.627 11.5,-14.667 15,-6.333 18.667,6.265 -0.431,-3.545 -1.524,-9.596 -2.224,-12.193 -0.204,-1.033 -0.422,-2.021 -0.654,-2.889 l -0.006,10e-4 c -2.912,-11.713 -13.682,-12.092 -20.633,-19.723 -4.374,-4.166 -3.622,-9.856 -0.781,-11.318 -0.109,-1.009 -0.24,-2.351 -0.344,-3.549 -0.729,0.133 -1.379,0.292 -1.982,0.469 -7.508,9.168 1.726,17.261 7.219,20.593 z"
           stroke-width="none"
           inkscape:connector-curvature="0"
           style="opacity:1;fill:#773015" />
        <path
           id="SvgjsPath7311"
           d="m 125.876,163.323 c 0.031,-5.701 -0.159,-2.538 0.418,-8.99 2.224,1.193 2.507,6.09 -0.418,8.99 z m -51.737,-0.539 c -2.323,-3.04 -2.61,-6.145 -0.347,-8.49 0.542,5.058 0.267,4.448 0.347,8.49 z"
           stroke-width="none"
           inkscape:connector-curvature="0"
           style="opacity:1;fill:#672208" />
        <path
           id="SvgjsPath7312"
           d="m 147.624,176.915 c -0.206,-3.542 -7.813,-6.496 -11.188,-14.175 -2.417,-5.47 -0.123,-11.734 -10.065,-12.741 -0.545,3.187 -1.028,10.193 -0.883,13.579 -5.038,5.423 -12.831,6.826 -17.785,12.657 -5.288,6.224 -7.58,19.7 -7.667,47.667 l 1.232,-0.801 c 0,0 1.372,-26.485 1.382,-26.563 3.084,-26.427 12.888,-20.185 22.979,-31.263 4.521,-4.332 3.441,-10.072 0.722,-11.463 0.118,-1.12 0.228,-2.229 0.325,-3.35 8.552,1.571 6.109,6.605 8.784,12.753 3.556,8.174 10.297,9.959 10.732,13.923 0.69,6.281 -3.058,8.947 -6.817,14.434 -5.913,8.559 -7.28,12.925 -8.101,16.308 -8.975,-9.426 -8.98,-13.558 -15.398,-22.338 -6.844,-9.366 -11.339,-4.974 -13.226,10.996 0.194,-2.625 3.77,-17.175 8.043,-14.651 4.939,2.878 9.791,15.108 15.561,21.886 1.539,1.823 3.521,3.652 5.345,5.182 3.407,-11.897 16,-24.465 16.408,-30.205 19.695,5.556 53.439,-0.145 56.441,55.963 -41.138,0.22 -85.815,-0.682 -208.97,0.554 1.785,-18.437 4.804,-36.508 15.723,-44.653 4.685,-3.507 10.117,-5.341 15.712,-6.508 7.797,-1.616 16.522,-2.655 24.253,-4.747 0.788,1 14.205,21.198 17.224,29.597 10.863,-8.503 15.207,-24.459 21.188,-27.214 4.164,-1.913 7.559,11.938 7.753,14.553 -1.63,-16.891 -6.95,-22.418 -17.024,-4.923 -4.964,8.624 -6.28,10.962 -11.56,16.51 -2.12,-8.994 -16.895,-25.954 -16.253,-30.662 0.634,-4.646 6.314,-3.363 10.098,-13.244 2.122,-5.54 1.652,-11.648 10.708,-13.455 0.098,1.167 0.217,2.32 0.336,3.486 -2.479,1.631 -3.109,7.111 0.852,10.942 3.567,4.085 10.004,6.416 14.255,9.676 5.011,3.867 6.993,7.827 8.588,21.67 0.035,0.302 1.37,26.942 1.37,26.942 l 1.333,0.667 c -0.667,-27.833 -3.335,-44.568 -8.721,-49.258 -4.652,-4.15 -12.775,-6.796 -16.717,-11.429 0.12,-3.476 -0.565,-10.518 -0.993,-13.171 -9.009,0.918 -9.264,6.638 -11.196,11.632 -5.165,13.351 -10.134,9.527 -10.957,15.059 -0.077,0.517 0.042,0.906 0.167,1.594 -7.58,1.548 -17.04,2.563 -24.641,3.953 -11.343,2.071 -22.045,8.058 -26.925,19.452 -3.707,8.647 -4.781,24.051 -5.053,33.543 -0.011,0.068 -0.011,0.147 -0.011,0.215 0.152,0.012 0.314,0.012 0.466,0.012 130.475,1.387 208.449,-0.578 209.534,-0.578 0.382,-53.36 -28.785,-51.026 -57.363,-58.013 z m -21.648,-13.891 c 0.016,-2.933 0.105,-6.329 0.318,-8.691 1.598,1.14 2.839,4.929 -0.318,8.691 z m -51.888,-0.431 c -2.652,-3.471 -1.6,-6.836 -0.396,-8 0.251,2.346 0.35,5.631 0.396,8 z"
           stroke-width="none"
           inkscape:connector-curvature="0"
           style="opacity:1;fill:#581900" />
      </g>
      <g
         id="svga-group-head">
        <g
           id="svga-group-ears-left">
          <path
             id="SvgjsPath5541"
             d="m 47.218,81.505 c -0.967,-2.487 -8.082,-6.002 -11.21,-5.447 -3.538,0.627 -4.838,4.356 -4.369,7.119 1.103,6.487 3.996,9.219 5.296,14.286 1.096,4.273 3.433,6.732 4.588,8.548 1.42,2.228 2.73,7.341 3.023,8.087 0.463,1.18 2.103,4.043 5.002,3.896 3.333,-0.172 7.545,-6.688 7.614,-8.135 0.382,-7.85 -7.429,-21.88 -9.944,-28.354 z"
             inkscape:connector-curvature="0"
             style="opacity:1;fill:#f0c7b1;stroke:#c27b55;stroke-width:1.5" />
          <path
             id="SvgjsPath5542"
             d="m 47.953,107.96 c 0,0 0.429,-1.071 -0.094,-2.022 -0.672,-1.223 -2.423,-3.468 -2.821,-4.811 -0.325,-1.098 -0.16,-3.445 -0.213,-4.593 -0.094,-2.03 -1.492,-3.42 -1.927,-4.585 -2.914,-7.793 -6.792,-12.623 -9,-13.626 -1.633,3.989 -0.339,6.907 1.94,13.045 -1.375,-8.342 -0.054,-10.95 -0.054,-10.95 0,0 4.018,3.465 6.001,11.172 0.359,1.391 -1.111,4.294 -0.83,5.705 0.352,1.772 4.184,5.201 5.257,6.635 0.837,1.117 1.741,4.03 1.741,4.03 z"
             stroke-width="none"
             inkscape:connector-curvature="0"
             style="opacity:1;fill:#c27b55;stroke:none" />
        </g>
        <g
           id="svga-group-ears-right">
          <path
             id="SvgjsPath5543"
             d="m 152.52,81.505 c 0.967,-2.487 8.082,-6.002 11.211,-5.447 3.539,0.627 4.838,4.356 4.369,7.119 -1.104,6.487 -3.996,9.219 -5.297,14.286 -1.096,4.273 -3.434,6.732 -4.588,8.548 -1.42,2.228 -2.73,7.341 -3.023,8.087 -0.463,1.18 -2.104,4.043 -5.002,3.896 -3.332,-0.172 -7.545,-6.688 -7.613,-8.135 -0.384,-7.85 7.429,-21.88 9.943,-28.354 z"
             inkscape:connector-curvature="0"
             style="opacity:1;fill:#f0c7b1;stroke:#c27b55;stroke-width:1.5" />
          <path
             id="SvgjsPath5544"
             d="m 151.785,107.96 c 0,0 -0.43,-1.071 0.094,-2.022 0.672,-1.223 2.424,-3.468 2.82,-4.811 0.324,-1.098 0.16,-3.445 0.215,-4.593 0.094,-2.03 1.49,-3.42 1.926,-4.585 2.914,-7.793 6.793,-12.623 9,-13.626 1.633,3.989 0.338,6.907 -1.939,13.045 1.375,-8.342 0.053,-10.95 0.053,-10.95 0,0 -4.018,3.465 -6.002,11.172 -0.357,1.391 1.111,4.294 0.83,5.705 -0.352,1.772 -4.184,5.201 -5.256,6.635 -0.837,1.117 -1.741,4.03 -1.741,4.03 z"
             stroke-width="none"
             inkscape:connector-curvature="0"
             style="opacity:1;fill:#c27b55;stroke:none" />
        </g>
        <g
           id="svga-group-faceshape-wrap">
          <g
             id="svga-group-faceshape-single">
            <path
               id="SvgjsPath7318"
               d="m 144.736,127.176 c -4.549,9.887 -17.57,28.302 -27.601,32.566 -7.442,3.165 -26.824,3.165 -34.267,0 C 72.839,155.477 59.818,137.062 55.267,127.176 49.977,115.685 41.149,78.553 41.137,78.499 39.837,73.503 39.141,68.26 39.133,62.854 39.082,28.806 66.289,1.169 99.907,1.116 c 33.621,-0.053 60.913,27.495 60.963,61.543 0.009,5.408 -0.669,10.653 -1.952,15.653 -0.017,0.053 -8.873,37.329 -14.182,48.864 z"
               stroke-width="none"
               inkscape:connector-curvature="0"
               style="opacity:1;fill:#f0c7b1" />
            <path
               id="SvgjsPath7319"
               d="m 110.152,1.984 c 26.994,6.347 47.097,30.857 47.052,60.124 -0.009,5.407 -0.704,10.65 -2.004,15.646 -0.012,0.054 -9.158,37.218 -14.396,48.677 -4.417,9.659 -16.244,27.271 -25.867,31.821 -3.169,1.499 -11.439,1.855 -14.935,1.855 -3.494,0 -11.765,-0.356 -14.933,-1.855 C 75.446,153.702 63.618,136.09 59.202,126.431 53.963,114.972 44.817,77.808 44.806,77.754 43.506,72.759 42.81,67.515 42.802,62.108 42.756,32.841 62.857,8.331 89.853,1.984 61.03,6.885 39.087,32.276 39.134,62.854 c 0.008,5.406 0.704,10.649 2.004,15.645 0.012,0.054 8.781,37.213 14.13,48.677 4.602,9.862 17.738,27.917 27.601,32.566 3.671,1.732 13.088,2.374 17.134,2.374 4.043,0 13.464,-0.643 17.133,-2.374 9.862,-4.649 23,-22.704 27.601,-32.566 5.35,-11.464 14.119,-48.623 14.13,-48.677 1.3,-4.996 1.996,-10.239 2.004,-15.645 0.047,-30.578 -21.896,-55.969 -50.719,-60.87 z"
               stroke-width="none"
               inkscape:connector-curvature="0"
               style="opacity:1;fill:#e8b9a0" />
            <path
               id="SvgjsPath7320"
               d="m 144.736,127.176 c -4.549,9.887 -17.57,28.302 -27.601,32.566 -7.442,3.165 -26.824,3.165 -34.267,0 C 72.839,155.477 59.818,137.062 55.267,127.176 49.977,115.685 41.149,78.553 41.137,78.499 39.837,73.503 39.141,68.26 39.133,62.854 39.082,28.806 66.289,1.169 99.907,1.116 c 33.621,-0.053 60.913,27.495 60.963,61.543 0.009,5.408 -0.669,10.653 -1.952,15.653 -0.017,0.053 -8.873,37.329 -14.182,48.864 z"
               inkscape:connector-curvature="0"
               style="opacity:1;fill:none;stroke:#c27b55;stroke-width:1.5" />
          </g>
        </g>
        <g
           id="svga-group-mouth-single">
          <path
             id="SvgjsPath7336"
             d="m 100.2,142.947 c -2.832,0.144 -3.644,-2.753 -3.644,-2.753 0,0 3.931,0.565 6.991,-0.353 0.001,0.001 -0.855,2.981 -3.347,3.106 z"
             inkscape:connector-curvature="0"
             style="opacity:1;fill:url(#SvgjsLinearGradient7337)" />
          <path
             id="SvgjsPath7340"
             d="m 100.488,140.76 c -1.984,0.1 -3.765,-0.077 -3.877,-0.089 -0.138,-0.014 -0.238,-0.136 -0.224,-0.272 0.015,-0.138 0.143,-0.233 0.274,-0.224 0.041,0.003 4.096,0.405 6.738,-0.337 0.131,-0.032 0.271,0.041 0.309,0.174 0.038,0.133 -0.04,0.27 -0.173,0.308 -0.934,0.262 -2.018,0.388 -3.047,0.44 z"
             stroke-width="none"
             inkscape:connector-curvature="0"
             style="opacity:1;fill:#c27b55" />
          <path
             id="SvgjsPath7341"
             d="m 82.5,130.299 c 0,0 12.532,1.486 16.718,1.499 4.553,0.012 19.282,-1.499 19.282,-1.499 -4.258,3.534 -8.943,6.932 -19.555,6.999 -9.492,0.061 -11.924,-3.386 -16.445,-6.999 z"
             stroke-width="none"
             inkscape:connector-curvature="0"
             style="opacity:1;fill:#ffffff" />
          <path
             id="SvgjsPath7342"
             d="m 82.5,130.299 c 0,0 12.532,1.486 16.718,1.499 4.553,0.012 19.282,-1.499 19.282,-1.499 -4.258,3.534 -8.943,6.932 -19.555,6.999 -9.492,0.061 -11.924,-3.386 -16.445,-6.999 z"
             inkscape:connector-curvature="0"
             style="opacity:1;fill:none;stroke:#c27b55;stroke-width:0.75" />
        </g>
        <g
           id="svga-group-eyes-left">
          <g
             id="svga-group-eyesback-left">
            <path
               id="SvgjsPath7355"
               d="m 60.942,83.152 c -0.216,2.76 1.682,6.038 12.492,6.964 9.553,0.818 13.62,-0.758 13.903,-3.902 0.283,-3.144 -3.407,-6.987 -12.88,-7.482 -8.431,-0.44 -13.269,1.273 -13.515,4.42 z"
               inkscape:connector-curvature="0"
               style="opacity:1;fill:url(#SvgjsRadialGradient7356)" />
          </g>
          <g
             id="svga-group-eyesiriswrapper-left"
             transform="translate(0.5,0.25)">
            <g
               id="svga-group-eyesiriscontrol-left">
              <g
                 id="svga-group-eyesiris-left">
                <path
                   id="SvgjsPath7345"
                   d="m 79.788,85.588 c -0.869,3.192 -4.162,5.073 -7.361,4.196 -3.197,-0.876 -5.084,-4.178 -4.214,-7.371 0.869,-3.195 4.168,-5.076 7.365,-4.198 3.194,0.875 5.081,4.177 4.21,7.373 z"
                   inkscape:connector-curvature="0"
                   style="opacity:1;fill:#7085b3;stroke:#2b4785;stroke-width:0.5" />
                <path
                   id="SvgjsPath7346"
                   d="m 78.717,82.673 c -0.569,0.873 -2.036,0.925 -3.276,0.117 -1.24,-0.808 -1.784,-2.17 -1.215,-3.043 0.568,-0.872 2.036,-0.924 3.276,-0.117 1.238,0.809 1.782,2.172 1.215,3.043 l 0,0 z"
                   inkscape:connector-curvature="0"
                   style="opacity:0.7;fill:url(#SvgjsLinearGradient7347)" />
              </g>
            </g>
          </g>
          <g
             id="svga-group-eyesfront-left">
            <path
               id="SvgjsPath7380"
               d="m 55.772,86.694 c 1.203,13.754 10.653,24.163 21.106,23.249 C 87.331,109.028 94.83,97.136 93.627,83.382 92.424,69.628 82.974,59.218 72.521,60.133 62.067,61.048 54.569,72.94 55.772,86.694 Z m 5.17,-3.542 c 0.246,-3.146 5.084,-4.86 13.516,-4.419 9.473,0.495 13.163,4.338 12.88,7.482 -0.283,3.144 -4.351,4.72 -13.903,3.902 C 62.624,89.19 60.726,85.912 60.942,83.152 Z"
               stroke-width="none"
               inkscape:connector-curvature="0"
               style="opacity:1;fill:#f0c7b1" />
            <path
               id="SvgjsPath7381"
               d="M 57.798,85.194 C 58.394,92.905 68.061,98.532 77.68,97.652 87.296,96.767 95.215,90.93 94.514,83.227 93.817,75.528 85.461,70.003 75.841,70.885 66.221,71.771 56.98,74.647 57.798,85.194 Z m 3.144,-2.042 c 0.246,-3.146 5.084,-4.86 13.516,-4.419 9.473,0.495 13.163,4.338 12.88,7.482 -0.283,3.144 -4.351,4.72 -13.903,3.902 C 62.624,89.19 60.726,85.912 60.942,83.152 Z"
               inkscape:connector-curvature="0"
               style="opacity:1;fill:url(#SvgjsRadialGradient7382)" />
            <path
               id="SvgjsPath7386"
               d="m 60.942,83.152 c -0.216,2.76 1.682,6.038 12.492,6.964 9.553,0.818 13.62,-0.758 13.903,-3.902 0.283,-3.144 -3.407,-6.987 -12.88,-7.482 -8.431,-0.44 -13.269,1.273 -13.515,4.42 z"
               inkscape:connector-curvature="0"
               style="opacity:1;fill:url(#SvgjsRadialGradient7387)" />
            <path
               id="SvgjsPath7390"
               d="m 85.569,79.486 c -1.025,-0.673 -3.285,-1.602 -3.285,-1.602 0,0 2.571,0.588 3.59,1.279 1.019,0.691 2.082,2.366 2.082,2.366 0,0 -1.362,-1.37 -2.387,-2.043 z M 67.02,77.131 c 0,0 -2.657,-0.034 -4.546,1.136 -1.734,1.074 -2.448,2.685 -2.448,2.685 0,0 1.649,-1.725 2.813,-2.501 1.088,-0.726 4.181,-1.32 4.181,-1.32 z"
               stroke-width="none"
               inkscape:connector-curvature="0"
               style="opacity:1;fill:#c27b55" />
            <path
               id="SvgjsPath7391"
               d="m 74.758,78.929 c -6.156,-0.216 -15.613,0.376 -13.409,6.209 -3.203,-1.934 -0.741,-8.81 13.992,-7.583 7.137,0.594 15.623,4.275 11.685,9.764 1.247,-5.737 -6.226,-8.177 -12.268,-8.39 z m 10.865,10.083 -3.021,0.956 c -5.294,0.085 -8.251,-0.28 -13.196,-0.504 -2.279,-0.104 -4.328,-1.226 -6.996,-2.467 1.537,1.698 4.094,3.061 6.943,3.226 4.789,0.278 8.032,0.342 13.408,0.382 l 2.862,-1.593 z"
               stroke-width="none"
               inkscape:connector-curvature="0"
               style="opacity:1;fill:#2a150e" />
          </g>
        </g>
        <g
           id="svga-group-eyes-right">
          <g
             id="svga-group-eyesback-right">
            <path
               id="SvgjsPath7363"
               d="m 139.059,83.152 c 0.216,2.76 -1.682,6.038 -12.492,6.964 -9.553,0.818 -13.62,-0.758 -13.903,-3.902 -0.283,-3.144 3.407,-6.987 12.88,-7.482 8.431,-0.44 13.269,1.273 13.515,4.42 z"
               inkscape:connector-curvature="0"
               style="opacity:1;fill:url(#SvgjsRadialGradient7364)" />
          </g>
          <g
             id="svga-group-eyesiriswrapper-right"
             transform="translate(-0.5,0.25)">
            <g
               id="svga-group-eyesiriscontrol-right">
              <g
                 id="svga-group-eyesiris-right">
                <path
                   id="SvgjsPath7350"
                   d="m 131.788,85.588 c -0.869,3.192 -4.162,5.073 -7.362,4.196 -3.196,-0.876 -5.084,-4.178 -4.214,-7.371 0.869,-3.195 4.169,-5.076 7.365,-4.198 3.195,0.875 5.081,4.177 4.211,7.373 z"
                   inkscape:connector-curvature="0"
                   style="opacity:1;fill:#7085b3;stroke:#2b4785;stroke-width:0.5" />
                <path
                   id="SvgjsPath7351"
                   d="m 130.717,82.673 c -0.569,0.873 -2.036,0.925 -3.276,0.117 -1.239,-0.808 -1.784,-2.17 -1.215,-3.043 0.568,-0.872 2.035,-0.924 3.275,-0.117 1.239,0.809 1.783,2.172 1.216,3.043 l 0,0 z"
                   inkscape:connector-curvature="0"
                   style="opacity:0.7;fill:url(#SvgjsLinearGradient7352)" />
              </g>
            </g>
          </g>
          <g
             id="svga-group-eyesfront-right">
            <path
               id="SvgjsPath7401"
               d="m 127.479,60.133 c -10.453,-0.915 -19.903,9.495 -21.106,23.249 -1.203,13.754 6.296,25.646 16.749,26.561 10.453,0.914 19.903,-9.495 21.106,-23.249 1.204,-13.754 -6.294,-25.646 -16.749,-26.561 z m -0.913,29.983 c -9.553,0.818 -13.62,-0.758 -13.903,-3.902 -0.283,-3.144 3.407,-6.987 12.88,-7.482 8.432,-0.44 13.27,1.273 13.516,4.419 0.215,2.761 -1.682,6.039 -12.493,6.965 z"
               stroke-width="none"
               inkscape:connector-curvature="0"
               style="opacity:1;fill:#f0c7b1" />
            <path
               id="SvgjsPath7402"
               d="m 124.159,70.885 c -9.62,-0.882 -17.976,4.643 -18.673,12.342 -0.701,7.703 7.218,13.54 16.834,14.425 9.619,0.88 19.286,-4.747 19.882,-12.458 0.819,-10.547 -8.423,-13.423 -18.043,-14.309 z m 2.407,19.231 c -9.553,0.818 -13.62,-0.758 -13.903,-3.902 -0.283,-3.144 3.407,-6.987 12.88,-7.482 8.432,-0.44 13.27,1.273 13.516,4.419 0.215,2.761 -1.682,6.039 -12.493,6.965 z"
               inkscape:connector-curvature="0"
               style="opacity:1;fill:url(#SvgjsRadialGradient7403)" />
            <path
               id="SvgjsPath7407"
               d="m 139.059,83.152 c 0.216,2.76 -1.682,6.038 -12.492,6.964 -9.553,0.818 -13.62,-0.758 -13.903,-3.902 -0.283,-3.144 3.407,-6.987 12.88,-7.482 8.431,-0.44 13.269,1.273 13.515,4.42 z"
               inkscape:connector-curvature="0"
               style="opacity:1;fill:url(#SvgjsRadialGradient7408)" />
            <path
               id="SvgjsPath7411"
               d="m 112.045,81.529 c 0,0 1.063,-1.675 2.082,-2.366 1.019,-0.691 3.59,-1.279 3.59,-1.279 0,0 -2.26,0.929 -3.285,1.602 -1.025,0.673 -2.387,2.043 -2.387,2.043 z m 25.116,-3.078 c 1.164,0.776 2.813,2.501 2.813,2.501 0,0 -0.714,-1.61 -2.448,-2.685 -1.889,-1.169 -4.546,-1.136 -4.546,-1.136 0,0 3.093,0.594 4.181,1.32 z"
               stroke-width="none"
               inkscape:connector-curvature="0"
               style="opacity:1;fill:#c27b55" />
            <path
               id="SvgjsPath7412"
               d="m 112.975,87.32 c -3.938,-5.489 4.548,-9.17 11.685,-9.764 14.733,-1.227 17.195,5.648 13.992,7.583 2.204,-5.833 -7.253,-6.425 -13.409,-6.209 -6.043,0.212 -13.515,2.652 -12.268,8.39 z m 4.264,3.284 c 5.376,-0.04 8.619,-0.104 13.408,-0.382 2.85,-0.165 5.406,-1.528 6.943,-3.226 -2.668,1.241 -4.717,2.363 -6.996,2.467 -4.945,0.225 -7.902,0.589 -13.196,0.504 l -3.021,-0.956 2.862,1.593 z"
               stroke-width="none"
               inkscape:connector-curvature="0"
               style="opacity:1;fill:#2a150e" />
          </g>
        </g>
        <g
           id="svga-group-facehighlight-single">
          <path
             id="SvgjsPath4720"
             d="m 141,113.974 c 0.035,22.622 -18.292,40.994 -40.938,41.025 -22.642,0.037 -41.028,-18.273 -41.063,-40.9 -0.035,-22.62 18.292,-41.064 40.937,-41.1 22.643,-0.035 41.031,18.35 41.064,40.975 z"
             inkscape:connector-curvature="0"
             style="opacity:1;fill:url(#SvgjsRadialGradient4721)" />
          <path
             id="SvgjsPath4724"
             d="m 137.5,53.999 c 0,20.711 -16.789,37.5 -37.499,37.5 -20.711,0 -37.501,-16.789 -37.501,-37.5 0,-20.711 16.79,-37.5 37.501,-37.5 20.71,0 37.499,16.789 37.499,37.5 z"
             inkscape:connector-curvature="0"
             style="opacity:1;fill:url(#SvgjsRadialGradient4725)" />
        </g>
        <g
           id="svga-group-eyebrows-left"
           transform="matrix(0.99144486,0.1305262,-0.1305262,0.99144486,6.4308625,-9.1061592)">
          <path
             id="SvgjsPath7449"
             d="M 51.602,75.92 C 70.482,58.861 96.762,67.614 90.897,69.463 88.863,70.104 69.741,63.525 51.602,75.92 Z"
             stroke-width="none"
             inkscape:connector-curvature="0"
             style="opacity:1;fill:#a68469" />
        </g>
        <g
           id="svga-group-eyebrows-right"
           transform="matrix(0.99144486,-0.13052619,0.13052619,0.99144486,-4.7198346,16.999079)">
          <path
             id="SvgjsPath7450"
             d="m 148.398,75.92 c -18.88,-17.059 -45.16,-8.306 -39.296,-6.457 2.035,0.641 21.157,-5.938 39.296,6.457 z"
             stroke-width="none"
             inkscape:connector-curvature="0"
             style="opacity:1;fill:#a68469" />
        </g>
        <g
           id="svga-group-nose-single">
          <path
             id="SvgjsPath7334"
             d="m 99.084,89.999 c 0,0 -0.887,20.454 -0.765,24.946 0.035,1.275 2.489,4.617 2.322,7.054 0,0 -4.788,-0.349 -6.345,-0.898 -1.629,-0.578 -4.151,-1.704 -3.154,-4.85 1.42,-4.475 7.942,-26.252 7.942,-26.252 z"
             stroke-width="none"
             inkscape:connector-curvature="0"
             style="opacity:1;fill:#e1ac8f" />
          <path
             id="SvgjsPath7335"
             d="m 98.638,119.598 c 0,0 -1.985,-0.705 -3.239,-0.669 -1.142,0.035 -1.306,-0.726 -1.191,-1.158 0.116,-0.433 0.507,-0.701 1.61,-0.407 1.103,0.294 2.82,2.234 2.82,2.234 z m 2.955,0.002 c 0,0 1.98,-0.653 3.239,-0.667 1.142,-0.014 1.308,-0.726 1.191,-1.157 -0.116,-0.435 -0.508,-0.705 -1.61,-0.411 -1.103,0.297 -2.82,2.235 -2.82,2.235 z"
             stroke-width="none"
             inkscape:connector-curvature="0"
             style="opacity:1;fill:#c27b55" />
        </g>
        <g
           id="svga-group-beardwrap">
          <g
             id="svga-group-beard-single">
            <path
               id="SvgjsPath5535"
               d="m 100,18.13 0,0 0,0 0,0 z"
               stroke-width="none"
               inkscape:connector-curvature="0"
               style="opacity:1;fill:#2a232b" />
          </g>
        </g>
        <g
           id="svga-group-mustache-single">
          <path
             id="SvgjsPath5365"
             d="m 100,18.13 0,0 0,0 0,0 z"
             stroke-width="none"
             inkscape:connector-curvature="0"
             style="opacity:1;fill:#2a232b" />
        </g>
        <g
           id="svga-group-hair-front">
          <path
             id="SvgjsPath7315"
             d="M 162.973,40.273 C 147.94,-14.754 61.012,-21.557 36.378,40.045 c -11.02,27.558 15.94,73.711 15.94,73.711 -0.962,-6.957 -4.86,-37.856 -4.86,-37.856 0,-2 1.915,-4.507 2.272,-5.973 1.718,-7.055 -4.882,-16.666 -2.272,-28.859 2.222,-10.38 5.558,-17.637 15.408,-23.673 13.231,-8.108 20.458,5.525 26.34,9.323 4.617,2.98 17.091,3.121 21.972,0.597 6.122,-3.166 14.95,-14.205 24.761,-11.017 11.622,3.776 16.601,19.828 17.03,22.789 0.916,8.798 -4.469,26.247 -2.699,30.84 0.504,1.309 1.617,3.689 1.898,4.807 1.16,4.612 -4.088,39.009 -4.088,39.009 0,0 22.388,-46.035 14.893,-73.47 z"
             stroke-width="none"
             inkscape:connector-curvature="0"
             style="opacity:1;fill:#caa478" />
          <path
             id="SvgjsPath7316"
             d="M 137.697,13.5 C 127.979,8.857 119,17 110,23 96.227,30.069 89,18 78,13 69,8 57,16 50,25 39.76,40.824 42.995,53.784 46.771,70.535 c -3.841,3.196 2.723,27.464 5.036,39.4 C 50.406,99.271 47.458,75.9 47.458,75.9 c 0,-0.415 0.096,-0.854 0.229,-1.299 0.511,-1.699 1.76,-3.512 2.042,-4.674 1.718,-7.055 -4.882,-16.666 -2.272,-28.859 2.222,-10.38 5.558,-17.637 15.408,-23.673 13.231,-8.108 20.458,5.525 26.34,9.323 4.617,2.98 17.091,3.121 21.972,0.597 6.122,-3.166 14.95,-14.205 24.761,-11.017 11.622,3.776 16.601,19.828 17.03,22.789 0.916,8.798 -4.469,26.247 -2.699,30.84 0.504,1.309 1.617,3.689 1.898,4.807 0.037,0.146 0.066,0.323 0.091,0.527 10e-4,-0.016 0.003,-0.032 0.005,-0.047 0.54,4.834 -2.166,24.674 -3.489,33.824 3.99,-18.04 8.449,-34.593 4.355,-41.351 3.74,-22.285 8.438,-42.785 -15.432,-54.187 z"
             stroke-width="none"
             inkscape:connector-curvature="0"
             style="opacity:1;fill:#bb8f5c" />
          <path
             id="SvgjsPath7317"
             d="M 148.08,113.744 C 156.739,92.184 165.891,65.427 161.262,41.236 159.905,36.428 157.795,28.658 148.928,18.773 115.737,-18.332 59.483,-6.218 39.958,35.8 28.541,60.204 39.744,90.046 52.317,113.757 41.275,94.464 35.624,80.813 33.567,59.656 32.945,52.577 34.285,43.164 38.066,34.788 53.26,1.225 92.456,-14.792 125.415,-1.075 c 13.259,5.328 27.885,17.106 35.03,32.893 4.882,10.828 4.249,20.507 3.181,32.421 -0.771,6.491 -3.043,16.094 -3.617,17.865 -2.544,8.367 -0.627,2.872 -4.759,14.623 -2.986,7.768 -4.608,11.26 -7.17,17.017 z"
             stroke-width="none"
             inkscape:connector-curvature="0"
             style="opacity:1;fill:#9c692e" />
        </g>
        <g
           id="svga-group-glasses-single">
          <path
             id="SvgjsPath5722"
             d="m 52.7,78.99 c 11.69,3.22 28.34,-0.15 40.03,7.14 -0.08,0.44 -0.16,0.87 -0.25,1.31 -0.64,2.91 -3.23,4.82 -6.36,5.38 -8.44,1.51 -22.57,1.32 -30.84,0.74 -1.19,-0.08 -2.16,-0.9 -2.36,-2 C 52.11,87.2 51.8,83.54 52.7,78.99 Z m 53.99,1.36 c 0.05,2.48 0.32,4.73 0.83,7.1 0.63,2.91 3.23,4.82 6.36,5.38 8.44,1.51 22.57,1.32 30.84,0.74 1.19,-0.08 2.16,-0.9 2.36,-2 0.31,-1.69 0.55,-3.28 0.67,-4.85 -11.7,-8.04 -28.85,-4.44 -40.84,-7.71 -0.14,0.43 -0.23,0.88 -0.22,1.34 z"
             stroke-width="none"
             inkscape:connector-curvature="0"
             style="opacity:0.2;fill:#ffffff" />
          <path
             id="SvgjsPath5723"
             d="m 93.31,80.35 c -0.05,2.02 -0.24,3.88 -0.58,5.78 -11.69,-7.3 -28.35,-3.92 -40.03,-7.14 0.03,-0.12 0.04,-0.24 0.07,-0.37 0.26,-1.24 1.34,-2.15 2.68,-2.28 12.7,-1.18 21.35,-1.08 33.89,-0.11 2.27,0.19 4.02,1.99 3.97,4.12 z m 53.93,-1.72 c -0.26,-1.24 -1.34,-2.15 -2.68,-2.28 -12.7,-1.18 -21.35,-1.08 -33.89,-0.11 -1.78,0.14 -3.22,1.27 -3.75,2.78 11.98,3.27 29.14,-0.33 40.84,7.71 0.2,-2.6 0.09,-5.16 -0.52,-8.1 z"
             stroke-width="none"
             inkscape:connector-curvature="0"
             style="opacity:0.4;fill:#ffffff" />
          <path
             id="SvgjsPath5724"
             d="m 153,78.74 -5.22,0 c -0.02,-0.07 -0.02,-0.14 -0.04,-0.21 -0.3,-1.44 -1.57,-2.52 -3.13,-2.67 -12.9,-1.2 -21.6,-1.07 -33.98,-0.11 -0.15,0.01 -0.29,0.05 -0.43,0.07 l 0.03,-0.03 c 0,0 -0.12,0.03 -0.33,0.08 -0.09,0.02 -0.19,0.04 -0.28,0.06 -1.08,0.24 -3.42,0.7 -5.37,0.76 -3.91,0.12 -4.75,0.11 -8.5,0 C 93.8,76.63 91.46,76.17 90.38,75.93 90.29,75.9 90.2,75.89 90.1,75.87 89.89,75.82 89.77,75.79 89.77,75.79 l 0.03,0.03 C 89.66,75.8 89.52,75.76 89.37,75.75 76.98,74.79 68.28,74.66 55.39,75.86 c -1.56,0.15 -2.83,1.23 -3.13,2.67 -0.02,0.07 -0.02,0.14 -0.04,0.21 l -5.22,0 0,2.92 4.79,0 c -0.17,1.7 -0.19,3.33 -0.07,4.97 l 1.06,0 c -0.2,-2.54 -0.09,-5.05 0.51,-7.92 0.21,-1.02 1.1,-1.78 2.21,-1.88 6.3,-0.59 11.69,-0.86 16.98,-0.86 4.97,0 9.99,0.22 16.81,0.75 2,0.15 3.53,1.74 3.49,3.61 -0.05,2.2 -0.28,4.22 -0.69,6.29 l 1.07,0 c 0.39,-2.02 0.62,-4.02 0.67,-6.27 0.01,-0.66 -0.13,-1.28 -0.39,-1.85 0.33,-0.07 0.85,-0.16 1.51,-0.21 2.51,-0.18 8.07,-0.14 10.11,0 0.66,0.05 1.19,0.14 1.51,0.21 -0.26,0.57 -0.41,1.19 -0.39,1.85 0.05,2.25 0.28,4.25 0.67,6.27 l 1.07,0 c -0.41,-2.07 -0.64,-4.09 -0.68,-6.29 -0.04,-1.87 1.49,-3.46 3.49,-3.61 6.82,-0.53 11.84,-0.75 16.81,-0.75 5.29,0 10.69,0.27 16.98,0.86 1.11,0.1 2,0.86 2.21,1.88 0.6,2.87 0.71,5.38 0.51,7.92 l 1.05,0 c 0.13,-1.64 0.1,-3.27 -0.07,-4.97 l 4.78,0 0,-2.92 z"
             stroke-width="none"
             inkscape:connector-curvature="0"
             style="opacity:1;fill:#000000" />
        </g>
      </g>
    </g>
    <rect
       id="SvgjsRect4705"
       width="200"
       height="15"
       x="0"
       y="185"
       style="display:none;opacity:0.5;fill:#ecf0f1" />
    <text
       id="SvgjsText4706"
       style="font-weight:400;font-size:10.07999992px;font-family:Roboto, 'Helvetica Neue', Helvetica, Arial, sans-serif;text-anchor:middle;display:none;fill:#000000"
       font-size="0.84em"
       font-weight="400"
       x="100"
       y="185">
      <tspan
         id="SvgjsTspan4707"
         dy="0"
         x="100"
         style="font-weight:400;font-size:8.46719933px;font-family:Roboto, 'Helvetica Neue', Helvetica, Arial, sans-serif;text-anchor:middle">Created on AvatarMaker.com</tspan>
    </text>
  </g>
  <defs
     id="SvgjsDefs4670">
    <radialGradient
       id="SvgjsRadialGradient4721"
       cx="100"
       cy="114"
       r="41"
       gradientUnits="userSpaceOnUse"
       class="svga-on-canvas-facehighlight-gradient-single-0">
      <stop
         id="SvgjsStop4722"
         stop-opacity="0.5"
         stop-color="#ffe4d6"
         offset="0" />
      <stop
         id="SvgjsStop4723"
         stop-opacity="0"
         stop-color="#f0c7b1"
         offset="0.9" />
    </radialGradient>
    <radialGradient
       id="SvgjsRadialGradient4725"
       cx="100"
       cy="54"
       r="37"
       gradientUnits="userSpaceOnUse"
       class="svga-on-canvas-facehighlight-gradient-single-1">
      <stop
         id="SvgjsStop4726"
         stop-opacity="0.5"
         stop-color="#ffe4d6"
         offset="0" />
      <stop
         id="SvgjsStop4727"
         stop-opacity="0"
         stop-color="#f0c7b1"
         offset="0.9" />
    </radialGradient>
    <linearGradient
       id="SvgjsLinearGradient5678"
       x1="128"
       y1="106"
       x2="128"
       y2="69"
       gradientUnits="userSpaceOnUse"
       class="svga-on-canvas-glasses-gradient-single-1">
      <stop
         id="SvgjsStop5679"
         stop-opacity="0.95"
         stop-color="#000000"
         offset="0" />
      <stop
         id="SvgjsStop5680"
         stop-opacity="1"
         stop-color="#000000"
         offset="1" />
    </linearGradient>
    <linearGradient
       id="SvgjsLinearGradient5682"
       x1="72"
       y1="106"
       x2="72"
       y2="69"
       gradientUnits="userSpaceOnUse"
       class="svga-on-canvas-glasses-gradient-single-2">
      <stop
         id="SvgjsStop5683"
         stop-opacity="0.95"
         stop-color="#000000"
         offset="0" />
      <stop
         id="SvgjsStop5684"
         stop-opacity="1"
         stop-color="#000000"
         offset="1" />
    </linearGradient>
    <radialGradient
       id="SvgjsRadialGradient6659"
       cx="-582.83801"
       cy="-519.099"
       r="59.744999"
       gradientTransform="matrix(0.0991,8.856319e-4,-0.0011,0.0991,131.1134,135.9855)"
       gradientUnits="userSpaceOnUse"
       class="svga-on-canvas-eyesiris-gradient-left-2">
      <stop
         id="SvgjsStop6660"
         stop-opacity="1"
         stop-color="#ffffff"
         offset="0" />
      <stop
         id="SvgjsStop6661"
         stop-opacity="0"
         stop-color="#ffffff"
         offset="1" />
    </radialGradient>
    <linearGradient
       id="SvgjsLinearGradient6665"
       x1="122.67"
       y1="88.267998"
       x2="123.606"
       y2="87.152"
       gradientTransform="translate(-52,0)"
       gradientUnits="userSpaceOnUse"
       class="svga-on-canvas-eyesiris-gradient-left-5">
      <stop
         id="SvgjsStop6666"
         stop-opacity="1"
         stop-color="#ffffff"
         offset="0" />
      <stop
         id="SvgjsStop6667"
         stop-opacity="0"
         stop-color="#ffffff"
         offset="1" />
    </linearGradient>
    <linearGradient
       id="SvgjsLinearGradient6673"
       x1="129.636"
       y1="79.821999"
       x2="127.91"
       y2="81.878998"
       gradientTransform="translate(-52,0)"
       gradientUnits="userSpaceOnUse"
       class="svga-on-canvas-eyesiris-gradient-left-7">
      <stop
         id="SvgjsStop6674"
         stop-opacity="1"
         stop-color="#ffffff"
         offset="0" />
      <stop
         id="SvgjsStop6675"
         stop-opacity="0"
         stop-color="#ffffff"
         offset="1" />
    </linearGradient>
    <radialGradient
       id="SvgjsRadialGradient6682"
       cx="-582.83301"
       cy="-519.10199"
       r="59.747002"
       gradientTransform="matrix(0.0991,8.856319e-4,-0.0011,0.0991,183.1126,135.9856)"
       gradientUnits="userSpaceOnUse"
       class="svga-on-canvas-eyesiris-gradient-right-2">
      <stop
         id="SvgjsStop6683"
         stop-opacity="1"
         stop-color="#ffffff"
         offset="0" />
      <stop
         id="SvgjsStop6684"
         stop-opacity="0"
         stop-color="#ffffff"
         offset="1" />
    </radialGradient>
    <linearGradient
       id="SvgjsLinearGradient6688"
       x1="122.67"
       y1="88.267998"
       x2="123.606"
       y2="87.152"
       gradientUnits="userSpaceOnUse"
       class="svga-on-canvas-eyesiris-gradient-right-5">
      <stop
         id="SvgjsStop6689"
         stop-opacity="1"
         stop-color="#ffffff"
         offset="0" />
      <stop
         id="SvgjsStop6690"
         stop-opacity="0"
         stop-color="#ffffff"
         offset="1" />
    </linearGradient>
    <linearGradient
       id="SvgjsLinearGradient6696"
       x1="129.636"
       y1="79.821999"
       x2="127.91"
       y2="81.878998"
       gradientUnits="userSpaceOnUse"
       class="svga-on-canvas-eyesiris-gradient-right-7">
      <stop
         id="SvgjsStop6697"
         stop-opacity="1"
         stop-color="#ffffff"
         offset="0" />
      <stop
         id="SvgjsStop6698"
         stop-opacity="0"
         stop-color="#ffffff"
         offset="1" />
    </linearGradient>
    <linearGradient
       id="SvgjsLinearGradient6748"
       x1="132"
       y1="78"
       x2="126"
       y2="84"
       gradientTransform="translate(-50,0)"
       gradientUnits="userSpaceOnUse"
       class="svga-on-canvas-eyesiris-gradient-left-6">
      <stop
         id="SvgjsStop6749"
         stop-opacity="1"
         stop-color="#ffffff"
         offset="0" />
      <stop
         id="SvgjsStop6750"
         stop-opacity="0"
         stop-color="#ffffff"
         offset="1" />
    </linearGradient>
    <linearGradient
       id="SvgjsLinearGradient6758"
       x1="132"
       y1="78"
       x2="126"
       y2="84"
       gradientUnits="userSpaceOnUse"
       class="svga-on-canvas-eyesiris-gradient-right-6">
      <stop
         id="SvgjsStop6759"
         stop-opacity="1"
         stop-color="#ffffff"
         offset="0" />
      <stop
         id="SvgjsStop6760"
         stop-opacity="0"
         stop-color="#ffffff"
         offset="1" />
    </linearGradient>
    <linearGradient
       id="SvgjsLinearGradient7322"
       x1="100"
       y1="172"
       x2="100"
       y2="128.5"
       gradientUnits="userSpaceOnUse"
       class="svga-on-canvas-chinshadow-gradient-single-0">
      <stop
         id="SvgjsStop7323"
         stop-opacity="0.8"
         stop-color="#e1ac8f"
         offset="0" />
      <stop
         id="SvgjsStop7324"
         stop-opacity="1"
         stop-color="#c27b55"
         offset="0.7" />
    </linearGradient>
    <linearGradient
       id="SvgjsLinearGradient7337"
       x1="100"
       y1="142"
       x2="100"
       y2="139"
       gradientUnits="userSpaceOnUse"
       class="svga-on-canvas-mouth-gradient-single-0">
      <stop
         id="SvgjsStop7338"
         stop-opacity="1"
         stop-color="#e8b9a0"
         offset="0.1" />
      <stop
         id="SvgjsStop7339"
         stop-opacity="1"
         stop-color="#e1ac8f"
         offset="1" />
    </linearGradient>
    <linearGradient
       id="SvgjsLinearGradient7347"
       x1="127.637"
       y1="79.821999"
       x2="125.91"
       y2="81.879997"
       gradientTransform="translate(-50,0)"
       gradientUnits="userSpaceOnUse"
       class="svga-on-canvas-eyesiris-gradient-left-1">
      <stop
         id="SvgjsStop7348"
         stop-opacity="1"
         stop-color="#ffffff"
         offset="0" />
      <stop
         id="SvgjsStop7349"
         stop-opacity="0"
         stop-color="#ffffff"
         offset="1" />
    </linearGradient>
    <linearGradient
       id="SvgjsLinearGradient7352"
       x1="129.63699"
       y1="79.822998"
       x2="127.91"
       y2="81.880997"
       gradientUnits="userSpaceOnUse"
       class="svga-on-canvas-eyesiris-gradient-right-1">
      <stop
         id="SvgjsStop7353"
         stop-opacity="1"
         stop-color="#ffffff"
         offset="0" />
      <stop
         id="SvgjsStop7354"
         stop-opacity="0"
         stop-color="#ffffff"
         offset="1" />
    </linearGradient>
    <radialGradient
       id="SvgjsRadialGradient7356"
       cx="125.861"
       cy="84.497002"
       r="10.213"
       gradientTransform="matrix(-1,0,0,1,200,0)"
       gradientUnits="userSpaceOnUse"
       class="svga-on-canvas-eyesback-gradient-left-0">
      <stop
         id="SvgjsStop7357"
         stop-opacity="1"
         stop-color="#ffffff"
         offset="0" />
      <stop
         id="SvgjsStop7358"
         stop-opacity="1"
         stop-color="#fdfefe"
         offset="0.544" />
      <stop
         id="SvgjsStop7359"
         stop-opacity="1"
         stop-color="#f6f8f9"
         offset="0.74" />
      <stop
         id="SvgjsStop7360"
         stop-opacity="1"
         stop-color="#eaeff2"
         offset="0.879" />
      <stop
         id="SvgjsStop7361"
         stop-opacity="1"
         stop-color="#d9e3e8"
         offset="0.992" />
      <stop
         id="SvgjsStop7362"
         stop-opacity="1"
         stop-color="#d8e2e7"
         offset="1" />
    </radialGradient>
    <radialGradient
       id="SvgjsRadialGradient7364"
       cx="125.861"
       cy="84.497002"
       r="10.213"
       gradientUnits="userSpaceOnUse"
       class="svga-on-canvas-eyesback-gradient-right-0">
      <stop
         id="SvgjsStop7365"
         stop-opacity="1"
         stop-color="#ffffff"
         offset="0" />
      <stop
         id="SvgjsStop7366"
         stop-opacity="1"
         stop-color="#fdfefe"
         offset="0.544" />
      <stop
         id="SvgjsStop7367"
         stop-opacity="1"
         stop-color="#f6f8f9"
         offset="0.74" />
      <stop
         id="SvgjsStop7368"
         stop-opacity="1"
         stop-color="#eaeff2"
         offset="0.879" />
      <stop
         id="SvgjsStop7369"
         stop-opacity="1"
         stop-color="#d9e3e8"
         offset="0.992" />
      <stop
         id="SvgjsStop7370"
         stop-opacity="1"
         stop-color="#d8e2e7"
         offset="1" />
    </radialGradient>
    <radialGradient
       id="SvgjsRadialGradient7372"
       cx="125.861"
       cy="84.497002"
       r="10.213"
       gradientTransform="matrix(-1,0,0,1,200,0)"
       gradientUnits="userSpaceOnUse"
       class="svga-on-canvas-eyesfront-gradient-left-0">
      <stop
         id="SvgjsStop7373"
         stop-opacity="1"
         stop-color="#ffffff"
         offset="0" />
      <stop
         id="SvgjsStop7374"
         stop-opacity="1"
         stop-color="#fdfefe"
         offset="0.544" />
      <stop
         id="SvgjsStop7375"
         stop-opacity="1"
         stop-color="#f6f8f9"
         offset="0.74" />
      <stop
         id="SvgjsStop7376"
         stop-opacity="1"
         stop-color="#eaeff2"
         offset="0.879" />
      <stop
         id="SvgjsStop7377"
         stop-opacity="1"
         stop-color="#d9e3e8"
         offset="0.992" />
      <stop
         id="SvgjsStop7378"
         stop-opacity="1"
         stop-color="#d8e2e7"
         offset="1" />
    </radialGradient>
    <radialGradient
       id="SvgjsRadialGradient7382"
       cx="123.755"
       cy="83.737999"
       fx="136.189"
       fy="83.773003"
       r="17.684"
       gradientTransform="matrix(0.9998,0.0208,0.0166,-0.7998,-48.8769,148.1393)"
       gradientUnits="userSpaceOnUse"
       class="svga-on-canvas-eyesfront-gradient-left-3">
      <stop
         id="SvgjsStop7383"
         stop-opacity="1"
         stop-color="#e1ac8f"
         offset="0" />
      <stop
         id="SvgjsStop7384"
         stop-opacity="0.3"
         stop-color="#e1ac8f"
         offset="0.7" />
      <stop
         id="SvgjsStop7385"
         stop-opacity="0"
         stop-color="#f0c7b1"
         offset="1" />
    </radialGradient>
    <radialGradient
       id="SvgjsRadialGradient7387"
       cx="122.636"
       cy="100.958"
       r="25.823999"
       gradientTransform="matrix(-0.8746,-0.4848,-0.3636,0.656,221.3328,94.1879)"
       gradientUnits="userSpaceOnUse"
       class="svga-on-canvas-eyesfront-gradient-left-4">
      <stop
         id="SvgjsStop7388"
         stop-opacity="0"
         stop-color="#000000"
         offset="0.94" />
      <stop
         id="SvgjsStop7389"
         stop-opacity="0.2"
         stop-color="#000000"
         offset="1" />
    </radialGradient>
    <radialGradient
       id="SvgjsRadialGradient7393"
       cx="125.861"
       cy="84.497002"
       r="10.213"
       gradientUnits="userSpaceOnUse"
       class="svga-on-canvas-eyesfront-gradient-right-0">
      <stop
         id="SvgjsStop7394"
         stop-opacity="1"
         stop-color="#ffffff"
         offset="0" />
      <stop
         id="SvgjsStop7395"
         stop-opacity="1"
         stop-color="#fdfefe"
         offset="0.544" />
      <stop
         id="SvgjsStop7396"
         stop-opacity="1"
         stop-color="#f6f8f9"
         offset="0.74" />
      <stop
         id="SvgjsStop7397"
         stop-opacity="1"
         stop-color="#eaeff2"
         offset="0.879" />
      <stop
         id="SvgjsStop7398"
         stop-opacity="1"
         stop-color="#d9e3e8"
         offset="0.992" />
      <stop
         id="SvgjsStop7399"
         stop-opacity="1"
         stop-color="#d8e2e7"
         offset="1" />
    </radialGradient>
    <radialGradient
       id="SvgjsRadialGradient7403"
       cx="123.755"
       cy="83.737999"
       fx="136.19"
       fy="83.773003"
       r="17.684999"
       gradientTransform="matrix(-0.9998,0.0208,-0.0166,-0.7998,248.8769,148.1393)"
       gradientUnits="userSpaceOnUse"
       class="svga-on-canvas-eyesfront-gradient-right-3">
      <stop
         id="SvgjsStop7404"
         stop-opacity="1"
         stop-color="#e1ac8f"
         offset="0" />
      <stop
         id="SvgjsStop7405"
         stop-opacity="0.3"
         stop-color="#e1ac8f"
         offset="0.7" />
      <stop
         id="SvgjsStop7406"
         stop-opacity="0"
         stop-color="#f0c7b1"
         offset="1" />
    </radialGradient>
    <radialGradient
       id="SvgjsRadialGradient7408"
       cx="122.636"
       cy="100.958"
       r="25.823999"
       gradientTransform="matrix(0.8746,-0.4848,0.3636,0.656,-21.3328,94.1879)"
       gradientUnits="userSpaceOnUse"
       class="svga-on-canvas-eyesfront-gradient-right-4">
      <stop
         id="SvgjsStop7409"
         stop-opacity="0"
         stop-color="#000000"
         offset="0.94" />
      <stop
         id="SvgjsStop7410"
         stop-opacity="0.2"
         stop-color="#000000"
         offset="1" />
    </radialGradient>
  </defs>
</svg>
